<svg xmlns="http://www.w3.org/2000/svg" width="127.752" height="50.16" viewBox="0 0 127.752 50.16">
  <g id="text" transform="translate(-734.992 -1001.84)">
    <path id="パス_17300" data-name="パス 17300" d="M-44.856-5.16a26.424,26.424,0,0,1-3.192,2.184,9.3,9.3,0,0,1-1.68-2.184Zm-8.3-3.96h4.272v2.088H-53.16Zm0-3.816h4.272v1.92H-53.16Zm-6.048-4.2h13.584v2.28H-59.208ZM-44.736-5.16h2.688V-7.032H-46.8V-9.12h3.768v-1.9H-46.8v-1.92h3.408v-6.12H-61.44v7.008c0,3.816-.192,9.12-2.568,12.816A9.409,9.409,0,0,1-62.04,1.92c2.5-3.888,2.832-9.864,2.832-13.968v-.888H-55.2v1.92h-3.336v1.9H-55.2v2.088h-4.032V-5.16h2.784V-.84c-.96.144-1.848.264-2.616.36l.336,2.04c2.5-.384,5.88-.936,9.072-1.464l-.072-1.944c-1.584.24-3.168.5-4.656.72V-5.16h2.544A12.293,12.293,0,0,0-43.1,1.92,7.087,7.087,0,0,1-41.784.1a13.732,13.732,0,0,1-4.872-1.944,27.061,27.061,0,0,0,3.528-2.208Zm26.712-13.3H-34.776v2.208h16.752ZM-33.072-8.448a17.623,17.623,0,0,1-4.488,6.84A17.958,17.958,0,0,1-35.5-.264a23.817,23.817,0,0,0,4.752-7.56Zm10.9.864a29.031,29.031,0,0,1,3.96,7.368l2.28-1.008a31.183,31.183,0,0,0-4.152-7.248ZM-36.912-12.72v2.208h9.36V-.888c0,.36-.144.456-.6.48-.432.024-2.064,0-3.552-.048A10.861,10.861,0,0,1-30.912,1.9,14.476,14.476,0,0,0-26.4,1.488c.96-.336,1.272-1.008,1.272-2.328v-9.672h9.264V-12.72ZM7.3-16.32H.288v-1.56H7.3Zm0,3.1H.288v-1.584H7.3ZM9.36-19.488H-1.728v7.872H9.36ZM-3.792-7.7C-4.536-7.368-5.28-7.032-6-6.7v-6.24h2.424v-2.112H-6V-19.9H-8.064v4.848H-10.7v2.112h2.64v7.152c-1.176.5-2.256.96-3.12,1.3l.864,2.232c2.016-.96,4.608-2.256,7.008-3.48ZM11.04-8.568v-1.9h-15v1.9H-.888A12.883,12.883,0,0,1-5.424-4.152,12.093,12.093,0,0,1-3.912-2.76,16.3,16.3,0,0,0-.96-5.328H1.056A15.533,15.533,0,0,1-4.128-.408,6.192,6.192,0,0,1-2.64.936,18.444,18.444,0,0,0,3.072-5.328h1.9A13.92,13.92,0,0,1,.408.72,7.163,7.163,0,0,1,2.016,1.968a16.587,16.587,0,0,0,4.824-7.3H8.28c-.288,3.384-.6,4.752-.96,5.16C7.128.072,6.936.1,6.576.1A16.04,16.04,0,0,1,4.7,0a4.409,4.409,0,0,1,.5,1.8,18.9,18.9,0,0,0,2.4-.024A2.087,2.087,0,0,0,9.048,1.1C9.7.384,10.056-1.488,10.44-6.288c.024-.288.048-.84.048-.84H.456a11.048,11.048,0,0,0,.888-1.44Zm4.488-2.016v2.448h21.84v-2.448Zm48.048-5.448v-1.752H56.784a18.19,18.19,0,0,0,.672-1.92l-1.992-.456a14.55,14.55,0,0,1-2.976,5.64,13,13,0,0,1,1.752,1.152,13.482,13.482,0,0,0,1.752-2.664Zm-.648,4.344V-13.44H55.056v1.752Zm-17.88-1.7h2.136v1.1H45.048ZM47.184-18v.984H45.048V-18Zm3.168,3.336h-5.3v-1.08h5.3Zm2.736,2.376h-4.1v-1.1H52.3v-3.624H48.984V-18h3.768v-1.32H43.008v8.376h10.08ZM47.52-4.536H58.008V-3.5H47.52Zm0-2.208H58.008v1.008H47.52Zm0-2.208H58.008v1.008H47.52ZM57.456-.12c-1.032,0-1.2-.072-1.2-.648V-2.232h3.936v-7.944H45.408v7.944h3.264C48-.768,46.392-.12,41.856.216a5.26,5.26,0,0,1,.96,1.7c5.4-.552,7.344-1.728,8.112-4.152h3.144V-.744c0,1.872.624,2.376,3.144,2.376h3.768c1.92,0,2.544-.6,2.76-3.144a7.385,7.385,0,0,1-1.9-.7c-.1,1.824-.24,2.088-1.08,2.088Z" transform="translate(799 1022)" fill="#0f0f0f"/>
    <line id="線_7665" data-name="線 7665" x2="60" transform="translate(770 1051.5)" fill="none" stroke="#000" stroke-width="1"/>
  </g>
</svg>
