<svg xmlns="http://www.w3.org/2000/svg" width="117.106" height="48.48" viewBox="0 0 117.106 48.48">
  <g id="text" transform="translate(-740.326 -1003.52)">
    <path id="パス_17301" data-name="パス 17301" d="M-41.118-4.73a24.222,24.222,0,0,1-2.926,2,8.525,8.525,0,0,1-1.54-2ZM-48.73-8.36h3.916v1.914H-48.73Zm0-3.5h3.916v1.76H-48.73Zm-5.544-3.85h12.452v2.09H-54.274ZM-41.008-4.73h2.464V-6.446H-42.9V-8.36h3.454V-10.1H-42.9v-1.76h3.124v-5.61H-56.32v6.424c0,3.5-.176,8.36-2.354,11.748a8.625,8.625,0,0,1,1.8,1.056c2.288-3.564,2.6-9.042,2.6-12.8v-.814H-50.6v1.76h-3.058V-8.36H-50.6v1.914h-3.7V-4.73h2.552V-.77c-.88.132-1.694.242-2.4.33l.308,1.87c2.288-.352,5.39-.858,8.316-1.342l-.066-1.782c-1.452.22-2.9.462-4.268.66v-3.7h2.332a11.269,11.269,0,0,0,8.008,6.49A6.5,6.5,0,0,1-38.3.088a12.587,12.587,0,0,1-4.466-1.782,24.806,24.806,0,0,0,3.234-2.024Zm24.486-12.188H-31.878v2.024h15.356ZM-30.316-7.744a16.154,16.154,0,0,1-4.114,6.27A16.461,16.461,0,0,1-32.538-.242a21.832,21.832,0,0,0,4.356-6.93Zm9.988.792A26.612,26.612,0,0,1-16.7-.2l2.09-.924a28.584,28.584,0,0,0-3.806-6.644ZM-33.836-11.66v2.024h8.58V-.814c0,.33-.132.418-.55.44-.4.022-1.892,0-3.256-.044a9.956,9.956,0,0,1,.726,2.156A13.27,13.27,0,0,0-24.2,1.364c.88-.308,1.166-.924,1.166-2.134V-9.636h8.492V-11.66Zm40.524-3.3H.264v-1.43H6.688Zm0,2.838H.264v-1.452H6.688ZM8.58-17.864H-1.584v7.216H8.58ZM-3.476-7.062c-.682.308-1.364.616-2.024.924v-5.72h2.222v-1.936H-5.5v-4.444H-7.392v4.444h-2.42v1.936h2.42V-5.3c-1.078.462-2.068.88-2.86,1.188l.792,2.046c1.848-.88,4.224-2.068,6.424-3.19Zm13.6-.792V-9.592H-3.63v1.738H-.814A11.81,11.81,0,0,1-4.972-3.806,11.085,11.085,0,0,1-3.586-2.53,14.937,14.937,0,0,0-.88-4.884H.968A14.239,14.239,0,0,1-3.784-.374,5.676,5.676,0,0,1-2.42.858,16.907,16.907,0,0,0,2.816-4.884H4.554A12.76,12.76,0,0,1,.374.66,6.566,6.566,0,0,1,1.848,1.8,15.2,15.2,0,0,0,6.27-4.884H7.59c-.264,3.1-.55,4.356-.88,4.73-.176.22-.352.242-.682.242A14.7,14.7,0,0,1,4.312,0a4.042,4.042,0,0,1,.462,1.65,17.322,17.322,0,0,0,2.2-.022,1.913,1.913,0,0,0,1.32-.616c.594-.66.924-2.376,1.276-6.776.022-.264.044-.77.044-.77H.418a10.128,10.128,0,0,0,.814-1.32ZM14.234-9.7v2.244h20.02V-9.7ZM58.278-14.7V-16.3H52.052a16.674,16.674,0,0,0,.616-1.76l-1.826-.418a13.338,13.338,0,0,1-2.728,5.17,11.916,11.916,0,0,1,1.606,1.056A12.358,12.358,0,0,0,51.326-14.7Zm-.594,3.982V-12.32H50.468v1.606Zm-16.39-1.562h1.958v1.012H41.294ZM43.252-16.5v.9H41.294v-.9Zm2.9,3.058H41.294v-.99h4.862Zm2.508,2.178H44.9v-1.012h3.036V-15.6H44.9v-.9h3.454v-1.21H39.424v7.678h9.24Zm-5.1,7.106h9.614v.946H43.56Zm0-2.024h9.614v.924H43.56Zm0-2.024h9.614v.924H43.56Zm9.108,8.1c-.946,0-1.1-.066-1.1-.594V-2.046h3.608V-9.328H41.624v7.282h2.992C44-.7,42.526-.11,38.368.2a4.822,4.822,0,0,1,.88,1.562C44.2,1.254,45.98.176,46.684-2.046h2.882V-.682c0,1.716.572,2.178,2.882,2.178H55.9c1.76,0,2.332-.55,2.53-2.882a6.77,6.77,0,0,1-1.738-.638C56.606-.352,56.474-.11,55.7-.11Z" transform="translate(799 1022)" fill="#0f0f0f"/>
    <line id="線_7665" data-name="線 7665" x2="60" transform="translate(770 1051.5)" fill="none" stroke="#000" stroke-width="1"/>
  </g>
</svg>
