<svg xmlns="http://www.w3.org/2000/svg" width="95.064" height="48.936" viewBox="0 0 95.064 48.936">
  <g id="text" transform="translate(-752.032 -1003.064)">
    <path id="パス_17307" data-name="パス 17307" d="M-46.968,0H-36.72V-2.352h-7.464V-17.664h-2.784ZM-31.44,0H-28.7V-13.2H-31.44Zm1.368-15.672A1.656,1.656,0,0,0-28.3-17.3a1.642,1.642,0,0,0-1.776-1.632A1.622,1.622,0,0,0-31.824-17.3,1.635,1.635,0,0,0-30.072-15.672ZM-22.152,0h2.736V-9.36c1.176-1.176,2.016-1.8,3.24-1.8,1.56,0,2.232.912,2.232,3.192V0h2.76V-8.3c0-3.36-1.248-5.232-4.056-5.232a6.29,6.29,0,0,0-4.368,2.16h-.072L-19.9-13.2h-2.256ZM.72.312A8.008,8.008,0,0,0,5.184-1.08l-.96-1.752a5.6,5.6,0,0,1-3.144.984C-1.2-1.848-2.784-3.36-3-5.88H5.568a7.134,7.134,0,0,0,.12-1.392c0-3.744-1.872-6.264-5.376-6.264-3.1,0-6.024,2.664-6.024,6.96C-5.712-2.232-2.856.312.72.312ZM-3.024-7.776c.264-2.328,1.728-3.6,3.384-3.6,1.92,0,2.952,1.32,2.952,3.6ZM22.848.312a5.534,5.534,0,0,0,4.32-2.3h.072L27.456,0h2.256V-13.2h-2.76v9.168c-1.1,1.392-1.944,1.968-3.168,1.968-1.56,0-2.208-.888-2.208-3.168V-13.2h-2.76v8.3C18.816-1.536,20.04.312,22.848.312Zm13.416,5.04H39V1.08l-.072-2.256A5.444,5.444,0,0,0,42.408.312C45.384.312,48.1-2.28,48.1-6.816c0-4.056-1.872-6.72-5.232-6.72a6.692,6.692,0,0,0-4.056,1.776h-.072L38.52-13.2H36.264Zm5.616-7.32A4.473,4.473,0,0,1,39-3.168V-9.624a4.638,4.638,0,0,1,3.144-1.608c2.208,0,3.1,1.7,3.1,4.464C45.24-3.672,43.8-1.968,41.88-1.968Z" transform="translate(799 1022)" fill="#0f0f0f"/>
    <line id="線_7665" data-name="線 7665" x2="60" transform="translate(770 1051.5)" fill="none" stroke="#000" stroke-width="1"/>
  </g>
</svg>
