<svg xmlns="http://www.w3.org/2000/svg" width="79.728" height="48" viewBox="0 0 79.728 48">
  <g id="text" transform="translate(-759.616 -1004)">
    <path id="パス_17309" data-name="パス 17309" d="M-39.384,0h2.5V-8.736c0-1.584-.216-3.864-.336-5.472h.1l1.392,4.08,3.1,8.424h1.728l3.072-8.424,1.416-4.08h.1c-.144,1.608-.36,3.888-.36,5.472V0H-24.1V-17.664h-3.216L-30.5-8.736c-.408,1.176-.744,2.376-1.152,3.576h-.12c-.408-1.2-.768-2.4-1.176-3.576l-3.24-8.928h-3.192Zm29.04.312c4.536,0,7.7-3.528,7.7-9.216s-3.168-9.1-7.7-9.1-7.68,3.408-7.68,9.1S-14.88.312-10.344.312Zm0-2.424c-2.928,0-4.824-2.64-4.824-6.792s1.9-6.672,4.824-6.672S-5.5-13.056-5.5-8.9-7.416-2.112-10.344-2.112ZM6.336,0H9.624l5.52-17.664H12.312L9.7-8.52C9.12-6.5,8.688-4.776,8.088-2.736h-.12C7.344-4.776,6.96-6.5,6.36-8.52L3.744-17.664H.792ZM19.824,0h2.784V-17.664H19.824ZM29.64,0h10.7V-2.352h-7.92V-8.064H38.9v-2.352h-6.48v-4.92H40.08v-2.328H29.64Z" transform="translate(799 1022)" fill="#0f0f0f"/>
    <line id="線_7665" data-name="線 7665" x2="60" transform="translate(770 1051.5)" fill="none" stroke="#000" stroke-width="1"/>
  </g>
</svg>
