<svg xmlns="http://www.w3.org/2000/svg" width="465.432" height="50.232" viewBox="0 0 465.432 50.232">
  <g id="text" transform="translate(-566.176 -1001.768)">
    <path id="パス_17308" data-name="パス 17308" d="M-223.2-19.488c-.168,3.168-.024,14.3-9.624,19.416a7.639,7.639,0,0,1,1.848,1.752c5.568-3.192,8.088-8.376,9.24-12.96,1.248,4.632,3.912,10.128,9.72,12.936a7.23,7.23,0,0,1,1.7-1.872c-8.976-4.128-10.224-14.9-10.44-18.1.048-.432.048-.84.072-1.176Zm29.16,18.48v-5.52h7.464V-8.664h-7.464v-4.8h8.352v-2.184h-8.352v-4.464h-2.3v4.464h-4.344c.456-1.152.888-2.376,1.248-3.6l-2.3-.528a20.719,20.719,0,0,1-4.344,8.688,14.293,14.293,0,0,1,2.04,1.344,20.72,20.72,0,0,0,2.376-3.72h5.328v4.8h-6.84v2.136h6.84v5.52h-9.5v2.16h21.312v-2.16ZM-178.776,0h10.08V-2.28h-3.456V-17.664h-2.088a10.851,10.851,0,0,1-3.84,1.344v1.752h3.168V-2.28h-3.864Zm20.856.312c3.456,0,5.712-3.072,5.712-9.216,0-6.1-2.256-9.1-5.712-9.1-3.48,0-5.712,2.976-5.712,9.1C-163.632-2.76-161.4.312-157.92.312Zm0-2.184c-1.8,0-3.072-1.92-3.072-7.032,0-5.064,1.272-6.912,3.072-6.912s3.072,1.848,3.072,6.912C-154.848-3.792-156.12-1.872-157.92-1.872ZM-141.84.312c3.456,0,5.712-3.072,5.712-9.216,0-6.1-2.256-9.1-5.712-9.1-3.48,0-5.712,2.976-5.712,9.1C-147.552-2.76-145.32.312-141.84.312Zm0-2.184c-1.8,0-3.072-1.92-3.072-7.032,0-5.064,1.272-6.912,3.072-6.912s3.072,1.848,3.072,6.912C-138.768-3.792-140.04-1.872-141.84-1.872Zm16.512-3.7V-9.816h4.824v4.248Zm15.552,0H-118.2V-9.816h6.7V-11.9h-6.7v-3.312h7.248v-2.16h-13.9c.312-.72.648-1.512.936-2.256l-2.256-.6A19.418,19.418,0,0,1-131.4-12.1a17.748,17.748,0,0,1,1.944,1.44A21.835,21.835,0,0,0-126-15.216h5.5V-11.9h-7.056v6.336h-3.864v2.16h10.92V1.9h2.3v-5.3h8.424Zm10.344-11.04v4.824h-2.88v-4.824Zm-2.88,11.856V-9.816h2.88v5.064Zm4.992-13.872h-7.056V-.744h2.064V-2.76h4.992Zm1.728,13.752a17.8,17.8,0,0,1,2.9,4.1l1.9-1.152a17.676,17.676,0,0,0-3-3.984Zm12.456-6V-12.84h-5.832v-2.64h4.944v-1.944h-4.944V-20.16H-91.2v2.736H-96v1.944h4.8v2.64h-5.712v1.968H-88.1v2.4H-96.84V-6.5H-88.1V-.648c0,.336-.12.432-.5.456-.36,0-1.68,0-3.024-.048a8.309,8.309,0,0,1,.72,2.088,11.8,11.8,0,0,0,3.936-.36C-86.184,1.152-85.92.552-85.92-.6V-6.5h2.568V-8.472H-85.92v-2.4Zm25.8-5.064a22.994,22.994,0,0,0-3.72-3.84l-1.656,1.056a22.973,22.973,0,0,1,3.6,3.96ZM-72.528-19.92A26.361,26.361,0,0,1-79.3-10.368a12.992,12.992,0,0,1,1.272,2.232,24.359,24.359,0,0,0,2.88-3.144V1.848h2.3V-14.568a35.757,35.757,0,0,0,2.424-4.656Zm15.6,8.088-.288-2.088-7.032.888c-.192-2.064-.312-4.344-.384-6.744h-2.256q.144,3.78.432,7.056l-5.376.672.336,2.112,5.256-.672c.912,7.368,2.784,12.12,6.792,12.456,1.272.072,2.376-1.1,2.928-5.448a6.846,6.846,0,0,1-1.848-1.224c-.216,2.712-.576,4.032-1.176,4.008-2.28-.264-3.72-4.224-4.488-10.1Zm10.056,8.04c-.96,0-2.184-1.248-2.184-3.984a7.967,7.967,0,0,1,6.768-7.344A32.929,32.929,0,0,1-43.584-9C-44.688-5.328-45.84-3.792-46.872-3.792ZM-40.488.792c5.808-.816,9-4.272,9-9.24,0-4.992-3.624-8.976-9.336-8.976-5.952,0-10.632,4.584-10.632,9.864,0,3.96,2.16,6.624,4.512,6.624,2.376,0,4.344-2.712,5.784-7.56a54.394,54.394,0,0,0,1.416-6.672,6.286,6.286,0,0,1,5.712,6.624c0,3.84-2.712,6.048-5.76,6.744a13.459,13.459,0,0,1-2.112.336ZM-18-8.352l.312-.1A14.3,14.3,0,0,0-19.1-11.424h8.112A22.768,22.768,0,0,1-12.48-8.352Zm13.776-3.072v-1.992h-9.7v-2.352h7.272v-1.944H-13.92v-2.352h-2.3v2.352h-7.032v1.944h7.032v2.352h-9.5v1.992h5.112l-.7.192a16.264,16.264,0,0,1,1.344,2.88H-25.1v1.968h8.88v2.448h-7.584v1.992h7.584V1.9h2.3v-3.84H-6V-3.936h-7.92V-6.384h9.048V-8.352h-5.352c.6-.888,1.3-2.016,1.944-3.072Zm19.032-7.152a15.451,15.451,0,0,1,.168,1.944v3.072c-2.376.216-4.944.456-7.128.672.024-1.128.024-2.136.024-2.808a18.836,18.836,0,0,1,.12-2.16H5.352a17.617,17.617,0,0,1,.144,2.28v2.9c-.984.1-1.776.168-2.3.216-.984.1-1.968.144-2.688.144L.768-9.888c.624-.1,1.848-.264,2.592-.36.528-.072,1.248-.144,2.136-.24,0,2.328,0,4.752.024,5.76.1,3.912.72,5.208,6.5,5.208C14.376.48,17.28.264,18.888.1l.072-2.568a47.074,47.074,0,0,1-7.08.576c-3.864,0-3.96-.744-4.032-3.192-.048-.96-.024-3.312,0-5.64,2.208-.216,4.8-.48,7.08-.648a29.059,29.059,0,0,1-.216,3.432c-.072.5-.312.576-.84.576a15.923,15.923,0,0,1-2.28-.288l-.048,2.088a27.98,27.98,0,0,0,3.312.36c1.152,0,1.7-.312,1.92-1.44a36.077,36.077,0,0,0,.36-4.9c.888-.072,1.68-.1,2.3-.12.6,0,1.656-.048,2.04-.024V-14.04c-.6.072-1.392.12-2.04.144-.672.048-1.44.1-2.256.168.024-.936.048-1.968.072-2.976a13.879,13.879,0,0,1,.12-1.872ZM40.344-3.336c-.024-1.128-.072-3.024-.1-4.368C41.9-8.472,43.44-9.12,44.664-9.576c.72-.288,1.752-.672,2.4-.864l-.936-2.208c-.768.384-1.464.7-2.256,1.056-1.128.5-2.352,1.008-3.816,1.7A3.129,3.129,0,0,0,36.888-11.9a7,7,0,0,0-3.024.7,17.351,17.351,0,0,0,1.8-3.1,72.642,72.642,0,0,0,7.824-.648V-17.16a54.951,54.951,0,0,1-7.032.7c.336-1.032.528-1.944.672-2.568l-2.472-.192a14.33,14.33,0,0,1-.552,2.856H32.712a34.857,34.857,0,0,1-4.08-.264V-14.4c1.32.1,2.976.144,3.96.144h.7A24.749,24.749,0,0,1,27.912-7.32l2.04,1.536a25.56,25.56,0,0,1,2.184-2.544,6.038,6.038,0,0,1,3.936-1.7,1.852,1.852,0,0,1,1.92,1.176C35.256-7.464,32.4-5.616,32.4-2.688c0,2.952,2.76,3.768,6.312,3.768a60.463,60.463,0,0,0,6.6-.408l.072-2.424a40.022,40.022,0,0,1-6.6.624c-2.4,0-3.936-.312-3.936-1.944,0-1.392,1.272-2.472,3.288-3.6,0,1.176-.024,2.52-.1,3.336Zm22.032-9.7a10.663,10.663,0,0,1,.144,1.92c0,3.984-.552,7.008-3.984,9.216a9.112,9.112,0,0,1-2.3,1.176l2.208,1.8c6.312-3.24,6.672-7.848,6.672-14.112ZM73.3-17.64a12.422,12.422,0,0,1-2.016.168H57.864a21.459,21.459,0,0,1-2.808-.216v2.664c1.032-.072,1.872-.144,2.808-.144H71.04a14.921,14.921,0,0,1-4.9,4.968l1.992,1.608a23.767,23.767,0,0,0,5.88-6.624c.192-.288.576-.744.792-1.008ZM84.936-18.7l-1.368,2.064c1.488.84,4.056,2.544,5.28,3.432l1.416-2.064C89.136-16.08,86.424-17.856,84.936-18.7ZM80.976-1.584,82.392.888A28.12,28.12,0,0,0,90.36-2.088a28.246,28.246,0,0,0,9.36-8.592l-1.44-2.544a24.685,24.685,0,0,1-9.192,8.9A26.356,26.356,0,0,1,80.976-1.584Zm.312-11.664L79.92-11.184a60.065,60.065,0,0,1,5.352,3.36L86.664-9.96C85.536-10.752,82.8-12.432,81.288-13.248ZM122.04-17.3a7.28,7.28,0,0,1-2.088.24h-8.9a25.678,25.678,0,0,1-2.616-.168v2.712c.384-.024,1.68-.144,2.616-.144h8.808a19.745,19.745,0,0,1-3.816,6.336A26.967,26.967,0,0,1,106.176-1.3L108.12.72a30.715,30.715,0,0,0,9.24-6.888A51.911,51.911,0,0,1,123.7.84l2.136-1.872a63.791,63.791,0,0,0-6.864-7.032A32.849,32.849,0,0,0,122.9-14.9a8.284,8.284,0,0,1,.7-1.248ZM151.008-8.5a82.82,82.82,0,0,0-10.152-3.84V-16.08c0-.84.1-1.9.168-2.688h-2.952a17.374,17.374,0,0,1,.216,2.688V-2.208A25.125,25.125,0,0,1,138.1.864h2.952a28.121,28.121,0,0,1-.192-3.072V-9.624a63.982,63.982,0,0,1,9.072,3.744Zm15.192.552a2.133,2.133,0,0,1,2.136-2.232,1.941,1.941,0,0,1,1.848,1.1c.312,2.256-.6,3.24-1.824,3.24A2.066,2.066,0,0,1,166.2-7.944Zm12.888-8.232h-7.1c0-.48,0-.888.024-1.176,0-.336.072-1.416.12-1.728h-2.736c.072.336.144,1.128.192,1.728.024.264.024.7.048,1.2-3.384.048-7.8.192-10.488.216l.072,2.3c2.952-.192,6.84-.336,10.44-.384L169.68-12a4.626,4.626,0,0,0-1.32-.168A4.3,4.3,0,0,0,163.92-7.9a4,4,0,0,0,4.008,4.152,4,4,0,0,0,1.656-.336c-1.152,1.776-3.336,2.808-6.12,3.432l2.04,2.016c5.64-1.632,7.32-5.352,7.32-8.52a5.826,5.826,0,0,0-.84-3.168c0-1.056,0-2.448-.024-3.72,3.456,0,5.688.048,7.1.12Zm16.056,15.1c-1.608,0-2.832-.648-2.832-1.68,0-.744.72-1.32,1.7-1.32,1.584,0,2.616,1.152,2.808,2.9A12.424,12.424,0,0,1,195.144-1.08Zm5.016-17.208a8.4,8.4,0,0,1-1.512.24c-1.3.12-6.672.264-7.92.264a17.115,17.115,0,0,1-1.9-.12l.072,2.472c.528-.072,1.152-.12,1.752-.168,1.248-.072,5.3-.24,6.552-.288-1.2,1.032-3.936,3.312-5.256,4.416-1.392,1.152-4.368,3.648-6.216,5.16l1.752,1.776c2.808-2.976,5.064-4.752,8.856-4.752,2.9,0,5.16,1.584,5.16,3.816a3.882,3.882,0,0,1-2.5,3.72,4.751,4.751,0,0,0-4.992-4.176,3.671,3.671,0,0,0-3.936,3.384c0,2.136,2.208,3.624,5.5,3.624,5.328,0,8.376-2.712,8.376-6.528,0-3.312-2.952-5.76-6.936-5.76a8.845,8.845,0,0,0-2.808.408c1.68-1.392,4.56-3.912,5.784-4.776.432-.312.984-.672,1.464-.984Zm13.776,2.208h15.456v2.952h2.256V-18.12h-8.88v-2.016h-2.3v2.016h-8.736v4.992h2.208Zm15.816,4.464a31.191,31.191,0,0,1-3.864,2.928,22.739,22.739,0,0,1-1.272-3.456h3.528v-1.92H215.016v1.92h4.416a28.732,28.732,0,0,1-7.872,2.928,11.006,11.006,0,0,1,1.176,1.728,35.827,35.827,0,0,0,5.784-2.136,7.453,7.453,0,0,1,.888.84A25.924,25.924,0,0,1,211.8-5.352a7.917,7.917,0,0,1,1.128,1.728A36.239,36.239,0,0,0,220.44-7.44q.36.612.648,1.224a26.968,26.968,0,0,1-10.128,5.16A10.888,10.888,0,0,1,212.136.792,34.824,34.824,0,0,0,221.688-4.3c.288,1.7-.072,3.144-.792,3.672a2.062,2.062,0,0,1-1.584.48,20.529,20.529,0,0,1-2.232-.12,5.387,5.387,0,0,1,.624,2.136c.744.048,1.464.072,2.064.072a3.766,3.766,0,0,0,2.688-.888c2.328-1.68,2.424-7.7-2.112-11.664a15,15,0,0,0,2.208-1.536h.048c1.44,5.616,4.032,10.1,8.448,12.24a8.172,8.172,0,0,1,1.56-1.944,12.29,12.29,0,0,1-5.784-5.16,36.9,36.9,0,0,0,4.68-3.12Z" transform="translate(799 1022)" fill="#0f0f0f"/>
    <line id="線_7665" data-name="線 7665" x2="60" transform="translate(770 1051.5)" fill="none" stroke="#000" stroke-width="1"/>
  </g>
</svg>
