<svg xmlns="http://www.w3.org/2000/svg" width="402.36" height="50.184" viewBox="0 0 402.36 50.184">
  <g id="text" transform="translate(-590.68 -1001.816)">
    <path id="パス_17311" data-name="パス 17311" d="M-205.344-16.08h15.456v2.952h2.256V-18.12h-8.88v-2.016h-2.3v2.016h-8.736v4.992h2.208Zm15.816,4.464a31.191,31.191,0,0,1-3.864,2.928,22.739,22.739,0,0,1-1.272-3.456h3.528v-1.92h-13.128v1.92h4.416a28.732,28.732,0,0,1-7.872,2.928,11.006,11.006,0,0,1,1.176,1.728,35.827,35.827,0,0,0,5.784-2.136,7.453,7.453,0,0,1,.888.84,25.924,25.924,0,0,1-7.608,3.432,7.917,7.917,0,0,1,1.128,1.728A36.239,36.239,0,0,0-198.84-7.44q.36.612.648,1.224a26.968,26.968,0,0,1-10.128,5.16A10.888,10.888,0,0,1-207.144.792,34.824,34.824,0,0,0-197.592-4.3c.288,1.7-.072,3.144-.792,3.672a2.062,2.062,0,0,1-1.584.48,20.529,20.529,0,0,1-2.232-.12,5.387,5.387,0,0,1,.624,2.136c.744.048,1.464.072,2.064.072a3.766,3.766,0,0,0,2.688-.888c2.328-1.68,2.424-7.7-2.112-11.664a15,15,0,0,0,2.208-1.536h.048c1.44,5.616,4.032,10.1,8.448,12.24a8.172,8.172,0,0,1,1.56-1.944,12.29,12.29,0,0,1-5.784-5.16,36.9,36.9,0,0,0,4.68-3.12Zm11.928.48c.048-.984.072-1.992.1-3h4.776a8.256,8.256,0,0,1-.72.84,10.353,10.353,0,0,1,1.752,1.224,16.83,16.83,0,0,0,2.04-3.048h9.168v-2.04h-8.184a22.864,22.864,0,0,0,.912-2.544l-2.016-.48a18.851,18.851,0,0,1-2.592,5.568v-1.608H-175.8v-3.888h-2.16v3.888h-4.176v2.088h2.52c-.1,5.64-.36,11.256-2.856,14.52a6.876,6.876,0,0,1,1.584,1.536c2.064-2.688,2.856-6.648,3.168-11.016h2.688c-.24,5.952-.5,8.136-.936,8.688a.735.735,0,0,1-.72.312c-.36,0-1.1,0-1.968-.072a4.839,4.839,0,0,1,.576,2.04,12.776,12.776,0,0,0,2.424-.048A1.92,1.92,0,0,0-174.144.96c.672-.864.96-3.576,1.224-11.136.024-.288.024-.96.024-.96Zm17.16,5.88V-7.272h-4.632V-10.32h4.224v-1.992h-7.08c.24-.648.432-1.3.624-1.944l-2.064-.48A13.808,13.808,0,0,1-172.032-9a11.046,11.046,0,0,1,1.752,1.152,14.031,14.031,0,0,0,1.488-2.472h1.608v3.048h-4.872v2.016h4.608c-.456,1.92-1.776,4.032-5.352,5.616a8.511,8.511,0,0,1,1.44,1.512,10.862,10.862,0,0,0,5.448-5.208,10.355,10.355,0,0,0,4.656,5.208,6.871,6.871,0,0,1,1.392-1.7,9.144,9.144,0,0,1-4.9-5.424Zm10.128,1.464c-.96,0-2.184-1.248-2.184-3.984a7.967,7.967,0,0,1,6.768-7.344,32.929,32.929,0,0,1-1.3,6.12C-148.128-5.328-149.28-3.792-150.312-3.792Zm6.384,4.584c5.808-.816,9-4.272,9-9.24,0-4.992-3.624-8.976-9.336-8.976-5.952,0-10.632,4.584-10.632,9.864,0,3.96,2.16,6.624,4.512,6.624,2.376,0,4.344-2.712,5.784-7.56a54.4,54.4,0,0,0,1.416-6.672,6.286,6.286,0,0,1,5.712,6.624c0,3.84-2.712,6.048-5.76,6.744a13.459,13.459,0,0,1-2.112.336Zm33.408-17.256v1.512h-2.256v-1.512Zm0,4.7h-2.256V-13.3h2.256Zm-4.272-3.192h-4.848V-13.3h4.848v1.536h-3.264V-10.1h3.264v1.536h-3.624v1.656h3.624v1.56h-4.272v1.68h4.272v2.5h2.016v-2.5h5.04v-1.68h-5.04v-1.56h4.392V-8.568h-4.392V-10.1h4.176V-13.3h1.32v-1.656h-1.32V-18.12h-4.176v-1.848h-2.016v1.848h-3.264v1.656h3.264Zm-10.3-.1c.432-.96.84-1.968,1.2-2.976v1.656h2.256c-.84,2.088-2.016,4.9-3.048,7.056l1.848.432.48-1.056h1.656a23.993,23.993,0,0,1-1.08,4.992,17.472,17.472,0,0,1-.96-3.24l-1.728.5a18.662,18.662,0,0,0,1.728,4.944,8.64,8.64,0,0,1-2.352,2.88Zm5.232,3.408-.36.048h-1.392c.96-2.184,1.92-4.512,2.592-6.312l-1.392-.408-.336.12h-3.1c.168-.432.288-.84.432-1.272l-1.992-.576a25.317,25.317,0,0,1-4.512,8.952,17.669,17.669,0,0,1,1.056,2.328,20.46,20.46,0,0,0,1.776-2.472V1.848h1.992V.216a7.71,7.71,0,0,1,1.224,1.608,10.4,10.4,0,0,0,2.424-2.76c1.824,1.9,4.272,2.448,7.536,2.448h6a7.409,7.409,0,0,1,.744-2.04c-1.152.024-5.736.024-6.648.024-2.856,0-5.088-.5-6.672-2.328a27.357,27.357,0,0,0,1.8-8.592ZM-93-3.12c-2.352.912-4.752,1.8-6.36,2.328L-98.3.984c1.68-.7,3.72-1.608,5.664-2.448Zm-5.208-2.256a21.2,21.2,0,0,1,3.432,2.448l1.32-1.344A21.119,21.119,0,0,0-96.96-6.6ZM-89.52-9.84h4.1v1.56h-4.1Zm0-3.072h4.1v1.464h-4.1ZM-83.28-6.7V-9.84h2.256v-1.608H-83.28V-14.5h-6.24v-1.56h8.208v-1.968h-8.856v-2.112H-92.5v2.112h-8.688v6.96c0,3.5-.168,8.4-2.064,11.832a8.713,8.713,0,0,1,1.8,1.2c2.064-3.648,2.4-9.24,2.4-13.032v-4.992h7.392v1.56h-5.328v1.584h5.328v1.464H-98.52V-9.84h6.864v1.56h-5.568V-6.7h5.568V-.48c0,.384-.144.5-.552.5-.408.024-1.824.048-3.216-.024a8.092,8.092,0,0,1,.7,1.92,13.545,13.545,0,0,0,4.1-.336c.816-.288,1.1-.84,1.1-2.064V-4.008a12.278,12.278,0,0,0,6.672,5.64,8.3,8.3,0,0,1,1.368-1.8,11.031,11.031,0,0,1-4.656-2.568,38.713,38.713,0,0,0,3.96-2.4l-1.68-1.32a25.92,25.92,0,0,1-3.432,2.472A10.653,10.653,0,0,1-88.9-6.7ZM-63.1-3.336c-.024-1.128-.072-3.024-.1-4.368C-61.536-8.472-60-9.12-58.776-9.576c.72-.288,1.752-.672,2.4-.864l-.936-2.208c-.768.384-1.464.7-2.256,1.056-1.128.5-2.352,1.008-3.816,1.7A3.129,3.129,0,0,0-66.552-11.9a7,7,0,0,0-3.024.7,17.351,17.351,0,0,0,1.8-3.1,72.642,72.642,0,0,0,7.824-.648V-17.16a54.951,54.951,0,0,1-7.032.7c.336-1.032.528-1.944.672-2.568l-2.472-.192a14.331,14.331,0,0,1-.552,2.856h-1.392a34.857,34.857,0,0,1-4.08-.264V-14.4c1.32.1,2.976.144,3.96.144h.7A24.749,24.749,0,0,1-75.528-7.32l2.04,1.536A25.56,25.56,0,0,1-71.3-8.328a6.038,6.038,0,0,1,3.936-1.7,1.852,1.852,0,0,1,1.92,1.176c-2.736,1.392-5.592,3.24-5.592,6.168,0,2.952,2.76,3.768,6.312,3.768a60.463,60.463,0,0,0,6.6-.408l.072-2.424a40.022,40.022,0,0,1-6.6.624c-2.4,0-3.936-.312-3.936-1.944,0-1.392,1.272-2.472,3.288-3.6,0,1.176-.024,2.52-.1,3.336ZM-42.84-.264a44.284,44.284,0,0,0-5.3-5.3L-50.112-3.84a43.806,43.806,0,0,1,5.232,5.3Zm24.48-19.824A25.822,25.822,0,0,1-24.312-10.9,21.177,21.177,0,0,1-23.088-8.64a28.073,28.073,0,0,0,2.352-2.784V1.824h2.112V-14.64a38.275,38.275,0,0,0,2.352-4.776ZM-8.232-1.032V-6.48h5.424V-8.592H-8.232v-4.752h6.12V-15.48H-7.8l1.056-1.176a33.08,33.08,0,0,0-5.328-3.528L-13.536-18.6A35.882,35.882,0,0,1-9-15.48h-7.584v2.136h6.1v4.752h-5.3V-6.48h5.3v5.448H-17.16V1.1H-1.752V-1.032ZM13.32-2.952c0,1.536-.984,1.92-2.328,1.92-2.04,0-2.928-.7-2.928-1.7,0-.984,1.08-1.752,3.1-1.752A12.4,12.4,0,0,1,13.3-4.3C13.32-3.744,13.32-3.288,13.32-2.952Zm9.048.744A18.922,18.922,0,0,0,15.576-5.88c-.072-1.032-.144-2.16-.168-3.24,2.28-.1,4.248-.24,6.456-.5L21.84-11.88c-2.04.288-4.128.5-6.48.624V-14.28c2.256-.1,4.248-.312,5.976-.48l-.024-2.184a57.686,57.686,0,0,1-5.928.6c0-.48.024-.912.024-1.176.024-.648.1-1.176.144-1.608H13.008a15.021,15.021,0,0,1,.1,1.512v1.344H11.88A36.1,36.1,0,0,1,6.5-16.728v2.184a47.786,47.786,0,0,0,5.4.36H13.08v3H11.856A40.629,40.629,0,0,1,6-11.64L5.976-9.384c1.656.192,4.344.312,5.856.312h1.3c.024.864.048,1.824.1,2.712-.576-.048-1.152-.1-1.752-.1-3.552,0-5.688,1.584-5.688,3.84,0,2.4,1.944,3.72,5.544,3.72,3.1,0,4.392-1.656,4.392-3.456,0-.336-.024-.744-.024-1.224A17.806,17.806,0,0,1,21-.12Zm11.4-14.664-2.9-.048a11.951,11.951,0,0,1,.168,2.232,63.1,63.1,0,0,0,.264,6.36C31.944-2.064,34.152.24,36.552.24c1.752,0,3.216-1.416,4.728-5.5L39.36-7.488C38.832-5.3,37.8-2.712,36.6-2.712c-1.584,0-2.544-2.5-2.9-6.24a52.812,52.812,0,0,1-.168-5.352A19.3,19.3,0,0,1,33.768-16.872Zm12.168.6-2.376.792c2.4,2.832,3.768,7.944,4.152,12.024l2.472-.96C49.872-8.28,48.12-13.512,45.936-16.272Zm16.392-2.76a26.12,26.12,0,0,1-.552,5.088c-1.344.12-2.616.216-3.384.24-.792.024-1.488.048-2.28,0l.216,2.592c.672-.12,1.752-.264,2.376-.336.528-.072,1.488-.168,2.568-.288-.84,3.216-2.544,8.328-4.9,11.5l2.472.984C61.176-3.048,62.856-8.5,63.744-12c.888-.072,1.68-.12,2.16-.12,1.512,0,2.424.336,2.424,2.376a19.082,19.082,0,0,1-1.056,6.936A1.879,1.879,0,0,1,65.328-1.68a12.684,12.684,0,0,1-2.928-.5l.408,2.5a13.018,13.018,0,0,0,2.808.36,3.546,3.546,0,0,0,3.672-2.064c1.008-2.04,1.368-5.808,1.368-8.616,0-3.312-1.752-4.272-4.056-4.272-.552,0-1.392.048-2.376.12.216-1.08.432-2.232.576-2.952.1-.528.216-1.128.336-1.632Zm8.76,3.624A28.519,28.519,0,0,1,75.24-6.6l2.352-1.128a42.539,42.539,0,0,0-4.272-8.64ZM88.224-16.68c1.824.48,7.056,1.56,9.384,1.872l.552-2.328a68.886,68.886,0,0,1-9.336-1.824Zm.384,2.232-2.544-.336a88.366,88.366,0,0,1-1.2,9.768l2.208.528a5.437,5.437,0,0,1,.792-1.272,8.918,8.918,0,0,1,7.008-2.976c2.28,0,3.912,1.224,3.912,2.976,0,3.144-3.72,5.112-11.064,4.176L88.464.888c9.264.768,12.912-2.3,12.912-6.6,0-2.808-2.448-5.184-6.312-5.184A11.472,11.472,0,0,0,87.7-8.3C87.888-9.768,88.3-12.96,88.608-14.448Zm25.608,8.232h-3.144V-15.6h3.144Zm16.008-5.928H124.2V-19.7h-2.3v7.56h-5.568v-5.52h-7.32V-2.256h2.064v-1.9h5.256V-9.96H121.9V1.872h2.3V-9.96h6.024ZM141.1-19.1l-.36,2.208c2.856.5,7.128,1.032,9.576,1.224l.312-2.208A88.6,88.6,0,0,1,141.1-19.1Zm10.152,7.128-1.416-1.584a6.027,6.027,0,0,1-1.2.264c-1.9.24-7.344.552-8.616.576-.792,0-1.584-.024-2.136-.072l.216,2.64c.528-.1,1.2-.192,1.968-.264,1.44-.12,4.92-.408,6.7-.5-2.256,2.328-8.04,8.088-9.12,9.144a11.529,11.529,0,0,1-1.368,1.248l2.256,1.56a67.114,67.114,0,0,1,4.56-5.064,2.582,2.582,0,0,1,1.656-.912c.6,0,1.08.384,1.368,1.2.216.648.528,1.92.768,2.64.528,1.56,1.752,2.016,3.792,2.016a37.615,37.615,0,0,0,4.56-.336l.144-2.52a21.964,21.964,0,0,1-4.56.48c-1.08,0-1.632-.384-1.872-1.224-.24-.7-.528-1.752-.744-2.424a2.225,2.225,0,0,0-1.656-1.68,2.831,2.831,0,0,0-.888-.12c.744-.792,3.216-3.048,4.176-3.936C150.192-11.136,150.72-11.592,151.248-11.976Zm19.9,10.9c-1.608,0-2.832-.648-2.832-1.68,0-.744.72-1.32,1.7-1.32,1.584,0,2.616,1.152,2.808,2.9A12.424,12.424,0,0,1,171.144-1.08Zm5.016-17.208a8.4,8.4,0,0,1-1.512.24c-1.3.12-6.672.264-7.92.264a17.115,17.115,0,0,1-1.9-.12l.072,2.472c.528-.072,1.152-.12,1.752-.168,1.248-.072,5.3-.24,6.552-.288-1.2,1.032-3.936,3.312-5.256,4.416-1.392,1.152-4.368,3.648-6.216,5.16l1.752,1.776c2.808-2.976,5.064-4.752,8.856-4.752,2.9,0,5.16,1.584,5.16,3.816a3.882,3.882,0,0,1-2.5,3.72,4.751,4.751,0,0,0-4.992-4.176,3.671,3.671,0,0,0-3.936,3.384c0,2.136,2.208,3.624,5.5,3.624,5.328,0,8.376-2.712,8.376-6.528,0-3.312-2.952-5.76-6.936-5.76a8.845,8.845,0,0,0-2.808.408c1.68-1.392,4.56-3.912,5.784-4.776.432-.312.984-.672,1.464-.984ZM190.3-5.9a3.769,3.769,0,0,0-3.744,3.768A3.749,3.749,0,0,0,190.3,1.608a3.733,3.733,0,0,0,3.744-3.744A3.754,3.754,0,0,0,190.3-5.9Zm0,6.072a2.3,2.3,0,0,1-2.3-2.3,2.3,2.3,0,0,1,2.3-2.3,2.3,2.3,0,0,1,2.3,2.3A2.3,2.3,0,0,1,190.3.168Z" transform="translate(799 1022)" fill="#0f0f0f"/>
    <line id="線_7665" data-name="線 7665" x2="60" transform="translate(770 1051.5)" fill="none" stroke="#000" stroke-width="1"/>
  </g>
</svg>
