<svg xmlns="http://www.w3.org/2000/svg" width="207.36" height="48" viewBox="0 0 207.36 48">
  <g id="text" transform="translate(-696.52 -1004)">
    <path id="パス_17314" data-name="パス 17314" d="M-102.48,0h2.5V-8.736c0-1.584-.216-3.864-.336-5.472h.1l1.392,4.08,3.1,8.424h1.728l3.072-8.424,1.416-4.08h.1c-.144,1.608-.36,3.888-.36,5.472V0h2.592V-17.664h-3.216L-93.6-8.736c-.408,1.176-.744,2.376-1.152,3.576h-.12c-.408-1.2-.768-2.4-1.176-3.576l-3.24-8.928h-3.192Zm29.04.312c4.536,0,7.7-3.528,7.7-9.216S-68.9-18-73.44-18s-7.68,3.408-7.68,9.1S-77.976.312-73.44.312Zm0-2.424c-2.928,0-4.824-2.64-4.824-6.792s1.9-6.672,4.824-6.672,4.848,2.52,4.848,6.672S-70.512-2.112-73.44-2.112ZM-56.76,0h3.288l5.52-17.664h-2.832L-53.4-8.52c-.576,2.016-1.008,3.744-1.608,5.784h-.12c-.624-2.04-1.008-3.768-1.608-5.784l-2.616-9.144H-62.3Zm13.488,0h2.784V-17.664h-2.784Zm9.816,0h10.7V-2.352h-7.92V-8.064h6.48v-2.352h-6.48v-4.92h7.656v-2.328h-10.44Zm31.8.312A7.936,7.936,0,0,0,3.936-1.752V-9.408H-2.088v2.28h3.5v4.152a4.381,4.381,0,0,1-2.784.864C-5.016-2.112-6.96-4.68-6.96-8.88c0-4.152,2.184-6.7,5.472-6.7A4.778,4.778,0,0,1,2.16-13.992l1.512-1.776A7.047,7.047,0,0,0-1.584-18c-4.68,0-8.232,3.456-8.232,9.216C-9.816-3-6.384.312-1.656.312ZM12.888-7.224l.72-2.376c.576-1.92,1.128-3.864,1.632-5.88h.1c.552,1.992,1.08,3.96,1.68,5.88l.7,2.376ZM19.872,0h2.952L16.968-17.664H13.752L7.9,0h2.832L12.24-5.04h6.144Zm7.68,0H37.8V-2.352H30.336V-17.664H27.552ZM43.32,0H53.568V-2.352H46.1V-17.664H43.32ZM59.088,0h10.7V-2.352h-7.92V-8.064h6.48v-2.352h-6.48v-4.92h7.656v-2.328H59.088ZM78.672-15.432h2.664c2.568,0,3.96.744,3.96,2.88S83.9-9.36,81.336-9.36H78.672ZM88.68,0,84.36-7.488a4.917,4.917,0,0,0,3.7-5.064c0-3.816-2.736-5.112-6.384-5.112H75.888V0h2.784V-7.128h2.856L85.536,0Zm8.088,0h2.784V-6.7l5.328-10.968h-2.9l-2.064,4.68c-.528,1.32-1.1,2.544-1.68,3.888h-.1c-.6-1.344-1.1-2.568-1.656-3.888l-2.04-4.68H91.464L96.768-6.7Z" transform="translate(799 1022)" fill="#0f0f0f"/>
    <line id="線_7665" data-name="線 7665" x2="60" transform="translate(770 1051.5)" fill="none" stroke="#000" stroke-width="1"/>
  </g>
</svg>
