<svg xmlns="http://www.w3.org/2000/svg" width="310.368" height="57.456" viewBox="0 0 310.368 57.456">
  <path id="パス_17307" data-name="パス 17307" d="M94.436,20.8c-.432-.528-2.256-2.424-3.048-3.12V16.5h2.568V15.472h13.488V14.008h-5.76V12.952h4.632V11.56h-4.632V10.528h5.208V9.088h-5.208V7.864H99.452V9.088h-4.9v1.44h4.9V11.56H95.036v1.392h4.416v1.056h-5.64v.408H91.388V10.768A24.124,24.124,0,0,0,94.34,9.88L92.8,8.176a33.432,33.432,0,0,1-7.248,1.752,6.88,6.88,0,0,1,.648,1.728c.96-.12,1.992-.264,3.024-.456v3.216H85.772V16.5H89.06a24.593,24.593,0,0,1-3.912,7.176,12.114,12.114,0,0,1,1.1,2.064,25.106,25.106,0,0,0,2.976-5.424v9.528h2.16V19.96a26.113,26.113,0,0,1,1.752,2.592Zm9.648-1.56h-6.7v-1.3h6.7Zm0,2.688h-6.7v-1.32h6.7Zm0,2.688h-6.7V23.3h6.7Zm2.088-8.112h-10.8v9.552h2.544a16.438,16.438,0,0,1-5.208,2.5,11.422,11.422,0,0,1,1.416,1.44,19.958,19.958,0,0,0,5.712-2.88L98.18,26.056h7.992Zm-4.488,10.632c1.464.912,3.144,2.064,4.08,2.784l1.944-1.08c-1.1-.744-2.952-1.872-4.536-2.784Zm17.64-13.392-.432.1h-6.576V16.1h5.76c-1.128,4.488-3.456,7.92-6.432,9.84a9.021,9.021,0,0,1,1.824,1.752c3.456-2.424,6.216-7.008,7.368-13.392ZM131.3,11.656A41.652,41.652,0,0,1,126,17.32a32.866,32.866,0,0,1-1.848-5.16V7.888H121.8V26.872c0,.432-.192.6-.672.6-.456.024-1.992.024-3.624-.048a10.486,10.486,0,0,1,.864,2.472,13.228,13.228,0,0,0,4.56-.456c.864-.408,1.224-1.1,1.224-2.568V18.016c1.824,4.464,4.464,8.088,8.3,10.1a9.74,9.74,0,0,1,1.728-2.064,16.058,16.058,0,0,1-7.224-6.912,55.281,55.281,0,0,0,6.408-6.024Zm11.256,8.616a31.356,31.356,0,0,1-3.72,6.576l2.616,1.1a34.327,34.327,0,0,0,3.528-6.72,54.755,54.755,0,0,0,2.136-7.368c.1-.528.312-1.44.48-2.04l-2.712-.552A36.5,36.5,0,0,1,142.556,20.272Zm11.832-.744A70.006,70.006,0,0,1,157,27.88l2.76-.888c-.672-2.28-1.944-6.024-2.856-8.3-.96-2.424-2.544-5.9-3.528-7.7l-2.472.816A64.033,64.033,0,0,1,154.388,19.528Zm29.112-7.1a5.269,5.269,0,0,1-1.8.24h-4.848V10.6A17.528,17.528,0,0,1,177,8.608h-2.9a11.05,11.05,0,0,1,.168,1.992v2.064h-5.232a22.8,22.8,0,0,1-2.328-.12,17.864,17.864,0,0,1,.1,1.944v4.2c0,.528-.048,1.224-.1,1.728h2.616a11.017,11.017,0,0,1-.1-1.584V14.9h12.768a16.652,16.652,0,0,1-2.208,6.624,12.34,12.34,0,0,1-6.048,4.512,15.068,15.068,0,0,1-2.88.792l1.968,2.28a15.3,15.3,0,0,0,9.624-6.984,22.324,22.324,0,0,0,2.3-7.032,9.021,9.021,0,0,1,.408-1.632ZM208.1,10.7a7.28,7.28,0,0,1-2.088.24h-8.9a25.678,25.678,0,0,1-2.616-.168V13.48c.384-.024,1.68-.144,2.616-.144h8.808a19.745,19.745,0,0,1-3.816,6.336,26.967,26.967,0,0,1-9.864,7.032l1.944,2.016a30.716,30.716,0,0,0,9.24-6.888,51.912,51.912,0,0,1,6.336,7.008l2.136-1.872a63.791,63.791,0,0,0-6.864-7.032,32.848,32.848,0,0,0,3.936-6.84,8.284,8.284,0,0,1,.7-1.248Zm14.928,13.512c-.96,0-2.184-1.248-2.184-3.984a7.967,7.967,0,0,1,6.768-7.344,32.929,32.929,0,0,1-1.3,6.12C225.212,22.672,224.06,24.208,223.028,24.208Zm6.384,4.584c5.808-.816,9-4.272,9-9.24,0-4.992-3.624-8.976-9.336-8.976-5.952,0-10.632,4.584-10.632,9.864,0,3.96,2.16,6.624,4.512,6.624,2.376,0,4.344-2.712,5.784-7.56a54.4,54.4,0,0,0,1.416-6.672,6.286,6.286,0,0,1,5.712,6.624c0,3.84-2.712,6.048-5.76,6.744a13.459,13.459,0,0,1-2.112.336ZM18.884,60.664V50.176h5.448a21.361,21.361,0,0,1,2.16.1V47.656a20.2,20.2,0,0,1-2.16.12H11.2c-.552,0-1.488-.048-2.112-.12v2.616c.6-.072,1.584-.1,2.112-.1h5.064V60.664H9.812A14.19,14.19,0,0,1,7.58,60.5v2.736c.768-.072,1.536-.1,2.232-.1h15.84c.5,0,1.44.024,2.088.1V60.5a17.528,17.528,0,0,1-2.088.168Zm32.424-12.84a5.636,5.636,0,0,1-1.8.24h-5.76c.12-.192.24-.408.336-.6.264-.48.768-1.416,1.248-2.136l-2.784-.912a10.64,10.64,0,0,1-.888,2.16,20.368,20.368,0,0,1-7.536,7.944l2.112,1.56a24.988,24.988,0,0,0,6.1-5.856H49.82a18.022,18.022,0,0,1-3.648,7.08,19.394,19.394,0,0,1-9.624,6L38.78,65.3a21.819,21.819,0,0,0,9.6-6.648,23.753,23.753,0,0,0,4.224-8.16,8.214,8.214,0,0,1,.672-1.464ZM75.74,46.7a7.28,7.28,0,0,1-2.088.24h-8.9a25.678,25.678,0,0,1-2.616-.168V49.48c.384-.024,1.68-.144,2.616-.144h8.808a19.745,19.745,0,0,1-3.816,6.336A26.967,26.967,0,0,1,59.876,62.7L61.82,64.72a30.715,30.715,0,0,0,9.24-6.888A51.912,51.912,0,0,1,77.4,64.84l2.136-1.872a63.791,63.791,0,0,0-6.864-7.032A32.849,32.849,0,0,0,76.6,49.1a8.284,8.284,0,0,1,.7-1.248Zm25.44,1.656c.744,0,1.632.024,2.4.072V45.952a16.367,16.367,0,0,1-2.4.168H91.508a18.382,18.382,0,0,1-2.352-.168v2.472c.672-.048,1.56-.072,2.352-.072ZM88.508,52.168a21.031,21.031,0,0,1-2.184-.12V54.52c.672-.048,1.464-.072,2.184-.072h6.936A11.093,11.093,0,0,1,94,60.112a9.965,9.965,0,0,1-4.44,3.576l2.208,1.632a11.691,11.691,0,0,0,4.776-4.464,14.929,14.929,0,0,0,1.488-6.408H104.2c.624,0,1.464.024,2.016.072V52.048c-.6.072-1.512.12-2.016.12Zm27.072-6.36c.048.5.1,1.344.1,1.776v8.04c0,.7-.1,1.536-.12,1.944h2.808c-.048-.48-.1-1.32-.1-1.944v-8.04c0-.672.048-1.272.1-1.776Zm11.064-.192a18.556,18.556,0,0,1,.144,2.208v4.128c0,4.2-.312,6.072-1.992,7.968a11.11,11.11,0,0,1-5.808,3.144l1.992,2.088a13.336,13.336,0,0,0,5.736-3.5c1.776-2.016,2.64-4.056,2.64-9.552V47.824c0-.864.048-1.584.1-2.208Zm20.472,5.352a10.662,10.662,0,0,1,.144,1.92c0,3.984-.552,7.008-3.984,9.216a9.112,9.112,0,0,1-2.3,1.176l2.208,1.8c6.312-3.24,6.672-7.848,6.672-14.112Zm10.92-4.608a12.422,12.422,0,0,1-2.016.168H142.6a21.458,21.458,0,0,1-2.808-.216v2.664c1.032-.072,1.872-.144,2.808-.144H155.78a14.921,14.921,0,0,1-4.9,4.968l1.992,1.608a23.767,23.767,0,0,0,5.88-6.624c.192-.288.576-.744.792-1.008Zm14.52,8.52A2.784,2.784,0,1,0,175.34,52.1,2.786,2.786,0,0,0,172.556,54.88Zm31.7-2.9a39.811,39.811,0,0,0,6.408-5.16l-2.04-1.848a26.253,26.253,0,0,1-6.264,5.376,37.69,37.69,0,0,1-10.824,4.368l1.368,2.328a46.005,46.005,0,0,0,8.688-3.528v8.544a27.814,27.814,0,0,1-.144,2.832h2.976a18.047,18.047,0,0,1-.168-2.832Zm17.472-5.856-1.752,1.872a54.562,54.562,0,0,1,6,5.088l1.9-1.944A48.6,48.6,0,0,0,221.732,46.12ZM219.26,62.176l1.608,2.472a26.462,26.462,0,0,0,9.192-3.576,24.735,24.735,0,0,0,8.424-8.688l-1.464-2.616a22.851,22.851,0,0,1-8.328,9.048A24.937,24.937,0,0,1,219.26,62.176Zm40.32-13.824c.744,0,1.632.024,2.4.072V45.952a16.367,16.367,0,0,1-2.4.168h-9.672a18.382,18.382,0,0,1-2.352-.168v2.472c.672-.048,1.56-.072,2.352-.072Zm-12.672,3.816a21.03,21.03,0,0,1-2.184-.12V54.52c.672-.048,1.464-.072,2.184-.072h6.936a11.093,11.093,0,0,1-1.44,5.664,9.965,9.965,0,0,1-4.44,3.576l2.208,1.632a11.691,11.691,0,0,0,4.776-4.464,14.929,14.929,0,0,0,1.488-6.408H262.6c.624,0,1.464.024,2.016.072V52.048c-.6.072-1.512.12-2.016.12Zm27.072-6.36c.048.5.1,1.344.1,1.776v8.04c0,.7-.1,1.536-.12,1.944h2.808c-.048-.48-.1-1.32-.1-1.944v-8.04c0-.672.048-1.272.1-1.776Zm11.064-.192a18.559,18.559,0,0,1,.144,2.208v4.128c0,4.2-.312,6.072-1.992,7.968a11.11,11.11,0,0,1-5.808,3.144l1.992,2.088a13.336,13.336,0,0,0,5.736-3.5c1.776-2.016,2.64-4.056,2.64-9.552V47.824c0-.864.048-1.584.1-2.208Zm20.472,5.352a10.663,10.663,0,0,1,.144,1.92c0,3.984-.552,7.008-3.984,9.216a9.112,9.112,0,0,1-2.3,1.176l2.208,1.8c6.312-3.24,6.672-7.848,6.672-14.112Zm10.92-4.608a12.422,12.422,0,0,1-2.016.168H301a21.459,21.459,0,0,1-2.808-.216v2.664c1.032-.072,1.872-.144,2.808-.144H314.18a14.921,14.921,0,0,1-4.9,4.968l1.992,1.608a23.768,23.768,0,0,0,5.88-6.624c.192-.288.576-.744.792-1.008Z" transform="translate(-7.58 -7.864)" fill="#0f0f0f"/>
</svg>
