<svg xmlns="http://www.w3.org/2000/svg" width="218.352" height="78.556" viewBox="0 0 218.352 78.556">
  <g id="text" transform="translate(-612.288 -994)">
    <line id="線_7665" data-name="線 7665" x2="60" transform="translate(699 1072.056)" fill="none" stroke="#000" stroke-width="1"/>
    <path id="パス_17311" data-name="パス 17311" d="M53.1,11.92H68.552v2.952h2.256V9.88h-8.88V7.864h-2.3V9.88H50.888v4.992H53.1Zm15.816,4.464a31.192,31.192,0,0,1-3.864,2.928,22.739,22.739,0,0,1-1.272-3.456H67.3v-1.92H54.176v1.92h4.416a28.732,28.732,0,0,1-7.872,2.928A11.006,11.006,0,0,1,51.9,20.512a35.827,35.827,0,0,0,5.784-2.136,7.452,7.452,0,0,1,.888.84,25.924,25.924,0,0,1-7.608,3.432,7.917,7.917,0,0,1,1.128,1.728A36.239,36.239,0,0,0,59.6,20.56q.36.612.648,1.224a26.968,26.968,0,0,1-10.128,5.16A10.887,10.887,0,0,1,51.3,28.792,34.824,34.824,0,0,0,60.848,23.7c.288,1.7-.072,3.144-.792,3.672a2.062,2.062,0,0,1-1.584.48,20.529,20.529,0,0,1-2.232-.12,5.387,5.387,0,0,1,.624,2.136c.744.048,1.464.072,2.064.072a3.766,3.766,0,0,0,2.688-.888c2.328-1.68,2.424-7.7-2.112-11.664a15,15,0,0,0,2.208-1.536h.048c1.44,5.616,4.032,10.1,8.448,12.24a8.172,8.172,0,0,1,1.56-1.944,12.29,12.29,0,0,1-5.784-5.16,36.9,36.9,0,0,0,4.68-3.12Zm11.928.48c.048-.984.072-1.992.1-3h4.776a8.257,8.257,0,0,1-.72.84,10.353,10.353,0,0,1,1.752,1.224,16.829,16.829,0,0,0,2.04-3.048h9.168V10.84H89.768A22.867,22.867,0,0,0,90.68,8.3l-2.016-.48a18.851,18.851,0,0,1-2.592,5.568V11.776H82.64V7.888H80.48v3.888H76.3v2.088h2.52c-.1,5.64-.36,11.256-2.856,14.52a6.876,6.876,0,0,1,1.584,1.536c2.064-2.688,2.856-6.648,3.168-11.016h2.688c-.24,5.952-.5,8.136-.936,8.688a.735.735,0,0,1-.72.312c-.36,0-1.1,0-1.968-.072a4.838,4.838,0,0,1,.576,2.04,12.776,12.776,0,0,0,2.424-.048A1.92,1.92,0,0,0,84.3,28.96c.672-.864.96-3.576,1.224-11.136.024-.288.024-.96.024-.96ZM98,22.744V20.728H93.368V17.68h4.224V15.688h-7.08c.24-.648.432-1.3.624-1.944l-2.064-.48A13.808,13.808,0,0,1,86.408,19a11.047,11.047,0,0,1,1.752,1.152,14.03,14.03,0,0,0,1.488-2.472h1.608v3.048H86.384v2.016h4.608c-.456,1.92-1.776,4.032-5.352,5.616a8.511,8.511,0,0,1,1.44,1.512,10.862,10.862,0,0,0,5.448-5.208,10.355,10.355,0,0,0,4.656,5.208,6.87,6.87,0,0,1,1.392-1.7,9.144,9.144,0,0,1-4.9-5.424Zm10.128,1.464c-.96,0-2.184-1.248-2.184-3.984a7.967,7.967,0,0,1,6.768-7.344,32.929,32.929,0,0,1-1.3,6.12C110.312,22.672,109.16,24.208,108.128,24.208Zm6.384,4.584c5.808-.816,9-4.272,9-9.24,0-4.992-3.624-8.976-9.336-8.976-5.952,0-10.632,4.584-10.632,9.864,0,3.96,2.16,6.624,4.512,6.624,2.376,0,4.344-2.712,5.784-7.56a54.394,54.394,0,0,0,1.416-6.672,6.286,6.286,0,0,1,5.712,6.624c0,3.84-2.712,6.048-5.76,6.744a13.459,13.459,0,0,1-2.112.336ZM147.92,11.536v1.512h-2.256V11.536Zm0,4.7h-2.256V14.7h2.256Zm-4.272-3.192H138.8V14.7h4.848V16.24h-3.264V17.9h3.264v1.536h-3.624v1.656h3.624v1.56h-4.272v1.68h4.272v2.5h2.016v-2.5h5.04v-1.68h-5.04v-1.56h4.392V19.432h-4.392V17.9h4.176V14.7h1.32V13.048h-1.32V9.88h-4.176V8.032h-2.016V9.88h-3.264v1.656h3.264Zm-10.3-.1c.432-.96.84-1.968,1.2-2.976v1.656h2.256c-.84,2.088-2.016,4.9-3.048,7.056l1.848.432.48-1.056h1.656a23.993,23.993,0,0,1-1.08,4.992,17.473,17.473,0,0,1-.96-3.24l-1.728.5a18.662,18.662,0,0,0,1.728,4.944,8.64,8.64,0,0,1-2.352,2.88Zm5.232,3.408-.36.048h-1.392c.96-2.184,1.92-4.512,2.592-6.312l-1.392-.408-.336.12h-3.1c.168-.432.288-.84.432-1.272L133.04,7.96a25.317,25.317,0,0,1-4.512,8.952,17.669,17.669,0,0,1,1.056,2.328,20.46,20.46,0,0,0,1.776-2.472v13.08h1.992V28.216a7.71,7.71,0,0,1,1.224,1.608A10.4,10.4,0,0,0,137,27.064c1.824,1.9,4.272,2.448,7.536,2.448h6a7.409,7.409,0,0,1,.744-2.04c-1.152.024-5.736.024-6.648.024-2.856,0-5.088-.5-6.672-2.328a27.357,27.357,0,0,0,1.8-8.592Zm26.856,8.52c-2.352.912-4.752,1.8-6.36,2.328l1.056,1.776c1.68-.7,3.72-1.608,5.664-2.448Zm-5.208-2.256a21.2,21.2,0,0,1,3.432,2.448l1.32-1.344a21.119,21.119,0,0,0-3.5-2.328Zm8.688-4.464h4.1v1.56h-4.1Zm0-3.072h4.1v1.464h-4.1Zm6.24,6.216V18.16h2.256V16.552H175.16V13.5h-6.24v-1.56h8.208V9.976h-8.856V7.864h-2.328V9.976h-8.688v6.96c0,3.5-.168,8.4-2.064,11.832a8.712,8.712,0,0,1,1.8,1.2c2.064-3.648,2.4-9.24,2.4-13.032V11.944h7.392V13.5h-5.328v1.584h5.328v1.464H159.92V18.16h6.864v1.56h-5.568V21.3h5.568V27.52c0,.384-.144.5-.552.5-.408.024-1.824.048-3.216-.024a8.092,8.092,0,0,1,.7,1.92,13.545,13.545,0,0,0,4.1-.336c.816-.288,1.1-.84,1.1-2.064V23.992a12.278,12.278,0,0,0,6.672,5.64,8.3,8.3,0,0,1,1.368-1.8,11.031,11.031,0,0,1-4.656-2.568,38.712,38.712,0,0,0,3.96-2.4l-1.68-1.32a25.922,25.922,0,0,1-3.432,2.472,10.653,10.653,0,0,1-1.608-2.712Zm20.184,3.36c-.024-1.128-.072-3.024-.1-4.368,1.656-.768,3.192-1.416,4.416-1.872.72-.288,1.752-.672,2.4-.864l-.936-2.208c-.768.384-1.464.7-2.256,1.056-1.128.5-2.352,1.008-3.816,1.7a3.129,3.129,0,0,0-3.168-2.016,7,7,0,0,0-3.024.7,17.351,17.351,0,0,0,1.8-3.1,72.642,72.642,0,0,0,7.824-.648V10.84a54.951,54.951,0,0,1-7.032.7c.336-1.032.528-1.944.672-2.568l-2.472-.192a14.331,14.331,0,0,1-.552,2.856h-1.392a34.857,34.857,0,0,1-4.08-.264V13.6c1.32.1,2.976.144,3.96.144h.7a24.75,24.75,0,0,1-5.376,6.936l2.04,1.536a25.561,25.561,0,0,1,2.184-2.544,6.038,6.038,0,0,1,3.936-1.7,1.852,1.852,0,0,1,1.92,1.176c-2.736,1.392-5.592,3.24-5.592,6.168,0,2.952,2.76,3.768,6.312,3.768a60.464,60.464,0,0,0,6.6-.408l.072-2.424a40.022,40.022,0,0,1-6.6.624c-2.4,0-3.936-.312-3.936-1.944,0-1.392,1.272-2.472,3.288-3.6,0,1.176-.024,2.52-.1,3.336ZM215.6,27.736a44.283,44.283,0,0,0-5.3-5.3l-1.968,1.728a43.806,43.806,0,0,1,5.232,5.3ZM29.24,43.912A25.822,25.822,0,0,1,23.288,53.1a21.177,21.177,0,0,1,1.224,2.256,28.073,28.073,0,0,0,2.352-2.784V65.824h2.112V49.36a38.275,38.275,0,0,0,2.352-4.776ZM39.368,62.968V57.52h5.424V55.408H39.368V50.656h6.12V48.52H39.8l1.056-1.176a33.08,33.08,0,0,0-5.328-3.528L34.064,45.4A35.882,35.882,0,0,1,38.6,48.52H31.016v2.136h6.1v4.752h-5.3V57.52h5.3v5.448H30.44V65.1H45.848V62.968Zm21.552-1.92c0,1.536-.984,1.92-2.328,1.92-2.04,0-2.928-.7-2.928-1.7,0-.984,1.08-1.752,3.1-1.752A12.4,12.4,0,0,1,60.9,59.7C60.92,60.256,60.92,60.712,60.92,61.048Zm9.048.744a18.923,18.923,0,0,0-6.792-3.672c-.072-1.032-.144-2.16-.168-3.24,2.28-.1,4.248-.24,6.456-.5L69.44,52.12c-2.04.288-4.128.5-6.48.624V49.72c2.256-.1,4.248-.312,5.976-.48l-.024-2.184a57.685,57.685,0,0,1-5.928.6c0-.48.024-.912.024-1.176.024-.648.1-1.176.144-1.608H60.608a15.019,15.019,0,0,1,.1,1.512v1.344H59.48a36.1,36.1,0,0,1-5.376-.456v2.184a47.786,47.786,0,0,0,5.4.36H60.68v3H59.456A40.628,40.628,0,0,1,53.6,52.36l-.024,2.256c1.656.192,4.344.312,5.856.312h1.3c.024.864.048,1.824.1,2.712-.576-.048-1.152-.1-1.752-.1-3.552,0-5.688,1.584-5.688,3.84,0,2.4,1.944,3.72,5.544,3.72,3.1,0,4.392-1.656,4.392-3.456,0-.336-.024-.744-.024-1.224a17.806,17.806,0,0,1,5.3,3.456Zm11.4-14.664-2.9-.048a11.951,11.951,0,0,1,.168,2.232,63.1,63.1,0,0,0,.264,6.36c.648,6.264,2.856,8.568,5.256,8.568,1.752,0,3.216-1.416,4.728-5.5l-1.92-2.232c-.528,2.184-1.56,4.776-2.76,4.776-1.584,0-2.544-2.5-2.9-6.24a52.812,52.812,0,0,1-.168-5.352A19.3,19.3,0,0,1,81.368,47.128Zm12.168.6-2.376.792c2.4,2.832,3.768,7.944,4.152,12.024l2.472-.96C97.472,55.72,95.72,50.488,93.536,47.728Zm16.392-2.76a26.12,26.12,0,0,1-.552,5.088c-1.344.12-2.616.216-3.384.24-.792.024-1.488.048-2.28,0l.216,2.592c.672-.12,1.752-.264,2.376-.336.528-.072,1.488-.168,2.568-.288-.84,3.216-2.544,8.328-4.9,11.5l2.472.984c2.328-3.792,4.008-9.24,4.9-12.744.888-.072,1.68-.12,2.16-.12,1.512,0,2.424.336,2.424,2.376a19.082,19.082,0,0,1-1.056,6.936,1.879,1.879,0,0,1-1.944,1.128,12.684,12.684,0,0,1-2.928-.5l.408,2.5a13.018,13.018,0,0,0,2.808.36,3.546,3.546,0,0,0,3.672-2.064c1.008-2.04,1.368-5.808,1.368-8.616,0-3.312-1.752-4.272-4.056-4.272-.552,0-1.392.048-2.376.12.216-1.08.432-2.232.576-2.952.1-.528.216-1.128.336-1.632Zm8.76,3.624A28.52,28.52,0,0,1,122.84,57.4l2.352-1.128a42.539,42.539,0,0,0-4.272-8.64Zm17.136-1.272c1.824.48,7.056,1.56,9.384,1.872l.552-2.328a68.886,68.886,0,0,1-9.336-1.824Zm.384,2.232-2.544-.336a88.366,88.366,0,0,1-1.2,9.768l2.208.528a5.437,5.437,0,0,1,.792-1.272,8.918,8.918,0,0,1,7.008-2.976c2.28,0,3.912,1.224,3.912,2.976,0,3.144-3.72,5.112-11.064,4.176l.744,2.472c9.264.768,12.912-2.3,12.912-6.6,0-2.808-2.448-5.184-6.312-5.184A11.472,11.472,0,0,0,135.3,55.7C135.488,54.232,135.9,51.04,136.208,49.552Zm25.608,8.232h-3.144V48.4h3.144Zm16.008-5.928H171.8V44.3h-2.3v7.56h-5.568v-5.52h-7.32V61.744h2.064v-1.9h5.256V54.04H169.5V65.872h2.3V54.04h6.024ZM188.7,44.9l-.36,2.208c2.856.5,7.128,1.032,9.576,1.224l.312-2.208A88.6,88.6,0,0,1,188.7,44.9Zm10.152,7.128-1.416-1.584a6.028,6.028,0,0,1-1.2.264c-1.9.24-7.344.552-8.616.576-.792,0-1.584-.024-2.136-.072l.216,2.64c.528-.1,1.2-.192,1.968-.264,1.44-.12,4.92-.408,6.7-.5-2.256,2.328-8.04,8.088-9.12,9.144a11.529,11.529,0,0,1-1.368,1.248l2.256,1.56a67.114,67.114,0,0,1,4.56-5.064,2.582,2.582,0,0,1,1.656-.912c.6,0,1.08.384,1.368,1.2.216.648.528,1.92.768,2.64.528,1.56,1.752,2.016,3.792,2.016a37.613,37.613,0,0,0,4.56-.336l.144-2.52a21.964,21.964,0,0,1-4.56.48c-1.08,0-1.632-.384-1.872-1.224-.24-.7-.528-1.752-.744-2.424a2.225,2.225,0,0,0-1.656-1.68,2.831,2.831,0,0,0-.888-.12c.744-.792,3.216-3.048,4.176-3.936C197.792,52.864,198.32,52.408,198.848,52.024Zm19.9,10.9c-1.608,0-2.832-.648-2.832-1.68,0-.744.72-1.32,1.7-1.32,1.584,0,2.616,1.152,2.808,2.9A12.424,12.424,0,0,1,218.744,62.92Zm5.016-17.208a8.4,8.4,0,0,1-1.512.24c-1.3.12-6.672.264-7.92.264a17.115,17.115,0,0,1-1.9-.12l.072,2.472c.528-.072,1.152-.12,1.752-.168,1.248-.072,5.3-.24,6.552-.288-1.2,1.032-3.936,3.312-5.256,4.416-1.392,1.152-4.368,3.648-6.216,5.16l1.752,1.776c2.808-2.976,5.064-4.752,8.856-4.752,2.9,0,5.16,1.584,5.16,3.816a3.882,3.882,0,0,1-2.5,3.72,4.751,4.751,0,0,0-4.992-4.176,3.671,3.671,0,0,0-3.936,3.384c0,2.136,2.208,3.624,5.5,3.624,5.328,0,8.376-2.712,8.376-6.528,0-3.312-2.952-5.76-6.936-5.76a8.845,8.845,0,0,0-2.808.408c1.68-1.392,4.56-3.912,5.784-4.776.432-.312.984-.672,1.464-.984ZM237.9,58.1a3.756,3.756,0,1,0,3.744,3.768A3.769,3.769,0,0,0,237.9,58.1Zm0,6.072a2.3,2.3,0,1,1,2.3-2.3A2.3,2.3,0,0,1,237.9,64.168Z" transform="translate(589 986.184)" fill="#0f0f0f"/>
  </g>
</svg>
