<svg xmlns="http://www.w3.org/2000/svg" width="257.784" height="78.508" viewBox="0 0 257.784 78.508">
  <g id="text" transform="translate(-586.28 -994)">
    <line id="線_7665" data-name="線 7665" x2="60" transform="translate(686 1072.008)" fill="none" stroke="#000" stroke-width="1"/>
    <path id="パス_17310" data-name="パス 17310" d="M31.736,16.816v-2.3H22.064A60.541,60.541,0,0,0,22.4,7.888H19.976a60.186,60.186,0,0,1-.288,6.624H10.76v2.3h8.52a14.931,14.931,0,0,1-9,11.16,7.785,7.785,0,0,1,1.7,1.872,16.6,16.6,0,0,0,9.264-11.064c1.872,5.088,4.776,8.976,9.264,11.064a8.826,8.826,0,0,1,1.656-2.088c-4.536-1.9-7.56-5.952-9.192-10.944Zm17.328-4.608v4.368c0,1.992.528,2.568,2.856,2.568h3.192c1.728,0,2.328-.6,2.544-2.952a8.026,8.026,0,0,1-1.92-.768c-.072,1.56-.216,1.824-.864,1.824H52.208c-.792,0-.936-.1-.936-.7V12.208h4.176v2.52h2.28V10.192H48.68V7.864H46.4v2.328H37.544v5.04h2.184V12.208H43.76c-.36,3.216-1.368,5.064-6.528,6.024a6.336,6.336,0,0,1,1.2,1.9c5.832-1.3,7.176-3.792,7.656-7.92ZM48.68,27.184v-4.3H56V20.9H39.656v1.992H46.4v4.3H37.16V29.2H58.04V27.184ZM70.9,10.5V12.16H66.368V10.5ZM66.368,15.52V13.744H70.9V15.52Zm6.648,1.656V8.824H64.16V29.9h2.208V17.176Zm4.032-1.608V13.744h4.68v1.824Zm4.68-5.064V12.16h-4.68V10.5ZM71.5,26.008V24.016h4.872v1.992Zm4.872-5.5v1.872H71.5V20.512ZM83.984,8.824H74.912v8.4h6.816v9.864c0,.408-.12.528-.552.552-.384,0-1.536.024-2.712-.024V18.832h-9V28.888H71.5v-1.2h6.48a10,10,0,0,1,.7,2.184,12.149,12.149,0,0,0,4.176-.384c.864-.384,1.128-1.1,1.128-2.376Zm22.056,6.7-1.44.624a22.694,22.694,0,0,1,1.92,3.36l1.488-.672A33.5,33.5,0,0,0,106.04,15.52Zm2.664-1.032-1.44.648a22.524,22.524,0,0,1,2.016,3.312l1.464-.72A37.554,37.554,0,0,0,108.7,14.488ZM90.3,11.944l.24,2.616c2.664-.576,8.5-1.152,10.56-1.368a9.415,9.415,0,0,0-4.008,7.7c0,5.232,4.872,7.728,9.528,7.968l.864-2.544c-3.912-.192-7.944-1.608-7.944-5.952a7.858,7.858,0,0,1,5.232-7.128A22.781,22.781,0,0,1,109.4,12.9l-.024-2.424c-1.608.048-4.008.192-6.528.408-4.368.36-8.616.768-10.344.936C92.024,11.872,91.208,11.92,90.3,11.944ZM121.712,26.3c-.816,0-2.208-.816-2.208-1.752,0-.96,1.2-2.16,2.928-3,.024,1.536.072,2.9.072,3.648C122.5,25.984,122.216,26.3,121.712,26.3Zm2.856-8.568c0-.84.024-1.776.048-2.736a47.158,47.158,0,0,0,4.776-.792l-.048-2.352a28.9,28.9,0,0,1-4.68.912c.048-.84.072-1.608.1-2.184s.1-1.368.144-1.824h-2.592a15.2,15.2,0,0,1,.144,1.872c0,.432-.024,1.3-.024,2.376-.576.024-1.128.048-1.632.048a23.593,23.593,0,0,1-3.144-.192l.072,2.3c.936.1,2.064.12,3.12.12.456,0,.984-.024,1.56-.072-.024.888-.024,1.776-.024,2.616v1.488c-2.808,1.224-5.232,3.312-5.232,5.328,0,2.3,3.168,4.176,5.232,4.176,1.392,0,2.328-.72,2.328-3.24,0-.936-.072-2.928-.1-4.9a15.931,15.931,0,0,1,4.872-.792c2.16,0,3.816,1.008,3.816,2.832,0,2.016-1.752,3.072-3.744,3.432a15.9,15.9,0,0,1-2.856.168l.864,2.4a15.916,15.916,0,0,0,3-.336c3.5-.84,5.136-2.808,5.136-5.64,0-3.048-2.664-4.944-6.192-4.944a18.324,18.324,0,0,0-4.944.744ZM131,13.192a35.186,35.186,0,0,1,5.5,3.5l1.176-1.92a43.882,43.882,0,0,0-5.616-3.408Zm27.048,6.84c0,4.008-3.936,6.12-9.768,6.84l1.392,2.328c6.336-.936,10.992-3.96,10.992-9.072,0-3.528-2.568-5.544-6.12-5.544a32.377,32.377,0,0,0-7.152,1.128,19.9,19.9,0,0,1-2.352.36l.744,2.736a22.175,22.175,0,0,1,2.136-.744,21.581,21.581,0,0,1,6.336-1.2C156.608,16.864,158.048,18.208,158.048,20.032Zm-9.7-11.016-.36,2.28c2.712.48,7.656.936,10.344,1.128l.384-2.328A69.818,69.818,0,0,1,148.352,9.016Zm38.088,2.256a56.757,56.757,0,0,1-9.048,1.1l.216-1.056a18.824,18.824,0,0,1,.48-2.184l-2.688-.12a11.163,11.163,0,0,1-.1,2.136q-.072.54-.216,1.3h-.1a29.772,29.772,0,0,1-4.68-.408v2.352c1.3.12,2.784.192,4.344.216a38.323,38.323,0,0,1-2.736,8.256l2.232.792a6.947,6.947,0,0,1,.7-1.08,8.671,8.671,0,0,1,6.84-2.808c2.568,0,3.936,1.272,3.936,2.88,0,3.744-5.3,4.536-10.68,3.744l.672,2.424c7.416.792,12.5-1.1,12.5-6.216,0-2.9-2.352-4.9-6.168-4.9a10.872,10.872,0,0,0-6.336,1.824,45.519,45.519,0,0,0,1.32-4.968,84.783,84.783,0,0,0,9.528-1.008Zm14.328.12v4.824h-2.88V11.392Zm-2.88,11.856V18.184h2.88v5.064ZM202.88,9.376h-7.056v17.88h2.064V25.24h4.992Zm1.728,13.752a17.8,17.8,0,0,1,2.9,4.1l1.9-1.152a17.675,17.675,0,0,0-3-3.984Zm12.456-6V15.16h-5.832V12.52h4.944V10.576h-4.944V7.84H209v2.736h-4.8V12.52H209v2.64h-5.712v1.968H212.1v2.4H203.36V21.5H212.1v5.856c0,.336-.12.432-.5.456-.36,0-1.68,0-3.024-.048a8.308,8.308,0,0,1,.72,2.088,11.8,11.8,0,0,0,3.936-.36c.792-.336,1.056-.936,1.056-2.088V21.5h2.568V19.528H214.28v-2.4ZM229.3,10.5V12.16h-4.536V10.5Zm-4.536,5.016V13.744H229.3V15.52Zm6.648,1.656V8.824H222.56V29.9h2.208V17.176Zm4.032-1.608V13.744h4.68v1.824Zm4.68-5.064V12.16h-4.68V10.5ZM229.9,26.008V24.016h4.872v1.992Zm4.872-5.5v1.872H229.9V20.512Zm7.608-11.688h-9.072v8.4h6.816v9.864c0,.408-.12.528-.552.552-.384,0-1.536.024-2.712-.024V18.832h-9V28.888h2.04v-1.2h6.48a10,10,0,0,1,.7,2.184,12.149,12.149,0,0,0,4.176-.384c.864-.384,1.128-1.1,1.128-2.376Zm18.96,15.84c-.024-1.128-.072-3.024-.1-4.368,1.656-.768,3.192-1.416,4.416-1.872.72-.288,1.752-.672,2.4-.864l-.936-2.208c-.768.384-1.464.7-2.256,1.056-1.128.5-2.352,1.008-3.816,1.7a3.129,3.129,0,0,0-3.168-2.016,7,7,0,0,0-3.024.7,17.352,17.352,0,0,0,1.8-3.1,72.642,72.642,0,0,0,7.824-.648V10.84a54.95,54.95,0,0,1-7.032.7c.336-1.032.528-1.944.672-2.568l-2.472-.192a14.331,14.331,0,0,1-.552,2.856h-1.392a34.857,34.857,0,0,1-4.08-.264V13.6c1.32.1,2.976.144,3.96.144h.7a24.75,24.75,0,0,1-5.376,6.936l2.04,1.536a25.561,25.561,0,0,1,2.184-2.544,6.038,6.038,0,0,1,3.936-1.7,1.852,1.852,0,0,1,1.92,1.176c-2.736,1.392-5.592,3.24-5.592,6.168,0,2.952,2.76,3.768,6.312,3.768a60.464,60.464,0,0,0,6.6-.408l.072-2.424a40.022,40.022,0,0,1-6.6.624c-2.4,0-3.936-.312-3.936-1.944,0-1.392,1.272-2.472,3.288-3.6,0,1.176-.024,2.52-.1,3.336ZM65.168,54.208a6.541,6.541,0,0,1,2.52,4.752c0,2.256-2.088,3.768-5.568,3.768-2.544,0-3.792-1.272-3.792-3.408,0-.5.048-1.224.12-2.064h.912a38.424,38.424,0,0,0,4.44-.24l.072-2.256A37.845,37.845,0,0,1,59,55.048h-.336c.144-1.248.312-2.568.48-3.792h.048a45.531,45.531,0,0,0,4.776-.24l.072-2.256a28.161,28.161,0,0,1-4.608.312l.288-2.16c.1-.576.192-1.128.36-1.872L57.392,44.9a9.678,9.678,0,0,1-.024,1.872c-.048.6-.12,1.368-.216,2.232a22.653,22.653,0,0,1-5.064-.912l-.12,2.208a29.572,29.572,0,0,0,4.92.84c-.168,1.248-.336,2.568-.48,3.816a19.7,19.7,0,0,1-4.872-.96l-.12,2.3a25.234,25.234,0,0,0,4.752.84C56.072,58.192,56,59.08,56,59.7c0,3.912,2.64,5.448,6.1,5.448,4.9,0,8.112-2.352,8.112-5.9a8.3,8.3,0,0,0-2.4-5.592ZM79.3,54.136l1.008,2.472c1.728-.72,6.72-2.784,9.6-2.784,2.256,0,3.744,1.368,3.744,3.264,0,3.6-4.3,5.04-9.552,5.208l.984,2.328c6.912-.432,11.04-3.024,11.04-7.488,0-3.408-2.472-5.52-6.024-5.52-2.832,0-6.792,1.392-8.448,1.92A22.563,22.563,0,0,1,79.3,54.136ZM119.84,47.68a13.331,13.331,0,0,1-1.92,1.248c-1.224.7-3.576,1.872-5.664,3.12a54.711,54.711,0,0,1-3.1-6.84l-2.376.96c1.1,2.544,2.3,5.208,3.384,7.224-2.424,1.728-4.032,3.672-4.032,6.192,0,3.792,3.384,5.136,7.968,5.136a44.522,44.522,0,0,0,7.56-.6l.024-2.688a38.656,38.656,0,0,1-7.68.816c-3.552,0-5.3-1.08-5.3-2.928,0-1.728,1.32-3.216,3.432-4.584a73.843,73.843,0,0,1,6.96-3.768c.768-.384,1.44-.744,2.04-1.1Zm28.92-2.64a26.545,26.545,0,0,1-3.816,3.888l1.656,1.08a31.363,31.363,0,0,0,4.08-3.816Zm-13.416,3.84a16.636,16.636,0,0,0-3.888-3.576l-1.536,1.3a17.428,17.428,0,0,1,3.792,3.7Zm-.336,2.16c-2.136,1.176-4.272,2.376-5.712,3.072l1.1,1.848c1.56-.912,3.48-2.04,5.208-3.12Zm2.928.648h4.8V53.8h-4.8Zm0-3.72h4.8v2.088h-4.8ZM150.944,59.32V57.352h-9.5V55.528H144.9V52.456a30.674,30.674,0,0,1,5.136,3.432l1.392-1.68a31.215,31.215,0,0,0-5.448-3.36l-1.08,1.224V46.24h-3.888c.24-.624.528-1.344.792-2.064l-2.448-.336c-.12.7-.36,1.608-.576,2.4h-2.9v9.288h3.312v1.824h-9.36V59.32h7.44a21.793,21.793,0,0,1-7.992,4.392,10.918,10.918,0,0,1,1.488,1.848,22.368,22.368,0,0,0,8.424-5.4v5.688h2.256V60.232a22.472,22.472,0,0,0,8.52,5.16,9.4,9.4,0,0,1,1.512-1.872,21.162,21.162,0,0,1-8.136-4.2Zm9.312-14.112a13.658,13.658,0,0,1,.24,2.736c0,2.3-.24,8.424-.24,11.808,0,3.936,2.424,5.5,6.048,5.5a12.1,12.1,0,0,0,10.1-5.328l-1.7-2.088c-1.7,2.544-4.176,4.9-8.352,4.9-2.04,0-3.624-.864-3.624-3.36,0-3.312.192-8.784.288-11.424a26.565,26.565,0,0,1,.264-2.712Zm36.912,9a6.541,6.541,0,0,1,2.52,4.752c0,2.256-2.088,3.768-5.568,3.768-2.544,0-3.792-1.272-3.792-3.408,0-.5.048-1.224.12-2.064h.912a38.425,38.425,0,0,0,4.44-.24l.072-2.256a37.846,37.846,0,0,1-4.872.288h-.336c.144-1.248.312-2.568.48-3.792h.048a45.53,45.53,0,0,0,4.776-.24l.072-2.256a28.161,28.161,0,0,1-4.608.312l.288-2.16c.1-.576.192-1.128.36-1.872l-2.688-.144a9.678,9.678,0,0,1-.024,1.872c-.048.6-.12,1.368-.216,2.232a22.653,22.653,0,0,1-5.064-.912l-.12,2.208a29.572,29.572,0,0,0,4.92.84c-.168,1.248-.336,2.568-.48,3.816a19.7,19.7,0,0,1-4.872-.96l-.12,2.3a25.234,25.234,0,0,0,4.752.84c-.1,1.056-.168,1.944-.168,2.568,0,3.912,2.64,5.448,6.1,5.448,4.9,0,8.112-2.352,8.112-5.9a8.3,8.3,0,0,0-2.4-5.592Zm26.52,1.824c0,4.008-3.936,6.12-9.768,6.84l1.392,2.328c6.336-.936,10.992-3.96,10.992-9.072,0-3.528-2.568-5.544-6.12-5.544a32.377,32.377,0,0,0-7.152,1.128,19.9,19.9,0,0,1-2.352.36l.744,2.736a22.175,22.175,0,0,1,2.136-.744,21.581,21.581,0,0,1,6.336-1.2C222.248,52.864,223.688,54.208,223.688,56.032Zm-9.7-11.016-.36,2.28c2.712.48,7.656.936,10.344,1.128l.384-2.328A69.818,69.818,0,0,1,213.992,45.016Z" transform="translate(576 986.16)" fill="#0f0f0f"/>
  </g>
</svg>
