<svg xmlns="http://www.w3.org/2000/svg" width="207.264" height="50.16" viewBox="0 0 207.264 50.16">
  <g id="text" transform="translate(-695.248 -1001.84)">
    <path id="パス_17307" data-name="パス 17307" d="M-94.464-7.2c-.432-.528-2.256-2.424-3.048-3.12V-11.5h2.568v-1.032h13.488v-1.464h-5.76v-1.056h4.632V-16.44h-4.632v-1.032h5.208v-1.44h-5.208v-1.224h-2.232v1.224h-4.9v1.44h4.9v1.032h-4.416v1.392h4.416v1.056h-5.64v.408h-2.424v-3.648a24.124,24.124,0,0,0,2.952-.888l-1.536-1.7a33.432,33.432,0,0,1-7.248,1.752,6.88,6.88,0,0,1,.648,1.728c.96-.12,1.992-.264,3.024-.456v3.216h-3.456V-11.5h3.288a24.593,24.593,0,0,1-3.912,7.176,12.114,12.114,0,0,1,1.1,2.064A25.106,25.106,0,0,0-99.672-7.68V1.848h2.16V-8.04A26.113,26.113,0,0,1-95.76-5.448Zm9.648-1.56h-6.7v-1.3h6.7Zm0,2.688h-6.7v-1.32h6.7Zm0,2.688h-6.7V-4.7h6.7Zm2.088-8.112h-10.8v9.552h2.544a16.438,16.438,0,0,1-5.208,2.5,11.422,11.422,0,0,1,1.416,1.44,19.958,19.958,0,0,0,5.712-2.88L-90.72-1.944h7.992ZM-87.216-.864c1.464.912,3.144,2.064,4.08,2.784L-81.192.84C-82.3.1-84.144-1.032-85.728-1.944Zm17.64-13.392-.432.1h-6.576V-11.9h5.76c-1.128,4.488-3.456,7.92-6.432,9.84A9.021,9.021,0,0,1-75.432-.312c3.456-2.424,6.216-7.008,7.368-13.392ZM-57.6-16.344a41.651,41.651,0,0,1-5.3,5.664,32.865,32.865,0,0,1-1.848-5.16v-4.272H-67.1V-1.128c0,.432-.192.6-.672.6C-68.232-.5-69.768-.5-71.4-.576A10.487,10.487,0,0,1-70.536,1.9a13.228,13.228,0,0,0,4.56-.456c.864-.408,1.224-1.1,1.224-2.568V-9.984c1.824,4.464,4.464,8.088,8.3,10.1A9.74,9.74,0,0,1-54.72-1.944a16.058,16.058,0,0,1-7.224-6.912,55.281,55.281,0,0,0,6.408-6.024Zm11.256,8.616a31.356,31.356,0,0,1-3.72,6.576l2.616,1.1a34.327,34.327,0,0,0,3.528-6.72,54.755,54.755,0,0,0,2.136-7.368c.1-.528.312-1.44.48-2.04l-2.712-.552A36.5,36.5,0,0,1-46.344-7.728Zm11.832-.744A70.009,70.009,0,0,1-31.9-.12l2.76-.888c-.672-2.28-1.944-6.024-2.856-8.3-.96-2.424-2.544-5.9-3.528-7.7l-2.472.816A64.032,64.032,0,0,1-34.512-8.472Zm29.112-7.1a5.269,5.269,0,0,1-1.8.24h-4.848V-17.4a17.53,17.53,0,0,1,.144-1.992h-2.9A11.049,11.049,0,0,1-14.64-17.4v2.064h-5.232a22.8,22.8,0,0,1-2.328-.12,17.865,17.865,0,0,1,.1,1.944v4.2c0,.528-.048,1.224-.1,1.728h2.616a11.016,11.016,0,0,1-.1-1.584V-13.1H-6.912A16.652,16.652,0,0,1-9.12-6.48a12.34,12.34,0,0,1-6.048,4.512,15.068,15.068,0,0,1-2.88.792L-16.08,1.1A15.3,15.3,0,0,0-6.456-5.88a22.324,22.324,0,0,0,2.3-7.032,9.022,9.022,0,0,1,.408-1.632ZM19.2-17.3a7.28,7.28,0,0,1-2.088.24h-8.9a25.678,25.678,0,0,1-2.616-.168v2.712c.384-.024,1.68-.144,2.616-.144h8.808A19.745,19.745,0,0,1,13.2-8.328,26.967,26.967,0,0,1,3.336-1.3L5.28.72a30.715,30.715,0,0,0,9.24-6.888A51.912,51.912,0,0,1,20.856.84l2.136-1.872a63.791,63.791,0,0,0-6.864-7.032,32.849,32.849,0,0,0,3.936-6.84,8.284,8.284,0,0,1,.7-1.248ZM34.128-3.792c-.96,0-2.184-1.248-2.184-3.984a7.967,7.967,0,0,1,6.768-7.344A32.929,32.929,0,0,1,37.416-9C36.312-5.328,35.16-3.792,34.128-3.792ZM40.512.792c5.808-.816,9-4.272,9-9.24,0-4.992-3.624-8.976-9.336-8.976-5.952,0-10.632,4.584-10.632,9.864,0,3.96,2.16,6.624,4.512,6.624,2.376,0,4.344-2.712,5.784-7.56a54.394,54.394,0,0,0,1.416-6.672,6.286,6.286,0,0,1,5.712,6.624c0,3.84-2.712,6.048-5.76,6.744a13.459,13.459,0,0,1-2.112.336ZM64.7-5.016A17.329,17.329,0,0,1,67.56-1.2l1.776-1.152a17.162,17.162,0,0,0-2.952-3.7Zm12.288-6.048v-2.064H71.28v-2.616h4.632V-17.76H71.28v-2.4H69.072v2.4H64.584v2.016h4.488v2.616h-5.9v2.064h8.808V-8.5H64.032L63.84-9.84,61.32-9.1v-4.248h2.232v-2.112H61.32v-4.68H59.256v4.68H57.7c.192-1.008.312-2.064.432-3.1l-1.92-.336a27.819,27.819,0,0,1-1.488,7.824,16.834,16.834,0,0,1,1.608,1.008,20.8,20.8,0,0,0,.984-3.288h1.944V-8.52c-1.656.48-3.168.888-4.368,1.176l.576,2.136c1.128-.336,2.424-.72,3.792-1.128V1.872H61.32V-6.984l2.3-.72v1.272h8.352V-.768c0,.336-.12.432-.5.432-.384.024-1.68.024-3.024-.024a8.871,8.871,0,0,1,.7,2.232,12.928,12.928,0,0,0,3.96-.36c.816-.384,1.08-1.032,1.08-2.232V-6.432H76.8V-8.5H74.184v-2.568ZM100.32-6.84a32.987,32.987,0,0,1-4.584,3.024A12.652,12.652,0,0,1,93.5-6.84Zm.048,0h2.712V-8.832H88.1v-1.68h11.88v-1.776H88.1v-1.656h11.88V-15.72H88.1v-1.656H100.68v-1.872H85.848V-8.832H81.72V-6.84h4.1v6.1c-1.1.168-2.136.312-3,.432l.528,2.04c2.856-.456,6.888-1.1,10.656-1.752l-.12-1.968L88.1-1.1V-6.84h3.12C93.24-2.232,96.672.7,102.1,1.944a7.722,7.722,0,0,1,1.416-1.992A16.156,16.156,0,0,1,97.2-2.592a36.616,36.616,0,0,0,4.968-3.024Z" transform="translate(799 1022)" fill="#0f0f0f"/>
    <line id="線_7665" data-name="線 7665" x2="60" transform="translate(770 1051.5)" fill="none" stroke="#000" stroke-width="1"/>
  </g>
</svg>
