<svg xmlns="http://www.w3.org/2000/svg" width="94.098" height="14.721" viewBox="0 0 94.098 14.721">
  <path id="パス_17301" data-name="パス 17301" d="M9.68-8.016a26.541,26.541,0,0,0,4.272-3.44l-1.36-1.232A17.5,17.5,0,0,1,8.416-9.1,25.127,25.127,0,0,1,1.2-6.192L2.112-4.64A30.67,30.67,0,0,0,7.9-6.992v5.7a18.541,18.541,0,0,1-.1,1.888H9.792A12.032,12.032,0,0,1,9.68-1.3Zm17.5-2.944-1.12.48A17.42,17.42,0,0,1,27.536-7.9l1.152-.512C28.32-9.152,27.6-10.336,27.184-10.96Zm2.1-.832-1.12.512A16.34,16.34,0,0,1,29.7-8.752L30.832-9.3A22.1,22.1,0,0,0,29.28-11.792ZM16.736-4.352l1.488,1.5c.256-.368.624-.88.96-1.344.688-.88,1.952-2.56,2.672-3.44.5-.624.752-.624,1.36-.112a42.827,42.827,0,0,1,3.056,3.216C27.264-3.376,28.72-1.68,29.792-.3l1.328-1.44C29.968-3.1,28.3-4.88,27.232-6.032a37.4,37.4,0,0,0-3.3-3.28c-1.216-1.024-1.968-.912-2.864.144-1.056,1.248-2.384,2.928-3.12,3.68C17.488-5.04,17.168-4.72,16.736-4.352ZM35.728-11.92,34.56-10.672a36.376,36.376,0,0,1,4,3.392l1.264-1.3A32.4,32.4,0,0,0,35.728-11.92ZM34.08-1.216,35.152.432A17.641,17.641,0,0,0,41.28-1.952,16.49,16.49,0,0,0,46.9-7.744L45.92-9.488a15.234,15.234,0,0,1-5.552,6.032A16.625,16.625,0,0,1,34.08-1.216ZM61.712-5.664a55.212,55.212,0,0,0-6.768-2.56v-2.5c0-.56.064-1.264.112-1.792H53.088a11.583,11.583,0,0,1,.144,1.792v9.248A16.75,16.75,0,0,1,53.1.576h1.968a18.747,18.747,0,0,1-.128-2.048V-6.416a42.655,42.655,0,0,1,6.048,2.5Zm3.04-1.392v1.632h14.56V-7.056Zm30.432-3.632v-1.168H90.656a12.128,12.128,0,0,0,.448-1.28l-1.328-.3a9.7,9.7,0,0,1-1.984,3.76,8.666,8.666,0,0,1,1.168.768,8.988,8.988,0,0,0,1.168-1.776Zm-.432,2.9V-8.96H89.5v1.168ZM82.832-8.928h1.424v.736H82.832ZM84.256-12v.656H82.832V-12Zm2.112,2.224H82.832v-.72h3.536Zm1.824,1.584H85.456v-.736h2.208v-2.416H85.456V-12h2.512v-.88h-6.5V-7.3h6.72ZM84.48-3.024h6.992v.688H84.48Zm0-1.472h6.992v.672H84.48Zm0-1.472h6.992V-5.3H84.48ZM91.1-.08c-.688,0-.8-.048-.8-.432v-.976h2.624v-5.3H83.072v5.3h2.176C84.8-.512,83.728-.08,80.7.144a3.507,3.507,0,0,1,.64,1.136c3.6-.368,4.9-1.152,5.408-2.768h2.1V-.5c0,1.248.416,1.584,2.1,1.584h2.512c1.28,0,1.7-.4,1.84-2.1a4.923,4.923,0,0,1-1.264-.464c-.064,1.216-.16,1.392-.72,1.392Z" transform="translate(-1.199 13.44)" fill="#fff"/>
</svg>
