<svg xmlns="http://www.w3.org/2000/svg" width="364.804" height="10.45" viewBox="0 0 364.804 10.45">
  <path id="パス_17305" data-name="パス 17305" d="M-362,.143a3.2,3.2,0,0,0,2.519-1.166l-.682-.8a2.359,2.359,0,0,1-1.793.858c-1.43,0-2.332-1.177-2.332-3.1,0-1.9.968-3.069,2.365-3.069a2.153,2.153,0,0,1,1.584.726l.693-.814a3.12,3.12,0,0,0-2.3-1.023c-2.046,0-3.652,1.584-3.652,4.224S-364.034.143-362,.143Zm7.744,0c2.079,0,3.531-1.617,3.531-4.224s-1.452-4.169-3.531-4.169-3.52,1.562-3.52,4.169S-356.334.143-354.255.143Zm0-1.111c-1.342,0-2.211-1.21-2.211-3.113s.869-3.058,2.211-3.058,2.222,1.155,2.222,3.058S-352.913-.968-354.255-.968Zm6.314.968h1.276V-3.069h1.221c1.76,0,3.047-.814,3.047-2.585,0-1.826-1.287-2.442-3.091-2.442h-2.453Zm1.276-4.092V-7.073h1.056c1.287,0,1.958.352,1.958,1.419s-.616,1.562-1.914,1.562ZM-338.514,0h1.276V-3.069L-334.8-8.1h-1.331l-.946,2.145c-.242.605-.506,1.166-.77,1.782h-.044c-.275-.616-.506-1.177-.759-1.782l-.935-2.145h-1.364l2.431,5.027Zm7.128-7.073h1.221c1.177,0,1.815.341,1.815,1.32s-.638,1.463-1.815,1.463h-1.221ZM-326.8,0l-1.98-3.432a2.254,2.254,0,0,0,1.694-2.321c0-1.749-1.254-2.343-2.926-2.343h-2.651V0h1.276V-3.267h1.309L-328.24,0Zm2.442,0h1.276V-8.1h-1.276Zm7.8.143A3.637,3.637,0,0,0-314-.8V-4.312h-2.761v1.045h1.606v1.9a2.008,2.008,0,0,1-1.276.4c-1.672,0-2.563-1.177-2.563-3.1,0-1.9,1-3.069,2.508-3.069a2.19,2.19,0,0,1,1.672.726l.693-.814a3.23,3.23,0,0,0-2.409-1.023c-2.145,0-3.773,1.584-3.773,4.224S-318.725.143-316.558.143ZM-311.047,0h1.276V-3.685h3.465V0h1.276V-8.1h-1.276v3.3h-3.465V-8.1h-1.276Zm10.89,0h1.276V-7.029h2.387V-8.1h-6.039v1.067h2.376Zm13.277.121A3.957,3.957,0,0,0-282.854-4a3.926,3.926,0,0,0-4.026-4.081A3.917,3.917,0,0,0-290.9-4,3.954,3.954,0,0,0-286.88.121Zm0-.583A3.354,3.354,0,0,1-290.235-4a3.332,3.332,0,0,1,3.355-3.509A3.334,3.334,0,0,1-283.514-4,3.356,3.356,0,0,1-286.88-.462Zm.11-1.089a2.437,2.437,0,0,0,1.661-.682l-.429-.627a1.8,1.8,0,0,1-1.188.506c-.825,0-1.353-.638-1.353-1.639a1.413,1.413,0,0,1,1.408-1.562,1.363,1.363,0,0,1,1,.484l.506-.572a2.1,2.1,0,0,0-1.573-.7,2.278,2.278,0,0,0-2.31,2.354A2.247,2.247,0,0,0-286.77-1.551ZM-274.208.143c1.771,0,2.849-1.056,2.849-2.354a2.26,2.26,0,0,0-1.65-2.189l-1.111-.473c-.66-.264-1.309-.528-1.309-1.221,0-.649.539-1.045,1.364-1.045a2.579,2.579,0,0,1,1.782.726l.671-.814a3.468,3.468,0,0,0-2.453-1.023,2.406,2.406,0,0,0-2.662,2.233,2.329,2.329,0,0,0,1.65,2.123l1.122.484c.748.33,1.3.561,1.3,1.3,0,.682-.55,1.144-1.529,1.144a3.139,3.139,0,0,1-2.156-.957l-.748.88A4.039,4.039,0,0,0-274.208.143ZM-268.73,0h4.906V-1.078h-3.63V-3.7h2.97V-4.774h-2.97V-7.029h3.509V-8.1h-4.785Zm7.7,0h1.276V-2.442l1.243-1.518L-256.223,0h1.419l-2.926-4.972,2.508-3.124h-1.419l-3.08,3.828h-.033V-8.1h-1.276Zm8.393,0h1.276V-8.1h-1.276Zm6.809.143c1.771,0,2.849-1.056,2.849-2.354a2.26,2.26,0,0,0-1.65-2.189l-1.111-.473c-.66-.264-1.309-.528-1.309-1.221,0-.649.539-1.045,1.364-1.045a2.579,2.579,0,0,1,1.782.726l.671-.814a3.468,3.468,0,0,0-2.453-1.023,2.406,2.406,0,0,0-2.662,2.233,2.329,2.329,0,0,0,1.65,2.123l1.122.484c.748.33,1.3.561,1.3,1.3,0,.682-.55,1.144-1.529,1.144a3.139,3.139,0,0,1-2.156-.957l-.748.88A4.039,4.039,0,0,0-245.828.143Zm8.448,0c1.793,0,3-.979,3-3.619V-8.1h-1.232v4.708c0,1.826-.748,2.42-1.771,2.42s-1.738-.594-1.738-2.42V-8.1h-1.276v4.62C-240.394-.836-239.173.143-237.38.143ZM-231.187,0h1.276V-8.1h-1.276Zm8.074,0h1.276V-3.685h3.465V0h1.276V-8.1h-1.276v3.3h-3.465V-8.1h-1.276Zm12.32.143c2.079,0,3.531-1.617,3.531-4.224s-1.452-4.169-3.531-4.169-3.52,1.562-3.52,4.169S-212.872.143-210.793.143Zm0-1.111c-1.342,0-2.211-1.21-2.211-3.113s.869-3.058,2.211-3.058,2.222,1.155,2.222,3.058S-209.451-.968-210.793-.968Zm9.284,1.111c1.793,0,3-.979,3-3.619V-8.1h-1.232v4.708c0,1.826-.748,2.42-1.771,2.42s-1.738-.594-1.738-2.42V-8.1h-1.276v4.62C-204.523-.836-203.3.143-201.509.143Zm8.382,0c1.771,0,2.849-1.056,2.849-2.354a2.26,2.26,0,0,0-1.65-2.189l-1.111-.473c-.66-.264-1.309-.528-1.309-1.221,0-.649.539-1.045,1.364-1.045a2.579,2.579,0,0,1,1.782.726l.671-.814a3.468,3.468,0,0,0-2.453-1.023,2.406,2.406,0,0,0-2.662,2.233A2.329,2.329,0,0,0-194-3.894l1.122.484c.748.33,1.3.561,1.3,1.3,0,.682-.55,1.144-1.529,1.144a3.139,3.139,0,0,1-2.156-.957l-.748.88A4.039,4.039,0,0,0-193.127.143ZM-187.649,0h4.906V-1.078h-3.63V-3.7h2.97V-4.774h-2.97V-7.029h3.509V-8.1h-4.785Zm7.5,2.2a2.579,2.579,0,0,0,1.8-2.475c0-.847-.363-1.364-.979-1.364a.822.822,0,0,0-.88.814.793.793,0,0,0,.847.814.451.451,0,0,0,.121-.011,1.707,1.707,0,0,1-1.2,1.507ZM-172,0h4.7V-1.078h-3.421V-8.1H-172Zm7.392,0h1.276V-7.029h2.387V-8.1h-6.039v1.067h2.376Zm6.16,0h2.167c2.42,0,3.839-1.452,3.839-4.081s-1.419-4.015-3.9-4.015h-2.1Zm1.276-1.045V-7.062h.737c1.738,0,2.673.957,2.673,2.981s-.935,3.036-2.673,3.036Zm8.085,1.188a.842.842,0,0,0,.847-.88.861.861,0,0,0-.847-.9.861.861,0,0,0-.847.9A.842.842,0,0,0-149.083.143Zm8.6-3.454.33-1.089c.264-.88.517-1.771.748-2.695h.044c.253.913.495,1.815.77,2.695l.319,1.089ZM-137.28,0h1.353l-2.684-8.1h-1.474L-142.769,0h1.3l.693-2.31h2.816Zm3.52,0h4.7V-1.078h-3.421V-8.1h-1.276Zm7.227,0h4.7V-1.078h-3.421V-8.1h-1.276Zm12.078-7.073h1.221c1.177,0,1.815.341,1.815,1.32s-.638,1.463-1.815,1.463h-1.221ZM-109.868,0l-1.98-3.432a2.254,2.254,0,0,0,1.694-2.321c0-1.749-1.254-2.343-2.926-2.343h-2.651V0h1.276V-3.267h1.309L-111.309,0Zm2.442,0h1.276V-8.1h-1.276Zm7.8.143A3.637,3.637,0,0,0-97.064-.8V-4.312h-2.761v1.045h1.606v1.9a2.008,2.008,0,0,1-1.276.4c-1.672,0-2.563-1.177-2.563-3.1,0-1.9,1-3.069,2.508-3.069a2.19,2.19,0,0,1,1.672.726l.693-.814A3.23,3.23,0,0,0-99.594-8.25c-2.145,0-3.773,1.584-3.773,4.224S-101.794.143-99.627.143ZM-94.116,0h1.276V-3.685h3.465V0H-88.1V-8.1h-1.276v3.3H-92.84V-8.1h-1.276Zm10.89,0h1.276V-7.029h2.387V-8.1H-85.6v1.067h2.376Zm8.041.143c1.771,0,2.849-1.056,2.849-2.354A2.26,2.26,0,0,0-73.986-4.4L-75.1-4.873c-.66-.264-1.309-.528-1.309-1.221,0-.649.539-1.045,1.364-1.045a2.579,2.579,0,0,1,1.782.726l.671-.814A3.468,3.468,0,0,0-75.042-8.25,2.406,2.406,0,0,0-77.7-6.017a2.329,2.329,0,0,0,1.65,2.123l1.122.484c.748.33,1.3.561,1.3,1.3,0,.682-.55,1.144-1.529,1.144a3.139,3.139,0,0,1-2.156-.957l-.748.88A4.039,4.039,0,0,0-75.185.143Zm10.329-7.216h1.221c1.177,0,1.815.341,1.815,1.32s-.638,1.463-1.815,1.463h-1.221ZM-60.269,0l-1.98-3.432a2.254,2.254,0,0,0,1.694-2.321c0-1.749-1.254-2.343-2.926-2.343h-2.651V0h1.276V-3.267h1.309L-61.71,0Zm2.442,0h4.906V-1.078h-3.63V-3.7h2.97V-4.774h-2.97V-7.029h3.509V-8.1h-4.785Zm10.01.143c1.771,0,2.849-1.056,2.849-2.354A2.26,2.26,0,0,0-46.618-4.4l-1.111-.473c-.66-.264-1.309-.528-1.309-1.221,0-.649.539-1.045,1.364-1.045a2.579,2.579,0,0,1,1.782.726l.671-.814A3.468,3.468,0,0,0-47.674-8.25a2.406,2.406,0,0,0-2.662,2.233,2.329,2.329,0,0,0,1.65,2.123l1.122.484c.748.33,1.3.561,1.3,1.3,0,.682-.55,1.144-1.529,1.144a3.139,3.139,0,0,1-2.156-.957l-.748.88A4.039,4.039,0,0,0-47.817.143ZM-42.339,0h4.906V-1.078h-3.63V-3.7h2.97V-4.774h-2.97V-7.029h3.509V-8.1h-4.785Zm8.976-7.073h1.221c1.177,0,1.815.341,1.815,1.32s-.638,1.463-1.815,1.463h-1.221ZM-28.776,0l-1.98-3.432a2.254,2.254,0,0,0,1.694-2.321c0-1.749-1.254-2.343-2.926-2.343h-2.651V0h1.276V-3.267h1.309L-30.217,0Zm3.894,0h1.507l2.53-8.1h-1.3l-1.2,4.191c-.264.924-.462,1.716-.737,2.651h-.055c-.286-.935-.462-1.727-.737-2.651L-26.07-8.1h-1.353ZM-18.7,0h4.906V-1.078h-3.63V-3.7h2.97V-4.774h-2.97V-7.029h3.509V-8.1H-18.7ZM-11,0h2.167c2.42,0,3.839-1.452,3.839-4.081S-6.413-8.1-8.9-8.1H-11Zm1.276-1.045V-7.062h.737c1.738,0,2.673.957,2.673,2.981s-.935,3.036-2.673,3.036ZM-1.639.143a.842.842,0,0,0,.847-.88.861.861,0,0,0-.847-.9.861.861,0,0,0-.847.9A.842.842,0,0,0-1.639.143Z" transform="translate(365.596 8.25)" fill="#fff"/>
</svg>
