<svg xmlns="http://www.w3.org/2000/svg" width="289.3" height="93.054" viewBox="0 0 289.3 93.054">
  <g id="footer-add" transform="translate(-301.814 -4899.417)">
    <path id="常葉つくば支店_" data-name="常葉つくば支店　" d="M-73.42-9.68h6.84v1.64h-6.84Zm10.7,4.46H-68.8V-6.68h4.12v-4.36H-75.2v4.36h4.48v1.46h-6.3V.68h1.88V-3.54h4.42V1.58h1.92V-3.54h4.16v2.4c0,.24-.08.3-.4.32-.28,0-1.34,0-2.4-.04a7.912,7.912,0,0,1,.62,1.7A10.329,10.329,0,0,0-63.6.56c.68-.28.88-.78.88-1.68Zm-2.18-8.62a27.047,27.047,0,0,0,1.84-2.14l-1.98-.64A15.2,15.2,0,0,1-66.6-14.3l1.2.46h-3.58v-2.94H-70.9v2.94h-3.72l1.18-.52a10.736,10.736,0,0,0-1.58-2.24l-1.68.66a13.827,13.827,0,0,1,1.36,2.1H-78.3v4.46h1.78v-2.86h13.1v2.86h1.84v-4.46ZM-46-10.2v1.22h-3.66V-10.2Zm4.96,7.52V-4.14h-8.1V-5.4h7.4V-6.84h-12.7V-10.2h3v2.38h7.26V-10.2h3.02v-1.44h-3.02V-13H-45.7v-1.1h4.58v-1.44H-45.7v-1.24h-1.86v1.24h-4.92v-1.24h-1.86v1.24h-4.5v1.44h4.5v1.4h1.86v-1.4h4.92v1.48H-46v.98h-3.66v-1.5h-1.78v1.5h-3V-13H-56.3v1.36h-2.52v1.44h2.52v4.8h5.34v1.26H-58.9v1.46h6.48A21.745,21.745,0,0,1-59.34-.14,7.911,7.911,0,0,1-58.2,1.34a21.287,21.287,0,0,0,7.24-3.28v3.5h1.82V-2.12a16.931,16.931,0,0,0,7.3,3.52A7.507,7.507,0,0,1-40.66-.2a18.155,18.155,0,0,1-6.86-2.48Zm2.42-7.98.9,2.2c1.8-.74,6.68-2.84,9.78-2.84,2.54,0,3.96,1.54,3.96,3.52,0,3.8-4.44,5.36-9.7,5.48l.9,2.1c6.5-.34,11.02-2.9,11.02-7.54,0-3.46-2.7-5.44-6.1-5.44-2.92,0-6.86,1.42-8.46,1.92C-37.06-11.04-37.9-10.8-38.62-10.66ZM-7.54-16.2a11.656,11.656,0,0,1-1.3,1.48c-1.34,1.34-4.22,3.62-5.74,4.9-1.86,1.56-2.06,2.54-.14,4.14,1.82,1.54,5.02,4.24,6.1,5.4C-8.14.24-7.58.78-7.1,1.34L-5.3-.32c-1.94-1.92-5.68-4.94-7.34-6.32-1.18-1-1.18-1.26-.04-2.24,1.4-1.18,4.14-3.34,5.46-4.46.4-.3,1.02-.84,1.52-1.22Zm27.08,2.32a27.765,27.765,0,0,0-1.16-2.76l-1.16.38a18.99,18.99,0,0,1,1.14,2.76Zm-2.06.64A25.793,25.793,0,0,0,16.34-16l-1.14.34a24.936,24.936,0,0,1,1.08,2.82ZM2.7-15.26a14.69,14.69,0,0,1-.16,1.64,60.458,60.458,0,0,0-.86,8.3A23.984,23.984,0,0,0,2.44.98L4.22.84C4.2.6,4.18.3,4.18.1a3.548,3.548,0,0,1,.1-.9,43.73,43.73,0,0,1,1.4-4.52l-1-.8c-.32.74-.72,1.68-1.02,2.5A14.735,14.735,0,0,1,3.52-5.7a49.323,49.323,0,0,1,.98-7.84,10,10,0,0,1,.4-1.52ZM12.74-2.96c0,1.24-.44,1.98-1.92,1.98-1.26,0-2.14-.46-2.14-1.38,0-.82.9-1.4,2.22-1.4a7.048,7.048,0,0,1,1.84.26Zm4.96-9.26a29.759,29.759,0,0,1-3.26.46c.02-.92.04-1.76.06-2.26.02-.4.06-.82.12-1.22H12.36a9.4,9.4,0,0,1,.1,1.26c0,.5.02,1.34.02,2.34-.56.02-1.1.02-1.66.02-1.18,0-2.28-.06-3.4-.16V-9.9c1.16.06,2.24.12,3.38.12.56,0,1.12,0,1.68-.02.04,1.54.12,3.22.18,4.6a10.193,10.193,0,0,0-1.6-.12c-2.64,0-4.22,1.36-4.22,3.18C6.84-.24,8.42.88,11.1.88c2.76,0,3.64-1.56,3.64-3.4v-.06A18.081,18.081,0,0,1,17.46-.42l1.06-1.64a12.994,12.994,0,0,0-3.86-2.58c-.06-1.5-.18-3.3-.22-5.26,1.14-.1,2.24-.22,3.26-.38Zm16.36,4.7a11.835,11.835,0,0,1-4.02,4.24,11.674,11.674,0,0,1-3.8-4.24Zm1.38-1.92-.32.08H30.9V-12.1h7.46v-1.84H30.9v-2.84H28.98v2.84h-7.4v1.84h7.4v2.74H22.5v1.84h3.34l-1.38.48A14.477,14.477,0,0,0,28.24-2.3,26.847,26.847,0,0,1,20.78-.22a6.776,6.776,0,0,1,1.04,1.78A26.918,26.918,0,0,0,29.94-1.1a21.731,21.731,0,0,0,8.1,2.72,8.724,8.724,0,0,1,1.18-1.8,22.322,22.322,0,0,1-7.44-2.08,13.987,13.987,0,0,0,4.96-6.4ZM55.58-.82H47.62V-4.18h7.96ZM52.26-12.18H50.38v6.36H45.8v7.4h1.82V.84h7.96v.72h1.9V-5.82H52.26V-8.38h6.48v-1.66H52.26Zm-.7-2.16v-2.44H49.62v2.44h-7.2v5.08c0,2.86-.14,6.92-1.76,9.76a9.479,9.479,0,0,1,1.58,1.06c1.74-3.06,2.04-7.7,2.04-10.82v-3.28H59.02v-1.8Z" transform="translate(460.254 4961.825)" fill="#fff"/>
    <path id="_305-0821_茨城県つくば市春日2丁目_番地_F" data-name="〒305-0821 茨城県つくば市春日2丁目２８番地１ ２F" d="M1.815-7.843v.715h7.37v-.715Zm0,2.211v.715H5.1V-.11H5.9V-4.917H9.185v-.715ZM14.938.143a2.243,2.243,0,0,0,2.42-2.266A2.09,2.09,0,0,0,15.6-4.191v-.055a2,2,0,0,0,1.474-1.98,1.952,1.952,0,0,0-2.167-1.947,3.116,3.116,0,0,0-2.145.946l.374.44a2.516,2.516,0,0,1,1.76-.847,1.4,1.4,0,0,1,1.518,1.452c0,.957-.616,1.716-2.376,1.716v.539c1.914,0,2.662.726,2.662,1.8A1.669,1.669,0,0,1,14.916-.407,2.743,2.743,0,0,1,12.8-1.386l-.363.429A3.243,3.243,0,0,0,14.938.143Zm7.1,0c1.452,0,2.354-1.364,2.354-4.18,0-2.783-.9-4.125-2.354-4.125S19.668-6.82,19.668-4.037C19.668-1.221,20.57.143,22.033.143Zm0-.539c-1.045,0-1.727-1.21-1.727-3.641,0-2.387.682-3.586,1.727-3.586s1.716,1.2,1.716,3.586C23.749-1.606,23.067-.4,22.033-.4Zm6.82.539a2.54,2.54,0,0,0,2.508-2.717,2.276,2.276,0,0,0-2.376-2.574,2.473,2.473,0,0,0-1.342.385l.231-2.695h3.091v-.561H27.3l-.275,3.663.418.253a2.325,2.325,0,0,1,1.419-.506A1.816,1.816,0,0,1,30.7-2.552a1.966,1.966,0,0,1-1.87,2.145,2.7,2.7,0,0,1-2.1-.946L26.378-.9A3.3,3.3,0,0,0,28.853.143Zm4.7-2.915h2.706v-.539H33.55ZM40.766.143c1.452,0,2.354-1.364,2.354-4.18,0-2.783-.9-4.125-2.354-4.125S38.4-6.82,38.4-4.037C38.4-1.221,39.3.143,40.766.143Zm0-.539c-1.045,0-1.727-1.21-1.727-3.641,0-2.387.682-3.586,1.727-3.586s1.716,1.2,1.716,3.586C42.482-1.606,41.8-.4,40.766-.4Zm7.018.539a2.169,2.169,0,0,0,2.4-2.035,2.357,2.357,0,0,0-1.364-2.09v-.055a2.8,2.8,0,0,0,1.1-1.991,1.992,1.992,0,0,0-2.123-2.1,1.966,1.966,0,0,0-2.068,1.98,2.214,2.214,0,0,0,1.1,1.826v.044A2.712,2.712,0,0,0,45.3-1.991,2.262,2.262,0,0,0,47.784.143Zm.561-4.356c-1-.4-2-.847-2-1.936a1.4,1.4,0,0,1,1.441-1.463,1.507,1.507,0,0,1,1.54,1.606A2.339,2.339,0,0,1,48.345-4.213ZM47.784-.374A1.731,1.731,0,0,1,45.9-2.024a2.385,2.385,0,0,1,1.309-2.013c1.21.473,2.332.913,2.332,2.134A1.592,1.592,0,0,1,47.784-.374Zm4.5.374h4.829V-.572h-2.5c-.418,0-.88.033-1.32.066C55.429-2.5,56.727-4.18,56.727-5.863a2.1,2.1,0,0,0-2.222-2.3A2.948,2.948,0,0,0,52.25-7.007l.407.385a2.389,2.389,0,0,1,1.782-1,1.576,1.576,0,0,1,1.639,1.782c0,1.452-1.078,3.1-3.8,5.445Zm7.5,0h4.136V-.561H62.249V-8.019h-.517a4.6,4.6,0,0,1-1.529.506v.429h1.4V-.561H59.785ZM72.666-6.446h.517V-7.689H76.45v1.243h.528V-7.689h2.607v-.495H76.978v-.979H76.45v.979H73.183v-.979h-.517v.979H70v.495h2.662ZM70.015-4.884h2.959v-.495H70.015Zm3.091,2.178c-1.232.671-2.508,1.331-3.344,1.749l.286.462c.891-.473,2.09-1.133,3.212-1.749Zm3.3-2.222h2.431a13.774,13.774,0,0,1-.814,1.87l.451.154a14.334,14.334,0,0,0,1.067-2.42l-.363-.132-.11.033H74.492c.165-.429.319-.88.451-1.331l-.528-.11a9.931,9.931,0,0,1-1.7,3.542,3.179,3.179,0,0,1,.473.3,8.659,8.659,0,0,0,1.1-1.9h1.584v.935c0,.7-.33,3.234-3.773,4.378a2.062,2.062,0,0,1,.319.407,5.29,5.29,0,0,0,3.729-3.729A5.275,5.275,0,0,0,79.5.792c.077-.11.242-.33.341-.462a4.784,4.784,0,0,1-3.432-4.323ZM91.5-7.821a7.646,7.646,0,0,0-1.463-1.21l-.363.275a9.146,9.146,0,0,1,1.463,1.243Zm-6.457,5.4-1.2.451V-5.951H85v-.495H83.842V-9.053h-.506v2.607H82.06v.495h1.276v4.169c-.517.187-.99.363-1.375.5l.176.528c.858-.341,1.947-.759,3-1.188Zm6-3.168A12.677,12.677,0,0,1,89.8-2.464a32.489,32.489,0,0,1-.429-4.422h2.431v-.5H89.364c-.022-.572-.022-1.177-.022-1.793h-.517c.011.616.022,1.21.033,1.793H85.536V-4.1A7,7,0,0,1,84.293.5a1.327,1.327,0,0,1,.4.341A7.77,7.77,0,0,0,86.042-4.1v-.649h1.694a11.5,11.5,0,0,1-.209,3.146c-.055.088-.143.11-.286.11s-.561,0-.99-.044a1.17,1.17,0,0,1,.132.473c.407.022.814.022,1.034.022a.685.685,0,0,0,.539-.253c.176-.264.22-1.1.253-3.663.011-.077.011-.253.011-.253H86.042V-6.886H88.88a31.5,31.5,0,0,0,.539,5.027A7.749,7.749,0,0,1,87.153.352a2.083,2.083,0,0,1,.385.374,8.477,8.477,0,0,0,2.046-1.969c.341,1.221.825,1.936,1.485,1.936.627,0,.8-.539.9-2.156a1.261,1.261,0,0,1-.429-.264C91.487-.363,91.377.187,91.124.187c-.473,0-.88-.7-1.177-1.958a12.194,12.194,0,0,0,1.584-3.718Zm10.989-1.639H97.141V-8.283h4.884Zm0,1.5H97.141V-6.809h4.884Zm0,1.518H97.141V-5.3h4.884Zm.517-4.51H96.635v4.939h5.907Zm-5.863,6.93A8.687,8.687,0,0,1,94.138.264a3.29,3.29,0,0,1,.407.363,10.547,10.547,0,0,0,2.673-2.222Zm4.081.3A20.3,20.3,0,0,1,103.378.649L103.807.3a25.476,25.476,0,0,0-2.64-2.079Zm-5.445-1.32v-5.4H94.8V-1.98h.517v-.352h3.41V.792h.539V-2.332h4.6v-.484Zm11.253-2.761.275.638c.7-.253,3.6-1.518,5.489-1.518a2.222,2.222,0,0,1,2.475,2.178c0,2.42-2.662,3.289-5.456,3.366l.242.594c3.08-.176,5.83-1.265,5.83-3.949a2.78,2.78,0,0,0-3.08-2.717,17.125,17.125,0,0,0-4.653,1.1A10.185,10.185,0,0,1,106.568-5.577Zm18.117-3.1a3.991,3.991,0,0,1-.5.6c-.737.77-2.486,2.123-3.289,2.816-.913.781-1.056,1.21-.055,2.024,1.023.836,2.948,2.464,3.542,3.113.176.209.451.451.627.66L125.51.1c-1.056-1.067-3.025-2.739-4.114-3.608-.77-.627-.748-.814-.044-1.419.847-.693,2.486-2.024,3.256-2.717.143-.121.462-.418.627-.55ZM139.326-7.04c-.176-.451-.495-1.166-.693-1.551l-.418.132a12.9,12.9,0,0,1,.66,1.584Zm-7.755-1.221a4.549,4.549,0,0,1-.055.605A34.9,34.9,0,0,0,131-3.047a13.766,13.766,0,0,0,.4,3.432l.517-.044c-.011-.1-.033-.242-.044-.341a1.738,1.738,0,0,1,.055-.473,21.264,21.264,0,0,1,.759-2.288l-.33-.264c-.2.484-.506,1.3-.693,1.87a13.258,13.258,0,0,1-.132-1.969,25.68,25.68,0,0,1,.55-4.488,3.428,3.428,0,0,1,.154-.583Zm5.588,6.754c0,.781-.286,1.3-1.353,1.3-.9,0-1.485-.374-1.485-.979,0-.561.638-.99,1.573-.99a3.94,3.94,0,0,1,1.254.2C137.159-1.793,137.159-1.628,137.159-1.507Zm2.365-4.95a14.7,14.7,0,0,1-1.98.253c0-.506,0-1.078.022-1.419.011-.209.033-.407.066-.627h-.66a3.994,3.994,0,0,1,.033.638v1.441c-.4.011-.792.022-1.188.022-.627,0-1.188-.033-1.8-.088v.55c.638.033,1.166.077,1.782.077.407,0,.8-.011,1.21-.033.011.946.077,2.189.121,3.124a5.022,5.022,0,0,0-1.188-.143c-1.4,0-2.134.726-2.134,1.518,0,.891.715,1.463,2.145,1.463a1.533,1.533,0,0,0,1.749-1.65c0-.132,0-.275-.011-.429a7.154,7.154,0,0,1,1.848,1.32l.308-.462a7.309,7.309,0,0,0-2.167-1.441c-.044-1.023-.121-2.266-.132-3.333.682-.044,1.353-.121,1.98-.22Zm-.231-2.321a10.765,10.765,0,0,1,.682,1.562l.44-.165a16.41,16.41,0,0,0-.7-1.529Zm12.991,1.727v-.517h-4.642v-1.65H147.1v1.65h-4.576v.517H147.1v1.7h-3.4V-.594h.517V-4.829H147.1V.836h.539V-4.829h3.036V-1.4c0,.165-.044.22-.253.231s-.869.011-1.738-.011a2.58,2.58,0,0,1,.2.528,8.752,8.752,0,0,0,1.925-.1c.308-.1.4-.275.4-.649V-5.346h-3.564v-1.7Zm5.06,6.974V-1.441h4.433V-.077ZM161.777-1.9h-4.433V-3.179h4.433ZM161-4.7a8.345,8.345,0,0,0,.8,1.056h-4.488a8.29,8.29,0,0,0,.825-1.056ZM160.2-6.226a8.279,8.279,0,0,0,.5,1.045h-2.266a10.231,10.231,0,0,0,.517-1.045ZM164.362-4.7v-.484h-3.091a7.213,7.213,0,0,1-.539-1.045h2.684V-6.7h-4.29c.121-.33.22-.671.308-1h4.312v-.462h-4.213a9.567,9.567,0,0,0,.143-.957l-.528-.044a8.12,8.12,0,0,1-.143,1h-3.751V-7.7h3.652a8.788,8.788,0,0,1-.319,1H155.6v.473h2.8a10.671,10.671,0,0,1-.561,1.045H154.66V-4.7h2.86a8.033,8.033,0,0,1-3.08,2.563,1.342,1.342,0,0,1,.363.385,8.254,8.254,0,0,0,2.024-1.4V.792h.517V.385h4.433V.748h.539V-3.124A6.773,6.773,0,0,0,164.23-1.87a2.272,2.272,0,0,1,.363-.429,6.771,6.771,0,0,1-3-2.4ZM168.729-.55V-3.971h5.83V-.55Zm5.83-7.282v3.344h-5.83V-7.832ZM168.2-8.36V.682h.528V-.033h5.83V.616h.539V-8.36ZM178.695,0h4.829V-.572h-2.5c-.418,0-.88.033-1.32.066,2.134-1.991,3.432-3.674,3.432-5.357a2.1,2.1,0,0,0-2.222-2.3,2.948,2.948,0,0,0-2.255,1.155l.407.385a2.389,2.389,0,0,1,1.782-1,1.576,1.576,0,0,1,1.639,1.782c0,1.452-1.078,3.1-3.795,5.445Zm16.764-8.052h-9.548v.528h4.807v7.3c0,.253-.1.33-.363.341-.286.011-1.254.022-2.365-.011a2.675,2.675,0,0,1,.253.583,14.293,14.293,0,0,0,2.5-.1c.385-.11.561-.3.561-.825V-7.524h4.158Zm4.213,7.524V-2.662h6.16V-.528Zm6.16-4.774v2.123h-6.16V-5.3Zm0-2.607v2.1h-6.16v-2.1Zm-6.688-.517V.781h.528V-.011h6.16V.781h.539V-8.426ZM212.19,0H217.7V-.561h-3.146c-.429,0-.869.022-1.309.044,2.244-1.8,4.048-3.608,4.048-5.269a2.278,2.278,0,0,0-2.508-2.376,3.555,3.555,0,0,0-2.739,1.441l.462.385a2.958,2.958,0,0,1,2.244-1.254,1.727,1.727,0,0,1,1.881,1.815c0,1.463-1.771,3.223-4.444,5.39Zm14.839.132c1.771,0,2.761-.957,2.761-2.112a2.18,2.18,0,0,0-1.54-1.98V-4a2.58,2.58,0,0,0,1.276-2.09A2.241,2.241,0,0,0,227-8.162a2.235,2.235,0,0,0-2.475,2.035,1.923,1.923,0,0,0,1.243,1.782V-4.3a2.5,2.5,0,0,0-1.6,2.255C224.169-.858,225.247.132,227.029.132Zm.737-4.323c-1.386-.385-2.618-.814-2.618-1.936a1.666,1.666,0,0,1,1.826-1.518,1.726,1.726,0,0,1,1.936,1.584A2.156,2.156,0,0,1,227.766-4.191ZM227.04-.374c-1.375,0-2.244-.792-2.244-1.7a2.23,2.23,0,0,1,1.463-1.991c1.507.44,2.871.88,2.871,2.079C229.13-1.111,228.371-.374,227.04-.374Zm8.8-2.992a11.372,11.372,0,0,0,2.926-2.211h.044v1.991h.517V-5.577h.033a11.226,11.226,0,0,0,3.113,2.211Zm3.476,3.322V-1.309h2.761V-.044Zm-3.069-1.265h2.563V-.044h-2.563Zm2.563-.429h-2.563V-2.915h2.563Zm3.267,0h-2.761V-2.915h2.761Zm1.8-3.839V-6.05h-2.706a18.8,18.8,0,0,0,1.111-1.727l-.539-.187A11.617,11.617,0,0,1,240.7-6.182l.308.132h-1.683V-8.085a32.689,32.689,0,0,0,3.432-.495l-.374-.407a57.274,57.274,0,0,1-7.48.781,1.23,1.23,0,0,1,.132.418c1.2-.055,2.519-.132,3.773-.253V-6.05h-1.837l.385-.165a5.643,5.643,0,0,0-.913-1.551l-.462.176a6.363,6.363,0,0,1,.88,1.54h-2.541v.473h3.817a11.726,11.726,0,0,1-4.1,2.453,1.927,1.927,0,0,1,.363.429,11.828,11.828,0,0,0,1.331-.616V.814h.517V.407h5.83V.77h.528V-3.3a10.554,10.554,0,0,0,1.144.473,2.456,2.456,0,0,1,.385-.44,11.282,11.282,0,0,1-4.147-2.31Zm4.323-.385h1.408v-.506H248.2V-9.053H247.7v2.585h-1.5v.506h1.5v3.751c-.594.253-1.133.462-1.562.627l.209.517c.946-.4,2.178-.935,3.355-1.463L249.6-3c-.473.187-.946.4-1.4.583ZM251.878.055c-.748,0-.913-.165-.913-.737v-4.07l1.815-.77v3.938h.506V-5.731l1.9-.8a33.051,33.051,0,0,1-.11,3.663c-.066.286-.2.341-.374.341-.143,0-.561,0-.869-.022a1.778,1.778,0,0,1,.154.484,7.048,7.048,0,0,0,.957-.044.64.64,0,0,0,.616-.605,37.921,37.921,0,0,0,.132-4.29l.022-.121-.363-.154-.11.1-.165.154-1.793.759V-9.163h-.506v3.091l-1.815.77v-2.86h-.506V-5.1l-1.254.539.22.462,1.034-.429V-.7c0,1,.33,1.243,1.441,1.243h2.937c1.067,0,1.254-.462,1.353-1.947a1.375,1.375,0,0,1-.484-.22c-.088,1.353-.2,1.683-.869,1.683ZM260.667,0h5.456V-.55H263.78V-8.03h-.506a5.7,5.7,0,0,1-1.98.517v.429h1.837V-.55h-2.464Zm15.565,0h5.511V-.561H278.6c-.429,0-.869.022-1.309.044,2.244-1.8,4.048-3.608,4.048-5.269a2.278,2.278,0,0,0-2.508-2.376,3.555,3.555,0,0,0-2.739,1.441l.462.385A2.958,2.958,0,0,1,278.8-7.59a1.727,1.727,0,0,1,1.881,1.815c0,1.463-1.771,3.223-4.444,5.39Zm10.461,0h.66V-3.806h3.179v-.561h-3.179V-7.458h3.762v-.561h-4.422Z" transform="translate(299.999 4991.635)" fill="#fff"/>
    <g id="do-footer-logo_pc" transform="translate(249.339 4896.548)">
      <g id="グループ_46087" data-name="グループ 46087" transform="translate(81.658 2.869)">
        <g id="グループ_46085" data-name="グループ 46085">
          <path id="パス_17383" data-name="パス 17383" d="M202.546,16.764a44.661,44.661,0,0,0,5-6.815l-2.969-1.816a32.156,32.156,0,0,1-5.673,7.423c.51,6.3,3.419,14.622,9.745,16.223V28.012C204.842,25.881,203.1,21.189,202.546,16.764Z" transform="translate(-155.979 -5.908)" fill="#fff"/>
          <path id="パス_17384" data-name="パス 17384" d="M218.469,27.538V31.86c7.425-3.427,8.917-13.672,9.24-24.373h-3.656C223.806,17.541,222.263,24.951,218.469,27.538Z" transform="translate(-163.291 -5.666)" fill="#fff"/>
          <path id="パス_17385" data-name="パス 17385" d="M240.333,7.486a107.366,107.366,0,0,1,5.867,24.46h3.847a95.75,95.75,0,0,0-5.987-24.46Z" transform="translate(-171.46 -5.666)" fill="#fff"/>
          <path id="パス_17386" data-name="パス 17386" d="M312.826,10.411l.018-.415a1.315,1.315,0,0,0-1.327-1.378H296.448v3.589H308.88a19.185,19.185,0,0,1-13.2,16.487v3.723a21.822,21.822,0,0,0,11.71-7.266,38.855,38.855,0,0,1,4.519,7.266h4.341a43.14,43.14,0,0,0-6.639-10.46,25.1,25.1,0,0,0,3.215-11.546Z" transform="translate(-192.141 -6.089)" fill="#fff"/>
          <path id="パス_17387" data-name="パス 17387" d="M276.658,8.944h-6.385V5.931H266.26v3.01h-8.2v8.644h3.68V12.331H274.9c0,.251.005,1.6,0,1.839,0,7.338-2.892,11.65-10.075,13.654v3.588c7.159-.747,13.78-5.5,14-18.3v-2a2.17,2.17,0,0,0-2.167-2.17Z" transform="translate(-178.083 -5.085)" fill="#fff"/>
          <path id="パス_17388" data-name="パス 17388" d="M182.09,12.027a1.712,1.712,0,0,0-1.707-1.659H175.4l-.005,3.275h3.364c0,5.769-.973,11.328-5.4,14.235v4.166c3.258-1.293,8.733-6.092,8.733-18.4Z" transform="translate(-146.435 -6.743)" fill="#fff"/>
          <path id="パス_17389" data-name="パス 17389" d="M188.808,27.97h-2.762l.313,3.1H190.2A2.165,2.165,0,0,0,192.358,29V5.5h-3.547Z" transform="translate(-151.176 -4.924)" fill="#fff"/>
          <path id="パス_17390" data-name="パス 17390" d="M154.441,12.159h5.31V10.15h-5.31V8.768h5.753V6.793h-5.753V4.807h-3.394V6.793h-5.575V8.768h5.575V10.15h-5.132v2.009h5.132v1.315H145.46v2.1h14.774V13.474H154.44Z" transform="translate(-136.011 -4.665)" fill="#fff"/>
          <path id="パス_17391" data-name="パス 17391" d="M136.847,15.96v-.114h2.284V13.079h-2.284v-3.9a13.85,13.85,0,0,0,2.438-.887L138.22,5.5a26.629,26.629,0,0,1-7.18,1.64v2.97a18.243,18.243,0,0,0,2.873-.282v3.251H131.04v2.768h2.86a19.8,19.8,0,0,1-3.524,5.3v4.3a15.478,15.478,0,0,0,3.538-4.27V31.25h2.935V20.433a19.887,19.887,0,0,1,1.481,2.133l1.789-2.487a47.847,47.847,0,0,0-3.271-4.12Z" transform="translate(-130.374 -4.924)" fill="#fff"/>
          <path id="パス_17392" data-name="パス 17392" d="M156.348,34.133h3.121V25.42a1.714,1.714,0,0,0-1.709-1.707H146.042v10.42h3.1a16.341,16.341,0,0,1-3.461,1.23v2.811a19.4,19.4,0,0,0,5.608-1.98V34.133h3.069v2.4a16.6,16.6,0,0,0,5.652,1.7V35.4a18.93,18.93,0,0,1-3.758-1.272Zm-7.239-8.661h7.239v1.216h-7.239Zm0,2.767h7.239v1.282h-7.239Zm0,4.094V31.075h7.239v1.258Z" transform="translate(-136.095 -11.729)" fill="#fff"/>
          <path id="パス_17393" data-name="パス 17393" d="M338.785,13.145H341.5V10.173h-3.044V6.791h-2.871v3.382h-3.167v2.971h3.167v.219a35.413,35.413,0,0,1-3.966,6.89v4.565a18.457,18.457,0,0,0,3.966-5.707V31.7h2.871V18.186a32.124,32.124,0,0,1,1.536,4.2h2.856a97.371,97.371,0,0,0-4.063-9.238Z" transform="translate(-205.569 -5.406)" fill="#fff"/>
          <path id="パス_17394" data-name="パス 17394" d="M465.98,16.265a34.759,34.759,0,0,0,2.159-5.518,1.664,1.664,0,0,0-1.677-2.18c-.014,0-.027-.006-.042-.006h-2.012V5.921H461.22v2.64h-3.17v2.955h6.33c-1.411,4.423-4.537,9-7.4,10.027V25.2a14.343,14.343,0,0,0,4.239-2.574V31.47h3.188V19.909A37.236,37.236,0,0,1,466.6,24h3.649a69.144,69.144,0,0,0-4.269-7.73Z" transform="translate(-252.411 -5.081)" fill="#fff"/>
          <rect id="長方形_35126" data-name="長方形 35126" width="2.859" height="2.455" transform="translate(172.667)" fill="#fff"/>
          <path id="パス_17395" data-name="パス 17395" d="M394.236,11.849h3.883V8.79h-4.078q-.071-1.231-.15-2.568h-3.232c.054.887.1,1.742.155,2.568H377.18v3.058h13.827c1,15.007,2.109,18.919,7.4,19.981V28.241C395.877,27.025,395.091,24.6,394.236,11.849Z" transform="translate(-222.593 -5.194)" fill="#fff"/>
          <path id="パス_17396" data-name="パス 17396" d="M361.4,19.111V16.246h-4.835v-3.06h4.518V10.168h-4.518V6.791h-3.092v3.377h-2.524V6.791H348.2v4.684a1.713,1.713,0,0,0,1.712,1.711h3.564v3.06h-5.31v2.866h3.522a41.3,41.3,0,0,1-4.921,8.857l1.463,2.661a28.283,28.283,0,0,0,5.246-8.7V31.7h3.092V21.585a31.568,31.568,0,0,0,4.066,8.775l1.91-2.837a47.187,47.187,0,0,1-4.092-8.411Z" transform="translate(-211.229 -5.406)" fill="#fff"/>
          <path id="パス_17397" data-name="パス 17397" d="M416.541,29.514H421.2l-3.153,6.645.239,2.99H435.3c1.962,0,2.8-1.566,1.917-3.512l-1.906-3.946h-3.542l2.053,4.478H421.681l3.1-6.654h13.65v-3H416.541Z" transform="translate(-237.3 -12.778)" fill="#fff"/>
          <path id="パス_17398" data-name="パス 17398" d="M385.276,24.244H389.2V21.249H378.009v2.995h4.055V33.7c-1.5.119-2.928.2-4.055.2V37a85.325,85.325,0,0,0,12.114-1.323V32.664c-1.038.232-2.852.5-4.847.728Z" transform="translate(-222.903 -10.808)" fill="#fff"/>
          <path id="パス_17399" data-name="パス 17399" d="M425.039,5.684A67.229,67.229,0,0,1,414.978,12.8l.309,3.368a41.063,41.063,0,0,0,4.163-2.358V15.7h14.818v-2a27.776,27.776,0,0,0,3.8,2.157l.35-3.413a53.259,53.259,0,0,1-9.745-6.758ZM421.1,12.7a52.048,52.048,0,0,0,5.71-4.6,72.352,72.352,0,0,0,5.979,4.6Z" transform="translate(-236.716 -4.993)" fill="#fff"/>
          <path id="パス_17400" data-name="パス 17400" d="M482.418,28.53V12.842H486.8V9.854h-4.386V5.921H479.16V9.854h-3.923v2.987h3.923V28.53h-6.384v2.943H487.8V28.53Z" transform="translate(-258.312 -5.081)" fill="#fff"/>
        </g>
      </g>
    </g>
  </g>
</svg>
