<svg xmlns="http://www.w3.org/2000/svg" xmlns:xlink="http://www.w3.org/1999/xlink" width="269.9" height="33.897" viewBox="0 0 269.9 33.897">
  <defs>
    <clipPath id="clip-path">
      <rect id="長方形_35065" data-name="長方形 35065" width="42.632" height="33.897" transform="translate(0 0)" fill="none"/>
    </clipPath>
  </defs>
  <g id="number" transform="translate(-300 -5127.5)">
    <path id="パス_17301" data-name="パス 17301" d="M8.55.39c4.32,0,7.14-3.84,7.14-11.52,0-7.62-2.82-11.37-7.14-11.37-4.35,0-7.14,3.72-7.14,11.37C1.41-3.45,4.2.39,8.55.39Zm0-2.73c-2.25,0-3.84-2.4-3.84-8.79,0-6.33,1.59-8.64,3.84-8.64s3.84,2.31,3.84,8.64C12.39-4.74,10.8-2.34,8.55-2.34ZM22.08,0h12.6V-2.85H30.36V-22.08H27.75a13.563,13.563,0,0,1-4.8,1.68v2.19h3.96V-2.85H22.08ZM40.32,0H54.57V-2.94H49.05c-1.08,0-2.46.09-3.6.21,4.68-4.47,8.07-8.88,8.07-13.14a6.244,6.244,0,0,0-6.66-6.63c-2.88,0-4.83,1.26-6.72,3.3l1.95,1.92a5.988,5.988,0,0,1,4.35-2.46c2.46,0,3.75,1.65,3.75,4.05,0,3.63-3.36,7.92-9.87,13.68ZM67.05.39c4.32,0,7.14-3.84,7.14-11.52,0-7.62-2.82-11.37-7.14-11.37-4.35,0-7.14,3.72-7.14,11.37C59.91-3.45,62.7.39,67.05.39Zm0-2.73c-2.25,0-3.84-2.4-3.84-8.79,0-6.33,1.59-8.64,3.84-8.64s3.84,2.31,3.84,8.64C70.89-4.74,69.3-2.34,67.05-2.34ZM79.41-7.2h7.92V-9.75H79.41ZM99.15.39a7.285,7.285,0,0,0,7.44-7.65c0-4.83-3.03-7.02-6.72-7.02a6.225,6.225,0,0,0-3.03.78l.51-5.67h8.19v-2.91H94.35l-.66,10.47,1.68,1.11a5.809,5.809,0,0,1,3.54-1.26c2.52,0,4.2,1.68,4.2,4.62s-1.89,4.71-4.38,4.71A7.065,7.065,0,0,1,93.57-4.8L91.92-2.55A9.771,9.771,0,0,0,99.15.39Zm20.64-2.64c-2.37,0-3.96-2.07-4.32-6.45,1.32-1.89,2.82-2.58,4.11-2.58,2.37,0,3.63,1.59,3.63,4.44S121.71-2.25,119.79-2.25Zm6.27-17.88a7.415,7.415,0,0,0-5.52-2.37c-4.35,0-8.34,3.39-8.34,11.88,0,7.5,3.42,11.01,7.62,11.01,3.6,0,6.6-2.85,6.6-7.23,0-4.68-2.49-6.96-6.21-6.96a6.638,6.638,0,0,0-4.8,2.55c.15-6.3,2.49-8.43,5.31-8.43a4.744,4.744,0,0,1,3.45,1.65ZM138.15.39a7.285,7.285,0,0,0,7.44-7.65c0-4.83-3.03-7.02-6.72-7.02a6.225,6.225,0,0,0-3.03.78l.51-5.67h8.19v-2.91H133.35l-.66,10.47,1.68,1.11a5.809,5.809,0,0,1,3.54-1.26c2.52,0,4.2,1.68,4.2,4.62s-1.89,4.71-4.38,4.71a7.065,7.065,0,0,1-5.16-2.37l-1.65,2.25A9.771,9.771,0,0,0,138.15.39ZM151.02-7.2h7.92V-9.75h-7.92ZM168.51,0h3.54c.36-8.64,1.17-13.5,6.36-19.98v-2.1H164.19v2.91h10.38C170.31-13.23,168.9-8.07,168.51,0ZM190.8.39c4.26,0,7.14-2.52,7.14-5.79,0-3-1.74-4.71-3.72-5.85v-.15a6.861,6.861,0,0,0,2.91-5.19c0-3.45-2.4-5.85-6.24-5.85-3.63,0-6.3,2.25-6.3,5.7a6.242,6.242,0,0,0,2.97,5.16v.15a6.763,6.763,0,0,0-3.96,5.94C183.6-2.07,186.66.39,190.8.39Zm1.44-12.66c-2.46-.96-4.56-2.07-4.56-4.47a3.024,3.024,0,0,1,3.15-3.21,3.276,3.276,0,0,1,3.39,3.57A5.59,5.59,0,0,1,192.24-12.27ZM190.86-2.1c-2.37,0-4.2-1.53-4.2-3.72a5.633,5.633,0,0,1,2.58-4.62c3,1.23,5.43,2.25,5.43,4.95C194.67-3.42,193.11-2.1,190.86-2.1ZM204.3,0h12.6V-2.85h-4.32V-22.08h-2.61a13.563,13.563,0,0,1-4.8,1.68v2.19h3.96V-2.85H204.3Z" transform="translate(353 5154.61)" fill="#fff"/>
    <g id="フリーコール" transform="translate(300 5127.5)">
      <g id="グループ_45964" data-name="グループ 45964" transform="translate(0 0)" clip-path="url(#clip-path)">
        <path id="パス_17286" data-name="パス 17286" d="M84.086,42.041h4.646a.606.606,0,1,0,0-1.212H84.086a.606.606,0,1,0,0,1.212" transform="translate(-53.372 -26.104)" fill="#fff"/>
        <path id="パス_17287" data-name="パス 17287" d="M64.5,62.522H69.15a.606.606,0,1,0,0-1.212H64.5a.606.606,0,1,0,0,1.212" transform="translate(-40.851 -39.198)" fill="#fff"/>
        <path id="パス_17288" data-name="パス 17288" d="M48.3,34.385h-4.01a.606.606,0,1,0,0,1.212H47.67c-.141,1.9-.993,2.944-2.974,3.753a.606.606,0,0,0,.458,1.122,5.287,5.287,0,0,0,3.75-5.481.608.608,0,0,0-.606-.607" transform="translate(-27.926 -21.984)" fill="#fff"/>
        <path id="パス_17289" data-name="パス 17289" d="M48.25,55.375H44.287a.605.605,0,1,0,0,1.21h3.358v2.981H44.287a.606.606,0,1,0,0,1.212H48.25a.605.605,0,0,0,.607-.607V55.98a.6.6,0,0,0-.607-.6" transform="translate(-27.926 -35.404)" fill="#fff"/>
        <path id="パス_17290" data-name="パス 17290" d="M64.857,37.286V34.232a.605.605,0,0,0-1.21,0v3.054a.605.605,0,1,0,1.21,0" transform="translate(-40.692 -21.499)" fill="#fff"/>
        <path id="パス_17291" data-name="パス 17291" d="M67.128,40.025c2.911-.477,3.423-1.836,3.423-4.515V34.232a.605.605,0,1,0-1.21,0v1.277c0,2.338-.284,2.973-2.409,3.32a.606.606,0,1,0,.2,1.2" transform="translate(-42.468 -21.499)" fill="#fff"/>
        <path id="パス_17292" data-name="パス 17292" d="M84.092,55.222c0,2.219-.117,3.507-.8,4.824a.606.606,0,1,0,1.078.555,10.947,10.947,0,0,0,.932-5.38.607.607,0,0,0-1.213,0" transform="translate(-53.211 -34.918)" fill="#fff"/>
        <path id="パス_17293" data-name="パス 17293" d="M93.769,56.713a.606.606,0,0,0-.735.442,3.377,3.377,0,0,1-1.268,2.056V54.842a.606.606,0,1,0-1.211,0V60.08a.6.6,0,0,0,.211.46.607.607,0,0,0,.483.14c1.4-.206,2.506-1.415,2.958-3.232a.606.606,0,0,0-.44-.735" transform="translate(-57.896 -34.675)" fill="#fff"/>
        <path id="パス_17294" data-name="パス 17294" d="M38.055,6.43C34.026,2.4,27.77,0,21.316,0,9.562,0,0,7.761,0,17.3A10.351,10.351,0,0,0,1.68,23.03.921.921,0,0,0,3.2,21.99,8.488,8.488,0,0,1,1.844,17.3c0-8.525,8.736-15.459,19.472-15.459,5.977,0,11.747,2.2,15.435,5.892a13.176,13.176,0,0,1,4.038,9.458c0,7.385-7.173,14.861-20.882,14.861-3.478,0-6.513-1.04-8.325-2.853a6.013,6.013,0,0,1-1.259-1.8l.137.084a1.122,1.122,0,0,0,.829-.215A7.684,7.684,0,0,0,13.4,23.058c.18-1.632-2.143-2.191-1.816-5.194.144-1.313,2.055-5.536,3.579-6.761a4.285,4.285,0,0,1,3.358-.687c1.873.205,3.375-3.481,3.529-4.885.084-.771-1.185-1.734-3.271-1.961a5.449,5.449,0,0,0-3.9,1.315c-2.69,2.1-7.848,11.855-8.359,16.55a5.871,5.871,0,0,0,1.493,4.6l.056.032A7.341,7.341,0,0,0,10.278,30.5c2.187,2.188,5.607,3.393,9.63,3.393,6.742,0,12.518-1.752,16.7-5.065a14.81,14.81,0,0,0,6.023-11.639A15,15,0,0,0,38.055,6.43" transform="translate(0 0)" fill="#fff"/>
      </g>
    </g>
  </g>
</svg>
