<svg xmlns="http://www.w3.org/2000/svg" xmlns:xlink="http://www.w3.org/1999/xlink" width="288.4" height="100.258" viewBox="0 0 288.4 100.258">
  <defs>
    <clipPath id="clip-path">
      <rect id="長方形_35065" data-name="長方形 35065" width="42.632" height="33.897" transform="translate(0 0)" fill="none"/>
    </clipPath>
  </defs>
  <g id="number" transform="translate(-292.108 -5127.5)">
    <g id="フリーコール" transform="translate(300 5127.5)">
      <g id="グループ_45964" data-name="グループ 45964" transform="translate(0 0)" clip-path="url(#clip-path)">
        <path id="パス_17286" data-name="パス 17286" d="M84.086,42.041h4.646a.606.606,0,1,0,0-1.212H84.086a.606.606,0,1,0,0,1.212" transform="translate(-53.372 -26.104)" fill="#fff"/>
        <path id="パス_17287" data-name="パス 17287" d="M64.5,62.522H69.15a.606.606,0,1,0,0-1.212H64.5a.606.606,0,1,0,0,1.212" transform="translate(-40.851 -39.198)" fill="#fff"/>
        <path id="パス_17288" data-name="パス 17288" d="M48.3,34.385h-4.01a.606.606,0,1,0,0,1.212H47.67c-.141,1.9-.993,2.944-2.974,3.753a.606.606,0,0,0,.458,1.122,5.287,5.287,0,0,0,3.75-5.481.608.608,0,0,0-.606-.607" transform="translate(-27.926 -21.984)" fill="#fff"/>
        <path id="パス_17289" data-name="パス 17289" d="M48.25,55.375H44.287a.605.605,0,1,0,0,1.21h3.358v2.981H44.287a.606.606,0,1,0,0,1.212H48.25a.605.605,0,0,0,.607-.607V55.98a.6.6,0,0,0-.607-.6" transform="translate(-27.926 -35.404)" fill="#fff"/>
        <path id="パス_17290" data-name="パス 17290" d="M64.857,37.286V34.232a.605.605,0,0,0-1.21,0v3.054a.605.605,0,1,0,1.21,0" transform="translate(-40.692 -21.499)" fill="#fff"/>
        <path id="パス_17291" data-name="パス 17291" d="M67.128,40.025c2.911-.477,3.423-1.836,3.423-4.515V34.232a.605.605,0,1,0-1.21,0v1.277c0,2.338-.284,2.973-2.409,3.32a.606.606,0,1,0,.2,1.2" transform="translate(-42.468 -21.499)" fill="#fff"/>
        <path id="パス_17292" data-name="パス 17292" d="M84.092,55.222c0,2.219-.117,3.507-.8,4.824a.606.606,0,1,0,1.078.555,10.947,10.947,0,0,0,.932-5.38.607.607,0,0,0-1.213,0" transform="translate(-53.211 -34.918)" fill="#fff"/>
        <path id="パス_17293" data-name="パス 17293" d="M93.769,56.713a.606.606,0,0,0-.735.442,3.377,3.377,0,0,1-1.268,2.056V54.842a.606.606,0,1,0-1.211,0V60.08a.6.6,0,0,0,.211.46.607.607,0,0,0,.483.14c1.4-.206,2.506-1.415,2.958-3.232a.606.606,0,0,0-.44-.735" transform="translate(-57.896 -34.675)" fill="#fff"/>
        <path id="パス_17294" data-name="パス 17294" d="M38.055,6.43C34.026,2.4,27.77,0,21.316,0,9.562,0,0,7.761,0,17.3A10.351,10.351,0,0,0,1.68,23.03.921.921,0,0,0,3.2,21.99,8.488,8.488,0,0,1,1.844,17.3c0-8.525,8.736-15.459,19.472-15.459,5.977,0,11.747,2.2,15.435,5.892a13.176,13.176,0,0,1,4.038,9.458c0,7.385-7.173,14.861-20.882,14.861-3.478,0-6.513-1.04-8.325-2.853a6.013,6.013,0,0,1-1.259-1.8l.137.084a1.122,1.122,0,0,0,.829-.215A7.684,7.684,0,0,0,13.4,23.058c.18-1.632-2.143-2.191-1.816-5.194.144-1.313,2.055-5.536,3.579-6.761a4.285,4.285,0,0,1,3.358-.687c1.873.205,3.375-3.481,3.529-4.885.084-.771-1.185-1.734-3.271-1.961a5.449,5.449,0,0,0-3.9,1.315c-2.69,2.1-7.848,11.855-8.359,16.55a5.871,5.871,0,0,0,1.493,4.6l.056.032A7.341,7.341,0,0,0,10.278,30.5c2.187,2.188,5.607,3.393,9.63,3.393,6.742,0,12.518-1.752,16.7-5.065a14.81,14.81,0,0,0,6.023-11.639A15,15,0,0,0,38.055,6.43" transform="translate(0 0)" fill="#fff"/>
      </g>
    </g>
    <path id="パス_17525" data-name="パス 17525" d="M8.55.39c4.32,0,7.14-3.84,7.14-11.52,0-7.62-2.82-11.37-7.14-11.37-4.35,0-7.14,3.72-7.14,11.37C1.41-3.45,4.2.39,8.55.39Zm0-2.73c-2.25,0-3.84-2.4-3.84-8.79,0-6.33,1.59-8.64,3.84-8.64s3.84,2.31,3.84,8.64C12.39-4.74,10.8-2.34,8.55-2.34ZM22.08,0h12.6V-2.85H30.36V-22.08H27.75a13.563,13.563,0,0,1-4.8,1.68v2.19h3.96V-2.85H22.08ZM40.32,0H54.57V-2.94H49.05c-1.08,0-2.46.09-3.6.21,4.68-4.47,8.07-8.88,8.07-13.14a6.244,6.244,0,0,0-6.66-6.63c-2.88,0-4.83,1.26-6.72,3.3l1.95,1.92a5.988,5.988,0,0,1,4.35-2.46c2.46,0,3.75,1.65,3.75,4.05,0,3.63-3.36,7.92-9.87,13.68ZM67.05.39c4.32,0,7.14-3.84,7.14-11.52,0-7.62-2.82-11.37-7.14-11.37-4.35,0-7.14,3.72-7.14,11.37C59.91-3.45,62.7.39,67.05.39Zm0-2.73c-2.25,0-3.84-2.4-3.84-8.79,0-6.33,1.59-8.64,3.84-8.64s3.84,2.31,3.84,8.64C70.89-4.74,69.3-2.34,67.05-2.34ZM79.41-7.2h7.92V-9.75H79.41ZM99.15.39a7.285,7.285,0,0,0,7.44-7.65c0-4.83-3.03-7.02-6.72-7.02a6.225,6.225,0,0,0-3.03.78l.51-5.67h8.19v-2.91H94.35l-.66,10.47,1.68,1.11a5.809,5.809,0,0,1,3.54-1.26c2.52,0,4.2,1.68,4.2,4.62s-1.89,4.71-4.38,4.71A7.065,7.065,0,0,1,93.57-4.8L91.92-2.55A9.771,9.771,0,0,0,99.15.39Zm20.64-2.64c-2.37,0-3.96-2.07-4.32-6.45,1.32-1.89,2.82-2.58,4.11-2.58,2.37,0,3.63,1.59,3.63,4.44S121.71-2.25,119.79-2.25Zm6.27-17.88a7.415,7.415,0,0,0-5.52-2.37c-4.35,0-8.34,3.39-8.34,11.88,0,7.5,3.42,11.01,7.62,11.01,3.6,0,6.6-2.85,6.6-7.23,0-4.68-2.49-6.96-6.21-6.96a6.638,6.638,0,0,0-4.8,2.55c.15-6.3,2.49-8.43,5.31-8.43a4.744,4.744,0,0,1,3.45,1.65ZM138.15.39a7.285,7.285,0,0,0,7.44-7.65c0-4.83-3.03-7.02-6.72-7.02a6.225,6.225,0,0,0-3.03.78l.51-5.67h8.19v-2.91H133.35l-.66,10.47,1.68,1.11a5.809,5.809,0,0,1,3.54-1.26c2.52,0,4.2,1.68,4.2,4.62s-1.89,4.71-4.38,4.71a7.065,7.065,0,0,1-5.16-2.37l-1.65,2.25A9.771,9.771,0,0,0,138.15.39ZM151.02-7.2h7.92V-9.75h-7.92ZM168.51,0h3.54c.36-8.64,1.17-13.5,6.36-19.98v-2.1H164.19v2.91h10.38C170.31-13.23,168.9-8.07,168.51,0ZM190.8.39c4.26,0,7.14-2.52,7.14-5.79,0-3-1.74-4.71-3.72-5.85v-.15a6.861,6.861,0,0,0,2.91-5.19c0-3.45-2.4-5.85-6.24-5.85-3.63,0-6.3,2.25-6.3,5.7a6.242,6.242,0,0,0,2.97,5.16v.15a6.763,6.763,0,0,0-3.96,5.94C183.6-2.07,186.66.39,190.8.39Zm1.44-12.66c-2.46-.96-4.56-2.07-4.56-4.47a3.024,3.024,0,0,1,3.15-3.21,3.276,3.276,0,0,1,3.39,3.57A5.59,5.59,0,0,1,192.24-12.27ZM190.86-2.1c-2.37,0-4.2-1.53-4.2-3.72a5.633,5.633,0,0,1,2.58-4.62c3,1.23,5.43,2.25,5.43,4.95C194.67-3.42,193.11-2.1,190.86-2.1ZM204.3,0h12.6V-2.85h-4.32V-22.08h-2.61a13.563,13.563,0,0,1-4.8,1.68v2.19h3.96V-2.85H204.3Z" transform="translate(353 5154.61)" fill="#fff"/>
    <path id="パス_17524" data-name="パス 17524" d="M-141.358-.518c-.658,0-1.792-.658-1.792-1.414,0-.714.994-1.624,2.268-2.2.014,1.134.042,2.268.042,2.87C-140.84-.826-140.994-.518-141.358-.518Zm1.134-5.026c0-.644.014-1.456.042-2.226a25.066,25.066,0,0,0,3.038-.532l-.014-.728a19.693,19.693,0,0,1-3.01.6c.028-.812.042-1.5.042-1.792s.028-.56.056-.812h-.812a5.091,5.091,0,0,1,.07.84c0,.252-.014.966-.042,1.834-.434.028-.854.056-1.2.056a11.576,11.576,0,0,1-1.68-.126l.028.728c.476.042,1.022.07,1.666.07.336,0,.742-.028,1.176-.07-.014.77-.028,1.568-.028,2.212v.658c-1.512.658-3,1.834-3,2.926,0,1.12,1.75,2.114,2.674,2.114.658,0,1.064-.378,1.064-1.414,0-.686-.042-1.988-.056-3.192a8.47,8.47,0,0,1,3.262-.644c1.358,0,2.576.672,2.576,1.974,0,1.456-1.232,2.184-2.506,2.408a7.03,7.03,0,0,1-1.6.1l.266.714a8.654,8.654,0,0,0,1.652-.168c1.722-.406,2.884-1.372,2.884-3.066,0-1.512-1.316-2.6-3.276-2.6a10.243,10.243,0,0,0-3.276.6Zm4.326-3.388a15.927,15.927,0,0,1,3,2.1l.392-.588a20.309,20.309,0,0,0-3.024-2.058Zm11.312-1.512V-9h-3.542v-1.442Zm-3.542,3.57V-8.442h3.542v1.568Zm4.186.588v-4.732H-128.8V1.036h.672V-6.286Zm2.6,2.03v2.7h-3.85v-2.7Zm.644,3.318v-3.92h-5.138V-.084h.644V-.938Zm-1.162-5.936V-8.442h3.654v1.568Zm3.654-3.57V-9h-3.654v-1.442Zm.672-.574h-4.97v4.732h4.3V-.028c0,.252-.084.336-.35.336s-1.148.028-2.142,0a3.026,3.026,0,0,1,.252.7A11.992,11.992,0,0,0-118.062.9c.378-.126.532-.378.532-.924Zm5.6,1.414-.882-.028a7.477,7.477,0,0,1,.07,1.134c0,.784.014,2.506.14,3.654.392,3.514,1.61,4.8,2.8,4.8.84,0,1.666-.784,2.464-3.094l-.588-.6c-.42,1.568-1.12,2.87-1.862,2.87-1.064,0-1.862-1.61-2.114-4.13a31.3,31.3,0,0,1-.112-3.472C-112-8.806-111.958-9.366-111.93-9.6Zm7.392.42-.7.252a13.418,13.418,0,0,1,2.366,6.664l.728-.294A14.338,14.338,0,0,0-104.538-9.184ZM-88.886-3.85V-.21h-7V-3.85Zm-7.672,4.872h.672V.406h7v.616h.672v-5.5h-8.344Zm.63-8.092v.616h7.07V-7.07Zm3.136-4.55A16.486,16.486,0,0,1-98.8-6.328a4.48,4.48,0,0,1,.434.518,18.189,18.189,0,0,0,5.95-5.138,19.153,19.153,0,0,0,6.09,5.012,5.34,5.34,0,0,1,.448-.574,17.762,17.762,0,0,1-6.258-5.11Zm13.8,2.87-.14.042c.112-1.05.21-1.876.266-2.184l-.9-.042a6.705,6.705,0,0,1,.042.9c0,.154-.042.728-.084,1.47-.77.126-1.736.224-2.2.252a6.257,6.257,0,0,1-.728.014l.07.784c.924-.126,2.212-.294,2.814-.378-.042.5-.07,1.05-.112,1.582-.658,1.036-2.352,3.374-3.122,4.34l.476.63c.8-1.12,1.862-2.632,2.576-3.71-.028.6-.056,1.12-.056,1.428-.014,1.4-.014,1.96-.028,3.29a4.938,4.938,0,0,1-.042.7h.812L-79.38-.35c-.056-1.2-.042-1.862-.042-3.206,0-.56.028-1.2.056-1.89a6.745,6.745,0,0,1,4.55-2.114A2.751,2.751,0,0,1-71.89-4.872c.014,2.52-2.282,3.654-4.578,3.976l.308.7c2.786-.532,5-1.876,4.97-4.662a3.4,3.4,0,0,0-3.542-3.374A7.088,7.088,0,0,0-79.31-6.314c.028-.392.056-.8.084-1.19.182-.308.406-.644.56-.9Zm19.712-1.89a5.681,5.681,0,0,1,.07.9c0,.616,0,1.484-.014,2.212-1.6.126-3.36.308-4.8.448l.014-2.184a9.227,9.227,0,0,1,.042-.938h-.8a5.924,5.924,0,0,1,.056.966v2.226c-.8.07-1.456.14-1.862.168a11.641,11.641,0,0,1-1.274.07l.084.784c.378-.056.826-.126,1.246-.182s1.064-.112,1.806-.2c0,1.442,0,2.982.014,3.584C-64.638-.7-64.4.042-61.418.042c1.456,0,3.15-.14,4.074-.238l.028-.756a28.666,28.666,0,0,1-4.116.294c-2.59,0-2.534-.644-2.59-2.212-.028-.5-.014-2.044-.014-3.57,1.5-.154,3.29-.322,4.816-.434a25.362,25.362,0,0,1-.182,2.6c-.042.336-.2.392-.574.392a7.628,7.628,0,0,1-1.442-.182l-.014.658a10.1,10.1,0,0,0,1.68.2c.574,0,.868-.182.966-.728a25.018,25.018,0,0,0,.224-2.982c.7-.042,1.33-.084,1.806-.084.35,0,.756-.014.952,0v-.756c-.28.014-.588.042-.938.056-.532.028-1.148.07-1.806.112.014-.672.014-1.512.028-2.17a8.668,8.668,0,0,1,.042-.882Zm16.94-.448-.546.238A12.663,12.663,0,0,1-41.72-8.89l.56-.266A18.125,18.125,0,0,0-42.336-11.088Zm1.47-.518-.518.238a13.2,13.2,0,0,1,1.19,1.932l.546-.252A16.37,16.37,0,0,0-40.866-11.606Zm-9.1,2.884c1.078.1,2.254.154,3.612.154,1.246,0,2.646-.1,3.57-.168v-.728c-.966.1-2.254.2-3.57.2a30.266,30.266,0,0,1-3.612-.182Zm-.518,4.62a8.087,8.087,0,0,0-.294,1.89c0,1.652,1.666,2.506,4.27,2.506A18.735,18.735,0,0,0-41.832-.2l-.014-.77a16.057,16.057,0,0,1-4.662.546c-2.352,0-3.542-.8-3.542-1.932a5.13,5.13,0,0,1,.308-1.666ZM-25.1-6.552l-.14.042h-3.29l.182-.266c-.448-.238-1.036-.56-1.694-.868A21.318,21.318,0,0,0-26.166-10.6l-.49-.364-.168.042h-8.862v.644h8.2a18.26,18.26,0,0,1-3.234,2.3c-.91-.434-1.876-.9-2.716-1.26l-.378.476c1.456.658,3.3,1.582,4.522,2.254h-7.686v.644h5.908V.014c0,.224-.07.28-.322.294s-1.162.028-2.212,0a3.065,3.065,0,0,1,.252.644A12.091,12.091,0,0,0-30.926.84c.406-.112.546-.322.546-.826v-5.88h4.662a15.244,15.244,0,0,1-2.058,2.492l.546.35A21.077,21.077,0,0,0-24.57-6.3Zm4.172,2.73A10.186,10.186,0,0,1-21.938-.448a3.485,3.485,0,0,1,.56.28A12.641,12.641,0,0,0-20.314-3.7Zm3.01.126A12.322,12.322,0,0,1-17-.966l.574-.182a11.58,11.58,0,0,0-.966-2.716Zm-.42-3.248a14.1,14.1,0,0,1,.826,1.428c-.952.028-1.89.07-2.73.1a47.205,47.205,0,0,0,3.038-4.41l-.616-.28c-.42.8-1.022,1.778-1.638,2.716a9.763,9.763,0,0,0-1.064-1.19,29.508,29.508,0,0,0,1.61-2.828l-.616-.252a19.14,19.14,0,0,1-1.386,2.716c-.168-.154-.322-.294-.476-.42l-.364.42A12.6,12.6,0,0,1-19.824-6.86c-.378.532-.756,1.036-1.106,1.456l-.868.028.056.644c.686-.028,1.512-.07,2.408-.112V1.064h.63V-4.872l1.47-.084a6.892,6.892,0,0,1,.322.868l.56-.28a11.225,11.225,0,0,0-1.456-2.8Zm8.988-2.114h-5.376a19.754,19.754,0,0,0,.952-2.45l-.658-.168a13.293,13.293,0,0,1-2.6,4.942,3.445,3.445,0,0,1,.6.392A11.684,11.684,0,0,0-15.064-8.4h5.04c-.238,5.894-.5,8.05-.98,8.582a.8.8,0,0,1-.63.182c-.322,0-1.218-.014-2.184-.1a1.564,1.564,0,0,1,.21.672,17.347,17.347,0,0,0,2.156.056A1.19,1.19,0,0,0-10.416.546c.574-.658.812-2.814,1.064-9.2ZM-12.474-2.9a14.005,14.005,0,0,0-2.044-3.248l-.56.266a14.613,14.613,0,0,1,2,3.318Zm8.036-7.756a5.787,5.787,0,0,1-.07.77,42.188,42.188,0,0,0-.658,5.852A17.544,17.544,0,0,0-4.676.336L-4.018.28c-.014-.112-.028-.294-.042-.42A2.2,2.2,0,0,1-4-.742a29.726,29.726,0,0,1,.98-2.912l-.434-.336c-.252.616-.644,1.652-.882,2.366a18.629,18.629,0,0,1-.168-2.492,32.676,32.676,0,0,1,.714-5.712,4.427,4.427,0,0,1,.182-.742Zm7.1,8.6C2.66-1.064,2.3-.406.952-.406c-1.162,0-1.89-.476-1.89-1.246,0-.714.812-1.26,1.988-1.26a5.014,5.014,0,0,1,1.6.252C2.66-2.422,2.66-2.226,2.66-2.058ZM6.09-1.3a9.547,9.547,0,0,0-2.758-1.82c-.056-1.3-.154-2.87-.168-4.242.868-.056,1.708-.154,2.52-.28v-.714a21.275,21.275,0,0,1-2.52.322c0-.644,0-1.372.028-1.806.014-.266.042-.518.084-.8h-.84a7.5,7.5,0,0,1,.042.812c-.014.448-.014,1.106-.014,1.834-.49.014-.994.028-1.5.028-.8,0-1.526-.042-2.3-.112v.686c.8.056,1.484.1,2.268.1.5,0,1.022-.014,1.526-.028.014,1.19.1,2.786.154,3.976a6.272,6.272,0,0,0-1.5-.182c-1.778,0-2.73.924-2.73,1.932,0,1.12.924,1.862,2.744,1.862a1.952,1.952,0,0,0,2.226-2.1c0-.168,0-.364-.014-.56A9.516,9.516,0,0,1,5.7-.7ZM19.306-11.55a14.478,14.478,0,0,1-1.288,1.834l.532.238a18.792,18.792,0,0,0,1.414-1.778ZM12.8-9.772a10.7,10.7,0,0,0-1.274-1.736l-.588.266a10.925,10.925,0,0,1,1.218,1.778Zm-.308,2.786h5.978V-5.32H12.488ZM20.3-3.4H15.918V-4.76h3.22V-7.546H11.844V-4.76h3.4V-3.4H10.654V.392h.672V-2.786h3.92V1.036h.672V-2.786h3.7V-.434c0,.168-.056.21-.266.238-.238.014-.98.014-1.946-.014a2.857,2.857,0,0,1,.252.616,10.072,10.072,0,0,0,2.2-.112c.35-.112.448-.308.448-.742ZM15.89-9.338v-2.338H15.2v2.338H9.744v2.772h.644V-8.722H20.51v2.156h.672V-9.338Zm12.18.49h.658v-1.2H32.8v1.26h.672v-1.26h3.514v-.574H33.474v-1.036H32.8v1.036H28.728v-1.036H28.07v1.036H24.626v.574H28.07Zm5.88,1.5v1.232H30.59V-7.35Zm3.066,5.138V-2.8H31.094V-4.032h5.46v-.574H27.328V-7.35h2.618V-5.6h4.676V-7.35h2.366v-.6H34.622V-9.114H33.95v1.162H30.59V-9.226h-.644v1.274H27.328V-9.086H26.67v1.134H24.626v.6H26.67v3.318h3.766V-2.8h-5.81v.588H29.68A15.461,15.461,0,0,1,24.332.224a2.736,2.736,0,0,1,.448.532,14.971,14.971,0,0,0,5.656-2.9v3.15h.658V-2.2a13.25,13.25,0,0,0,5.74,3,2.815,2.815,0,0,1,.434-.574,13.124,13.124,0,0,1-5.4-2.436ZM40.432-7.1l.35.812c.9-.322,4.578-1.932,6.986-1.932,1.988,0,3.15,1.232,3.15,2.772,0,3.08-3.388,4.186-6.944,4.284l.308.756C48.2-.63,51.7-2.016,51.7-5.432c0-2.184-1.75-3.458-3.92-3.458a21.8,21.8,0,0,0-5.922,1.4A12.962,12.962,0,0,1,40.432-7.1ZM63.49-11.046a5.079,5.079,0,0,1-.63.77c-.938.98-3.164,2.7-4.186,3.584-1.162.994-1.344,1.54-.07,2.576,1.3,1.064,3.752,3.136,4.508,3.962.224.266.574.574.8.84l.63-.56C63.2-1.232,60.69-3.36,59.3-4.466c-.98-.8-.952-1.036-.056-1.806,1.078-.882,3.164-2.576,4.144-3.458.182-.154.588-.532.8-.7ZM82.124-8.96c-.224-.574-.63-1.484-.882-1.974l-.532.168a16.418,16.418,0,0,1,.84,2.016Zm-9.87-1.554a5.787,5.787,0,0,1-.07.77,44.422,44.422,0,0,0-.658,5.866A17.52,17.52,0,0,0,72.03.49l.658-.056C72.674.308,72.646.126,72.632,0a2.211,2.211,0,0,1,.07-.6,27.065,27.065,0,0,1,.966-2.912l-.42-.336C73-3.234,72.6-2.2,72.366-1.47A16.874,16.874,0,0,1,72.2-3.976a32.682,32.682,0,0,1,.7-5.712,4.361,4.361,0,0,1,.2-.742Zm7.112,8.6c0,.994-.364,1.652-1.722,1.652-1.148,0-1.89-.476-1.89-1.246,0-.714.812-1.26,2-1.26a5.014,5.014,0,0,1,1.6.252C79.366-2.282,79.366-2.072,79.366-1.918Zm3.01-6.3a18.71,18.71,0,0,1-2.52.322c0-.644,0-1.372.028-1.806.014-.266.042-.518.084-.8h-.84a5.084,5.084,0,0,1,.042.812v1.834c-.5.014-1.008.028-1.512.028-.8,0-1.512-.042-2.3-.112v.7c.812.042,1.484.1,2.268.1.518,0,1.022-.014,1.54-.042.014,1.2.1,2.786.154,3.976a6.392,6.392,0,0,0-1.512-.182c-1.778,0-2.716.924-2.716,1.932,0,1.134.91,1.862,2.73,1.862a1.952,1.952,0,0,0,2.226-2.1c0-.168,0-.35-.014-.546A9.105,9.105,0,0,1,82.39-.56l.392-.588a9.3,9.3,0,0,0-2.758-1.834c-.056-1.3-.154-2.884-.168-4.242.868-.056,1.722-.154,2.52-.28Zm-.294-2.954a13.7,13.7,0,0,1,.868,1.988l.56-.21a20.882,20.882,0,0,0-.9-1.946ZM96.46-6.244l-.154.028H92.722V-8.68h5.5v-.686h-5.5v-2.3H92.05v2.3H86.562v.686H92.05v2.464H87.178v.658h8.75A9.307,9.307,0,0,1,92.414-1.82a9.265,9.265,0,0,1-3.248-3.738l-.6.238a10.1,10.1,0,0,0,3.22,3.85A18.829,18.829,0,0,1,86.058.378a3.349,3.349,0,0,1,.392.63A19.12,19.12,0,0,0,92.386-1.05a15.48,15.48,0,0,0,5.936,2.114,3.069,3.069,0,0,1,.434-.616,15.6,15.6,0,0,1-5.726-1.89A9.911,9.911,0,0,0,96.894-5.95Zm15.722,6.09h-6.748V-3.318h6.748Zm-3.234-8.582h-.672v4.788h-3.5v5h.658V.462h6.748v.546h.672V-3.948h-3.906v-2.3h4.914V-6.86h-4.914Zm-.42-1.008v-1.918h-.686v1.918h-5.25v3.668c0,1.988-.112,4.746-1.246,6.734a3.394,3.394,0,0,1,.574.378c1.162-2.072,1.344-5.04,1.344-7.112V-9.1h10.794v-.644ZM123.4-1.512c0,1.05-.77,1.316-1.6,1.316-1.624,0-2.2-.574-2.2-1.288s.8-1.3,2.338-1.3a6.9,6.9,0,0,1,1.442.154C123.382-2.2,123.4-1.806,123.4-1.512Zm4.774.574a11.03,11.03,0,0,0-4.116-2.2c-.028-.728-.07-1.568-.084-2.408A34.973,34.973,0,0,0,127.9-5.88v-.7a35.542,35.542,0,0,1-3.948.392V-8.5c1.274-.07,2.492-.2,3.7-.308v-.7a29.74,29.74,0,0,1-3.7.35v-.9a8.282,8.282,0,0,1,.07-.9h-.784c.014.14.028.532.028.756v1.064h-.728a23.258,23.258,0,0,1-3.388-.266v.714c.826.1,2.394.21,3.4.21.238,0,.476,0,.714-.014v2.31c-.266.014-.532.014-.8.014a25.332,25.332,0,0,1-3.556-.266l-.014.714c1.036.112,2.548.2,3.57.2.266,0,.546,0,.812-.014.028.686.056,1.484.07,2.226a8.114,8.114,0,0,0-1.33-.112c-1.932,0-3.094.8-3.094,1.974,0,1.26,1.05,1.89,2.912,1.89,1.806,0,2.282-1.036,2.282-1.862,0-.238-.014-.6-.028-1.036a9.974,9.974,0,0,1,3.668,2.156Zm13.594-6.328-.5.224a15.166,15.166,0,0,1,1.162,2l.532-.252A16.3,16.3,0,0,0,141.764-7.266Zm1.512-.56-.49.238a13.8,13.8,0,0,1,1.2,2l.518-.266A16.2,16.2,0,0,0,143.276-7.826ZM132.832-8.988l.1.84c1.442-.294,5.726-.7,6.944-.826a5.681,5.681,0,0,0-2.87,4.9c0,3.15,3.024,4.41,5.39,4.452l.252-.714c-2.184-.07-4.942-.938-4.942-3.906A5.2,5.2,0,0,1,141.022-8.9a10.079,10.079,0,0,1,2.73-.238v-.742c-.9.028-2.058.112-3.626.238-2.562.21-5.376.518-6.118.588C133.728-9.03,133.364-9,132.832-8.988ZM-77.07,19.818h-7.98V17.494h7.98Zm-7.14-6.776h6.16v1.974h-6.16Zm6.818,2.548V12.468H-84.84V15.59h3.08c-.112.406-.266.9-.406,1.288h-3.528v4.144h.644v-.588h7.98v.56h.658V16.878h-5.11c.168-.392.322-.854.476-1.288Zm-.392-5.026a20.378,20.378,0,0,0,1.442-1.806L-77,8.478a15.042,15.042,0,0,1-1.568,2.086h-2.674l.49-.21a8.043,8.043,0,0,0-1.134-2.016l-.574.21a10.406,10.406,0,0,1,1.106,2.016h-3l.322-.168a9.2,9.2,0,0,0-1.344-1.862l-.56.252a10.207,10.207,0,0,1,1.26,1.778H-86.8v2.618h.63v-2h10.08v2h.658V10.564Zm9.044.084A8.392,8.392,0,0,0-70,8.534l-.574.2a10.047,10.047,0,0,1,1.246,2.156Zm7.182-2.086a15.8,15.8,0,0,1-1.19,2.184l.546.21a23.422,23.422,0,0,0,1.3-2.2Zm-1.918,3a14.852,14.852,0,0,1-.854,1.624l.336.112H-67.7l.448-.126a6.457,6.457,0,0,0-.854-1.61Zm3.724,6.034v-.6h-5.754V15.716h4.522v-.574h-4.522v-1.26H-60.3v-.588h-3.444a17.473,17.473,0,0,0,.966-1.638l-.322-.1h3.29v-.6h-4.354V8.324h-.644v2.632H-66.85V8.324h-.658v2.632h-4.27v.6h3.6l-.546.14a6.143,6.143,0,0,1,.812,1.6h-3.3v.588h5.054v1.26h-4.354v.574h4.354V16.99h-5.684v.6h4.914a13.7,13.7,0,0,1-5.236,2.576,3.009,3.009,0,0,1,.448.574,13.8,13.8,0,0,0,5.558-3.052v3.332h.658V17.648a14.209,14.209,0,0,0,5.628,3.164,2.615,2.615,0,0,1,.448-.588,13.566,13.566,0,0,1-5.32-2.632Zm6.636-7.672v3.486H-55.58V9.92Zm-2.464,7.686v-3.57h2.464v3.57Zm3.108-8.316h-3.766V19.328h.658V18.236h3.108Zm1.358,7.6a10.369,10.369,0,0,1,1.862,2.52l.574-.378a10.18,10.18,0,0,0-1.9-2.464Zm7.14-3.43v-.63h-3.864v-2.1h3.164v-.616h-3.164V8.324H-48.5v1.792h-3.08v.616h3.08v2.1h-3.738v.63h5.614v1.82h-5.516V15.9h5.516v4.2c0,.2-.056.266-.308.28-.224,0-1.022,0-1.988-.028a2.445,2.445,0,0,1,.238.644,11.417,11.417,0,0,0,2.226-.1c.364-.112.49-.336.49-.8V15.9h1.806v-.616h-1.806v-1.82Zm7.574-3.92v1.442h-3.584V9.542Zm-3.584,3.5V11.53H-36.4v1.512Zm4.228.56V8.982h-4.886V21.036h.658V13.6Zm2.618,1.764v1.54H-36.96v-1.54Zm-3.822,3.78V17.494h3.822v1.652Zm4.466-4.368H-37.6v5.656h.644V19.72h4.466Zm-1.176-1.736V11.53h3.7v1.512Zm3.7-3.5v1.442h-3.7V9.542Zm.672-.56h-5.012v4.634h4.34v6.37c0,.238-.084.322-.336.322s-1.092.028-2.03,0a3.275,3.275,0,0,1,.252.7,10.691,10.691,0,0,0,2.254-.112c.392-.126.532-.378.532-.91Zm3.22,11.788.378.378L-13.146,8.59l-.378-.378Zm18.62-.588c1.848,0,3-1.736,3-5.32,0-3.542-1.148-5.25-3-5.25s-3.01,1.708-3.01,5.25C-10.472,18.446-9.324,20.182-7.462,20.182Zm0-.686c-1.33,0-2.2-1.54-2.2-4.634,0-3.038.868-4.564,2.2-4.564s2.184,1.526,2.184,4.564C-5.278,17.956-6.146,19.5-7.462,19.5Zm8.638-4.074c-1.414,0-2.044-1.078-2.044-2.548s.826-2.59,1.932-2.59c1.6,0,2.408,1.414,2.492,3.64A3.057,3.057,0,0,1,1.176,15.422ZM-1.47,19.2a2.98,2.98,0,0,0,2.254.98c1.862,0,3.584-1.54,3.584-5.838,0-3.08-1.316-4.732-3.29-4.732A3,3,0,0,0-1.68,12.874c0,2.072,1.05,3.206,2.758,3.206A3.324,3.324,0,0,0,3.57,14.722C3.486,18.25,2.212,19.482.8,19.482A2.3,2.3,0,0,1-.98,18.67ZM8.316,14.33a.765.765,0,1,0-.714-.756A.719.719,0,0,0,8.316,14.33Zm0,5.852a.765.765,0,1,0-.714-.756A.719.719,0,0,0,8.316,20.182Zm6.9,0c1.848,0,3-1.736,3-5.32,0-3.542-1.148-5.25-3-5.25s-3.01,1.708-3.01,5.25C12.208,18.446,13.356,20.182,15.218,20.182Zm0-.686c-1.33,0-2.2-1.54-2.2-4.634,0-3.038.868-4.564,2.2-4.564S17.4,11.824,17.4,14.862C17.4,17.956,16.534,19.5,15.218,19.5Zm8.89.686c1.848,0,3-1.736,3-5.32,0-3.542-1.148-5.25-3-5.25s-3.01,1.708-3.01,5.25C21.1,18.446,22.246,20.182,24.108,20.182Zm0-.686c-1.33,0-2.2-1.54-2.2-4.634,0-3.038.868-4.564,2.2-4.564s2.184,1.526,2.184,4.564C26.292,17.956,25.424,19.5,24.108,19.5Zm14.952-3.08a4.116,4.116,0,0,0,3.57-2.366l-.686-.364a3.334,3.334,0,0,1-2.884,1.96A3.539,3.539,0,0,1,36.5,14.4a4.245,4.245,0,0,0-3.066-1.456,4.116,4.116,0,0,0-3.57,2.366l.686.364a3.334,3.334,0,0,1,2.884-1.96,3.592,3.592,0,0,1,2.562,1.246A4.245,4.245,0,0,0,39.06,16.416ZM45.934,20H51.2v-.714H49.07V9.794h-.658a5.859,5.859,0,0,1-1.946.644v.546h1.778v8.3h-2.31Zm11.4.182a2.761,2.761,0,0,0,3.052-2.59,3,3,0,0,0-1.736-2.66v-.07a3.568,3.568,0,0,0,1.4-2.534,2.535,2.535,0,0,0-2.7-2.674,2.5,2.5,0,0,0-2.632,2.52,2.818,2.818,0,0,0,1.4,2.324v.056a3.452,3.452,0,0,0-1.946,2.912A2.879,2.879,0,0,0,57.33,20.182Zm.714-5.544c-1.274-.5-2.548-1.078-2.548-2.464a1.787,1.787,0,0,1,1.834-1.862,1.918,1.918,0,0,1,1.96,2.044A2.977,2.977,0,0,1,58.044,14.638Zm-.714,4.886a2.2,2.2,0,0,1-2.394-2.1A3.036,3.036,0,0,1,56.6,14.862c1.54.6,2.968,1.162,2.968,2.716A2.026,2.026,0,0,1,57.33,19.524Zm6.846-5.194a.765.765,0,1,0-.714-.756A.719.719,0,0,0,64.176,14.33Zm0,5.852a.765.765,0,1,0-.714-.756A.719.719,0,0,0,64.176,20.182Zm6.9,0c1.848,0,3-1.736,3-5.32,0-3.542-1.148-5.25-3-5.25s-3.01,1.708-3.01,5.25C68.068,18.446,69.216,20.182,71.078,20.182Zm0-.686c-1.33,0-2.2-1.54-2.2-4.634,0-3.038.868-4.564,2.2-4.564s2.184,1.526,2.184,4.564C73.262,17.956,72.394,19.5,71.078,19.5Zm8.89.686c1.848,0,3-1.736,3-5.32,0-3.542-1.148-5.25-3-5.25s-3.01,1.708-3.01,5.25C76.958,18.446,78.106,20.182,79.968,20.182Zm0-.686c-1.33,0-2.2-1.54-2.2-4.634,0-3.038.868-4.564,2.2-4.564s2.184,1.526,2.184,4.564C82.152,17.956,81.284,19.5,79.968,19.5ZM-105.168,30.69h10.122v2.128h.686V30.046h-5.418V28.338h-.686v1.708h-5.376v2.772h.672Zm5.39,5.922h4.354v-.644h-4.354V33.294h3.948V32.65h-8.4v.644h3.78V39.72a4.582,4.582,0,0,1-3.01-3,17.973,17.973,0,0,0,.364-1.918l-.672-.056c-.336,2.59-1.134,4.62-2.73,5.88a4.9,4.9,0,0,1,.56.448,7.908,7.908,0,0,0,2.212-3.472c1.274,2.66,3.486,3.192,6.58,3.192h3.122a1.677,1.677,0,0,1,.28-.672c-.532.014-3,.014-3.36.014a13.193,13.193,0,0,1-2.674-.238Zm12.432-8.176a14.931,14.931,0,0,1-3.99,5.782,4.369,4.369,0,0,1,.448.63,15.879,15.879,0,0,0,1.946-2.2v8.344h.672V31.67a18.912,18.912,0,0,0,1.582-3.038Zm8.932,4.228v-.658h-4.3V28.52h-.658v3.486h-4.172v.658h3.682a14.347,14.347,0,0,1-4.088,6.062,6.166,6.166,0,0,1,.532.518,15.889,15.889,0,0,0,4.046-6.132v7.924h.658V32.874a17.758,17.758,0,0,0,4.1,6.3,2.67,2.67,0,0,1,.518-.532,15.731,15.731,0,0,1-4.088-5.978Zm5.46,6.636V34.946h7.42V39.3Zm7.42-9.268v4.256h-7.42V30.032Zm-8.092-.672V40.868h.672v-.91h7.42v.826h.686V29.36Zm13.258,11.41.378.378L-47.432,28.59l-.378-.378Zm22.162-12.222h-.7v4.606c0,1.344-.784,5.446-5.8,7.35a3.672,3.672,0,0,1,.448.546c4.354-1.764,5.488-5.1,5.7-6.426A8.606,8.606,0,0,0-32.7,41.05a3.069,3.069,0,0,1,.434-.616c-5.138-1.764-5.936-5.978-5.936-7.28Zm4.634,2.632a25.033,25.033,0,0,1-2.156,3.962l.532.28a33.726,33.726,0,0,0,2.31-3.948Zm-8.89.014a5.836,5.836,0,0,1-1.918,3.99l.546.406c1.26-.91,1.764-2.632,2.016-4.256Zm19.04,7.336h2.506v1.4h-2.506Zm2.506-2.408h-2.506v-1.3h2.506Zm0,1.862h-2.506v-1.3h2.506Zm-7.364-.322V33.994h2.142v3.668Zm2.142-7.784v3.5H-28.28v-3.5Zm9.394,10.052h-3.542v-1.4h2.828v-.546h-2.828v-1.3h2.828v-.56h-2.828v-1.3h3.178v-.574h-3.024c.168-.322.35-.686.518-1.036l-.532-.168h2.926V28.87h-3.486v.546h2.87v1.232H-20.5v.546h2.66v1.3H-20.72v.546h.434a12.863,12.863,0,0,1-.49,1.2h-2.352c.21-.378.406-.756.574-1.12l-.28-.084h1.442V28.87h-3.416v.546h2.786v1.232h-2.52v.546h2.52v1.3h-2.8v.546h1.582a10.745,10.745,0,0,1-2.268,3.29V29.248h-3.4V39.4h.63v-1.12h2.772V36.542a2.3,2.3,0,0,1,.322.308A9.856,9.856,0,0,0-24.052,35.6V40.91h.63V40.5h6.678Zm5.39-.63V34.946h7.42V39.3Zm7.42-9.268v4.256h-7.42V30.032Zm-8.092-.672V40.868h.672v-.91h7.42v.826h.686V29.36Zm18.41,5.32A1.316,1.316,0,1,0,7.7,33.364,1.314,1.314,0,0,0,6.384,34.68Zm14.952-2.688-.14.014H16.912v.686H20.93A9.974,9.974,0,0,1,16.6,39.048a2.336,2.336,0,0,1,.532.518A11.279,11.279,0,0,0,21.77,32.16Zm7.014-1.344a27.2,27.2,0,0,1-3.612,3.7,17.491,17.491,0,0,1-1.3-3.444V28.38H22.75V39.958c0,.266-.1.35-.378.364s-1.176.014-2.24-.014a2.888,2.888,0,0,1,.28.714,11.638,11.638,0,0,0,2.45-.126c.406-.126.574-.364.574-.952V32.79c1.162,3.22,3.01,5.922,5.67,7.112a3.37,3.37,0,0,1,.518-.574,9.692,9.692,0,0,1-4.606-4.452,33.182,33.182,0,0,0,3.92-3.78Zm9.828,7.882h2.506v1.4H38.178Zm2.506-2.408H38.178v-1.3h2.506Zm0,1.862H38.178v-1.3h2.506Zm-7.364-.322V33.994h2.142v3.668Zm2.142-7.784v3.5H33.32v-3.5ZM44.856,39.93H41.314v-1.4h2.828v-.546H41.314v-1.3h2.828v-.56H41.314v-1.3h3.178v-.574H41.468c.168-.322.35-.686.518-1.036l-.532-.168H44.38V28.87H40.894v.546h2.87v1.232H41.1v.546h2.66v1.3H40.88v.546h.434a12.863,12.863,0,0,1-.49,1.2H38.472c.21-.378.406-.756.574-1.12l-.28-.084h1.442V28.87H36.792v.546h2.786v1.232h-2.52v.546h2.52v1.3h-2.8v.546H38.36a10.745,10.745,0,0,1-2.268,3.29V29.248h-3.4V39.4h.63v-1.12h2.772V36.542a2.3,2.3,0,0,1,.322.308A9.856,9.856,0,0,0,37.548,35.6V40.91h.63V40.5h6.678Zm5.39-.63V34.946h7.42V39.3Zm7.42-9.268v4.256h-7.42V30.032Zm-8.092-.672V40.868h.672v-.91h7.42v.826h.686V29.36Zm18.41,5.32A1.316,1.316,0,1,0,69.3,33.364,1.314,1.314,0,0,0,67.984,34.68Zm15.778,1.554c-.322-.322-1.6-1.512-2.184-2.016a12.732,12.732,0,0,0,1.806-3.01l-.392-.266-.126.042H81.382V28.338h-.658v2.646h-2.17v.63h3.962A13.34,13.34,0,0,1,78.05,36.64a2.266,2.266,0,0,1,.392.546,14.444,14.444,0,0,0,2.282-1.974v5.8h.658v-6.2a25.477,25.477,0,0,1,1.96,2Zm.952-6.286h5.124V33.9H84.714Zm4.3,10.388c-.378,0-.448-.07-.448-.448V34.526H90.51V29.3H84.07v5.222h1.47c-.14,3.01-.532,4.956-2.814,5.992a2.137,2.137,0,0,1,.434.518c2.422-1.176,2.884-3.262,3.038-6.51h1.708v5.348c0,.826.2,1.036,1.036,1.036h1.372c.77,0,.924-.49.994-2.394a1.625,1.625,0,0,1-.588-.28c-.042,1.792-.112,2.1-.476,2.1ZM96.446,39.3V34.946h7.42V39.3Zm7.42-9.268v4.256h-7.42V30.032Zm-8.092-.672V40.868h.672v-.91h7.42v.826h.686V29.36Z" transform="translate(436 5186.61)" fill="#fff"/>
  </g>
</svg>
