<svg xmlns="http://www.w3.org/2000/svg" width="110.752" height="14.784" viewBox="0 0 110.752 14.784">
  <path id="建売分譲地一覧" d="M-45.28-11.1h1.952v.912H-45.28Zm1.952,3.04H-45.28v-.96h1.952Zm-3.408,0h-3.2V-6.9h3.2v.96h-3.3v1.12h3.3v1.024h-4v1.2h4v1.5h1.456v-1.5h4.256v-1.2H-45.28V-4.816h3.552v-1.12H-45.28V-6.9h3.408V-9.024h1.2v-1.168h-1.2v-2.08H-45.28V-13.3h-1.456v1.024h-3.1V-11.1h3.1v.912h-4.208v1.168h4.208Zm-4.656.048-.24.048h-1.3c.7-1.488,1.424-3.056,1.92-4.288l-1.024-.272-.224.064h-3.056v1.3h2.368c-.624,1.392-1.488,3.248-2.24,4.688l1.344.368.272-.56h1.536a15.833,15.833,0,0,1-.752,3.264,8.321,8.321,0,0,1-.96-2.144l-1.168.416a10.392,10.392,0,0,0,1.5,3.1,6.545,6.545,0,0,1-2.048,2.3A6.326,6.326,0,0,1-54.32,1.3,6.975,6.975,0,0,0-52.384-.928C-50.7.5-48.464.848-45.664.848h4.544a5.216,5.216,0,0,1,.576-1.44c-.96.032-4.3.032-5.088.032-2.5-.016-4.592-.3-6.128-1.648a18.873,18.873,0,0,0,1.248-5.6Zm18.56-1.248H-37.44v1.312h10.96V-9.264H-31.3v-1.36h6.256V-12H-31.3v-1.408h-1.536V-12h-6.1v1.376h6.1ZM-25.376-3.7V-6.88H-38.608V-3.7h1.456V-5.552H-26.88V-3.7ZM-34.864-4.88c-.208,2.64-.736,4.128-4.448,4.9A3.878,3.878,0,0,1-38.5,1.3c4.144-1.008,4.912-2.944,5.168-6.176Zm6.112,4.528c-.608,0-.72-.064-.72-.528v-4H-30.96V-.864c0,1.44.4,1.872,2.016,1.872h2.208c1.36,0,1.76-.56,1.92-2.768a4.046,4.046,0,0,1-1.344-.56c-.048,1.728-.16,1.968-.72,1.968Zm14.144-12.256A24.579,24.579,0,0,0-11.056-7.52h-9.632A17.981,17.981,0,0,0-17.3-12.688l-1.584-.464a13.579,13.579,0,0,1-4.736,5.968A11.159,11.159,0,0,1-22.352-6,13.635,13.635,0,0,0-20.9-7.3v1.232H-17.9C-18.24-3.536-19.088-1.2-22.768.016a4.7,4.7,0,0,1,.944,1.328c4.112-1.5,5.136-4.3,5.536-7.408h3.7c-.16,3.712-.368,5.216-.736,5.6a.858.858,0,0,1-.688.224c-.368,0-1.28-.016-2.256-.112a3.413,3.413,0,0,1,.5,1.5,18.037,18.037,0,0,0,2.48,0A1.725,1.725,0,0,0-11.984.5c.544-.624.768-2.48.976-7.328.016-.144.016-.48.016-.624A14.614,14.614,0,0,0-9.648-6.144,8.183,8.183,0,0,1-8.4-7.472a17.716,17.716,0,0,1-4.768-5.712Zm21.76.56H3.3V-13.44h-1.5v1.392H-1.856v1.12H7.152ZM3.3-10.224A14.086,14.086,0,0,1,6.384-8.368l.992-.768a16.515,16.515,0,0,0-3.1-1.776ZM.624-10.848A8.258,8.258,0,0,1-2.3-9.2a7.731,7.731,0,0,1,.976.928,9.4,9.4,0,0,0,3.216-2.192ZM-2.624-12.9H-6.608v1.168h3.984Zm.448,2.112H-7.36V-9.6h5.184ZM-3.808-3.12v2.3H-5.552v-2.3Zm1.2-1.2H-6.736V1.056h1.184v-.7h2.944Zm-4.1-.992h4.112V-6.48H-6.7Zm0-2.144h4.112V-8.608H-6.7ZM1.584-5.168H3.568v.752H1.584Zm0-1.712H3.568v.736H1.584ZM6.272-3.136a18.44,18.44,0,0,1-1.7,1.1,7.029,7.029,0,0,1-.784-1.344H7.36v-1.04H4.928v-.752H6.656v-.976H4.928V-6.88H6.96V-7.888H4.928v-1.1H3.568v1.1H1.584v-1.1H.256v1.1H-1.6V-6.88H.256v.736h-1.5v.976h1.5v.752H-2.128v1.04H.736A11.753,11.753,0,0,1-2.5-1.872a9.052,9.052,0,0,1,.8.992A14.661,14.661,0,0,0-.064-1.616V-.24c-.544.08-1.056.16-1.488.224l.368,1.152C.208.912,2.016.576,3.744.256l-.1-1.088c-.832.144-1.664.272-2.448.4V-2.368A8.327,8.327,0,0,0,2.4-3.376h.128A7.168,7.168,0,0,0,6.72,1.248,4.383,4.383,0,0,1,7.584.176,6.277,6.277,0,0,1,5.232-1.248a14.2,14.2,0,0,0,1.856-1.1Zm5.776-5.12h1.776V-9.664H12.048v-3.552H10.656v3.552H8.688v1.408h1.968V-3.44c-.8.32-1.536.608-2.112.816L9.12-1.136c1.424-.624,3.248-1.456,4.928-2.272L13.712-4.72c-.544.224-1.12.464-1.664.7ZM17.44-.4c-1.024,0-1.2-.176-1.2-1.072V-6.72l1.792-.768v5.152h1.392V-8.08l1.856-.8c0,2.448-.032,3.936-.1,4.24-.064.336-.208.4-.416.4-.16,0-.592,0-.928-.016a4.6,4.6,0,0,1,.336,1.264,4.93,4.93,0,0,0,1.536-.176c.5-.128.768-.48.848-1.152.1-.624.128-2.8.128-5.792l.064-.256-1.04-.4-.256.208-.288.224L19.424-9.6v-3.808H18.032v4.4l-1.792.752V-11.9H14.832v4.24l-1.664.7.56,1.328,1.1-.48v4.624c0,1.92.56,2.416,2.528,2.416h3.664c1.744,0,2.192-.72,2.4-2.928a3.97,3.97,0,0,1-1.312-.56C21.984-.816,21.824-.4,20.944-.4Zm7.312-6.656v1.632h14.56V-7.056Zm30.432-3.632v-1.168H50.656a12.127,12.127,0,0,0,.448-1.28l-1.328-.3a9.7,9.7,0,0,1-1.984,3.76,8.666,8.666,0,0,1,1.168.768,8.988,8.988,0,0,0,1.168-1.776Zm-.432,2.9V-8.96H49.5v1.168ZM42.832-8.928h1.424v.736H42.832ZM44.256-12v.656H42.832V-12Zm2.112,2.224H42.832v-.72h3.536Zm1.824,1.584H45.456v-.736h2.208v-2.416H45.456V-12h2.512v-.88h-6.5V-7.3h6.72ZM44.48-3.024h6.992v.688H44.48Zm0-1.472h6.992v.672H44.48Zm0-1.472h6.992V-5.3H44.48ZM51.1-.08c-.688,0-.8-.048-.8-.432v-.976h2.624v-5.3H43.072v5.3h2.176C44.8-.512,43.728-.08,40.7.144a3.507,3.507,0,0,1,.64,1.136c3.6-.368,4.9-1.152,5.408-2.768h2.1V-.5c0,1.248.416,1.584,2.1,1.584h2.512c1.28,0,1.7-.4,1.84-2.1a4.923,4.923,0,0,1-1.264-.464c-.064,1.216-.16,1.392-.72,1.392Z" transform="translate(55.455 13.44)" fill="#fff"/>
</svg>
