<svg xmlns="http://www.w3.org/2000/svg" xmlns:xlink="http://www.w3.org/1999/xlink" width="306.02" height="79.012" viewBox="0 0 306.02 79.012">
  <defs>
    <clipPath id="clip-path">
      <rect id="長方形_35065" data-name="長方形 35065" width="42.632" height="33.897" transform="translate(0 0)" fill="none"/>
    </clipPath>
  </defs>
  <g id="number" transform="translate(-300 -5127.5)">
    <g id="フリーコール" transform="translate(300 5127.5)">
      <g id="グループ_45964" data-name="グループ 45964" transform="translate(0 0)" clip-path="url(#clip-path)">
        <path id="パス_17286" data-name="パス 17286" d="M84.086,42.041h4.646a.606.606,0,1,0,0-1.212H84.086a.606.606,0,1,0,0,1.212" transform="translate(-53.372 -26.104)" fill="#fff"/>
        <path id="パス_17287" data-name="パス 17287" d="M64.5,62.522H69.15a.606.606,0,1,0,0-1.212H64.5a.606.606,0,1,0,0,1.212" transform="translate(-40.851 -39.198)" fill="#fff"/>
        <path id="パス_17288" data-name="パス 17288" d="M48.3,34.385h-4.01a.606.606,0,1,0,0,1.212H47.67c-.141,1.9-.993,2.944-2.974,3.753a.606.606,0,0,0,.458,1.122,5.287,5.287,0,0,0,3.75-5.481.608.608,0,0,0-.606-.607" transform="translate(-27.926 -21.984)" fill="#fff"/>
        <path id="パス_17289" data-name="パス 17289" d="M48.25,55.375H44.287a.605.605,0,1,0,0,1.21h3.358v2.981H44.287a.606.606,0,1,0,0,1.212H48.25a.605.605,0,0,0,.607-.607V55.98a.6.6,0,0,0-.607-.6" transform="translate(-27.926 -35.404)" fill="#fff"/>
        <path id="パス_17290" data-name="パス 17290" d="M64.857,37.286V34.232a.605.605,0,0,0-1.21,0v3.054a.605.605,0,1,0,1.21,0" transform="translate(-40.692 -21.499)" fill="#fff"/>
        <path id="パス_17291" data-name="パス 17291" d="M67.128,40.025c2.911-.477,3.423-1.836,3.423-4.515V34.232a.605.605,0,1,0-1.21,0v1.277c0,2.338-.284,2.973-2.409,3.32a.606.606,0,1,0,.2,1.2" transform="translate(-42.468 -21.499)" fill="#fff"/>
        <path id="パス_17292" data-name="パス 17292" d="M84.092,55.222c0,2.219-.117,3.507-.8,4.824a.606.606,0,1,0,1.078.555,10.947,10.947,0,0,0,.932-5.38.607.607,0,0,0-1.213,0" transform="translate(-53.211 -34.918)" fill="#fff"/>
        <path id="パス_17293" data-name="パス 17293" d="M93.769,56.713a.606.606,0,0,0-.735.442,3.377,3.377,0,0,1-1.268,2.056V54.842a.606.606,0,1,0-1.211,0V60.08a.6.6,0,0,0,.211.46.607.607,0,0,0,.483.14c1.4-.206,2.506-1.415,2.958-3.232a.606.606,0,0,0-.44-.735" transform="translate(-57.896 -34.675)" fill="#fff"/>
        <path id="パス_17294" data-name="パス 17294" d="M38.055,6.43C34.026,2.4,27.77,0,21.316,0,9.562,0,0,7.761,0,17.3A10.351,10.351,0,0,0,1.68,23.03.921.921,0,0,0,3.2,21.99,8.488,8.488,0,0,1,1.844,17.3c0-8.525,8.736-15.459,19.472-15.459,5.977,0,11.747,2.2,15.435,5.892a13.176,13.176,0,0,1,4.038,9.458c0,7.385-7.173,14.861-20.882,14.861-3.478,0-6.513-1.04-8.325-2.853a6.013,6.013,0,0,1-1.259-1.8l.137.084a1.122,1.122,0,0,0,.829-.215A7.684,7.684,0,0,0,13.4,23.058c.18-1.632-2.143-2.191-1.816-5.194.144-1.313,2.055-5.536,3.579-6.761a4.285,4.285,0,0,1,3.358-.687c1.873.205,3.375-3.481,3.529-4.885.084-.771-1.185-1.734-3.271-1.961a5.449,5.449,0,0,0-3.9,1.315c-2.69,2.1-7.848,11.855-8.359,16.55a5.871,5.871,0,0,0,1.493,4.6l.056.032A7.341,7.341,0,0,0,10.278,30.5c2.187,2.188,5.607,3.393,9.63,3.393,6.742,0,12.518-1.752,16.7-5.065a14.81,14.81,0,0,0,6.023-11.639A15,15,0,0,0,38.055,6.43" transform="translate(0 0)" fill="#fff"/>
      </g>
    </g>
    <path id="パス_17521" data-name="パス 17521" d="M3.333-.407c-.517,0-1.408-.517-1.408-1.111,0-.561.781-1.276,1.782-1.727.011.891.033,1.782.033,2.255C3.74-.649,3.619-.407,3.333-.407Zm.891-3.949c0-.506.011-1.144.033-1.749a19.7,19.7,0,0,0,2.387-.418l-.011-.572a15.473,15.473,0,0,1-2.365.473C4.29-7.26,4.3-7.8,4.3-8.03s.022-.44.044-.638H3.707a4,4,0,0,1,.055.66c0,.2-.011.759-.033,1.441-.341.022-.671.044-.946.044a9.1,9.1,0,0,1-1.32-.1l.022.572c.374.033.8.055,1.309.055.264,0,.583-.022.924-.055C3.707-5.445,3.7-4.818,3.7-4.312V-3.8c-1.188.517-2.354,1.441-2.354,2.3,0,.88,1.375,1.661,2.1,1.661.517,0,.836-.3.836-1.111,0-.539-.033-1.562-.044-2.508A6.655,6.655,0,0,1,6.8-3.96c1.067,0,2.024.528,2.024,1.551,0,1.144-.968,1.716-1.969,1.892A5.523,5.523,0,0,1,5.6-.44l.209.561a6.8,6.8,0,0,0,1.3-.132C8.459-.33,9.372-1.089,9.372-2.42c0-1.188-1.034-2.046-2.574-2.046a8.048,8.048,0,0,0-2.574.473Zm3.4-2.662a12.514,12.514,0,0,1,2.354,1.65l.308-.462A15.958,15.958,0,0,0,7.909-7.447Zm8.888-1.188v1.133H13.728V-8.206ZM13.728-5.4V-6.633h2.783V-5.4Zm3.289.462V-8.657H13.2V.814h.528V-4.939Zm2.046,1.6v2.123H16.038V-3.344Zm.506,2.607v-3.08H15.532V-.066h.506V-.737ZM18.656-5.4V-6.633h2.871V-5.4Zm2.871-2.805v1.133H18.656V-8.206Zm.528-.451h-3.9v3.718h3.377V-.022c0,.2-.066.264-.275.264s-.9.022-1.683,0a2.378,2.378,0,0,1,.2.55A9.422,9.422,0,0,0,21.637.7c.3-.1.418-.3.418-.726Zm4.4,1.111-.693-.022a5.875,5.875,0,0,1,.055.891c0,.616.011,1.969.11,2.871.308,2.761,1.265,3.773,2.2,3.773.66,0,1.309-.616,1.936-2.431L29.6-2.937c-.33,1.232-.88,2.255-1.463,2.255-.836,0-1.463-1.265-1.661-3.245a24.592,24.592,0,0,1-.088-2.728C26.4-6.919,26.433-7.359,26.455-7.546Zm5.808.33-.55.2a10.543,10.543,0,0,1,1.859,5.236l.572-.231A11.266,11.266,0,0,0,32.263-7.216Zm12.3,4.191v2.86h-5.5v-2.86ZM38.533.8h.528V.319h5.5V.8h.528V-3.52H38.533Zm.495-6.358v.484h5.555v-.484ZM41.492-9.13a12.953,12.953,0,0,1-4.719,4.158,3.52,3.52,0,0,1,.341.407A14.291,14.291,0,0,0,41.789-8.6a15.048,15.048,0,0,0,4.785,3.938,4.2,4.2,0,0,1,.352-.451A13.956,13.956,0,0,1,42.009-9.13ZM52.338-6.875l-.11.033c.088-.825.165-1.474.209-1.716l-.7-.033a5.268,5.268,0,0,1,.033.7c0,.121-.033.572-.066,1.155-.6.1-1.364.176-1.727.2a4.916,4.916,0,0,1-.572.011l.055.616c.726-.1,1.738-.231,2.211-.3-.033.4-.055.825-.088,1.243-.517.814-1.848,2.651-2.453,3.41l.374.5c.627-.88,1.463-2.068,2.024-2.915-.022.473-.044.88-.044,1.122-.011,1.1-.011,1.54-.022,2.585a3.88,3.88,0,0,1-.033.55h.638L52.03-.275C51.986-1.221,52-1.738,52-2.794c0-.44.022-.946.044-1.485A5.3,5.3,0,0,1,55.616-5.94a2.161,2.161,0,0,1,2.3,2.112c.011,1.98-1.793,2.871-3.6,3.124l.242.55c2.189-.418,3.927-1.474,3.905-3.663a2.672,2.672,0,0,0-2.783-2.651,5.569,5.569,0,0,0-3.6,1.507c.022-.308.044-.627.066-.935.143-.242.319-.506.44-.7ZM67.826-8.36a4.464,4.464,0,0,1,.055.7c0,.484,0,1.166-.011,1.738-1.254.1-2.64.242-3.773.352l.011-1.716a7.251,7.251,0,0,1,.033-.737h-.627a4.654,4.654,0,0,1,.044.759v1.749c-.627.055-1.144.11-1.463.132a9.146,9.146,0,0,1-1,.055l.066.616c.3-.044.649-.1.979-.143s.836-.088,1.419-.154c0,1.133,0,2.343.011,2.816C63.613-.55,63.8.033,66.143.033c1.144,0,2.475-.11,3.2-.187l.022-.594a22.523,22.523,0,0,1-3.234.231c-2.035,0-1.991-.506-2.035-1.738-.022-.4-.011-1.606-.011-2.805,1.177-.121,2.585-.253,3.784-.341a19.926,19.926,0,0,1-.143,2.046c-.033.264-.154.308-.451.308a5.994,5.994,0,0,1-1.133-.143l-.011.517a7.933,7.933,0,0,0,1.32.154c.451,0,.682-.143.759-.572a19.657,19.657,0,0,0,.176-2.343c.55-.033,1.045-.066,1.419-.066.275,0,.594-.011.748,0v-.594c-.22.011-.462.033-.737.044-.418.022-.9.055-1.419.088.011-.528.011-1.188.022-1.705a6.81,6.81,0,0,1,.033-.693Zm13.31-.352-.429.187a9.949,9.949,0,0,1,.913,1.54l.44-.209A14.242,14.242,0,0,0,81.136-8.712Zm1.155-.407-.407.187a10.368,10.368,0,0,1,.935,1.518l.429-.2A12.862,12.862,0,0,0,82.291-9.119Zm-7.15,2.266c.847.077,1.771.121,2.838.121.979,0,2.079-.077,2.805-.132v-.572c-.759.077-1.771.154-2.805.154a23.78,23.78,0,0,1-2.838-.143Zm-.407,3.63A6.354,6.354,0,0,0,74.5-1.738c0,1.3,1.309,1.969,3.355,1.969a14.72,14.72,0,0,0,3.674-.385l-.011-.605a12.616,12.616,0,0,1-3.663.429c-1.848,0-2.783-.627-2.783-1.518a4.031,4.031,0,0,1,.242-1.309ZM94.677-5.148l-.11.033H91.982l.143-.209c-.352-.187-.814-.44-1.331-.682a16.75,16.75,0,0,0,3.047-2.321l-.385-.286-.132.033H86.361v.506h6.446a14.347,14.347,0,0,1-2.541,1.8c-.715-.341-1.474-.7-2.134-.99l-.3.374c1.144.517,2.6,1.243,3.553,1.771H85.349v.506h4.642V.011c0,.176-.055.22-.253.231s-.913.022-1.738,0a2.409,2.409,0,0,1,.2.506A9.5,9.5,0,0,0,90.1.66c.319-.088.429-.253.429-.649v-4.62h3.663a11.977,11.977,0,0,1-1.617,1.958L93-2.376a16.56,16.56,0,0,0,2.09-2.574ZM97.955-3a8,8,0,0,1-.792,2.651,2.738,2.738,0,0,1,.44.22A9.933,9.933,0,0,0,98.439-2.9Zm2.365.1a9.681,9.681,0,0,1,.726,2.145L101.5-.9a9.1,9.1,0,0,0-.759-2.134Zm-.33-2.552a11.077,11.077,0,0,1,.649,1.122c-.748.022-1.485.055-2.145.077a37.09,37.09,0,0,0,2.387-3.465l-.484-.22c-.33.627-.8,1.4-1.287,2.134a7.67,7.67,0,0,0-.836-.935,23.185,23.185,0,0,0,1.265-2.222l-.484-.2a15.039,15.039,0,0,1-1.089,2.134c-.132-.121-.253-.231-.374-.33l-.286.33A9.9,9.9,0,0,1,98.824-5.39c-.3.418-.594.814-.869,1.144l-.682.022.044.506c.539-.022,1.188-.055,1.892-.088V.836h.5V-3.828l1.155-.066a5.414,5.414,0,0,1,.253.682l.44-.22a8.82,8.82,0,0,0-1.144-2.2Zm7.062-1.661h-4.224a15.521,15.521,0,0,0,.748-1.925l-.517-.132a10.445,10.445,0,0,1-2.046,3.883,2.706,2.706,0,0,1,.473.308A9.18,9.18,0,0,0,102.564-6.6h3.96c-.187,4.631-.4,6.325-.77,6.743a.624.624,0,0,1-.5.143c-.253,0-.957-.011-1.716-.077a1.228,1.228,0,0,1,.165.528A13.629,13.629,0,0,0,105.4.781a.935.935,0,0,0,.814-.352c.451-.517.638-2.211.836-7.227ZM104.6-2.277a11,11,0,0,0-1.606-2.552l-.44.209a11.482,11.482,0,0,1,1.573,2.607Zm6.314-6.094a4.548,4.548,0,0,1-.055.6,33.148,33.148,0,0,0-.517,4.6,13.785,13.785,0,0,0,.385,3.432l.517-.044c-.011-.088-.022-.231-.033-.33a1.725,1.725,0,0,1,.044-.473,23.357,23.357,0,0,1,.77-2.288l-.341-.264c-.2.484-.506,1.3-.693,1.859a14.638,14.638,0,0,1-.132-1.958,25.674,25.674,0,0,1,.561-4.488,3.479,3.479,0,0,1,.143-.583Zm5.577,6.754c0,.781-.286,1.3-1.342,1.3-.913,0-1.485-.374-1.485-.979,0-.561.638-.99,1.562-.99a3.939,3.939,0,0,1,1.254.2C116.49-1.9,116.49-1.749,116.49-1.617Zm2.695.594a7.5,7.5,0,0,0-2.167-1.43c-.044-1.023-.121-2.255-.132-3.333.682-.044,1.342-.121,1.98-.22v-.561a16.716,16.716,0,0,1-1.98.253c0-.506,0-1.078.022-1.419.011-.209.033-.407.066-.627h-.66a5.89,5.89,0,0,1,.033.638c-.011.352-.011.869-.011,1.441-.385.011-.781.022-1.177.022-.627,0-1.2-.033-1.8-.088v.539c.627.044,1.166.077,1.782.077.4,0,.8-.011,1.2-.022.011.935.077,2.189.121,3.124a4.928,4.928,0,0,0-1.177-.143c-1.4,0-2.145.726-2.145,1.518,0,.88.726,1.463,2.156,1.463a1.533,1.533,0,0,0,1.749-1.65c0-.132,0-.286-.011-.44A7.477,7.477,0,0,1,118.877-.55Zm10.384-8.052a11.378,11.378,0,0,1-1.012,1.441l.418.187a14.768,14.768,0,0,0,1.111-1.4Zm-5.115,1.4a8.4,8.4,0,0,0-1-1.364l-.462.209a8.583,8.583,0,0,1,.957,1.4Zm-.242,2.189h4.7V-4.18h-4.7Zm6.138,2.816h-3.443V-3.74h2.53V-5.929h-5.731V-3.74h2.673v1.067h-3.608V.308h.528v-2.5h3.08v3h.528v-3h2.9V-.341c0,.132-.044.165-.209.187-.187.011-.77.011-1.529-.011a2.244,2.244,0,0,1,.2.484A7.914,7.914,0,0,0,130,.231c.275-.088.352-.242.352-.583Zm-3.465-4.664V-9.174h-.539v1.837h-4.29v2.178h.506V-6.853h7.953v1.694h.528V-7.337Zm9.57.385h.517V-7.9h3.2v.99h.528V-7.9h2.761v-.451H140.7v-.814h-.528v.814h-3.2v-.814h-.517v.814h-2.706V-7.9h2.706Zm4.62,1.177v.968h-2.64v-.968Zm2.409,4.037V-2.2h-4.653v-.968h4.29v-.451h-7.249V-5.775h2.057V-4.4H141.6V-5.775h1.859v-.473H141.6v-.913h-.528v.913h-2.64v-1h-.506v1h-2.057v-.891h-.517v.891h-1.606v.473h1.606v2.607h2.959V-2.2h-4.565v.462h3.971a12.148,12.148,0,0,1-4.2,1.914,2.149,2.149,0,0,1,.352.418,11.763,11.763,0,0,0,4.444-2.277V.792h.517V-1.727a10.411,10.411,0,0,0,4.51,2.354,2.212,2.212,0,0,1,.341-.451,10.312,10.312,0,0,1-4.246-1.914Zm2.684-3.839.275.638c.7-.253,3.6-1.518,5.489-1.518a2.222,2.222,0,0,1,2.475,2.178c0,2.42-2.662,3.289-5.456,3.366l.242.594c3.08-.176,5.83-1.265,5.83-3.949a2.78,2.78,0,0,0-3.08-2.717,17.125,17.125,0,0,0-4.653,1.1A10.185,10.185,0,0,1,146.168-5.577Zm18.117-3.1a3.991,3.991,0,0,1-.495.6c-.737.77-2.486,2.123-3.289,2.816-.913.781-1.056,1.21-.055,2.024,1.023.836,2.948,2.464,3.542,3.113.176.209.451.451.627.66L165.11.1C164.054-.968,162.085-2.64,161-3.509c-.77-.627-.748-.814-.044-1.419.847-.693,2.486-2.024,3.256-2.717.143-.121.462-.418.627-.55ZM178.926-7.04c-.176-.451-.495-1.166-.693-1.551l-.418.132a12.9,12.9,0,0,1,.66,1.584Zm-7.755-1.221a4.549,4.549,0,0,1-.055.605,34.9,34.9,0,0,0-.517,4.609,13.766,13.766,0,0,0,.4,3.432l.517-.044c-.011-.1-.033-.242-.044-.341a1.738,1.738,0,0,1,.055-.473,21.264,21.264,0,0,1,.759-2.288l-.33-.264c-.2.484-.506,1.3-.693,1.87a13.258,13.258,0,0,1-.132-1.969,25.68,25.68,0,0,1,.55-4.488,3.428,3.428,0,0,1,.154-.583Zm5.588,6.754c0,.781-.286,1.3-1.353,1.3-.9,0-1.485-.374-1.485-.979,0-.561.638-.99,1.573-.99a3.939,3.939,0,0,1,1.254.2C176.759-1.793,176.759-1.628,176.759-1.507Zm2.365-4.95a14.7,14.7,0,0,1-1.98.253c0-.506,0-1.078.022-1.419.011-.209.033-.407.066-.627h-.66a3.994,3.994,0,0,1,.033.638v1.441c-.4.011-.792.022-1.188.022-.627,0-1.188-.033-1.8-.088v.55c.638.033,1.166.077,1.782.077.407,0,.8-.011,1.21-.033.011.946.077,2.189.121,3.124a5.022,5.022,0,0,0-1.188-.143c-1.4,0-2.134.726-2.134,1.518,0,.891.715,1.463,2.145,1.463a1.533,1.533,0,0,0,1.749-1.65c0-.132,0-.275-.011-.429a7.154,7.154,0,0,1,1.848,1.32l.308-.462a7.309,7.309,0,0,0-2.167-1.441c-.044-1.023-.121-2.266-.132-3.333.682-.044,1.353-.121,1.98-.22Zm-.231-2.321a10.765,10.765,0,0,1,.682,1.562l.44-.165a16.41,16.41,0,0,0-.7-1.529Zm11.3,3.872-.121.022h-2.816V-6.82h4.323v-.539h-4.323v-1.8h-.528v1.8h-4.312v.539h4.312v1.936H182.9v.517h6.875a7.312,7.312,0,0,1-2.761,2.937,7.28,7.28,0,0,1-2.552-2.937l-.473.187a7.939,7.939,0,0,0,2.53,3.025A14.794,14.794,0,0,1,182.017.3a2.631,2.631,0,0,1,.308.495,15.023,15.023,0,0,0,4.664-1.617A12.163,12.163,0,0,0,191.653.836a2.411,2.411,0,0,1,.341-.484,12.256,12.256,0,0,1-4.5-1.485,7.787,7.787,0,0,0,3.036-3.542ZM202.543-.121h-5.3V-2.607h5.3ZM200-6.864h-.528V-3.1h-2.75V.825h.517V.363h5.3V.792h.528V-3.1H200v-1.8h3.861V-5.39H200Zm-.33-.792V-9.163h-.539v1.507h-4.125v2.882a11.174,11.174,0,0,1-.979,5.291,2.667,2.667,0,0,1,.451.3,12.179,12.179,0,0,0,1.056-5.588V-7.15h8.481v-.506Zm11.682,6.468c0,.825-.605,1.034-1.254,1.034-1.276,0-1.727-.451-1.727-1.012S209-2.189,210.21-2.189a5.419,5.419,0,0,1,1.133.121C211.343-1.727,211.354-1.419,211.354-1.188Zm3.751.451a8.666,8.666,0,0,0-3.234-1.727c-.022-.572-.055-1.232-.066-1.892A27.479,27.479,0,0,0,214.9-4.62v-.55a27.925,27.925,0,0,1-3.1.308V-6.677c1-.055,1.958-.154,2.9-.242v-.55a23.367,23.367,0,0,1-2.9.275v-.7a6.509,6.509,0,0,1,.055-.7h-.616c.011.11.022.418.022.594v.836h-.572a18.275,18.275,0,0,1-2.662-.209v.561c.649.077,1.881.165,2.673.165.187,0,.374,0,.561-.011v1.815c-.209.011-.418.011-.627.011a19.9,19.9,0,0,1-2.794-.209l-.011.561c.814.088,2,.154,2.8.154.209,0,.429,0,.638-.011.022.539.044,1.166.055,1.749a6.375,6.375,0,0,0-1.045-.088c-1.518,0-2.431.627-2.431,1.551,0,.99.825,1.485,2.288,1.485,1.419,0,1.793-.814,1.793-1.463,0-.187-.011-.473-.022-.814a7.836,7.836,0,0,1,2.882,1.694Zm10.681-4.972-.4.176A11.915,11.915,0,0,1,226.3-3.96l.418-.2A12.808,12.808,0,0,0,225.786-5.709Zm1.188-.44-.385.187a10.844,10.844,0,0,1,.946,1.573l.407-.209A12.727,12.727,0,0,0,226.974-6.149Zm-8.206-.913.077.66c1.133-.231,4.5-.55,5.456-.649a4.463,4.463,0,0,0-2.255,3.85c0,2.475,2.376,3.465,4.235,3.5l.2-.561C224.763-.319,222.6-1,222.6-3.333A4.088,4.088,0,0,1,225.2-7a7.919,7.919,0,0,1,2.145-.187v-.583c-.7.022-1.617.088-2.849.187-2.013.165-4.224.407-4.807.462C219.472-7.095,219.186-7.073,218.768-7.062ZM8.756,19.857H2.486V18.031h6.27Zm-5.61-5.324h4.84v1.551H3.146Zm5.357,2V14.082H2.651v2.453h2.42c-.088.319-.209.7-.319,1.012H1.98V20.8h.506v-.462h6.27v.44h.517V17.547H5.258c.132-.308.253-.671.374-1.012Zm-.308-3.949a16.01,16.01,0,0,0,1.133-1.419l-.517-.22a11.819,11.819,0,0,1-1.232,1.639h-2.1l.385-.165a6.319,6.319,0,0,0-.891-1.584L4.521,11a8.176,8.176,0,0,1,.869,1.584H3.036l.253-.132a7.228,7.228,0,0,0-1.056-1.463l-.44.2a8.02,8.02,0,0,1,.99,1.4H1.111v2.057h.495V13.07h7.92v1.573h.517V12.586Zm7.106.066a6.593,6.593,0,0,0-.99-1.661l-.451.154a7.894,7.894,0,0,1,.979,1.694Zm5.643-1.639a12.411,12.411,0,0,1-.935,1.716l.429.165a18.4,18.4,0,0,0,1.023-1.727Zm-1.507,2.354a11.669,11.669,0,0,1-.671,1.276l.264.088H16.115l.352-.1a5.073,5.073,0,0,0-.671-1.265Zm2.926,4.741v-.473H17.842v-1H21.4v-.451H17.842v-.99h4.092v-.462H19.228a13.728,13.728,0,0,0,.759-1.287l-.253-.077h2.585v-.473H18.9V10.826h-.506v2.068H16.786V10.826h-.517v2.068H12.914v.473h2.827l-.429.11a4.827,4.827,0,0,1,.638,1.254h-2.6v.462h3.971v.99H13.9v.451h3.421v1H12.859v.473H16.72a10.762,10.762,0,0,1-4.114,2.024,2.364,2.364,0,0,1,.352.451,10.846,10.846,0,0,0,4.367-2.4V20.8h.517V18.152a11.164,11.164,0,0,0,4.422,2.486,2.055,2.055,0,0,1,.352-.462,10.659,10.659,0,0,1-4.18-2.068Zm5.214-6.028v2.739H25.641V12.08Zm-1.936,6.039v-2.8h1.936v2.8Zm2.442-6.534H25.124v7.887h.517v-.858h2.442Zm1.067,5.973a8.147,8.147,0,0,1,1.463,1.98l.451-.3a8,8,0,0,0-1.5-1.936Zm5.61-2.7v-.495H31.724v-1.65H34.21v-.484H31.724V10.826h-.517v1.408h-2.42v.484h2.42v1.65H28.27v.495h4.411v1.43H28.347v.484h4.334v3.3c0,.154-.044.209-.242.22-.176,0-.8,0-1.562-.022a1.921,1.921,0,0,1,.187.506,8.97,8.97,0,0,0,1.749-.077c.286-.088.385-.264.385-.627v-3.3h1.419v-.484H33.2v-1.43Zm5.951-3.08v1.133H37.9V11.783ZM37.9,14.533V13.345h2.816v1.188Zm3.322.44v-3.63H37.378v9.471H37.9V14.973Zm2.057,1.386v1.21h-3v-1.21Zm-3,2.97v-1.3h3v1.3ZM43.78,15.9H39.765v4.444h.506V19.78H43.78Zm-.924-1.364V13.345h2.9v1.188Zm2.9-2.75v1.133h-2.9V11.783Zm.528-.44H42.35v3.641h3.41v5.005c0,.187-.066.253-.264.253s-.858.022-1.595,0a2.573,2.573,0,0,1,.2.55A8.4,8.4,0,0,0,45.87,20.7c.308-.1.418-.3.418-.715Zm2.53,9.262.3.3,9.867-9.867-.3-.3Zm14.63-.462c1.452,0,2.354-1.364,2.354-4.18,0-2.783-.9-4.125-2.354-4.125s-2.365,1.342-2.365,4.125C61.083,18.779,61.985,20.143,63.448,20.143Zm0-.539c-1.045,0-1.727-1.21-1.727-3.641,0-2.387.682-3.586,1.727-3.586s1.716,1.2,1.716,3.586C65.164,18.394,64.482,19.6,63.448,19.6Zm6.787-3.2c-1.111,0-1.606-.847-1.606-2s.649-2.035,1.518-2.035c1.254,0,1.892,1.111,1.958,2.86A2.4,2.4,0,0,1,70.235,16.4Zm-2.079,2.97a2.342,2.342,0,0,0,1.771.77c1.463,0,2.816-1.21,2.816-4.587,0-2.42-1.034-3.718-2.585-3.718A2.353,2.353,0,0,0,67.991,14.4c0,1.628.825,2.519,2.167,2.519a2.612,2.612,0,0,0,1.958-1.067c-.066,2.772-1.067,3.74-2.178,3.74a1.8,1.8,0,0,1-1.4-.638Zm7.689-3.828a.6.6,0,1,0-.561-.594A.565.565,0,0,0,75.845,15.545Zm0,4.6a.6.6,0,1,0-.561-.594A.565.565,0,0,0,75.845,20.143Zm5.423,0c1.452,0,2.354-1.364,2.354-4.18,0-2.783-.9-4.125-2.354-4.125S78.9,13.18,78.9,15.963C78.9,18.779,79.805,20.143,81.268,20.143Zm0-.539c-1.045,0-1.727-1.21-1.727-3.641,0-2.387.682-3.586,1.727-3.586s1.716,1.2,1.716,3.586C82.984,18.394,82.3,19.6,81.268,19.6Zm6.985.539c1.452,0,2.354-1.364,2.354-4.18,0-2.783-.9-4.125-2.354-4.125s-2.365,1.342-2.365,4.125C85.888,18.779,86.79,20.143,88.253,20.143Zm0-.539c-1.045,0-1.727-1.21-1.727-3.641,0-2.387.682-3.586,1.727-3.586s1.716,1.2,1.716,3.586C89.969,18.394,89.287,19.6,88.253,19.6ZM100,17.184a3.234,3.234,0,0,0,2.805-1.859l-.539-.286A2.62,2.62,0,0,1,100,16.579a2.781,2.781,0,0,1-2.013-.979,3.335,3.335,0,0,0-2.409-1.144,3.234,3.234,0,0,0-2.805,1.859l.539.286a2.62,2.62,0,0,1,2.266-1.54,2.822,2.822,0,0,1,2.013.979A3.335,3.335,0,0,0,100,17.184ZM105.4,20h4.136v-.561h-1.672V11.981h-.517a4.6,4.6,0,0,1-1.529.506v.429h1.4v6.523H105.4Zm8.954.143a2.169,2.169,0,0,0,2.4-2.035,2.357,2.357,0,0,0-1.364-2.09v-.055a2.8,2.8,0,0,0,1.1-1.991,1.992,1.992,0,0,0-2.123-2.1,1.966,1.966,0,0,0-2.068,1.98,2.214,2.214,0,0,0,1.1,1.826v.044a2.712,2.712,0,0,0-1.529,2.288A2.262,2.262,0,0,0,114.356,20.143Zm.561-4.356c-1-.4-2-.847-2-1.936a1.4,1.4,0,0,1,1.441-1.463,1.507,1.507,0,0,1,1.54,1.606A2.339,2.339,0,0,1,114.917,15.787Zm-.561,3.839a1.731,1.731,0,0,1-1.881-1.65,2.385,2.385,0,0,1,1.309-2.013c1.21.473,2.332.913,2.332,2.134A1.592,1.592,0,0,1,114.356,19.626Zm5.379-4.081a.6.6,0,1,0-.561-.594A.565.565,0,0,0,119.735,15.545Zm0,4.6a.6.6,0,1,0-.561-.594A.565.565,0,0,0,119.735,20.143Zm5.423,0c1.452,0,2.354-1.364,2.354-4.18,0-2.783-.9-4.125-2.354-4.125s-2.365,1.342-2.365,4.125C122.793,18.779,123.695,20.143,125.158,20.143Zm0-.539c-1.045,0-1.727-1.21-1.727-3.641,0-2.387.682-3.586,1.727-3.586s1.716,1.2,1.716,3.586C126.874,18.394,126.192,19.6,125.158,19.6Zm6.985.539c1.452,0,2.354-1.364,2.354-4.18,0-2.783-.9-4.125-2.354-4.125s-2.365,1.342-2.365,4.125C129.778,18.779,130.68,20.143,132.143,20.143Zm0-.539c-1.045,0-1.727-1.21-1.727-3.641,0-2.387.682-3.586,1.727-3.586s1.716,1.2,1.716,3.586C133.859,18.394,133.177,19.6,132.143,19.6Zm9.1-6.919h7.953v1.672h.539V12.179h-4.257V10.837h-.539v1.342h-4.224v2.178h.528Zm4.235,4.653H148.9v-.506h-3.421v-2.1h3.1v-.506h-6.6v.506h2.97V19.78a3.6,3.6,0,0,1-2.365-2.354,14.121,14.121,0,0,0,.286-1.507l-.528-.044A6.678,6.678,0,0,1,140.2,20.5a3.848,3.848,0,0,1,.44.352,6.213,6.213,0,0,0,1.738-2.728c1,2.09,2.739,2.508,5.17,2.508H150a1.318,1.318,0,0,1,.22-.528c-.418.011-2.354.011-2.64.011a10.366,10.366,0,0,1-2.1-.187Zm9.768-6.424a11.732,11.732,0,0,1-3.135,4.543,3.432,3.432,0,0,1,.352.495,12.477,12.477,0,0,0,1.529-1.727v6.556h.528V13.455a14.86,14.86,0,0,0,1.243-2.387Zm7.018,3.322v-.517h-3.377V10.98h-.517v2.739h-3.278v.517h2.893A11.273,11.273,0,0,1,154.77,19a4.845,4.845,0,0,1,.418.407,12.484,12.484,0,0,0,3.179-4.818v6.226h.517V14.4a13.953,13.953,0,0,0,3.223,4.95,2.1,2.1,0,0,1,.407-.418,12.36,12.36,0,0,1-3.212-4.7Zm4.29,5.214V16.029h5.83V19.45Zm5.83-7.282v3.344h-5.83V12.168Zm-6.358-.528v9.042h.528v-.715h5.83v.649h.539V11.64ZM176.44,20.6l.3.3,9.867-9.867-.3-.3ZM193.853,11h-.55v3.619a6.492,6.492,0,0,1-4.554,5.775,2.885,2.885,0,0,1,.352.429,6.848,6.848,0,0,0,4.477-5.049,6.762,6.762,0,0,0,4.6,5.049,2.411,2.411,0,0,1,.341-.484,6.376,6.376,0,0,1-4.664-5.72Zm3.641,2.068a19.668,19.668,0,0,1-1.694,3.113l.418.22a26.5,26.5,0,0,0,1.815-3.1Zm-6.985.011A4.586,4.586,0,0,1,189,16.216l.429.319a4.948,4.948,0,0,0,1.584-3.344Zm14.96,5.764h1.969v1.1h-1.969Zm1.969-1.892h-1.969V15.93h1.969Zm0,1.463h-1.969V17.393h1.969Zm-5.786-.253V15.281h1.683v2.882Zm1.683-6.116V14.8h-1.683v-2.75Zm7.381,7.9h-2.783v-1.1h2.222v-.429h-2.222V17.393h2.222v-.44h-2.222V15.93h2.5v-.451h-2.376c.132-.253.275-.539.407-.814l-.418-.132h2.3V11.255H207.6v.429h2.255v.968h-2.09v.429h2.09V14.1h-2.266v.429h.341a10.108,10.108,0,0,1-.385.946H205.7c.165-.3.319-.594.451-.88l-.22-.066h1.133V11.255H204.38v.429h2.189v.968h-1.98v.429h1.98V14.1h-2.2v.429h1.243a8.443,8.443,0,0,1-1.782,2.585V11.552h-2.673v7.975h.495v-.88h2.178V17.283a1.811,1.811,0,0,1,.253.242,7.744,7.744,0,0,0,.891-.979v4.169h.495V20.4h5.247Zm4.235-.495V16.029h5.83V19.45Zm5.83-7.282v3.344h-5.83V12.168Zm-6.358-.528v9.042h.528v-.715h5.83v.649h.539V11.64Zm14.465,4.18a1.034,1.034,0,1,0,1.034-1.034A1.033,1.033,0,0,0,228.888,15.82Zm11.748-2.112-.11.011H237.16v.539h3.157a7.837,7.837,0,0,1-3.4,4.994,1.835,1.835,0,0,1,.418.407,8.862,8.862,0,0,0,3.641-5.819Zm5.511-1.056a21.374,21.374,0,0,1-2.838,2.9,13.743,13.743,0,0,1-1.023-2.706V10.87h-.539v9.1c0,.209-.077.275-.3.286s-.924.011-1.76-.011a2.269,2.269,0,0,1,.22.561,9.144,9.144,0,0,0,1.925-.1c.319-.1.451-.286.451-.748V14.335c.913,2.53,2.365,4.653,4.455,5.588a2.648,2.648,0,0,1,.407-.451,7.615,7.615,0,0,1-3.619-3.5,26.072,26.072,0,0,0,3.08-2.97Zm7.722,6.193h1.969v1.1h-1.969Zm1.969-1.892h-1.969V15.93h1.969Zm0,1.463h-1.969V17.393h1.969Zm-5.786-.253V15.281h1.683v2.882Zm1.683-6.116V14.8h-1.683v-2.75Zm7.381,7.9h-2.783v-1.1h2.222v-.429h-2.222V17.393h2.222v-.44h-2.222V15.93h2.5v-.451h-2.376c.132-.253.275-.539.407-.814l-.418-.132h2.3V11.255H256v.429h2.255v.968h-2.09v.429h2.09V14.1h-2.266v.429h.341a10.109,10.109,0,0,1-.385.946H254.1c.165-.3.319-.594.451-.88l-.22-.066h1.133V11.255H252.78v.429h2.189v.968h-1.98v.429h1.98V14.1h-2.2v.429h1.243a8.443,8.443,0,0,1-1.782,2.585V11.552h-2.673v7.975h.495v-.88h2.178V17.283a1.811,1.811,0,0,1,.253.242,7.744,7.744,0,0,0,.891-.979v4.169h.495V20.4h5.247Zm4.235-.495V16.029h5.83V19.45Zm5.83-7.282v3.344h-5.83V12.168Zm-6.358-.528v9.042h.528v-.715h5.83v.649h.539V11.64Zm14.465,4.18a1.034,1.034,0,1,0,1.034-1.034A1.033,1.033,0,0,0,277.288,15.82Zm12.4,1.221c-.253-.253-1.254-1.188-1.716-1.584a10,10,0,0,0,1.419-2.365l-.308-.209-.1.033h-1.166V10.837H287.3v2.079h-1.705v.495h3.113A10.481,10.481,0,0,1,285.2,17.36a1.781,1.781,0,0,1,.308.429,11.349,11.349,0,0,0,1.793-1.551v4.554h.517V15.919a20.022,20.022,0,0,1,1.54,1.573Zm.748-4.939h4.026v3.1h-4.026Zm3.377,8.162c-.3,0-.352-.055-.352-.352V15.7h1.529V11.6h-5.06v4.1h1.155c-.11,2.365-.418,3.894-2.211,4.708a1.679,1.679,0,0,1,.341.407c1.9-.924,2.266-2.563,2.387-5.115h1.342v4.2c0,.649.154.814.814.814h1.078c.6,0,.726-.385.781-1.881a1.277,1.277,0,0,1-.462-.22c-.033,1.408-.088,1.65-.374,1.65Zm5.841-.814V16.029h5.83V19.45Zm5.83-7.282v3.344h-5.83V12.168Zm-6.358-.528v9.042h.528v-.715h5.83v.649h.539V11.64Z" transform="translate(300 5185.61)" fill="#fff"/>
    <path id="パス_17522" data-name="パス 17522" d="M8.55.39c4.32,0,7.14-3.84,7.14-11.52,0-7.62-2.82-11.37-7.14-11.37-4.35,0-7.14,3.72-7.14,11.37C1.41-3.45,4.2.39,8.55.39Zm0-2.73c-2.25,0-3.84-2.4-3.84-8.79,0-6.33,1.59-8.64,3.84-8.64s3.84,2.31,3.84,8.64C12.39-4.74,10.8-2.34,8.55-2.34ZM22.08,0h12.6V-2.85H30.36V-22.08H27.75a13.563,13.563,0,0,1-4.8,1.68v2.19h3.96V-2.85H22.08ZM40.32,0H54.57V-2.94H49.05c-1.08,0-2.46.09-3.6.21,4.68-4.47,8.07-8.88,8.07-13.14a6.244,6.244,0,0,0-6.66-6.63c-2.88,0-4.83,1.26-6.72,3.3l1.95,1.92a5.988,5.988,0,0,1,4.35-2.46c2.46,0,3.75,1.65,3.75,4.05,0,3.63-3.36,7.92-9.87,13.68ZM67.05.39c4.32,0,7.14-3.84,7.14-11.52,0-7.62-2.82-11.37-7.14-11.37-4.35,0-7.14,3.72-7.14,11.37C59.91-3.45,62.7.39,67.05.39Zm0-2.73c-2.25,0-3.84-2.4-3.84-8.79,0-6.33,1.59-8.64,3.84-8.64s3.84,2.31,3.84,8.64C70.89-4.74,69.3-2.34,67.05-2.34ZM79.41-7.2h7.92V-9.75H79.41ZM99.15.39a7.285,7.285,0,0,0,7.44-7.65c0-4.83-3.03-7.02-6.72-7.02a6.225,6.225,0,0,0-3.03.78l.51-5.67h8.19v-2.91H94.35l-.66,10.47,1.68,1.11a5.809,5.809,0,0,1,3.54-1.26c2.52,0,4.2,1.68,4.2,4.62s-1.89,4.71-4.38,4.71A7.065,7.065,0,0,1,93.57-4.8L91.92-2.55A9.771,9.771,0,0,0,99.15.39Zm20.64-2.64c-2.37,0-3.96-2.07-4.32-6.45,1.32-1.89,2.82-2.58,4.11-2.58,2.37,0,3.63,1.59,3.63,4.44S121.71-2.25,119.79-2.25Zm6.27-17.88a7.415,7.415,0,0,0-5.52-2.37c-4.35,0-8.34,3.39-8.34,11.88,0,7.5,3.42,11.01,7.62,11.01,3.6,0,6.6-2.85,6.6-7.23,0-4.68-2.49-6.96-6.21-6.96a6.638,6.638,0,0,0-4.8,2.55c.15-6.3,2.49-8.43,5.31-8.43a4.744,4.744,0,0,1,3.45,1.65ZM138.15.39a7.285,7.285,0,0,0,7.44-7.65c0-4.83-3.03-7.02-6.72-7.02a6.225,6.225,0,0,0-3.03.78l.51-5.67h8.19v-2.91H133.35l-.66,10.47,1.68,1.11a5.809,5.809,0,0,1,3.54-1.26c2.52,0,4.2,1.68,4.2,4.62s-1.89,4.71-4.38,4.71a7.065,7.065,0,0,1-5.16-2.37l-1.65,2.25A9.771,9.771,0,0,0,138.15.39ZM151.02-7.2h7.92V-9.75h-7.92ZM168.51,0h3.54c.36-8.64,1.17-13.5,6.36-19.98v-2.1H164.19v2.91h10.38C170.31-13.23,168.9-8.07,168.51,0ZM190.8.39c4.26,0,7.14-2.52,7.14-5.79,0-3-1.74-4.71-3.72-5.85v-.15a6.861,6.861,0,0,0,2.91-5.19c0-3.45-2.4-5.85-6.24-5.85-3.63,0-6.3,2.25-6.3,5.7a6.242,6.242,0,0,0,2.97,5.16v.15a6.763,6.763,0,0,0-3.96,5.94C183.6-2.07,186.66.39,190.8.39Zm1.44-12.66c-2.46-.96-4.56-2.07-4.56-4.47a3.024,3.024,0,0,1,3.15-3.21,3.276,3.276,0,0,1,3.39,3.57A5.59,5.59,0,0,1,192.24-12.27ZM190.86-2.1c-2.37,0-4.2-1.53-4.2-3.72a5.633,5.633,0,0,1,2.58-4.62c3,1.23,5.43,2.25,5.43,4.95C194.67-3.42,193.11-2.1,190.86-2.1ZM204.3,0h12.6V-2.85h-4.32V-22.08h-2.61a13.563,13.563,0,0,1-4.8,1.68v2.19h3.96V-2.85H204.3Z" transform="translate(353 5154.61)" fill="#fff"/>
  </g>
</svg>
