<svg xmlns="http://www.w3.org/2000/svg" width="126.977" height="14.769" viewBox="0 0 126.977 14.769">
  <path id="パス_17303" data-name="パス 17303" d="M6.624-4.8c-.288-.352-1.5-1.616-2.032-2.08v-.784H6.3v-.688H15.3v-.976h-3.84v-.7h3.088v-.928H11.456v-.688h3.472v-.96H11.456v-.816H9.968v.816H6.7v.96H9.968v.688H7.024v.928H9.968v.7H6.208v.272H4.592v-2.432A16.083,16.083,0,0,0,6.56-12.08L5.536-13.216A22.288,22.288,0,0,1,.7-12.048,4.587,4.587,0,0,1,1.136-10.9c.64-.08,1.328-.176,2.016-.3v2.144H.848v1.392H3.04A16.4,16.4,0,0,1,.432-2.88,8.076,8.076,0,0,1,1.168-1.5,16.737,16.737,0,0,0,3.152-5.12V1.232h1.44V-5.36A17.409,17.409,0,0,1,5.76-3.632Zm6.432-1.04H8.592V-6.7h4.464Zm0,1.792H8.592v-.88h4.464Zm0,1.792H8.592v-.88h4.464Zm1.392-5.408h-7.2V-1.3h1.7A10.959,10.959,0,0,1,5.472.368a7.615,7.615,0,0,1,.944.96,13.305,13.305,0,0,0,3.808-1.92l-1.1-.7h5.328ZM11.456-.576c.976.608,2.1,1.376,2.72,1.856l1.3-.72C14.736.064,13.5-.688,12.448-1.3ZM21.616-9.5l-.288.064H16.944v1.5h3.84A10.721,10.721,0,0,1,16.5-1.376,6.014,6.014,0,0,1,17.712-.208c2.3-1.616,4.144-4.672,4.912-8.928ZM29.6-10.9A27.767,27.767,0,0,1,26.064-7.12a21.911,21.911,0,0,1-1.232-3.44v-2.848H23.264V-.752c0,.288-.128.4-.448.4-.3.016-1.328.016-2.416-.032a6.991,6.991,0,0,1,.576,1.648,8.819,8.819,0,0,0,3.04-.3c.576-.272.816-.736.816-1.712v-5.9A12.59,12.59,0,0,0,30.368.08,6.493,6.493,0,0,1,31.52-1.3,10.706,10.706,0,0,1,26.7-5.9,36.854,36.854,0,0,0,30.976-9.92Zm5.9,5.744a20.9,20.9,0,0,1-2.48,4.384l1.744.736a22.885,22.885,0,0,0,2.352-4.48,36.5,36.5,0,0,0,1.424-4.912c.064-.352.208-.96.32-1.36l-1.808-.368A24.333,24.333,0,0,1,35.5-5.152Zm7.888-.5A46.673,46.673,0,0,1,45.136-.08l1.84-.592c-.448-1.52-1.3-4.016-1.9-5.536-.64-1.616-1.7-3.936-2.352-5.136l-1.648.544A42.688,42.688,0,0,1,43.392-5.648ZM61.2-10.384a3.513,3.513,0,0,1-1.2.16H56.768V-11.6a11.687,11.687,0,0,1,.1-1.328H54.928A7.366,7.366,0,0,1,55.04-11.6v1.376H51.552A15.2,15.2,0,0,1,50-10.3a11.91,11.91,0,0,1,.064,1.3v2.8c0,.352-.032.816-.064,1.152h1.744a7.344,7.344,0,0,1-.064-1.056V-8.736h8.512A11.1,11.1,0,0,1,58.72-4.32a8.227,8.227,0,0,1-4.032,3.008,10.045,10.045,0,0,1-1.92.528L54.08.736A10.2,10.2,0,0,0,60.5-3.92a14.882,14.882,0,0,0,1.536-4.688A6.015,6.015,0,0,1,62.3-9.7ZM76-11.536a4.853,4.853,0,0,1-1.392.16H68.672a17.119,17.119,0,0,1-1.744-.112V-9.68c.256-.016,1.12-.1,1.744-.1h5.872A13.164,13.164,0,0,1,72-5.552,17.978,17.978,0,0,1,65.424-.864L66.72.48a20.477,20.477,0,0,0,6.16-4.592A34.608,34.608,0,0,1,77.1.56L78.528-.688a42.527,42.527,0,0,0-4.576-4.688,21.9,21.9,0,0,0,2.624-4.56,5.523,5.523,0,0,1,.464-.832Zm8.352,9.008c-.64,0-1.456-.832-1.456-2.656a5.311,5.311,0,0,1,4.512-4.9A21.952,21.952,0,0,1,86.544-6C85.808-3.552,85.04-2.528,84.352-2.528ZM88.608.528c3.872-.544,6-2.848,6-6.16a5.872,5.872,0,0,0-6.224-5.984A6.886,6.886,0,0,0,81.3-5.04c0,2.64,1.44,4.416,3.008,4.416,1.584,0,2.9-1.808,3.856-5.04a36.265,36.265,0,0,0,.944-4.448A4.19,4.19,0,0,1,92.912-5.7a4.551,4.551,0,0,1-3.84,4.5,8.972,8.972,0,0,1-1.408.224Zm14.528-3.872A11.552,11.552,0,0,1,105.04-.8l1.184-.768a11.441,11.441,0,0,0-1.968-2.464Zm8.192-4.032V-8.752H107.52V-10.5h3.088V-11.84H107.52v-1.6h-1.472v1.6h-2.992V-10.5h2.992v1.744h-3.936v1.376h5.872v1.712h-5.3l-.128-.9-1.68.5V-8.9h1.488V-10.3H100.88v-3.12H99.5v3.12h-1.04c.128-.672.208-1.376.288-2.064l-1.28-.224a18.546,18.546,0,0,1-.992,5.216,11.223,11.223,0,0,1,1.072.672A13.868,13.868,0,0,0,98.208-8.9h1.3V-5.68c-1.1.32-2.112.592-2.912.784l.384,1.424L99.5-4.224V1.248h1.376v-5.9l1.536-.48v.848h5.568V-.512c0,.224-.08.288-.336.288-.256.016-1.12.016-2.016-.016a5.914,5.914,0,0,1,.464,1.488,8.619,8.619,0,0,0,2.64-.24c.544-.256.72-.688.72-1.488V-4.288H111.2V-5.664h-1.744V-7.376ZM125.28-4.56a21.991,21.991,0,0,1-3.056,2.016,8.435,8.435,0,0,1-1.488-2.016Zm.032,0h1.808V-5.888h-9.984v-1.12h7.92V-8.192h-7.92V-9.3h7.92V-10.48h-7.92v-1.1h8.384v-1.248h-9.888v6.944H112.88V-4.56h2.736V-.5c-.736.112-1.424.208-2,.288l.352,1.36c1.9-.3,4.592-.736,7.1-1.168l-.08-1.312-3.856.592V-4.56h2.08A9.717,9.717,0,0,0,126.464,1.3a5.148,5.148,0,0,1,.944-1.328,10.771,10.771,0,0,1-4.208-1.7,24.41,24.41,0,0,0,3.312-2.016Z" transform="translate(-0.432 13.44)" fill="#fff"/>
</svg>
