<svg xmlns="http://www.w3.org/2000/svg" width="298.476" height="8.55" viewBox="0 0 298.476 8.55">
  <path id="パス_17309" data-name="パス 17309" d="M-296.181.117a2.616,2.616,0,0,0,2.061-.954l-.558-.657a1.93,1.93,0,0,1-1.467.7c-1.17,0-1.908-.963-1.908-2.538,0-1.557.792-2.511,1.935-2.511a1.762,1.762,0,0,1,1.3.594l.567-.666a2.553,2.553,0,0,0-1.881-.837c-1.674,0-2.988,1.3-2.988,3.456S-297.846.117-296.181.117Zm6.336,0c1.7,0,2.889-1.323,2.889-3.456s-1.188-3.411-2.889-3.411-2.88,1.278-2.88,3.411S-291.546.117-289.845.117Zm0-.909c-1.1,0-1.809-.99-1.809-2.547s.711-2.5,1.809-2.5,1.818.945,1.818,2.5S-288.747-.792-289.845-.792Zm5.166.792h1.044V-2.511h1c1.44,0,2.493-.666,2.493-2.115,0-1.494-1.053-2-2.529-2h-2.007Zm1.044-3.348V-5.787h.864c1.053,0,1.6.288,1.6,1.161s-.5,1.278-1.566,1.278ZM-276.966,0h1.044V-2.511l2-4.113h-1.089l-.774,1.755c-.2.495-.414.954-.63,1.458h-.036c-.225-.5-.414-.963-.621-1.458l-.765-1.755h-1.116l1.989,4.113Zm5.832-5.787h1c.963,0,1.485.279,1.485,1.08s-.522,1.2-1.485,1.2h-1ZM-267.381,0-269-2.808a1.844,1.844,0,0,0,1.386-1.9c0-1.431-1.026-1.917-2.394-1.917h-2.169V0h1.044V-2.673h1.071L-268.56,0Zm2,0h1.044V-6.624h-1.044ZM-259,.117a2.976,2.976,0,0,0,2.1-.774V-3.528h-2.259v.855h1.314v1.557a1.643,1.643,0,0,1-1.044.324c-1.368,0-2.1-.963-2.1-2.538,0-1.557.819-2.511,2.052-2.511a1.792,1.792,0,0,1,1.368.594l.567-.666a2.643,2.643,0,0,0-1.971-.837c-1.755,0-3.087,1.3-3.087,3.456S-260.775.117-259,.117ZM-254.493,0h1.044V-3.015h2.835V0h1.044V-6.624h-1.044v2.7h-2.835v-2.7h-1.044Zm8.91,0h1.044V-5.751h1.953v-.873h-4.941v.873h1.944Zm10.863.1a3.237,3.237,0,0,0,3.294-3.375,3.212,3.212,0,0,0-3.294-3.339,3.2,3.2,0,0,0-3.285,3.339A3.235,3.235,0,0,0-234.72.1Zm0-.477a2.744,2.744,0,0,1-2.745-2.9,2.726,2.726,0,0,1,2.745-2.871,2.728,2.728,0,0,1,2.754,2.871A2.746,2.746,0,0,1-234.72-.378Zm.09-.891a1.994,1.994,0,0,0,1.359-.558l-.351-.513a1.474,1.474,0,0,1-.972.414c-.675,0-1.107-.522-1.107-1.341a1.156,1.156,0,0,1,1.152-1.278,1.115,1.115,0,0,1,.819.4l.414-.468a1.718,1.718,0,0,0-1.287-.576,1.864,1.864,0,0,0-1.89,1.926A1.839,1.839,0,0,0-234.63-1.269ZM-224.352.117a2.062,2.062,0,0,0,2.331-1.926,1.849,1.849,0,0,0-1.35-1.791l-.909-.387c-.54-.216-1.071-.432-1.071-1,0-.531.441-.855,1.116-.855a2.11,2.11,0,0,1,1.458.594l.549-.666a2.837,2.837,0,0,0-2.007-.837,1.968,1.968,0,0,0-2.178,1.827,1.905,1.905,0,0,0,1.35,1.737l.918.4c.612.27,1.062.459,1.062,1.062,0,.558-.45.936-1.251.936a2.568,2.568,0,0,1-1.764-.783l-.612.72A3.3,3.3,0,0,0-224.352.117ZM-219.87,0h4.014V-.882h-2.97V-3.024h2.43v-.882h-2.43V-5.751h2.871v-.873h-3.915Zm6.3,0h1.044V-2l1.017-1.242L-209.637,0h1.161l-2.394-4.068,2.052-2.556h-1.161l-2.52,3.132h-.027V-6.624h-1.044Zm6.867,0h1.044V-6.624H-206.7Zm5.571.117A2.062,2.062,0,0,0-198.8-1.809a1.849,1.849,0,0,0-1.35-1.791l-.909-.387c-.54-.216-1.071-.432-1.071-1,0-.531.441-.855,1.116-.855a2.11,2.11,0,0,1,1.458.594l.549-.666a2.837,2.837,0,0,0-2.007-.837,1.968,1.968,0,0,0-2.178,1.827,1.905,1.905,0,0,0,1.35,1.737l.918.4c.612.27,1.062.459,1.062,1.062,0,.558-.45.936-1.251.936a2.568,2.568,0,0,1-1.764-.783l-.612.72A3.3,3.3,0,0,0-201.132.117Zm6.912,0c1.467,0,2.457-.8,2.457-2.961v-3.78h-1.008v3.852c0,1.494-.612,1.98-1.449,1.98s-1.422-.486-1.422-1.98V-6.624h-1.044v3.78C-196.686-.684-195.687.117-194.22.117ZM-189.153,0h1.044V-6.624h-1.044Zm6.606,0h1.044V-3.015h2.835V0h1.044V-6.624h-1.044v2.7H-181.5v-2.7h-1.044Zm10.08.117c1.7,0,2.889-1.323,2.889-3.456s-1.188-3.411-2.889-3.411-2.88,1.278-2.88,3.411S-174.168.117-172.467.117Zm0-.909c-1.1,0-1.809-.99-1.809-2.547s.711-2.5,1.809-2.5,1.818.945,1.818,2.5S-171.369-.792-172.467-.792Zm7.6.909c1.467,0,2.457-.8,2.457-2.961v-3.78h-1.008v3.852c0,1.494-.612,1.98-1.449,1.98s-1.422-.486-1.422-1.98V-6.624h-1.044v3.78C-167.337-.684-166.338.117-164.871.117Zm6.858,0a2.062,2.062,0,0,0,2.331-1.926,1.849,1.849,0,0,0-1.35-1.791l-.909-.387c-.54-.216-1.071-.432-1.071-1,0-.531.441-.855,1.116-.855a2.11,2.11,0,0,1,1.458.594l.549-.666A2.837,2.837,0,0,0-157.9-6.75a1.968,1.968,0,0,0-2.178,1.827,1.905,1.905,0,0,0,1.35,1.737l.918.4c.612.27,1.062.459,1.062,1.062,0,.558-.45.936-1.251.936a2.568,2.568,0,0,1-1.764-.783l-.612.72A3.3,3.3,0,0,0-158.013.117ZM-153.531,0h4.014V-.882h-2.97V-3.024h2.43v-.882h-2.43V-5.751h2.871v-.873h-3.915Zm6.138,1.8a2.11,2.11,0,0,0,1.476-2.025c0-.693-.3-1.116-.8-1.116a.672.672,0,0,0-.72.666.649.649,0,0,0,.693.666.369.369,0,0,0,.1-.009,1.4,1.4,0,0,1-.981,1.233Zm6.669-1.8h3.843V-.882h-2.8V-6.624h-1.044Zm6.048,0h1.044V-5.751h1.953v-.873h-4.941v.873h1.944Zm5.04,0h1.773c1.98,0,3.141-1.188,3.141-3.339s-1.161-3.285-3.195-3.285h-1.719Zm1.044-.855V-5.778h.6c1.422,0,2.187.783,2.187,2.439s-.765,2.484-2.187,2.484Zm6.615.972a.689.689,0,0,0,.693-.72.7.7,0,0,0-.693-.738.7.7,0,0,0-.693.738A.689.689,0,0,0-121.977.117Zm7.038-2.826.27-.891c.216-.72.423-1.449.612-2.2h.036c.207.747.4,1.485.63,2.2l.261.891ZM-112.32,0h1.107l-2.2-6.624h-1.206L-116.811,0h1.062l.567-1.89h2.3Zm2.88,0h3.843V-.882h-2.8V-6.624h-1.044Zm5.913,0h3.843V-.882h-2.8V-6.624h-1.044Zm9.882-5.787h1c.963,0,1.485.279,1.485,1.08s-.522,1.2-1.485,1.2h-1ZM-89.892,0l-1.62-2.808a1.844,1.844,0,0,0,1.386-1.9c0-1.431-1.026-1.917-2.394-1.917h-2.169V0h1.044V-2.673h1.071L-91.071,0Zm2,0h1.044V-6.624h-1.044Zm6.381.117a2.976,2.976,0,0,0,2.1-.774V-3.528h-2.259v.855h1.314v1.557A1.643,1.643,0,0,1-81.4-.792c-1.368,0-2.1-.963-2.1-2.538,0-1.557.819-2.511,2.052-2.511a1.792,1.792,0,0,1,1.368.594l.567-.666a2.643,2.643,0,0,0-1.971-.837c-1.755,0-3.087,1.3-3.087,3.456S-83.286.117-81.513.117ZM-77,0h1.044V-3.015h2.835V0h1.044V-6.624h-1.044v2.7H-75.96v-2.7H-77Zm8.91,0h1.044V-5.751H-65.1v-.873h-4.941v.873h1.944Zm6.579.117a2.062,2.062,0,0,0,2.331-1.926A1.849,1.849,0,0,0-60.534-3.6l-.909-.387c-.54-.216-1.071-.432-1.071-1,0-.531.441-.855,1.116-.855a2.11,2.11,0,0,1,1.458.594l.549-.666A2.837,2.837,0,0,0-61.4-6.75a1.968,1.968,0,0,0-2.178,1.827,1.905,1.905,0,0,0,1.35,1.737l.918.4c.612.27,1.062.459,1.062,1.062,0,.558-.45.936-1.251.936a2.568,2.568,0,0,1-1.764-.783l-.612.72A3.3,3.3,0,0,0-61.515.117Zm8.451-5.9h1c.963,0,1.485.279,1.485,1.08s-.522,1.2-1.485,1.2h-1ZM-49.311,0l-1.62-2.808a1.844,1.844,0,0,0,1.386-1.9c0-1.431-1.026-1.917-2.394-1.917h-2.169V0h1.044V-2.673h1.071L-50.49,0Zm2,0H-43.3V-.882h-2.97V-3.024h2.43v-.882h-2.43V-5.751H-43.4v-.873h-3.915Zm8.19.117a2.062,2.062,0,0,0,2.331-1.926A1.849,1.849,0,0,0-38.142-3.6l-.909-.387c-.54-.216-1.071-.432-1.071-1,0-.531.441-.855,1.116-.855a2.11,2.11,0,0,1,1.458.594L-37-5.913a2.837,2.837,0,0,0-2.007-.837,1.968,1.968,0,0,0-2.178,1.827,1.905,1.905,0,0,0,1.35,1.737l.918.4c.612.27,1.062.459,1.062,1.062,0,.558-.45.936-1.251.936a2.568,2.568,0,0,1-1.764-.783l-.612.72A3.3,3.3,0,0,0-39.123.117ZM-34.641,0h4.014V-.882H-33.6V-3.024h2.43v-.882H-33.6V-5.751h2.871v-.873h-3.915ZM-27.3-5.787h1c.963,0,1.485.279,1.485,1.08s-.522,1.2-1.485,1.2h-1ZM-23.544,0l-1.62-2.808a1.844,1.844,0,0,0,1.386-1.9c0-1.431-1.026-1.917-2.394-1.917h-2.169V0H-27.3V-2.673h1.071L-24.723,0Zm3.186,0h1.233l2.07-6.624h-1.062L-19.1-3.195c-.216.756-.378,1.4-.6,2.169h-.045c-.234-.765-.378-1.413-.6-2.169l-.981-3.429h-1.107ZM-15.3,0h4.014V-.882h-2.97V-3.024h2.43v-.882h-2.43V-5.751h2.871v-.873H-15.3ZM-9,0h1.773c1.98,0,3.141-1.188,3.141-3.339s-1.161-3.285-3.2-3.285H-9Zm1.044-.855V-5.778h.6c1.422,0,2.187.783,2.187,2.439S-5.931-.855-7.353-.855Zm6.615.972A.689.689,0,0,0-.648-.6a.7.7,0,0,0-.693-.738A.7.7,0,0,0-2.034-.6.689.689,0,0,0-1.341.117Z" transform="translate(299.124 6.75)" fill="#fff"/>
</svg>
