<svg xmlns="http://www.w3.org/2000/svg" width="62.723" height="9.944" viewBox="0 0 62.723 9.944">
  <path id="パス_17304" data-name="パス 17304" d="M.5-2.772H3.2v-.539H.5ZM8.1-.407c-.517,0-1.408-.517-1.408-1.111,0-.561.781-1.276,1.782-1.727.011.891.033,1.782.033,2.255C8.5-.649,8.382-.407,8.1-.407Zm.891-3.949c0-.506.011-1.144.033-1.749a19.7,19.7,0,0,0,2.387-.418L11.4-7.095a15.473,15.473,0,0,1-2.365.473c.022-.638.033-1.177.033-1.408s.022-.44.044-.638H8.47a4,4,0,0,1,.055.66c0,.2-.011.759-.033,1.441-.341.022-.671.044-.946.044a9.1,9.1,0,0,1-1.32-.1l.022.572c.374.033.8.055,1.309.055.264,0,.583-.022.924-.055-.011.605-.022,1.232-.022,1.738V-3.8c-1.188.517-2.354,1.441-2.354,2.3,0,.88,1.375,1.661,2.1,1.661.517,0,.836-.3.836-1.111,0-.539-.033-1.562-.044-2.508a6.655,6.655,0,0,1,2.563-.506c1.067,0,2.024.528,2.024,1.551,0,1.144-.968,1.716-1.969,1.892a5.523,5.523,0,0,1-1.254.077l.209.561a6.8,6.8,0,0,0,1.3-.132c1.353-.319,2.266-1.078,2.266-2.409,0-1.188-1.034-2.046-2.574-2.046a8.048,8.048,0,0,0-2.574.473Zm3.4-2.662a12.514,12.514,0,0,1,2.354,1.65l.308-.462a15.958,15.958,0,0,0-2.376-1.617Zm8.888-1.188v1.133H18.491V-8.206ZM18.491-5.4V-6.633h2.783V-5.4Zm3.289.462V-8.657H17.963V.814h.528V-4.939Zm2.046,1.6v2.123H20.8V-3.344Zm.506,2.607v-3.08H20.3V-.066H20.8V-.737ZM23.419-5.4V-6.633H26.29V-5.4ZM26.29-8.206v1.133H23.419V-8.206Zm.528-.451h-3.9v3.718H26.29V-.022c0,.2-.066.264-.275.264s-.9.022-1.683,0a2.378,2.378,0,0,1,.2.55A9.422,9.422,0,0,0,26.4.7c.3-.1.418-.3.418-.726ZM37.224-3.025v2.86h-5.5v-2.86ZM31.2.8h.528V.319h5.5V.8h.528V-3.52H31.2Zm.5-6.358v.484h5.555v-.484ZM34.155-9.13a12.953,12.953,0,0,1-4.719,4.158,3.52,3.52,0,0,1,.341.407A14.291,14.291,0,0,0,34.452-8.6a15.049,15.049,0,0,0,4.785,3.938,4.2,4.2,0,0,1,.352-.451A13.956,13.956,0,0,1,34.672-9.13ZM45-6.875l-.11.033c.088-.825.165-1.474.209-1.716l-.7-.033a5.268,5.268,0,0,1,.033.7c0,.121-.033.572-.066,1.155-.6.1-1.364.176-1.727.2a4.916,4.916,0,0,1-.572.011l.055.616c.726-.1,1.738-.231,2.211-.3-.033.4-.055.825-.088,1.243-.517.814-1.848,2.651-2.453,3.41l.374.5c.627-.88,1.463-2.068,2.024-2.915-.022.473-.044.88-.044,1.122-.011,1.1-.011,1.54-.022,2.585a3.88,3.88,0,0,1-.033.55h.638l-.033-.561c-.044-.946-.033-1.463-.033-2.519,0-.44.022-.946.044-1.485A5.3,5.3,0,0,1,48.279-5.94a2.161,2.161,0,0,1,2.3,2.112c.011,1.98-1.793,2.871-3.6,3.124l.242.55c2.189-.418,3.927-1.474,3.9-3.663a2.672,2.672,0,0,0-2.783-2.651,5.569,5.569,0,0,0-3.6,1.507c.022-.308.044-.627.066-.935.143-.242.319-.506.44-.7ZM60.489-8.36a4.463,4.463,0,0,1,.055.7c0,.484,0,1.166-.011,1.738-1.254.1-2.64.242-3.773.352l.011-1.716a7.25,7.25,0,0,1,.033-.737h-.627a4.654,4.654,0,0,1,.044.759v1.749c-.627.055-1.144.11-1.463.132a9.146,9.146,0,0,1-1,.055l.066.616c.3-.044.649-.1.979-.143s.836-.088,1.419-.154c0,1.133,0,2.343.011,2.816C56.276-.55,56.463.033,58.806.033c1.144,0,2.475-.11,3.2-.187l.022-.594A22.523,22.523,0,0,1,58.8-.517c-2.035,0-1.991-.506-2.035-1.738-.022-.4-.011-1.606-.011-2.805,1.177-.121,2.585-.253,3.784-.341a19.927,19.927,0,0,1-.143,2.046c-.033.264-.154.308-.451.308a5.994,5.994,0,0,1-1.133-.143l-.011.517a7.933,7.933,0,0,0,1.32.154c.451,0,.682-.143.759-.572a19.657,19.657,0,0,0,.176-2.343C61.6-5.467,62.1-5.5,62.469-5.5c.275,0,.594-.011.748,0v-.594c-.22.011-.462.033-.737.044-.418.022-.9.055-1.419.088.011-.528.011-1.188.022-1.705a6.811,6.811,0,0,1,.033-.693Z" transform="translate(-0.494 9.13)" fill="#fff"/>
</svg>
