<svg xmlns="http://www.w3.org/2000/svg" width="78.912" height="14.784" viewBox="0 0 78.912 14.784">
  <path id="パス_17302" data-name="パス 17302" d="M9.392-12.608A24.579,24.579,0,0,0,12.944-7.52H3.312A17.981,17.981,0,0,0,6.7-12.688L5.12-13.152A13.579,13.579,0,0,1,.384-7.184,11.159,11.159,0,0,1,1.648-6,13.635,13.635,0,0,0,3.1-7.3v1.232H6.1C5.76-3.536,4.912-1.2,1.232.016a4.7,4.7,0,0,1,.944,1.328c4.112-1.5,5.136-4.3,5.536-7.408h3.7c-.16,3.712-.368,5.216-.736,5.6a.858.858,0,0,1-.688.224c-.368,0-1.28-.016-2.256-.112a3.413,3.413,0,0,1,.5,1.5,18.037,18.037,0,0,0,2.48,0A1.725,1.725,0,0,0,12.016.5c.544-.624.768-2.48.976-7.328.016-.144.016-.48.016-.624a14.614,14.614,0,0,0,1.344,1.312A8.183,8.183,0,0,1,15.6-7.472a17.716,17.716,0,0,1-4.768-5.712Zm21.76.56H27.3V-13.44h-1.5v1.392H22.144v1.12h9.008ZM27.3-10.224a14.086,14.086,0,0,1,3.088,1.856l.992-.768a16.515,16.515,0,0,0-3.1-1.776Zm-2.672-.624A8.258,8.258,0,0,1,21.7-9.2a7.731,7.731,0,0,1,.976.928,9.4,9.4,0,0,0,3.216-2.192ZM21.376-12.9H17.392v1.168h3.984Zm.448,2.112H16.64V-9.6h5.184ZM20.192-3.12v2.3H18.448v-2.3Zm1.2-1.2H17.264V1.056h1.184v-.7h2.944Zm-4.1-.992h4.112V-6.48H17.3Zm0-2.144h4.112V-8.608H17.3Zm8.288,2.288h1.984v.752H25.584Zm0-1.712h1.984v.736H25.584Zm4.688,3.744a18.44,18.44,0,0,1-1.7,1.1,7.028,7.028,0,0,1-.784-1.344H31.36v-1.04H28.928v-.752h1.728v-.976H28.928V-6.88H30.96V-7.888H28.928v-1.1h-1.36v1.1H25.584v-1.1H24.256v1.1H22.4V-6.88h1.856v.736h-1.5v.976h1.5v.752H21.872v1.04h2.864a11.753,11.753,0,0,1-3.232,1.5,9.052,9.052,0,0,1,.8.992,14.661,14.661,0,0,0,1.632-.736V-.24c-.544.08-1.056.16-1.488.224l.368,1.152c1.392-.224,3.2-.56,4.928-.88l-.1-1.088c-.832.144-1.664.272-2.448.4V-2.368a8.327,8.327,0,0,0,1.2-1.008h.128A7.168,7.168,0,0,0,30.72,1.248,4.383,4.383,0,0,1,31.584.176a6.277,6.277,0,0,1-2.352-1.424,14.2,14.2,0,0,0,1.856-1.1Zm5.776-5.12h1.776V-9.664H36.048v-3.552H34.656v3.552H32.688v1.408h1.968V-3.44c-.8.32-1.536.608-2.112.816l.576,1.488c1.424-.624,3.248-1.456,4.928-2.272L37.712-4.72c-.544.224-1.12.464-1.664.7ZM41.44-.4c-1.024,0-1.2-.176-1.2-1.072V-6.72l1.792-.768v5.152h1.392V-8.08l1.856-.8c0,2.448-.032,3.936-.1,4.24-.064.336-.208.4-.416.4-.16,0-.592,0-.928-.016a4.6,4.6,0,0,1,.336,1.264,4.93,4.93,0,0,0,1.536-.176c.5-.128.768-.48.848-1.152.1-.624.128-2.8.128-5.792l.064-.256-1.04-.4-.256.208-.288.224L43.424-9.6v-3.808H42.032v4.4l-1.792.752V-11.9H38.832v4.24l-1.664.7.56,1.328,1.1-.48v4.624c0,1.92.56,2.416,2.528,2.416h3.664c1.744,0,2.192-.72,2.4-2.928a3.97,3.97,0,0,1-1.312-.56C45.984-.816,45.824-.4,44.944-.4Zm7.312-6.656v1.632h14.56V-7.056Zm30.432-3.632v-1.168H74.656a12.128,12.128,0,0,0,.448-1.28l-1.328-.3a9.7,9.7,0,0,1-1.984,3.76,8.666,8.666,0,0,1,1.168.768,8.988,8.988,0,0,0,1.168-1.776Zm-.432,2.9V-8.96H73.5v1.168ZM66.832-8.928h1.424v.736H66.832ZM68.256-12v.656H66.832V-12Zm2.112,2.224H66.832v-.72h3.536Zm1.824,1.584H69.456v-.736h2.208v-2.416H69.456V-12h2.512v-.88h-6.5V-7.3h6.72ZM68.48-3.024h6.992v.688H68.48Zm0-1.472h6.992v.672H68.48Zm0-1.472h6.992V-5.3H68.48ZM75.1-.08c-.688,0-.8-.048-.8-.432v-.976h2.624v-5.3H67.072v5.3h2.176C68.8-.512,67.728-.08,64.7.144a3.507,3.507,0,0,1,.64,1.136c3.6-.368,4.9-1.152,5.408-2.768h2.1V-.5c0,1.248.416,1.584,2.1,1.584h2.512c1.28,0,1.7-.4,1.84-2.1a4.923,4.923,0,0,1-1.264-.464c-.064,1.216-.16,1.392-.72,1.392Z" transform="translate(-0.385 13.44)" fill="#fff"/>
</svg>
