<svg xmlns="http://www.w3.org/2000/svg" width="78.77" height="14.752" viewBox="0 0 78.77 14.752">
  <path id="パス_17300" data-name="パス 17300" d="M13.3-3.44a17.616,17.616,0,0,1-2.128,1.456,6.2,6.2,0,0,1-1.12-1.456ZM7.76-6.08h2.848v1.392H7.76Zm0-2.544h2.848v1.28H7.76Zm-4.032-2.8h9.056V-9.9H3.728ZM13.376-3.44h1.792V-4.688H12V-6.08h2.512V-7.344H12v-1.28h2.272V-12.7H2.24v4.672c0,2.544-.128,6.08-1.712,8.544A6.272,6.272,0,0,1,1.84,1.28C3.5-1.312,3.728-5.3,3.728-8.032v-.592H6.4v1.28H4.176V-6.08H6.4v1.392H3.712V-3.44H5.568V-.56c-.64.1-1.232.176-1.744.24l.224,1.36C5.712.784,7.968.416,10.1.064l-.048-1.3c-1.056.16-2.112.336-3.1.48V-3.44h1.7a8.2,8.2,0,0,0,5.824,4.72,4.725,4.725,0,0,1,.88-1.216,9.155,9.155,0,0,1-3.248-1.3A18.041,18.041,0,0,0,14.448-2.7ZM29.584-12.3H18.416v1.472H29.584ZM19.552-5.632a11.748,11.748,0,0,1-2.992,4.56,11.972,11.972,0,0,1,1.376.9A15.878,15.878,0,0,0,21.1-5.216Zm7.264.576a19.354,19.354,0,0,1,2.64,4.912l1.52-.672a20.789,20.789,0,0,0-2.768-4.832ZM16.992-8.48v1.472h6.24V-.592c0,.24-.1.3-.4.32-.288.016-1.376,0-2.368-.032a7.241,7.241,0,0,1,.528,1.568A9.651,9.651,0,0,0,24,.992c.64-.224.848-.672.848-1.552V-7.008h6.176V-8.48Zm27.872-2.4H40.192v-1.04h4.672Zm0,2.064H40.192V-9.872h4.672Zm1.376-4.176H38.848v5.248H46.24ZM37.472-5.136c-.5.224-.992.448-1.472.672v-4.16h1.616v-1.408H36v-3.232H34.624v3.232h-1.76v1.408h1.76v4.768c-.784.336-1.5.64-2.08.864L33.12-1.5c1.344-.64,3.072-1.5,4.672-2.32Zm9.888-.576V-6.976h-10v1.264h2.048a8.589,8.589,0,0,1-3.024,2.944,8.062,8.062,0,0,1,1.008.928A10.863,10.863,0,0,0,39.36-3.552H40.7a10.355,10.355,0,0,1-3.456,3.28,4.128,4.128,0,0,1,.992.9,12.3,12.3,0,0,0,3.808-4.176h1.264A9.28,9.28,0,0,1,40.272.48a4.775,4.775,0,0,1,1.072.832A11.058,11.058,0,0,0,44.56-3.552h.96c-.192,2.256-.4,3.168-.64,3.44-.128.16-.256.176-.5.176A10.693,10.693,0,0,1,43.136,0a2.939,2.939,0,0,1,.336,1.2,12.6,12.6,0,0,0,1.6-.016,1.392,1.392,0,0,0,.96-.448c.432-.48.672-1.728.928-4.928.016-.192.032-.56.032-.56H40.3a7.366,7.366,0,0,0,.592-.96Zm1.392-1.344v1.632h14.56V-7.056Zm30.432-3.632v-1.168H74.656a12.128,12.128,0,0,0,.448-1.28l-1.328-.3a9.7,9.7,0,0,1-1.984,3.76,8.666,8.666,0,0,1,1.168.768,8.988,8.988,0,0,0,1.168-1.776Zm-.432,2.9V-8.96H73.5v1.168ZM66.832-8.928h1.424v.736H66.832ZM68.256-12v.656H66.832V-12Zm2.112,2.224H66.832v-.72h3.536Zm1.824,1.584H69.456v-.736h2.208v-2.416H69.456V-12h2.512v-.88h-6.5V-7.3h6.72ZM68.48-3.024h6.992v.688H68.48Zm0-1.472h6.992v.672H68.48Zm0-1.472h6.992V-5.3H68.48ZM75.1-.08c-.688,0-.8-.048-.8-.432v-.976h2.624v-5.3H67.072v5.3h2.176C68.8-.512,67.728-.08,64.7.144a3.507,3.507,0,0,1,.64,1.136c3.6-.368,4.9-1.152,5.408-2.768h2.1V-.5c0,1.248.416,1.584,2.1,1.584h2.512c1.28,0,1.7-.4,1.84-2.1a4.923,4.923,0,0,1-1.264-.464c-.064,1.216-.16,1.392-.72,1.392Z" transform="translate(-0.527 13.44)" fill="#fff"/>
</svg>
