<svg xmlns="http://www.w3.org/2000/svg" width="305.734" height="111.431" viewBox="0 0 305.734 111.431">
  <g id="footer-add" transform="translate(-300.752 -4899.417)">
    <path id="常葉つくば支店_" data-name="常葉つくば支店　" d="M-73.42-9.68h6.84v1.64h-6.84Zm10.7,4.46H-68.8V-6.68h4.12v-4.36H-75.2v4.36h4.48v1.46h-6.3V.68h1.88V-3.54h4.42V1.58h1.92V-3.54h4.16v2.4c0,.24-.08.3-.4.32-.28,0-1.34,0-2.4-.04a7.912,7.912,0,0,1,.62,1.7A10.329,10.329,0,0,0-63.6.56c.68-.28.88-.78.88-1.68Zm-2.18-8.62a27.047,27.047,0,0,0,1.84-2.14l-1.98-.64A15.2,15.2,0,0,1-66.6-14.3l1.2.46h-3.58v-2.94H-70.9v2.94h-3.72l1.18-.52a10.736,10.736,0,0,0-1.58-2.24l-1.68.66a13.827,13.827,0,0,1,1.36,2.1H-78.3v4.46h1.78v-2.86h13.1v2.86h1.84v-4.46ZM-46-10.2v1.22h-3.66V-10.2Zm4.96,7.52V-4.14h-8.1V-5.4h7.4V-6.84h-12.7V-10.2h3v2.38h7.26V-10.2h3.02v-1.44h-3.02V-13H-45.7v-1.1h4.58v-1.44H-45.7v-1.24h-1.86v1.24h-4.92v-1.24h-1.86v1.24h-4.5v1.44h4.5v1.4h1.86v-1.4h4.92v1.48H-46v.98h-3.66v-1.5h-1.78v1.5h-3V-13H-56.3v1.36h-2.52v1.44h2.52v4.8h5.34v1.26H-58.9v1.46h6.48A21.745,21.745,0,0,1-59.34-.14,7.911,7.911,0,0,1-58.2,1.34a21.287,21.287,0,0,0,7.24-3.28v3.5h1.82V-2.12a16.931,16.931,0,0,0,7.3,3.52A7.507,7.507,0,0,1-40.66-.2a18.155,18.155,0,0,1-6.86-2.48Zm2.42-7.98.9,2.2c1.8-.74,6.68-2.84,9.78-2.84,2.54,0,3.96,1.54,3.96,3.52,0,3.8-4.44,5.36-9.7,5.48l.9,2.1c6.5-.34,11.02-2.9,11.02-7.54,0-3.46-2.7-5.44-6.1-5.44-2.92,0-6.86,1.42-8.46,1.92C-37.06-11.04-37.9-10.8-38.62-10.66ZM-7.54-16.2a11.656,11.656,0,0,1-1.3,1.48c-1.34,1.34-4.22,3.62-5.74,4.9-1.86,1.56-2.06,2.54-.14,4.14,1.82,1.54,5.02,4.24,6.1,5.4C-8.14.24-7.58.78-7.1,1.34L-5.3-.32c-1.94-1.92-5.68-4.94-7.34-6.32-1.18-1-1.18-1.26-.04-2.24,1.4-1.18,4.14-3.34,5.46-4.46.4-.3,1.02-.84,1.52-1.22Zm27.08,2.32a27.765,27.765,0,0,0-1.16-2.76l-1.16.38a18.99,18.99,0,0,1,1.14,2.76Zm-2.06.64A25.793,25.793,0,0,0,16.34-16l-1.14.34a24.936,24.936,0,0,1,1.08,2.82ZM2.7-15.26a14.69,14.69,0,0,1-.16,1.64,60.458,60.458,0,0,0-.86,8.3A23.984,23.984,0,0,0,2.44.98L4.22.84C4.2.6,4.18.3,4.18.1a3.548,3.548,0,0,1,.1-.9,43.73,43.73,0,0,1,1.4-4.52l-1-.8c-.32.74-.72,1.68-1.02,2.5A14.735,14.735,0,0,1,3.52-5.7a49.323,49.323,0,0,1,.98-7.84,10,10,0,0,1,.4-1.52ZM12.74-2.96c0,1.24-.44,1.98-1.92,1.98-1.26,0-2.14-.46-2.14-1.38,0-.82.9-1.4,2.22-1.4a7.048,7.048,0,0,1,1.84.26Zm4.96-9.26a29.759,29.759,0,0,1-3.26.46c.02-.92.04-1.76.06-2.26.02-.4.06-.82.12-1.22H12.36a9.4,9.4,0,0,1,.1,1.26c0,.5.02,1.34.02,2.34-.56.02-1.1.02-1.66.02-1.18,0-2.28-.06-3.4-.16V-9.9c1.16.06,2.24.12,3.38.12.56,0,1.12,0,1.68-.02.04,1.54.12,3.22.18,4.6a10.193,10.193,0,0,0-1.6-.12c-2.64,0-4.22,1.36-4.22,3.18C6.84-.24,8.42.88,11.1.88c2.76,0,3.64-1.56,3.64-3.4v-.06A18.081,18.081,0,0,1,17.46-.42l1.06-1.64a12.994,12.994,0,0,0-3.86-2.58c-.06-1.5-.18-3.3-.22-5.26,1.14-.1,2.24-.22,3.26-.38Zm16.36,4.7a11.835,11.835,0,0,1-4.02,4.24,11.674,11.674,0,0,1-3.8-4.24Zm1.38-1.92-.32.08H30.9V-12.1h7.46v-1.84H30.9v-2.84H28.98v2.84h-7.4v1.84h7.4v2.74H22.5v1.84h3.34l-1.38.48A14.477,14.477,0,0,0,28.24-2.3,26.847,26.847,0,0,1,20.78-.22a6.776,6.776,0,0,1,1.04,1.78A26.918,26.918,0,0,0,29.94-1.1a21.731,21.731,0,0,0,8.1,2.72,8.724,8.724,0,0,1,1.18-1.8,22.322,22.322,0,0,1-7.44-2.08,13.987,13.987,0,0,0,4.96-6.4ZM55.58-.82H47.62V-4.18h7.96ZM52.26-12.18H50.38v6.36H45.8v7.4h1.82V.84h7.96v.72h1.9V-5.82H52.26V-8.38h6.48v-1.66H52.26Zm-.7-2.16v-2.44H49.62v2.44h-7.2v5.08c0,2.86-.14,6.92-1.76,9.76a9.479,9.479,0,0,1,1.58,1.06c1.74-3.06,2.04-7.7,2.04-10.82v-3.28H59.02v-1.8Z" transform="translate(460.254 4961.825)" fill="#fff"/>
    <path id="_270-0128_千葉県流山市おおたかの森西1-2-3_アゼリアテラス9階_" data-name="〒270-0128  千葉県流山市おおたかの森西1-2-3（アゼリアテラス9階）" d="M1.815-7.843v.715h7.37v-.715Zm0,2.211v.715H5.1V-.11H5.9V-4.917H9.185v-.715ZM12.6,0h4.829V-.572h-2.5c-.418,0-.88.033-1.32.066C15.741-2.5,17.039-4.18,17.039-5.863a2.1,2.1,0,0,0-2.222-2.3,2.948,2.948,0,0,0-2.255,1.155l.407.385a2.389,2.389,0,0,1,1.782-1A1.576,1.576,0,0,1,16.39-5.841c0,1.452-1.078,3.1-3.795,5.445ZM21.34,0h.693c.121-3.135.517-5.137,2.42-7.634v-.385h-4.84v.561h4.059A12.345,12.345,0,0,0,21.34,0Zm7.678.143c1.452,0,2.354-1.364,2.354-4.18,0-2.783-.9-4.125-2.354-4.125S26.653-6.82,26.653-4.037C26.653-1.221,27.555.143,29.018.143Zm0-.539c-1.045,0-1.727-1.21-1.727-3.641,0-2.387.682-3.586,1.727-3.586s1.716,1.2,1.716,3.586C30.734-1.606,30.052-.4,29.018-.4ZM33.55-2.772h2.706v-.539H33.55ZM40.766.143c1.452,0,2.354-1.364,2.354-4.18,0-2.783-.9-4.125-2.354-4.125S38.4-6.82,38.4-4.037C38.4-1.221,39.3.143,40.766.143Zm0-.539c-1.045,0-1.727-1.21-1.727-3.641,0-2.387.682-3.586,1.727-3.586s1.716,1.2,1.716,3.586C42.482-1.606,41.8-.4,40.766-.4Zm5.049.4h4.136V-.561H48.279V-8.019h-.517a4.6,4.6,0,0,1-1.529.506v.429h1.4V-.561H45.815Zm6.468,0h4.829V-.572h-2.5c-.418,0-.88.033-1.32.066C55.429-2.5,56.727-4.18,56.727-5.863a2.1,2.1,0,0,0-2.222-2.3A2.948,2.948,0,0,0,52.25-7.007l.407.385a2.389,2.389,0,0,1,1.782-1,1.576,1.576,0,0,1,1.639,1.782c0,1.452-1.078,3.1-3.8,5.445Zm9.471.143a2.169,2.169,0,0,0,2.4-2.035,2.357,2.357,0,0,0-1.364-2.09v-.055a2.8,2.8,0,0,0,1.1-1.991,1.992,1.992,0,0,0-2.123-2.1A1.966,1.966,0,0,0,59.7-6.149a2.214,2.214,0,0,0,1.1,1.826v.044a2.712,2.712,0,0,0-1.529,2.288A2.262,2.262,0,0,0,61.754.143Zm.561-4.356c-1-.4-2-.847-2-1.936a1.4,1.4,0,0,1,1.441-1.463,1.507,1.507,0,0,1,1.54,1.606A2.339,2.339,0,0,1,62.315-4.213ZM61.754-.374a1.731,1.731,0,0,1-1.881-1.65,2.385,2.385,0,0,1,1.309-2.013c1.21.473,2.332.913,2.332,2.134A1.592,1.592,0,0,1,61.754-.374ZM10.384,13.193H5.753v-2.97a27.727,27.727,0,0,0,3.5-.759l-.407-.44A45.719,45.719,0,0,1,1.221,10.3a2.634,2.634,0,0,1,.154.473c1.232-.121,2.563-.286,3.839-.484v2.9H.638v.517H5.214v5.1h.539v-5.1h4.631Zm5.071-2.145h.517V10.1h3.2v.99H19.7V10.1h2.761V9.651H19.7V8.837h-.528v.814h-3.2V8.837h-.517v.814H12.749V10.1h2.706Zm4.62,1.177v.968h-2.64v-.968Zm2.409,4.037V15.8H17.831v-.968h4.29v-.451H14.872V12.225h2.057V13.6H20.6V12.225h1.859v-.473H20.6v-.913h-.528v.913h-2.64v-1h-.506v1H14.872v-.891h-.517v.891H12.749v.473h1.606v2.607h2.959V15.8H12.749v.462H16.72a12.148,12.148,0,0,1-4.2,1.914,2.149,2.149,0,0,1,.352.418,11.763,11.763,0,0,0,4.444-2.277v2.475h.517V16.273a10.411,10.411,0,0,0,4.51,2.354,2.212,2.212,0,0,1,.341-.451,10.312,10.312,0,0,1-4.246-1.914Zm10.241-5.489H27.841V9.717h4.884Zm0,1.5H27.841V11.191h4.884Zm0,1.518H27.841V12.7h4.884Zm.517-4.51H27.335v4.939h5.907Zm-5.863,6.93a8.687,8.687,0,0,1-2.541,2.057,3.289,3.289,0,0,1,.407.363,10.547,10.547,0,0,0,2.673-2.222Zm4.081.3a20.3,20.3,0,0,1,2.618,2.145l.429-.352a25.475,25.475,0,0,0-2.64-2.079Zm-5.445-1.32v-5.4H25.5V16.02h.517v-.352h3.41v3.124h.539V15.668h4.6v-.484Zm13.849-2.266.055.517c1.485-.066,3.641-.165,5.72-.286a6.954,6.954,0,0,1,.6.8l.429-.275a11.437,11.437,0,0,0-2.156-2.288l-.407.253a14.53,14.53,0,0,1,1.133,1.067c-1.232.066-2.475.11-3.553.143.385-.594.8-1.364,1.144-2.024h3.85v-.495H43.263v-1.5h-.528v1.5H39.688v.495h2.541a15.9,15.9,0,0,1-1.1,2.046Zm-.253-2.75a8.552,8.552,0,0,0-1.958-1.21l-.308.374a8.028,8.028,0,0,1,1.969,1.287ZM39.1,13.039a8.806,8.806,0,0,0-2.013-1.133l-.3.385a9.439,9.439,0,0,1,2.013,1.188ZM39.083,14.7a37.2,37.2,0,0,1-1.958,3.6l.451.341a39.47,39.47,0,0,0,1.892-3.608Zm1.672.451a3.567,3.567,0,0,1-1.54,3.289,1.688,1.688,0,0,1,.385.352,4.013,4.013,0,0,0,1.65-3.63v-1.21h-.5Zm1.98,3.179h.495V14.007h-.495Zm2.827-.154a.489.489,0,0,1-.231-.033c-.055-.055-.066-.176-.066-.44V13.952h-.506V17.6c0,.616.044.759.187.88a.94.94,0,0,0,.517.143h.528a.975.975,0,0,0,.473-.1.612.612,0,0,0,.264-.4,9.271,9.271,0,0,0,.088-1.232,1.6,1.6,0,0,1-.407-.22c-.011.55-.022.968-.033,1.144a.445.445,0,0,1-.132.308.563.563,0,0,1-.3.044Zm12.089-6.754v5.72h-3.52V9.024h-.539v8.118h-3.41V11.433h-.528V18.66h.528v-.99h7.469v.946h.539V11.422Zm13.233-.473v-.517H66.242V8.782H65.7v1.65H61.127v.517H65.7v1.7H62.3v4.752h.517V13.171H65.7v5.665h.539V13.171h3.036V16.6c0,.165-.044.22-.253.231s-.869.011-1.738-.011a2.58,2.58,0,0,1,.2.528,8.753,8.753,0,0,0,1.925-.1c.308-.1.4-.275.4-.649V12.654H66.242v-1.7Zm5.049,6.644c-.517,0-1.408-.517-1.408-1.111,0-.561.781-1.276,1.782-1.727.011.891.033,1.782.033,2.255C76.34,17.351,76.219,17.593,75.933,17.593Zm.891-3.949c0-.506.011-1.144.033-1.749a19.7,19.7,0,0,0,2.387-.418l-.011-.572a15.474,15.474,0,0,1-2.365.473c.022-.638.033-1.177.033-1.408s.022-.44.044-.638h-.638a4,4,0,0,1,.055.66c0,.2-.011.759-.033,1.441-.341.022-.671.044-.946.044a9.1,9.1,0,0,1-1.32-.1l.022.572c.374.033.8.055,1.309.055.264,0,.583-.022.924-.055-.011.605-.022,1.232-.022,1.738V14.2c-1.188.517-2.354,1.441-2.354,2.3,0,.88,1.375,1.661,2.1,1.661.517,0,.836-.3.836-1.111,0-.539-.033-1.562-.044-2.508A6.655,6.655,0,0,1,79.4,14.04c1.067,0,2.024.528,2.024,1.551,0,1.144-.968,1.716-1.969,1.892a5.523,5.523,0,0,1-1.254.077l.209.561a6.8,6.8,0,0,0,1.3-.132c1.353-.319,2.266-1.078,2.266-2.409,0-1.188-1.034-2.046-2.574-2.046a8.048,8.048,0,0,0-2.574.473Zm3.4-2.662a12.514,12.514,0,0,1,2.354,1.65l.308-.462a15.957,15.957,0,0,0-2.376-1.617Zm7.81,6.611c-.517,0-1.408-.517-1.408-1.111,0-.561.781-1.276,1.782-1.727.011.891.033,1.782.033,2.255C88.44,17.351,88.319,17.593,88.033,17.593Zm.891-3.949c0-.506.011-1.144.033-1.749a19.7,19.7,0,0,0,2.387-.418l-.011-.572a15.473,15.473,0,0,1-2.365.473C88.99,10.74,89,10.2,89,9.97s.022-.44.044-.638h-.638a4,4,0,0,1,.055.66c0,.2-.011.759-.033,1.441-.341.022-.671.044-.946.044a9.1,9.1,0,0,1-1.32-.1l.022.572c.374.033.8.055,1.309.055.264,0,.583-.022.924-.055-.011.605-.022,1.232-.022,1.738V14.2c-1.188.517-2.354,1.441-2.354,2.3,0,.88,1.375,1.661,2.1,1.661.517,0,.836-.3.836-1.111,0-.539-.033-1.562-.044-2.508A6.655,6.655,0,0,1,91.5,14.04c1.067,0,2.024.528,2.024,1.551,0,1.144-.968,1.716-1.969,1.892a5.523,5.523,0,0,1-1.254.077l.209.561a6.8,6.8,0,0,0,1.3-.132c1.353-.319,2.266-1.078,2.266-2.409,0-1.188-1.034-2.046-2.574-2.046a8.048,8.048,0,0,0-2.574.473Zm3.4-2.662a12.514,12.514,0,0,1,2.354,1.65l.308-.462a15.958,15.958,0,0,0-2.376-1.617Zm10.417,2.343a16.959,16.959,0,0,1,1.958-.11,13.586,13.586,0,0,1,1.815.121l.022-.561a16.8,16.8,0,0,0-1.87-.088c-.693,0-1.386.033-1.925.088Zm.616-2.486a16.031,16.031,0,0,1-2.233.418c.077-.385.143-.737.209-1.034.033-.2.11-.561.165-.77l-.7-.055a3.7,3.7,0,0,1-.033.77c-.033.242-.11.66-.209,1.144-.462.044-.891.066-1.265.066a9.066,9.066,0,0,1-1.265-.088l.011.572c.407.033.781.044,1.232.044.352,0,.748-.022,1.166-.055-.1.451-.209.924-.319,1.309a23.7,23.7,0,0,1-1.793,4.862l.649.209a30.315,30.315,0,0,0,1.694-4.961c.132-.484.253-.99.352-1.474a20.391,20.391,0,0,0,2.343-.374Zm-1.111,4.477a5.765,5.765,0,0,0-.154,1.188c0,1.067.88,1.54,2.53,1.54a13.865,13.865,0,0,0,2.046-.154l.022-.594a10.1,10.1,0,0,1-2.057.209c-1.771,0-2-.572-2-1.111a3.78,3.78,0,0,1,.165-1.023ZM112.9,9.453a11.819,11.819,0,0,1-.3,2.4c-.726.055-1.441.121-1.815.132-.308.011-.539.011-.858,0l.077.649c.253-.044.627-.077.836-.11.33-.022.968-.088,1.628-.154a17.526,17.526,0,0,1-2.332,5.577l.594.242a21.335,21.335,0,0,0,2.321-5.874c.572-.044,1.1-.088,1.419-.088.693,0,1.2.2,1.2,1.265a9.8,9.8,0,0,1-.55,3.531.97.97,0,0,1-1.034.6,5.032,5.032,0,0,1-1.342-.231l.088.616a6.292,6.292,0,0,0,1.265.165,1.411,1.411,0,0,0,1.485-.858,10.208,10.208,0,0,0,.649-3.894c0-1.419-.792-1.716-1.661-1.716-.275,0-.814.044-1.4.088.143-.693.264-1.5.308-1.793.033-.176.066-.341.088-.5Zm3.9,1.54a13.868,13.868,0,0,1,2.013,3.828l.539-.275a18.54,18.54,0,0,0-2.035-3.795Zm8.987,2.926c-.616,2.057-1.331,2.794-1.826,2.794s-1.265-.638-1.265-2.178a4.005,4.005,0,0,1,3.707-3.718A16.838,16.838,0,0,1,125.8,13.919Zm.979,4.268c2.486-.286,4.059-1.771,4.059-4.048a3.838,3.838,0,0,0-4.048-3.861,4.523,4.523,0,0,0-4.631,4.3c0,1.771.968,2.761,1.793,2.761.9,0,1.738-1.034,2.4-3.3A20.282,20.282,0,0,0,127,10.806a3.246,3.246,0,0,1,3.267,3.322,3.449,3.449,0,0,1-2.937,3.4,6.077,6.077,0,0,1-.88.121ZM138.3,13.578h.517V10.74a9.962,9.962,0,0,0,4.158,2.629,2.343,2.343,0,0,1,.363-.44,9.48,9.48,0,0,1-4.015-2.31H142.9v-.506H138.82V8.826H138.3v1.287H134.31v.506H137.8a9.19,9.19,0,0,1-3.85,2.4,2.465,2.465,0,0,1,.341.418,9.8,9.8,0,0,0,4.015-2.684Zm-.264,3.124c-.242-.2-1.287-.968-1.716-1.254v-.33h1.738v-.484h-1.738V13.215h-.506v1.419h-2.079v.484h1.815a6.884,6.884,0,0,1-2.09,2.552,3.1,3.1,0,0,1,.253.462,7.351,7.351,0,0,0,2.1-2.585v3.267h.506V15.932c.484.374,1.144.935,1.4,1.188Zm5.489-1.584v-.484H141.1V13.215h-.506v1.419h-1.98v.484h1.628a7.316,7.316,0,0,1-2.5,2.794,2.251,2.251,0,0,1,.341.385,7.838,7.838,0,0,0,2.508-2.937v3.454h.506V15.305a9.713,9.713,0,0,0,2.354,2.959,3.282,3.282,0,0,1,.374-.407,8.471,8.471,0,0,1-2.365-2.739Zm8.008-3.157h-1.925V10.135h1.925Zm2.97,5.577h-7.557V12.467h2.167v.748a2.785,2.785,0,0,1-1.892,2.618,1.633,1.633,0,0,1,.352.374,3.165,3.165,0,0,0,2.035-2.992v-.748h1.925v2.288c0,.605.176.737.836.737h1.188c.55,0,.693-.242.748-1.276a1.823,1.823,0,0,1-.473-.209c-.022.9-.077,1-.341,1h-1.078c-.319,0-.374-.044-.374-.253V12.467h2.464Zm.946-7.4V9.618h-9.515v.517h3.157v1.826h-2.662v6.787h.517v-.7h7.557v.66h.528V11.961h-2.981V10.135ZM158.312,18h4.136v-.561h-1.672V9.981h-.517a4.6,4.6,0,0,1-1.529.506v.429h1.4v6.523h-1.815Zm6.468-2.772h2.706v-.539H164.78ZM169.543,18h4.829v-.572h-2.5c-.418,0-.88.033-1.32.066,2.134-1.991,3.432-3.674,3.432-5.357a2.1,2.1,0,0,0-2.222-2.3,2.948,2.948,0,0,0-2.255,1.155l.407.385a2.389,2.389,0,0,1,1.782-1,1.576,1.576,0,0,1,1.639,1.782c0,1.452-1.078,3.1-3.795,5.445Zm6.985-2.772h2.706v-.539h-2.706Zm7.106,2.915a2.243,2.243,0,0,0,2.42-2.266,2.09,2.09,0,0,0-1.76-2.068v-.055a2,2,0,0,0,1.474-1.98A1.952,1.952,0,0,0,183.6,9.827a3.116,3.116,0,0,0-2.145.946l.374.44a2.516,2.516,0,0,1,1.76-.847,1.4,1.4,0,0,1,1.518,1.452c0,.957-.616,1.716-2.376,1.716v.539c1.914,0,2.662.726,2.662,1.8a1.669,1.669,0,0,1-1.782,1.716,2.743,2.743,0,0,1-2.112-.979l-.363.429A3.243,3.243,0,0,0,183.634,18.143Zm14.2.88.429-.264a6.881,6.881,0,0,1,0-9.878l-.429-.264a7.253,7.253,0,0,0,0,10.406ZM205,12a4.876,4.876,0,0,1,.033.682c0,1.848-.231,3.652-2.123,4.741a3.574,3.574,0,0,1-.88.418l.528.44c2.695-1.276,3.069-3.157,3.069-6.281Zm4.62-1.782a2.822,2.822,0,0,1-.55.055h-6.545a8.542,8.542,0,0,1-1.2-.088v.671c.385-.022.814-.044,1.2-.044H209.1a7.9,7.9,0,0,1-2.629,2.7l.484.4a10.523,10.523,0,0,0,2.794-3.047,2.015,2.015,0,0,1,.231-.286Zm11.374.671a15.2,15.2,0,0,0-.913-1.507l-.418.187a11.252,11.252,0,0,1,.9,1.518Zm-5.291-.242a4.652,4.652,0,0,1,.066-.858h-.693a4.582,4.582,0,0,1,.066.858v2.079c-1.21.231-2.288.429-2.772.484l.11.616c.44-.1,1.474-.308,2.662-.55V16.8c0,.946.385,1.441,2.167,1.441a22.182,22.182,0,0,0,3.487-.22l.022-.616a16.967,16.967,0,0,1-3.41.3c-1.375,0-1.705-.253-1.705-1.045V13.171c2.156-.44,4.543-.924,4.631-.935a11.214,11.214,0,0,1-2.09,2.838l.506.308a17.568,17.568,0,0,0,2.244-3.19,1.9,1.9,0,0,1,.22-.352l-.407-.319a1.582,1.582,0,0,1-.473.154c-.429.1-2.618.55-4.631.946Zm5.115-1.485a9.856,9.856,0,0,1,.924,1.507l.429-.2a13.6,13.6,0,0,0-.946-1.5Zm5.643.682a5.854,5.854,0,0,1,.044.759V14.26a6.311,6.311,0,0,1-.044.77h.66a7.2,7.2,0,0,1-.033-.77V10.608c0-.209.011-.572.033-.759Zm5.1-.077a6.487,6.487,0,0,1,.055.858v1.54c0,2.288-.132,3.223-.935,4.18a5.089,5.089,0,0,1-2.618,1.518l.462.484a5.481,5.481,0,0,0,2.585-1.617c.781-.968,1.078-1.749,1.078-4.554V10.63c0-.319.011-.616.033-.858ZM241.076,12a4.876,4.876,0,0,1,.033.682c0,1.848-.231,3.652-2.123,4.741a3.574,3.574,0,0,1-.88.418l.528.44C241.329,17.01,241.7,15.129,241.7,12Zm4.62-1.782a2.822,2.822,0,0,1-.55.055H238.6a8.542,8.542,0,0,1-1.2-.088v.671c.385-.022.814-.044,1.2-.044h6.578a7.9,7.9,0,0,1-2.629,2.7l.484.4a10.523,10.523,0,0,0,2.794-3.047,2.016,2.016,0,0,1,.231-.286Zm10.175.4c.275,0,.638.011.935.033v-.616a9.059,9.059,0,0,1-.935.055h-4.477a7.118,7.118,0,0,1-.88-.055v.616c.253-.022.55-.033.9-.033Zm-5.8,2.189c-.341,0-.6-.011-.891-.033v.594c.3-.022.561-.022.891-.022h3.454a5.666,5.666,0,0,1-.6,2.915,4.626,4.626,0,0,1-2.123,1.749l.528.4a5.488,5.488,0,0,0,2.134-1.936,6.8,6.8,0,0,0,.627-3.124h3.179c.253,0,.561.011.781.022v-.594c-.253.022-.55.033-.781.033Zm19.162-.385a1.539,1.539,0,0,1-.5.066h-6.006a7.9,7.9,0,0,1-.946-.066v.627c.352-.022.693-.033.946-.033h6.149a6.1,6.1,0,0,1-1.408,2.75,7.34,7.34,0,0,1-3.9,2.068l.44.506a7.907,7.907,0,0,0,3.938-2.244,7.135,7.135,0,0,0,1.584-3.168,1.734,1.734,0,0,1,.121-.253Zm-6.479-1.859c.286-.011.572-.022.891-.022h4.378c.352,0,.649,0,.891.022V9.959a6.788,6.788,0,0,1-.88.044h-4.389a7.31,7.31,0,0,1-.891-.044Zm17.5-.154a2.3,2.3,0,0,1-.638.066h-4.455c-.341,0-.935-.044-1-.055v.649c.055,0,.649-.044,1-.044h4.609a10.472,10.472,0,0,1-1.936,3.278,12.6,12.6,0,0,1-4.543,3.333l.44.473a13.951,13.951,0,0,0,4.4-3.289,28.484,28.484,0,0,1,3.179,3.366l.473-.418A33.092,33.092,0,0,0,278.5,14.4a13.7,13.7,0,0,0,1.925-3.344,1.916,1.916,0,0,1,.2-.363Zm6.633,3.993c-1.111,0-1.606-.847-1.606-2s.649-2.035,1.518-2.035c1.254,0,1.892,1.111,1.958,2.86A2.4,2.4,0,0,1,286.891,14.4Zm-2.079,2.97a2.342,2.342,0,0,0,1.771.77c1.463,0,2.816-1.21,2.816-4.587,0-2.42-1.034-3.718-2.585-3.718a2.353,2.353,0,0,0-2.167,2.563c0,1.628.825,2.519,2.167,2.519a2.612,2.612,0,0,0,1.958-1.067c-.066,2.772-1.067,3.74-2.178,3.74a1.8,1.8,0,0,1-1.4-.638Zm9.724-8.1-.077.022h-2.354v9.493h.495v-9h1.65c-.242.759-.583,1.749-.935,2.618a3.545,3.545,0,0,1,1.012,2.354,1.14,1.14,0,0,1-.231.825.537.537,0,0,1-.352.1,4.284,4.284,0,0,1-.638-.011,1.419,1.419,0,0,1,.143.484,4.626,4.626,0,0,0,.682-.011,1.1,1.1,0,0,0,.506-.165,1.437,1.437,0,0,0,.363-1.177,3.6,3.6,0,0,0-.979-2.453c.374-.9.77-1.991,1.067-2.86Zm3.564,2.992c-.7.176-1.408.352-2.035.506V10.861h1.9V10.4h-1.9V8.969h-.495V12.9c-.264.066-.517.121-.737.165l.176.473c.88-.231,2.035-.528,3.135-.825Zm2.4,3.773h-4.213V14.766H300.5Zm-4.213,1.815V16.5H300.5v1.353Zm1.628-4.73a8.451,8.451,0,0,1-.429,1.166H295.79V18.77h.495v-.44H300.5v.4H301V14.293h-3c.143-.308.3-.671.44-1.023Zm1.529-.275c-.374,0-.429-.055-.429-.308V11.2a12.987,12.987,0,0,0,2.354-1.133l-.418-.352a9.165,9.165,0,0,1-1.936,1.045V8.969h-.506v3.575c0,.649.187.792.9.792h1.419c.605,0,.759-.275.814-1.364a1.2,1.2,0,0,1-.462-.22c-.033.968-.088,1.1-.407,1.1Zm4.73-4.235-.429.264a6.881,6.881,0,0,1,0,9.878l.429.264a7.253,7.253,0,0,0,0-10.406Z" transform="translate(300.114 4991.826)" fill="#fff"/>
    <g id="do-footer-logo_pc" transform="translate(249.339 4896.548)">
      <g id="グループ_46087" data-name="グループ 46087" transform="translate(81.658 2.869)">
        <g id="グループ_46085" data-name="グループ 46085">
          <path id="パス_17383" data-name="パス 17383" d="M202.546,16.764a44.661,44.661,0,0,0,5-6.815l-2.969-1.816a32.156,32.156,0,0,1-5.673,7.423c.51,6.3,3.419,14.622,9.745,16.223V28.012C204.842,25.881,203.1,21.189,202.546,16.764Z" transform="translate(-155.979 -5.908)" fill="#fff"/>
          <path id="パス_17384" data-name="パス 17384" d="M218.469,27.538V31.86c7.425-3.427,8.917-13.672,9.24-24.373h-3.656C223.806,17.541,222.263,24.951,218.469,27.538Z" transform="translate(-163.291 -5.666)" fill="#fff"/>
          <path id="パス_17385" data-name="パス 17385" d="M240.333,7.486a107.366,107.366,0,0,1,5.867,24.46h3.847a95.75,95.75,0,0,0-5.987-24.46Z" transform="translate(-171.46 -5.666)" fill="#fff"/>
          <path id="パス_17386" data-name="パス 17386" d="M312.826,10.411l.018-.415a1.315,1.315,0,0,0-1.327-1.378H296.448v3.589H308.88a19.185,19.185,0,0,1-13.2,16.487v3.723a21.822,21.822,0,0,0,11.71-7.266,38.855,38.855,0,0,1,4.519,7.266h4.341a43.14,43.14,0,0,0-6.639-10.46,25.1,25.1,0,0,0,3.215-11.546Z" transform="translate(-192.141 -6.089)" fill="#fff"/>
          <path id="パス_17387" data-name="パス 17387" d="M276.658,8.944h-6.385V5.931H266.26v3.01h-8.2v8.644h3.68V12.331H274.9c0,.251.005,1.6,0,1.839,0,7.338-2.892,11.65-10.075,13.654v3.588c7.159-.747,13.78-5.5,14-18.3v-2a2.17,2.17,0,0,0-2.167-2.17Z" transform="translate(-178.083 -5.085)" fill="#fff"/>
          <path id="パス_17388" data-name="パス 17388" d="M182.09,12.027a1.712,1.712,0,0,0-1.707-1.659H175.4l-.005,3.275h3.364c0,5.769-.973,11.328-5.4,14.235v4.166c3.258-1.293,8.733-6.092,8.733-18.4Z" transform="translate(-146.435 -6.743)" fill="#fff"/>
          <path id="パス_17389" data-name="パス 17389" d="M188.808,27.97h-2.762l.313,3.1H190.2A2.165,2.165,0,0,0,192.358,29V5.5h-3.547Z" transform="translate(-151.176 -4.924)" fill="#fff"/>
          <path id="パス_17390" data-name="パス 17390" d="M154.441,12.159h5.31V10.15h-5.31V8.768h5.753V6.793h-5.753V4.807h-3.394V6.793h-5.575V8.768h5.575V10.15h-5.132v2.009h5.132v1.315H145.46v2.1h14.774V13.474H154.44Z" transform="translate(-136.011 -4.665)" fill="#fff"/>
          <path id="パス_17391" data-name="パス 17391" d="M136.847,15.96v-.114h2.284V13.079h-2.284v-3.9a13.85,13.85,0,0,0,2.438-.887L138.22,5.5a26.629,26.629,0,0,1-7.18,1.64v2.97a18.243,18.243,0,0,0,2.873-.282v3.251H131.04v2.768h2.86a19.8,19.8,0,0,1-3.524,5.3v4.3a15.478,15.478,0,0,0,3.538-4.27V31.25h2.935V20.433a19.887,19.887,0,0,1,1.481,2.133l1.789-2.487a47.847,47.847,0,0,0-3.271-4.12Z" transform="translate(-130.374 -4.924)" fill="#fff"/>
          <path id="パス_17392" data-name="パス 17392" d="M156.348,34.133h3.121V25.42a1.714,1.714,0,0,0-1.709-1.707H146.042v10.42h3.1a16.341,16.341,0,0,1-3.461,1.23v2.811a19.4,19.4,0,0,0,5.608-1.98V34.133h3.069v2.4a16.6,16.6,0,0,0,5.652,1.7V35.4a18.93,18.93,0,0,1-3.758-1.272Zm-7.239-8.661h7.239v1.216h-7.239Zm0,2.767h7.239v1.282h-7.239Zm0,4.094V31.075h7.239v1.258Z" transform="translate(-136.095 -11.729)" fill="#fff"/>
          <path id="パス_17393" data-name="パス 17393" d="M338.785,13.145H341.5V10.173h-3.044V6.791h-2.871v3.382h-3.167v2.971h3.167v.219a35.413,35.413,0,0,1-3.966,6.89v4.565a18.457,18.457,0,0,0,3.966-5.707V31.7h2.871V18.186a32.124,32.124,0,0,1,1.536,4.2h2.856a97.371,97.371,0,0,0-4.063-9.238Z" transform="translate(-205.569 -5.406)" fill="#fff"/>
          <path id="パス_17394" data-name="パス 17394" d="M465.98,16.265a34.759,34.759,0,0,0,2.159-5.518,1.664,1.664,0,0,0-1.677-2.18c-.014,0-.027-.006-.042-.006h-2.012V5.921H461.22v2.64h-3.17v2.955h6.33c-1.411,4.423-4.537,9-7.4,10.027V25.2a14.343,14.343,0,0,0,4.239-2.574V31.47h3.188V19.909A37.236,37.236,0,0,1,466.6,24h3.649a69.144,69.144,0,0,0-4.269-7.73Z" transform="translate(-252.411 -5.081)" fill="#fff"/>
          <rect id="長方形_35126" data-name="長方形 35126" width="2.859" height="2.455" transform="translate(172.667)" fill="#fff"/>
          <path id="パス_17395" data-name="パス 17395" d="M394.236,11.849h3.883V8.79h-4.078q-.071-1.231-.15-2.568h-3.232c.054.887.1,1.742.155,2.568H377.18v3.058h13.827c1,15.007,2.109,18.919,7.4,19.981V28.241C395.877,27.025,395.091,24.6,394.236,11.849Z" transform="translate(-222.593 -5.194)" fill="#fff"/>
          <path id="パス_17396" data-name="パス 17396" d="M361.4,19.111V16.246h-4.835v-3.06h4.518V10.168h-4.518V6.791h-3.092v3.377h-2.524V6.791H348.2v4.684a1.713,1.713,0,0,0,1.712,1.711h3.564v3.06h-5.31v2.866h3.522a41.3,41.3,0,0,1-4.921,8.857l1.463,2.661a28.283,28.283,0,0,0,5.246-8.7V31.7h3.092V21.585a31.568,31.568,0,0,0,4.066,8.775l1.91-2.837a47.187,47.187,0,0,1-4.092-8.411Z" transform="translate(-211.229 -5.406)" fill="#fff"/>
          <path id="パス_17397" data-name="パス 17397" d="M416.541,29.514H421.2l-3.153,6.645.239,2.99H435.3c1.962,0,2.8-1.566,1.917-3.512l-1.906-3.946h-3.542l2.053,4.478H421.681l3.1-6.654h13.65v-3H416.541Z" transform="translate(-237.3 -12.778)" fill="#fff"/>
          <path id="パス_17398" data-name="パス 17398" d="M385.276,24.244H389.2V21.249H378.009v2.995h4.055V33.7c-1.5.119-2.928.2-4.055.2V37a85.325,85.325,0,0,0,12.114-1.323V32.664c-1.038.232-2.852.5-4.847.728Z" transform="translate(-222.903 -10.808)" fill="#fff"/>
          <path id="パス_17399" data-name="パス 17399" d="M425.039,5.684A67.229,67.229,0,0,1,414.978,12.8l.309,3.368a41.063,41.063,0,0,0,4.163-2.358V15.7h14.818v-2a27.776,27.776,0,0,0,3.8,2.157l.35-3.413a53.259,53.259,0,0,1-9.745-6.758ZM421.1,12.7a52.048,52.048,0,0,0,5.71-4.6,72.352,72.352,0,0,0,5.979,4.6Z" transform="translate(-236.716 -4.993)" fill="#fff"/>
          <path id="パス_17400" data-name="パス 17400" d="M482.418,28.53V12.842H486.8V9.854h-4.386V5.921H479.16V9.854h-3.923v2.987h3.923V28.53h-6.384v2.943H487.8V28.53Z" transform="translate(-258.312 -5.081)" fill="#fff"/>
        </g>
      </g>
    </g>
  </g>
</svg>
