<svg xmlns="http://www.w3.org/2000/svg" width="42.625" height="14.769" viewBox="0 0 42.625 14.769">
  <path id="パス_17307" data-name="パス 17307" d="M13.712-5.664a55.213,55.213,0,0,0-6.768-2.56v-2.5c0-.56.064-1.264.112-1.792H5.088a11.583,11.583,0,0,1,.144,1.792v9.248A16.75,16.75,0,0,1,5.1.576H7.072a18.747,18.747,0,0,1-.128-2.048V-6.416a42.655,42.655,0,0,1,6.048,2.5Zm10.176-3.68-1.5.5a29.262,29.262,0,0,1,1.28,3.52l1.5-.544C24.96-6.576,24.176-8.672,23.888-9.344Zm4.08.464A11.105,11.105,0,0,1,25.84-3.408,10.9,10.9,0,0,1,20.592-.032l1.328,1.36a12.534,12.534,0,0,0,5.264-3.872,12.871,12.871,0,0,0,2.24-4.816,8.884,8.884,0,0,1,.3-.96Zm-7.808.368-1.5.544A32.677,32.677,0,0,1,20.112-4.32l1.52-.56C21.328-5.744,20.528-7.776,20.16-8.512Zm25.7-2.1a.987.987,0,0,1-.992-.992,1,1,0,0,1,.992-.992,1,1,0,0,1,1.008.992A.99.99,0,0,1,45.856-10.608Zm-10.224-.528a14.475,14.475,0,0,1-1.728-.112v1.776c.4-.016,1.04-.048,1.728-.048h7.856a11.2,11.2,0,0,1-2,4.912A10.632,10.632,0,0,1,35.232-.8L36.608.7A12.444,12.444,0,0,0,42.96-3.632,16.019,16.019,0,0,0,45.36-9.5l.08-.3a1.744,1.744,0,0,0,.416.048,1.844,1.844,0,0,0,1.856-1.84,1.854,1.854,0,0,0-1.856-1.84,1.851,1.851,0,0,0-1.84,1.84,1.986,1.986,0,0,0,.048.432,5.073,5.073,0,0,1-.672.032Z" transform="translate(-5.088 13.44)" fill="#fff"/>
</svg>
