<svg xmlns="http://www.w3.org/2000/svg" width="94.174" height="13.904" viewBox="0 0 94.174 13.904">
  <g id="map" transform="translate(-621.348 -4248)">
    <path id="パス_17306" data-name="パス 17306" d="M4.664-5.973a4.887,4.887,0,0,1,.066.88c0,1.826-.253,3.212-1.826,4.224A4.176,4.176,0,0,1,1.848-.33L2.86.5C5.753-.99,5.918-3.1,5.918-5.973Zm5-2.112a5.693,5.693,0,0,1-.924.077H2.6a9.835,9.835,0,0,1-1.287-.1v1.221c.473-.033.858-.066,1.287-.066H8.635A6.839,6.839,0,0,1,6.391-4.675l.913.737A10.893,10.893,0,0,0,10-6.974c.088-.132.264-.341.363-.462Zm10.7.671a2.583,2.583,0,0,1-.825.11h-2.64c.055-.088.11-.187.154-.275.121-.22.352-.649.572-.979l-1.276-.418a4.877,4.877,0,0,1-.407.99A9.335,9.335,0,0,1,12.5-4.345l.968.715a11.453,11.453,0,0,0,2.794-2.684H19.69a8.26,8.26,0,0,1-1.672,3.245,8.889,8.889,0,0,1-4.411,2.75L14.63.594a10,10,0,0,0,4.4-3.047,10.887,10.887,0,0,0,1.936-3.74,3.765,3.765,0,0,1,.308-.671ZM30.943-2.607a15.8,15.8,0,0,0,2.266-3.2c.088-.165.22-.374.308-.506l-.825-.638a2.991,2.991,0,0,1-.671.22c-.473.11-2.233.462-3.982.8V-7.458a9.45,9.45,0,0,1,.077-1.122h-1.3A7.488,7.488,0,0,1,26.9-7.458v1.749c-1.133.209-2.134.385-2.64.451l.209,1.144c.451-.1,1.386-.286,2.431-.506v3.179c0,1.177.374,1.749,2.618,1.749A25.581,25.581,0,0,0,32.956.077L33-1.111a17.432,17.432,0,0,1-3.454.341c-1.265,0-1.507-.242-1.507-.968V-4.851c1.782-.363,3.564-.715,3.817-.77a10.3,10.3,0,0,1-1.87,2.453ZM44-7.931a3.337,3.337,0,0,1-.957.11H38.962a11.769,11.769,0,0,1-1.2-.077v1.243c.176-.011.77-.066,1.2-.066H43a9.05,9.05,0,0,1-1.749,2.9A12.36,12.36,0,0,1,36.729-.594L37.62.33a14.078,14.078,0,0,0,4.235-3.157,23.793,23.793,0,0,1,2.9,3.212l.979-.858A29.238,29.238,0,0,0,42.592-3.7a15.056,15.056,0,0,0,1.8-3.135,3.8,3.8,0,0,1,.319-.572Zm12.98.264a2.824,2.824,0,0,1-.847.1H49.775a9.532,9.532,0,0,1-1.188-.088v1.232c.231-.022.748-.066,1.188-.066h6.182a12.97,12.97,0,0,1-3.146,3.531c-.726-.649-1.562-1.32-1.98-1.628l-.9.737A25.8,25.8,0,0,1,52.4-1.716,28.4,28.4,0,0,1,54.439.594L55.451-.22c-.44-.528-1.155-1.3-1.8-1.947a17.584,17.584,0,0,0,3.883-4.4,3.885,3.885,0,0,1,.319-.385Zm8.063,1.243-1.034.341a20.118,20.118,0,0,1,.88,2.42l1.034-.374C65.78-4.521,65.241-5.962,65.043-6.424Zm2.805.319a7.635,7.635,0,0,1-1.463,3.762A7.5,7.5,0,0,1,62.777-.022l.913.935a8.617,8.617,0,0,0,3.619-2.662,8.849,8.849,0,0,0,1.54-3.311,6.108,6.108,0,0,1,.209-.66Zm-5.368.253-1.034.374a22.466,22.466,0,0,1,1,2.508l1.045-.385C63.283-3.949,62.733-5.346,62.48-5.852ZM81.246-7.293a.678.678,0,0,1-.682-.682.685.685,0,0,1,.682-.682.688.688,0,0,1,.693.682A.681.681,0,0,1,81.246-7.293Zm-7.029-.363a9.951,9.951,0,0,1-1.188-.077v1.221c.275-.011.715-.033,1.188-.033h5.4a7.7,7.7,0,0,1-1.375,3.377,7.309,7.309,0,0,1-4.3,2.618L74.888.484A8.555,8.555,0,0,0,79.255-2.5,11.013,11.013,0,0,0,80.9-6.534l.055-.209a1.2,1.2,0,0,0,.286.033,1.268,1.268,0,0,0,1.276-1.265A1.275,1.275,0,0,0,81.246-9.24a1.272,1.272,0,0,0-1.265,1.265,1.366,1.366,0,0,0,.033.3,3.488,3.488,0,0,1-.462.022Z" transform="translate(633 4259)" fill="#fff"/>
    <path id="icon" d="M6.988,4.706A2.511,2.511,0,1,1,4.477,2.153,2.533,2.533,0,0,1,6.988,4.706ZM4.551,13.9S9.1,8.6,9.1,4.631A4.592,4.592,0,0,0,4.551,0,4.592,4.592,0,0,0,0,4.631C0,8.6,4.551,13.9,4.551,13.9Z" transform="translate(621.348 4248)" fill="#fff"/>
  </g>
</svg>
