<svg xmlns="http://www.w3.org/2000/svg" width="75.34" height="9.988" viewBox="0 0 75.34 9.988">
  <path id="パス_17305" data-name="パス 17305" d="M.5-2.772H3.2v-.539H.5ZM13.64-6.523c-.143.011-.319.033-.627.033H10.065c.033-.385.066-.792.077-1.221.011-.264.022-.594.044-.836H9.515A5.567,5.567,0,0,1,9.57-7.7c0,.429-.022.825-.055,1.21H7.381c-.429,0-.814-.022-1.155-.044v.616c.352-.033.693-.033,1.166-.033H9.471A7.227,7.227,0,0,1,7.073-.9a5.176,5.176,0,0,1-.935.66l.517.418C8.393-1.012,9.614-2.618,10.01-5.951h3.432c0,1.166-.132,4.169-.616,5.1a.626.626,0,0,1-.649.341,16.512,16.512,0,0,1-1.683-.11l.066.583c.594.044,1.221.066,1.727.066a1.007,1.007,0,0,0,1.045-.561c.506-1.023.638-4.29.671-5.269.011-.154.033-.319.066-.517ZM25.8-7.348a1.5,1.5,0,0,1-.583.088H21.769c.143-.231.264-.451.363-.649s.242-.484.374-.7l-.649-.22a2.854,2.854,0,0,1-.264.715A9.55,9.55,0,0,1,18.051-4.2l.473.363a11.216,11.216,0,0,0,2.915-2.9h4.092a10.285,10.285,0,0,1-1.584,3.278c-.924-.572-1.958-1.166-2.618-1.507l-.352.407C21.615-4.213,22.671-3.6,23.6-3A9.587,9.587,0,0,1,19.107-.1l.506.451A10.3,10.3,0,0,0,24.079-2.7c.418.286.792.539,1.045.748l.385-.495c-.275-.2-.649-.451-1.078-.715A11.64,11.64,0,0,0,26.1-6.6a3.131,3.131,0,0,1,.187-.462Zm11.9.539v5.621H31.273V-6.809Zm.572.154c0-.231,0-.484.022-.726-.3.022-.682.022-.9.022H31.581c-.242,0-.462,0-.88-.022.011.242.011.517.011.726V-1.2c0,.3-.011,1.012-.022,1.2H31.3c-.011-.121-.011-.4-.022-.649H37.7c-.011.275-.011.539-.022.649h.616c-.011-.165-.022-.9-.022-1.21Zm7.194-.176c.143-.242.275-.473.385-.693.1-.2.242-.484.374-.715l-.66-.22a3.5,3.5,0,0,1-.253.7,8.827,8.827,0,0,1-3.476,3.817l.495.363a10.056,10.056,0,0,0,2.794-2.739H49.2a9.639,9.639,0,0,1-1.87,3.7A8.8,8.8,0,0,1,42.966.165l.495.462A9.417,9.417,0,0,0,47.806-2.3,10.475,10.475,0,0,0,49.775-6.16a3.13,3.13,0,0,1,.187-.462l-.495-.3a1.294,1.294,0,0,1-.572.088Zm3.509-1.661a11.976,11.976,0,0,1,.9,1.518l.429-.2a16.585,16.585,0,0,0-.913-1.507ZM50.127-8.9a9.855,9.855,0,0,1,.924,1.507l.429-.2a13.6,13.6,0,0,0-.946-1.5Zm7.139.154H54.208v.451h3.058Zm.418,1.408H53.658v.473h4.026Zm-.858,4.829V-.319H54.637V-2.508Zm.484-.462H54.164V.693h.473V.154H57.31Zm-3.146-1H57.31v-.451H54.164Zm0-1.441H57.31v-.462H54.164ZM59-1.716v-.957h3.421v.957ZM62.425-4.07V-3.1H59V-4.07Zm.506-.44H58.509V.781H59V-1.287h3.421V.143c0,.121-.033.154-.176.165s-.583.011-1.133,0a1.659,1.659,0,0,1,.176.451A5.817,5.817,0,0,0,62.634.693c.231-.088.3-.242.3-.55ZM60.874-5.742v-.891h2.354v-.44H60.874V-7.9h2.508v-.44H60.874v-.825h-.506v.825H57.915v.44h2.453v.825H58.212v.44h2.156v.891H57.629v.451h6.017v-.451ZM74.6-7.788a15.455,15.455,0,0,0-2.024-1.276l-.33.33a11.825,11.825,0,0,1,2.013,1.342ZM69.487-2.816c-1.353.781-2.783,1.584-3.718,2.068l.319.462c.99-.55,2.321-1.331,3.564-2.068Zm-.506-1.012a9.949,9.949,0,0,0-1.848-2.046l-.407.253a9.69,9.69,0,0,1,1.837,2.09Zm5.533-2.277a17.6,17.6,0,0,1-2.222,2.321,13.144,13.144,0,0,1-1.276-2.827V-6.7h4.51v-.517h-4.51V-9.13h-.528v1.914H66.044V-6.7h4.444V-.011c0,.209-.077.264-.286.275s-.946.022-1.76,0a2.725,2.725,0,0,1,.209.561,8.291,8.291,0,0,0,1.9-.11c.319-.088.462-.264.462-.737V-5.3A9.6,9.6,0,0,0,75.449-.044a2.456,2.456,0,0,1,.385-.44,7.775,7.775,0,0,1-3.3-2.9,21.618,21.618,0,0,0,2.431-2.387Z" transform="translate(-0.494 9.163)" fill="#fff"/>
</svg>
