<svg xmlns="http://www.w3.org/2000/svg" xmlns:xlink="http://www.w3.org/1999/xlink" width="1060.846" height="228.16" viewBox="0 0 1060.846 228.16">
  <defs>
    <filter id="パス_17366" x="1.676" y="173.48" width="315.12" height="54.68" filterUnits="userSpaceOnUse">
      <feOffset dy="3" input="SourceAlpha"/>
      <feGaussianBlur stdDeviation="3" result="blur"/>
      <feFlood flood-opacity="0.502"/>
      <feComposite operator="in" in2="blur"/>
      <feComposite in="SourceGraphic"/>
    </filter>
    <filter id="パス_17367" x="0" y="0" width="554.416" height="47.568" filterUnits="userSpaceOnUse">
      <feOffset dy="3" input="SourceAlpha"/>
      <feGaussianBlur stdDeviation="3" result="blur-2"/>
      <feFlood flood-opacity="0.502"/>
      <feComposite operator="in" in2="blur-2"/>
      <feComposite in="SourceGraphic"/>
    </filter>
    <filter id="パス_17526" x="2.026" y="67.75" width="1058.82" height="90.485" filterUnits="userSpaceOnUse">
      <feOffset dy="3" input="SourceAlpha"/>
      <feGaussianBlur stdDeviation="3" result="blur-3"/>
      <feFlood flood-opacity="0.502"/>
      <feComposite operator="in" in2="blur-3"/>
      <feComposite in="SourceGraphic"/>
    </filter>
    <filter id="パス_17527" x="2.026" y="67.75" width="1058.82" height="90.485" filterUnits="userSpaceOnUse">
      <feOffset dy="3" input="SourceAlpha"/>
      <feGaussianBlur stdDeviation="3" result="blur-4"/>
      <feFlood flood-opacity="0.502"/>
      <feComposite operator="in" in2="blur-4"/>
      <feComposite in="SourceGraphic"/>
    </filter>
  </defs>
  <g id="text_svg" transform="translate(19135.369 12779.055)">
    <g transform="matrix(1, 0, 0, 1, -19135.37, -12779.05)" filter="url(#パス_17366)">
      <path id="パス_17366-2" data-name="パス 17366" d="M-134.3-20.04a66.352,66.352,0,0,0,10.68-8.6l-3.4-3.08a43.755,43.755,0,0,1-10.44,8.96,62.816,62.816,0,0,1-18.04,7.28l2.28,3.88a76.675,76.675,0,0,0,14.48-5.88V-3.24a46.353,46.353,0,0,1-.24,4.72h4.96a30.08,30.08,0,0,1-.28-4.72Zm47.76-7.36-2.8,1.2a43.551,43.551,0,0,1,3.68,6.44l2.88-1.28C-83.7-22.88-85.5-25.84-86.54-27.4Zm5.24-2.08-2.8,1.28a40.85,40.85,0,0,1,3.84,6.32l2.84-1.36A55.244,55.244,0,0,0-81.3-29.48Zm-31.36,18.6,3.72,3.76c.64-.92,1.56-2.2,2.4-3.36,1.72-2.2,4.88-6.4,6.68-8.6,1.24-1.56,1.88-1.56,3.4-.28a107.068,107.068,0,0,1,7.64,8.04c2.48,2.88,6.12,7.12,8.8,10.56l3.32-3.6c-2.88-3.4-7.04-7.84-9.72-10.72a93.5,93.5,0,0,0-8.24-8.2c-3.04-2.56-4.92-2.28-7.16.36-2.64,3.12-5.96,7.32-7.8,9.2C-110.78-12.6-111.58-11.8-112.66-10.88ZM-61.18-29.8l-2.92,3.12a90.939,90.939,0,0,1,10,8.48l3.16-3.24A81,81,0,0,0-61.18-29.8ZM-65.3-3.04l2.68,4.12A44.1,44.1,0,0,0-47.3-4.88,41.225,41.225,0,0,0-33.26-19.36l-2.44-4.36A38.085,38.085,0,0,1-49.58-8.64,41.562,41.562,0,0,1-65.3-3.04ZM7.78-14.16a138.031,138.031,0,0,0-16.92-6.4V-26.8c0-1.4.16-3.16.28-4.48h-4.92a28.956,28.956,0,0,1,.36,4.48V-3.68a41.874,41.874,0,0,1-.32,5.12h4.92a46.867,46.867,0,0,1-.32-5.12V-16.04A106.637,106.637,0,0,1,5.98-9.8ZM32.42-29.2v2.68H24.74V-29.2Zm-7.68,8.16v-2.92h7.68v2.92ZM35.9-18.32V-31.96H21.06V3.16h3.68V-18.32Zm-.96,9.08v-3.8H39.7v3.8ZM47.98-6.16V-9.24H43.02v-3.8h4.16V-16H27.78v2.96h3.96v3.8H27.06v3.08h4.56a9.688,9.688,0,0,1-4.4,7,12.663,12.663,0,0,1,2.4,2.2,12.886,12.886,0,0,0,5.24-9.2H39.7v8.6h3.32v-8.6Zm-5.44-14.8v-3h7.92v3Zm7.92-8.24v2.68H42.54V-29.2Zm3.68-2.76H38.98v13.72H50.46v16.8c0,.6-.2.8-.8.84-.64,0-2.68,0-4.72-.04a12.009,12.009,0,0,1,1.2,3.68c3,.04,5-.08,6.28-.68,1.32-.64,1.72-1.72,1.72-3.76Zm17.6-1.44A44.459,44.459,0,0,1,62.26-18a28.943,28.943,0,0,1,2.04,3.76,46.423,46.423,0,0,0,3.44-4.16V3.08h3.52v-27a64.563,64.563,0,0,0,3.96-8.44Zm9,28.76h6.12v3.12H80.74Zm6.12-8.6H80.74v-3h6.12Zm0,5.84H80.74v-3.08h6.12Zm12.8,5.88H90.42V-4.64h7.64V-7.4H90.42v-3.08h7.64v-2.76H90.42v-3h8.8v-2.92h-8.6c.6-1.08,1.16-2.32,1.72-3.48l-3.84-.88a29.124,29.124,0,0,1-1.44,4.36h-6.2a33.57,33.57,0,0,0,1.8-3.6l-3.36-.96H98.62V-32h-3.6v5.12H88.98v-6.4H85.3v6.4H79.62V-32h-3.4v8.28h2.92A27.27,27.27,0,0,1,71.58-13.4a25.073,25.073,0,0,1,2.8,2.56,25,25,0,0,0,2.8-2.96V3.04h3.56V1.44H99.66Zm27.68-11.72v-9.68h10.4v9.68Zm-14.24,0v-9.68h10.36v9.68Zm14.24-13.32v-6.96h-3.88v6.96H109.38V-7.24h3.72V-9.6h10.36V3.12h3.88V-9.6h10.4v2.16h3.88V-26.56Z" transform="translate(166.18 213)" fill="#fff"/>
    </g>
    <g transform="matrix(1, 0, 0, 1, -19135.37, -12779.05)" filter="url(#パス_17367)">
      <path id="パス_17367-2" data-name="パス 17367" d="M-265.792-9.6c-.576-.7-3.008-3.232-4.064-4.16v-1.568h3.424V-16.7h17.984v-1.952h-7.68v-1.408h6.176V-21.92h-6.176V-23.3h6.944v-1.92h-6.944v-1.632H-259.1v1.632h-6.528v1.92h6.528v1.376h-5.888v1.856h5.888v1.408h-7.52v.544h-3.232v-4.864a32.166,32.166,0,0,0,3.936-1.184l-2.048-2.272a44.576,44.576,0,0,1-9.664,2.336,9.172,9.172,0,0,1,.864,2.3c1.28-.16,2.656-.352,4.032-.608v4.288h-4.608v2.784h4.384a32.79,32.79,0,0,1-5.216,9.568A16.155,16.155,0,0,1-276.7-3.008a33.474,33.474,0,0,0,3.968-7.232v12.7h2.88V-10.72a34.815,34.815,0,0,1,2.336,3.456Zm12.864-2.08h-8.928v-1.728h8.928Zm0,3.584h-8.928v-1.76h8.928Zm0,3.584h-8.928v-1.76h8.928Zm2.784-10.816h-14.4V-2.592h3.392A21.917,21.917,0,0,1-268.1.736a15.23,15.23,0,0,1,1.888,1.92,26.611,26.611,0,0,0,7.616-3.84L-260.8-2.592h10.656Zm-5.984,14.176c1.952,1.216,4.192,2.752,5.44,3.712l2.592-1.44c-1.472-.992-3.936-2.5-6.048-3.712Zm23.52-17.856-.576.128h-8.768v3.008h7.68c-1.5,5.984-4.608,10.56-8.576,13.12a12.027,12.027,0,0,1,2.432,2.336c4.608-3.232,8.288-9.344,9.824-17.856Zm15.968-2.784a55.535,55.535,0,0,1-7.072,7.552,43.82,43.82,0,0,1-2.464-6.88v-5.7h-3.136V-1.5c0,.576-.256.8-.9.8-.608.032-2.656.032-4.832-.064a13.982,13.982,0,0,1,1.152,3.3c2.944,0,4.864-.1,6.08-.608,1.152-.544,1.632-1.472,1.632-3.424V-13.312C-223.744-7.36-220.224-2.528-215.1.16a12.987,12.987,0,0,1,2.3-2.752,21.411,21.411,0,0,1-9.632-9.216,73.709,73.709,0,0,0,8.544-8.032ZM-201.632-10.3a41.808,41.808,0,0,1-4.96,8.768L-203.1-.064a45.769,45.769,0,0,0,4.7-8.96,73.007,73.007,0,0,0,2.848-9.824c.128-.7.416-1.92.64-2.72l-3.616-.736A48.666,48.666,0,0,1-201.632-10.3Zm15.776-.992A93.344,93.344,0,0,1-182.368-.16l3.68-1.184c-.9-3.04-2.592-8.032-3.808-11.072-1.28-3.232-3.392-7.872-4.7-10.272l-3.3,1.088A85.375,85.375,0,0,1-185.856-11.3Zm38.816-9.472a7.026,7.026,0,0,1-2.4.32H-155.9V-23.2a23.375,23.375,0,0,1,.192-2.656h-3.872a14.732,14.732,0,0,1,.224,2.656v2.752h-6.976a30.407,30.407,0,0,1-3.1-.16,23.822,23.822,0,0,1,.128,2.592v5.6c0,.7-.064,1.632-.128,2.3h3.488a14.686,14.686,0,0,1-.128-2.112v-5.248h17.024A22.2,22.2,0,0,1-152-8.64a16.454,16.454,0,0,1-8.064,6.016,20.091,20.091,0,0,1-3.84,1.056l2.624,3.04c5.76-1.568,10.368-4.864,12.832-9.312a29.765,29.765,0,0,0,3.072-9.376,12.03,12.03,0,0,1,.544-2.176Zm32.8-2.3a9.706,9.706,0,0,1-2.784.32H-128.9a34.238,34.238,0,0,1-3.488-.224v3.616c.512-.032,2.24-.192,3.488-.192h11.744A26.327,26.327,0,0,1-122.24-11.1a35.956,35.956,0,0,1-13.152,9.376L-132.8.96a40.954,40.954,0,0,0,12.32-9.184,69.216,69.216,0,0,1,8.448,9.344l2.848-2.5a85.056,85.056,0,0,0-9.152-9.376,43.8,43.8,0,0,0,5.248-9.12,11.046,11.046,0,0,1,.928-1.664Zm19.9,18.016c-1.28,0-2.912-1.664-2.912-5.312,0-3.9,3.328-8.864,9.024-9.792A43.9,43.9,0,0,1-89.952-12C-91.424-7.1-92.96-5.056-94.336-5.056Zm8.512,6.112c7.744-1.088,12-5.7,12-12.32,0-6.656-4.832-11.968-12.448-11.968-7.936,0-14.176,6.112-14.176,13.152,0,5.28,2.88,8.832,6.016,8.832,3.168,0,5.792-3.616,7.712-10.08a72.527,72.527,0,0,0,1.888-8.9c4.864.608,7.616,4.224,7.616,8.832,0,5.12-3.616,8.064-7.68,8.992a17.945,17.945,0,0,1-2.816.448ZM-59.2-26.784a34.429,34.429,0,0,1-7.936,12.256A28.237,28.237,0,0,1-65.5-11.52a37.431,37.431,0,0,0,3.136-3.712V2.432h2.816V-19.52a51.034,51.034,0,0,0,3.136-6.368ZM-45.7-1.376V-8.64h7.232v-2.816H-45.7v-6.336h8.16V-20.64H-45.12l1.408-1.568a44.107,44.107,0,0,0-7.1-4.7L-52.768-24.8a47.843,47.843,0,0,1,6.048,4.16H-56.832v2.848H-48.7v6.336h-7.072V-8.64H-48.7v7.264h-8.9V1.472h20.544V-1.376Zm28.736-2.56c0,2.048-1.312,2.56-3.1,2.56-2.72,0-3.9-.928-3.9-2.272,0-1.312,1.44-2.336,4.128-2.336a16.538,16.538,0,0,1,2.848.256C-16.96-4.992-16.96-4.384-16.96-3.936ZM-4.9-2.944a25.23,25.23,0,0,0-9.056-4.9c-.1-1.376-.192-2.88-.224-4.32,3.04-.128,5.664-.32,8.608-.672L-5.6-15.84c-2.72.384-5.5.672-8.64.832V-19.04c3.008-.128,5.664-.416,7.968-.64L-6.3-22.592a76.914,76.914,0,0,1-7.9.8c0-.64.032-1.216.032-1.568.032-.864.128-1.568.192-2.144h-3.392a20.028,20.028,0,0,1,.128,2.016V-21.7H-18.88a48.134,48.134,0,0,1-7.168-.608v2.912a63.716,63.716,0,0,0,7.2.48h1.568v4h-1.632a54.172,54.172,0,0,1-7.808-.608l-.032,3.008c2.208.256,5.792.416,7.808.416h1.728c.032,1.152.064,2.432.128,3.616-.768-.064-1.536-.128-2.336-.128-4.736,0-7.584,2.112-7.584,5.12,0,3.2,2.592,4.96,7.392,4.96,4.128,0,5.856-2.208,5.856-4.608,0-.448-.032-.992-.032-1.632A23.741,23.741,0,0,1-6.72-.16ZM10.3-22.5,6.432-22.56a15.935,15.935,0,0,1,.224,2.976,84.126,84.126,0,0,0,.352,8.48C7.872-2.752,10.816.32,14.016.32c2.336,0,4.288-1.888,6.3-7.328L17.76-9.984c-.7,2.912-2.08,6.368-3.68,6.368-2.112,0-3.392-3.328-3.872-8.32a70.416,70.416,0,0,1-.224-7.136A25.727,25.727,0,0,1,10.3-22.5Zm16.224.8L23.36-20.64c3.2,3.776,5.024,10.592,5.536,16.032l3.3-1.28C31.776-11.04,29.44-18.016,26.528-21.7ZM57.152-4.448c-.032-1.5-.1-4.032-.128-5.824,2.208-1.024,4.256-1.888,5.888-2.5.96-.384,2.336-.9,3.2-1.152l-1.248-2.944c-1.024.512-1.952.928-3.008,1.408-1.5.672-3.136,1.344-5.088,2.272a4.172,4.172,0,0,0-4.224-2.688,9.334,9.334,0,0,0-4.032.928,23.134,23.134,0,0,0,2.4-4.128,96.856,96.856,0,0,0,10.432-.864V-22.88a73.268,73.268,0,0,1-9.376.928c.448-1.376.7-2.592.9-3.424l-3.3-.256a19.107,19.107,0,0,1-.736,3.808H46.976a46.475,46.475,0,0,1-5.44-.352V-19.2c1.76.128,3.968.192,5.28.192h.928A33,33,0,0,1,40.576-9.76L43.3-7.712A34.081,34.081,0,0,1,46.208-11.1a8.05,8.05,0,0,1,5.248-2.272,2.469,2.469,0,0,1,2.56,1.568c-3.648,1.856-7.456,4.32-7.456,8.224,0,3.936,3.68,5.024,8.416,5.024A80.618,80.618,0,0,0,63.776.9l.1-3.232a53.362,53.362,0,0,1-8.8.832c-3.2,0-5.248-.416-5.248-2.592,0-1.856,1.7-3.3,4.384-4.8,0,1.568-.032,3.36-.128,4.448Zm24.576-8.384H96.192v2.752H81.728Zm0-5.184H96.192v2.72H81.728Zm0-5.12H96.192v2.688H81.728ZM95.3-.576c-1.28,0-1.5-.128-1.5-1.088V-7.456H99.2V-25.792H78.848V-7.456h4.128C82.368-3.648,80.8-1.312,74.24-.032a9.216,9.216,0,0,1,1.7,2.624C83.424.9,85.408-2.368,86.144-7.456h4.608v5.792c0,3.008.832,3.9,4.192,3.9H99.68c2.88,0,3.712-1.184,4.064-5.984A8.381,8.381,0,0,1,100.96-4.96c-.128,3.872-.32,4.384-1.568,4.384Zm27.36-21.312v3.232a80.009,80.009,0,0,0,13.28,0V-21.92A59.382,59.382,0,0,1,122.656-21.888ZM121.568-8.96a19.386,19.386,0,0,0-.544,3.9c0,3.072,2.5,4.928,7.872,4.928a42.881,42.881,0,0,0,8.032-.64l-.064-3.392a35.616,35.616,0,0,1-7.9.832c-3.84,0-4.9-1.12-4.9-2.56a12.04,12.04,0,0,1,.384-2.816ZM113.6-24.48a23.5,23.5,0,0,1-.288,2.624,90.141,90.141,0,0,0-1.376,12.64,39.571,39.571,0,0,0,1.216,10.24l2.88-.192c-.032-.384-.064-.864-.064-1.184a5.837,5.837,0,0,1,.16-1.44A62.716,62.716,0,0,1,118.4-9.184l-1.664-1.28c-.48,1.152-1.12,2.688-1.6,3.968a23.576,23.576,0,0,1-.224-3.328A75.034,75.034,0,0,1,116.48-21.76c.128-.576.448-1.824.672-2.432Zm59.36-.512H157.44v2.848h15.52ZM151.808-26.88a28.955,28.955,0,0,1-7.3,6.88,13.605,13.605,0,0,1,1.7,2.4,42.233,42.233,0,0,0,8.448-8.1Zm1.248,6.848a33.964,33.964,0,0,1-8.864,9.6A16.5,16.5,0,0,1,146.24-7.9a42.354,42.354,0,0,0,3.168-2.88V2.592h2.976V-14.08a43.179,43.179,0,0,0,3.488-4.9Zm20.8,3.776H156.1v2.848h10.112V-1.12c0,.448-.192.608-.8.608-.576.032-2.72.032-4.768-.032a11.938,11.938,0,0,1,.96,2.976c2.976,0,4.864-.032,6.048-.48,1.216-.48,1.6-1.344,1.6-3.04v-12.32h4.608Zm12.064-3.2c2.528.224,5.248.352,8.512.352,2.944,0,6.624-.224,8.8-.384v-3.328c-2.368.256-5.76.448-8.832.448a80.207,80.207,0,0,1-8.48-.384Zm-1.376,9.472a19.307,19.307,0,0,0-.64,4.48c0,4.128,3.68,6.4,10.464,6.4A47.217,47.217,0,0,0,205.28-.192l-.032-3.488a43.36,43.36,0,0,1-10.976,1.216c-4.832,0-7.04-1.568-7.04-3.776a12.208,12.208,0,0,1,.576-3.456Zm51.68-.64c0,5.344-5.248,8.16-13.024,9.12l1.856,3.1C233.5.352,239.712-3.68,239.712-10.5c0-4.7-3.424-7.392-8.16-7.392a43.169,43.169,0,0,0-9.536,1.5,26.538,26.538,0,0,1-3.136.48l.992,3.648a29.566,29.566,0,0,1,2.848-.992,28.775,28.775,0,0,1,8.448-1.6C234.3-14.848,236.224-13.056,236.224-10.624ZM223.3-25.312l-.48,3.04c3.616.64,10.208,1.248,13.792,1.5l.512-3.1A93.091,93.091,0,0,1,223.3-25.312Zm29.952,17.44a5.026,5.026,0,0,0-4.992,5.024,5,5,0,0,0,4.992,4.992,4.978,4.978,0,0,0,4.992-4.992A5.005,5.005,0,0,0,253.248-7.872Zm0,8.1a3.073,3.073,0,0,1-3.072-3.072,3.073,3.073,0,0,1,3.072-3.072,3.073,3.073,0,0,1,3.072,3.072A3.073,3.073,0,0,1,253.248.224Z" transform="translate(287.18 32.91)" fill="#fff"/>
    </g>
    <g transform="matrix(1, 0, 0, 1, -19135.37, -12779.05)" filter="url(#パス_17526)">
      <path id="パス_17526-2" data-name="パス 17526" d="M23.085,1.235c14.25,0,20.33-10.07,20.33-22.61V-69.92H32.4v47.5C32.4-12.16,28.88-8.36,21.85-8.36c-4.56,0-8.36-2.185-11.305-7.6l-7.7,5.605C7.22-2.66,13.68,1.235,23.085,1.235Zm64.98,0c17.955,0,30.495-13.965,30.495-36.48S106.02-71.25,88.065-71.25s-30.4,13.49-30.4,36.005S70.11,1.235,88.065,1.235Zm0-9.595c-11.59,0-19.1-10.45-19.1-26.885s7.5-26.41,19.1-26.41,19.19,9.975,19.19,26.41S99.655-8.36,88.065-8.36ZM142.5,0h11.02V-26.505L174.61-69.92H163.115L154.945-51.4c-2.09,5.225-4.37,10.07-6.65,15.39h-.38c-2.375-5.32-4.37-10.165-6.555-15.39L133.285-69.92H121.5l21,43.415Zm66.025,1.235c17.955,0,30.495-13.965,30.495-36.48S226.48-71.25,208.525-71.25s-30.4,13.49-30.4,36.005S190.57,1.235,208.525,1.235Zm0-9.595c-11.59,0-19.1-10.45-19.1-26.885s7.505-26.41,19.1-26.41,19.19,9.975,19.19,26.41S220.115-8.36,208.525-8.36ZM289.18,0H300.2V-60.7h20.615V-69.92H268.66V-60.7h20.52Zm59.945,1.235c15.295,0,24.6-9.12,24.6-20.33,0-10.26-5.985-15.39-14.25-18.9l-9.6-4.085c-5.7-2.28-11.3-4.56-11.3-10.545,0-5.6,4.655-9.025,11.78-9.025,6.175,0,11.02,2.375,15.39,6.27l5.795-7.03A29.949,29.949,0,0,0,350.36-71.25c-13.3,0-22.99,8.265-22.99,19.285,0,10.165,7.505,15.485,14.25,18.335l9.69,4.18c6.46,2.85,11.21,4.845,11.21,11.21,0,5.89-4.75,9.88-13.2,9.88-6.745,0-13.585-3.23-18.62-8.265l-6.46,7.6A34.883,34.883,0,0,0,349.125,1.235Zm63.46,0c15.485,0,25.935-8.455,25.935-31.255v-39.9H427.88v40.66c0,15.77-6.46,20.9-15.3,20.9-8.74,0-15.01-5.13-15.01-20.9V-69.92h-11.02v39.9C386.555-7.22,397.1,1.235,412.585,1.235ZM456.57,0h11.02V-21.09L478.325-34.2,498.085,0H510.34L485.07-42.94l21.66-26.98H494.475l-26.6,33.06h-.285V-69.92H456.57Zm87.02,1.235c15.485,0,25.935-8.455,25.935-31.255v-39.9h-10.64v40.66c0,15.77-6.46,20.9-15.295,20.9-8.74,0-15.01-5.13-15.01-20.9V-69.92H517.56v39.9C517.56-7.22,528.1,1.235,543.59,1.235ZM587.575,0h23.37c15.485,0,26.79-6.65,26.79-20.52,0-9.5-5.795-14.915-13.775-16.625v-.475c6.27-2.09,9.975-8.455,9.975-15.105,0-12.635-10.355-17.195-24.7-17.195h-21.66Zm11.02-40.755V-61.37h9.69c9.88,0,14.82,2.755,14.82,10.07,0,6.555-4.465,10.545-15.1,10.545Zm0,32.11V-32.4H609.71c11.115,0,17.2,3.42,17.2,11.305,0,8.55-6.27,12.445-17.2,12.445Zm62.89-19.95L664.335-38c2.28-7.6,4.465-15.295,6.46-23.275h.38C673.36-53.39,675.45-45.6,677.825-38l2.755,9.405ZM689.13,0h11.685l-23.18-69.92H664.9L641.725,0h11.21l5.985-19.95h24.32Zm68.875,1.235c17.955,0,30.495-13.965,30.495-36.48S775.96-71.25,758.005-71.25s-30.4,13.49-30.4,36.005S740.05,1.235,758.005,1.235Zm0-9.595c-11.59,0-19.1-10.45-19.1-26.885s7.505-26.41,19.1-26.41,19.19,9.975,19.19,26.41S769.6-8.36,758.005-8.36ZM803.035,0h11.02V-30.115H839.9V-39.33h-25.84V-60.7h30.4V-69.92h-41.42Zm53.77,0h11.02V-30.115h25.84V-39.33h-25.84V-60.7h30.4V-69.92h-41.42Zm53.77,0h11.02V-69.92h-11.02ZM967.2,1.235A27.61,27.61,0,0,0,988.95-8.835l-5.89-6.935c-4.18,4.56-9.12,7.41-15.485,7.41-12.35,0-20.14-10.165-20.14-26.79,0-16.435,8.36-26.5,20.425-26.5,5.7,0,10.07,2.565,13.68,6.27l5.985-7.03A26.945,26.945,0,0,0,967.67-71.25c-17.67,0-31.54,13.68-31.54,36.48C936.13-11.875,949.62,1.235,967.2,1.235ZM1001.3,0h42.37V-9.31h-31.35V-31.92h25.65v-9.31h-25.65V-60.7h30.3V-69.92H1001.3Z" transform="translate(8.18 145)" fill="#fff"/>
    </g>
    <g transform="matrix(1, 0, 0, 1, -19135.37, -12779.05)" filter="url(#パス_17527)">
      <path id="パス_17527-2" data-name="パス 17527" d="M23.085,1.235c14.25,0,20.33-10.07,20.33-22.61V-69.92H32.4v47.5C32.4-12.16,28.88-8.36,21.85-8.36c-4.56,0-8.36-2.185-11.305-7.6l-7.7,5.605C7.22-2.66,13.68,1.235,23.085,1.235Zm64.98,0c17.955,0,30.495-13.965,30.495-36.48S106.02-71.25,88.065-71.25s-30.4,13.49-30.4,36.005S70.11,1.235,88.065,1.235Zm0-9.595c-11.59,0-19.1-10.45-19.1-26.885s7.5-26.41,19.1-26.41,19.19,9.975,19.19,26.41S99.655-8.36,88.065-8.36ZM142.5,0h11.02V-26.505L174.61-69.92H163.115L154.945-51.4c-2.09,5.225-4.37,10.07-6.65,15.39h-.38c-2.375-5.32-4.37-10.165-6.555-15.39L133.285-69.92H121.5l21,43.415Zm66.025,1.235c17.955,0,30.495-13.965,30.495-36.48S226.48-71.25,208.525-71.25s-30.4,13.49-30.4,36.005S190.57,1.235,208.525,1.235Zm0-9.595c-11.59,0-19.1-10.45-19.1-26.885s7.505-26.41,19.1-26.41,19.19,9.975,19.19,26.41S220.115-8.36,208.525-8.36ZM289.18,0H300.2V-60.7h20.615V-69.92H268.66V-60.7h20.52Zm59.945,1.235c15.295,0,24.6-9.12,24.6-20.33,0-10.26-5.985-15.39-14.25-18.9l-9.6-4.085c-5.7-2.28-11.3-4.56-11.3-10.545,0-5.6,4.655-9.025,11.78-9.025,6.175,0,11.02,2.375,15.39,6.27l5.795-7.03A29.949,29.949,0,0,0,350.36-71.25c-13.3,0-22.99,8.265-22.99,19.285,0,10.165,7.505,15.485,14.25,18.335l9.69,4.18c6.46,2.85,11.21,4.845,11.21,11.21,0,5.89-4.75,9.88-13.2,9.88-6.745,0-13.585-3.23-18.62-8.265l-6.46,7.6A34.883,34.883,0,0,0,349.125,1.235Zm63.46,0c15.485,0,25.935-8.455,25.935-31.255v-39.9H427.88v40.66c0,15.77-6.46,20.9-15.3,20.9-8.74,0-15.01-5.13-15.01-20.9V-69.92h-11.02v39.9C386.555-7.22,397.1,1.235,412.585,1.235ZM456.57,0h11.02V-21.09L478.325-34.2,498.085,0H510.34L485.07-42.94l21.66-26.98H494.475l-26.6,33.06h-.285V-69.92H456.57Zm87.02,1.235c15.485,0,25.935-8.455,25.935-31.255v-39.9h-10.64v40.66c0,15.77-6.46,20.9-15.295,20.9-8.74,0-15.01-5.13-15.01-20.9V-69.92H517.56v39.9C517.56-7.22,528.1,1.235,543.59,1.235ZM587.575,0h23.37c15.485,0,26.79-6.65,26.79-20.52,0-9.5-5.795-14.915-13.775-16.625v-.475c6.27-2.09,9.975-8.455,9.975-15.105,0-12.635-10.355-17.195-24.7-17.195h-21.66Zm11.02-40.755V-61.37h9.69c9.88,0,14.82,2.755,14.82,10.07,0,6.555-4.465,10.545-15.1,10.545Zm0,32.11V-32.4H609.71c11.115,0,17.2,3.42,17.2,11.305,0,8.55-6.27,12.445-17.2,12.445Zm62.89-19.95L664.335-38c2.28-7.6,4.465-15.295,6.46-23.275h.38C673.36-53.39,675.45-45.6,677.825-38l2.755,9.405ZM689.13,0h11.685l-23.18-69.92H664.9L641.725,0h11.21l5.985-19.95h24.32Zm68.875,1.235c17.955,0,30.495-13.965,30.495-36.48S775.96-71.25,758.005-71.25s-30.4,13.49-30.4,36.005S740.05,1.235,758.005,1.235Zm0-9.595c-11.59,0-19.1-10.45-19.1-26.885s7.505-26.41,19.1-26.41,19.19,9.975,19.19,26.41S769.6-8.36,758.005-8.36ZM803.035,0h11.02V-30.115H839.9V-39.33h-25.84V-60.7h30.4V-69.92h-41.42Zm53.77,0h11.02V-30.115h25.84V-39.33h-25.84V-60.7h30.4V-69.92h-41.42Zm53.77,0h11.02V-69.92h-11.02ZM967.2,1.235A27.61,27.61,0,0,0,988.95-8.835l-5.89-6.935c-4.18,4.56-9.12,7.41-15.485,7.41-12.35,0-20.14-10.165-20.14-26.79,0-16.435,8.36-26.5,20.425-26.5,5.7,0,10.07,2.565,13.68,6.27l5.985-7.03A26.945,26.945,0,0,0,967.67-71.25c-17.67,0-31.54,13.68-31.54,36.48C936.13-11.875,949.62,1.235,967.2,1.235ZM1001.3,0h42.37V-9.31h-31.35V-31.92h25.65v-9.31h-25.65V-60.7h30.3V-69.92H1001.3Z" transform="translate(8.18 145)" fill="#fff"/>
    </g>
  </g>
</svg>
