<svg xmlns="http://www.w3.org/2000/svg" xmlns:xlink="http://www.w3.org/1999/xlink" width="1060.842" height="158.236" viewBox="0 0 1060.842 158.236">
  <defs>
    <filter id="パス_17367" x="0" y="0" width="554.416" height="47.564" filterUnits="userSpaceOnUse">
      <feOffset dy="3" input="SourceAlpha"/>
      <feGaussianBlur stdDeviation="3" result="blur"/>
      <feFlood flood-opacity="0.502"/>
      <feComposite operator="in" in2="blur"/>
      <feComposite in="SourceGraphic"/>
    </filter>
    <filter id="パス_17526" x="2.017" y="67.748" width="1058.825" height="90.488" filterUnits="userSpaceOnUse">
      <feOffset dy="3" input="SourceAlpha"/>
      <feGaussianBlur stdDeviation="3" result="blur-2"/>
      <feFlood flood-opacity="0.502"/>
      <feComposite operator="in" in2="blur-2"/>
      <feComposite in="SourceGraphic"/>
    </filter>
    <filter id="パス_17527" x="2.017" y="67.748" width="1058.825" height="90.488" filterUnits="userSpaceOnUse">
      <feOffset dy="3" input="SourceAlpha"/>
      <feGaussianBlur stdDeviation="3" result="blur-3"/>
      <feFlood flood-opacity="0.502"/>
      <feComposite operator="in" in2="blur-3"/>
      <feComposite in="SourceGraphic"/>
    </filter>
  </defs>
  <g id="mv01-txt" transform="translate(19135.361 12779.048)">
    <g transform="matrix(1, 0, 0, 1, -19135.36, -12779.05)" filter="url(#パス_17367)">
      <path id="パス_17367-2" data-name="パス 17367" d="M-265.792-9.6c-.576-.7-3.008-3.232-4.064-4.16v-1.568h3.424V-16.7h17.984v-1.952h-7.68V-20.06h6.176v-1.86h-6.176V-23.3h6.944v-1.92h-6.944v-1.632H-259.1v1.632h-6.528v1.92h6.528v1.376h-5.888v1.856h5.888v1.408h-7.52v.544h-3.232V-22.98a32.166,32.166,0,0,0,3.936-1.184l-2.048-2.272a44.575,44.575,0,0,1-9.664,2.336,9.173,9.173,0,0,1,.864,2.3c1.28-.16,2.656-.352,4.032-.608v4.288h-4.608v2.784h4.384a32.789,32.789,0,0,1-5.216,9.568,16.154,16.154,0,0,1,1.472,2.76,33.475,33.475,0,0,0,3.968-7.232V2.46h2.88V-10.72a34.815,34.815,0,0,1,2.336,3.456Zm12.864-2.08h-8.928v-1.728h8.928Zm0,3.584h-8.928v-1.76h8.928Zm0,3.584h-8.928v-1.76h8.928Zm2.784-10.816h-14.4V-2.592h3.392A21.917,21.917,0,0,1-268.1.736a15.229,15.229,0,0,1,1.888,1.92,26.611,26.611,0,0,0,7.616-3.84l-2.2-1.408h10.656Zm-5.984,14.176c1.952,1.216,4.192,2.752,5.44,3.712l2.592-1.44c-1.472-.992-3.936-2.5-6.048-3.712Zm23.52-17.856-.576.128h-8.768v3.008h7.68c-1.5,5.984-4.608,10.56-8.576,13.12a12.027,12.027,0,0,1,2.432,2.336c4.608-3.232,8.288-9.344,9.824-17.856Zm15.968-2.784a55.536,55.536,0,0,1-7.072,7.552,43.819,43.819,0,0,1-2.464-6.88v-5.7h-3.136V-1.5c0,.576-.256.8-.9.8-.608.032-2.656.032-4.832-.064a13.981,13.981,0,0,1,1.152,3.3c2.944,0,4.864-.1,6.08-.608,1.152-.544,1.632-1.472,1.632-3.424V-13.312C-223.744-7.36-220.224-2.528-215.1.16a12.988,12.988,0,0,1,2.3-2.752,21.411,21.411,0,0,1-9.632-9.216,73.71,73.71,0,0,0,8.544-8.032ZM-201.632-10.3a41.808,41.808,0,0,1-4.96,8.768L-203.1-.064a45.77,45.77,0,0,0,4.7-8.96,73.01,73.01,0,0,0,2.848-9.824c.128-.7.416-1.92.64-2.72l-3.616-.736a48.666,48.666,0,0,1-3.1,12Zm15.776-.992A93.345,93.345,0,0,1-182.368-.16l3.68-1.184c-.9-3.04-2.592-8.032-3.808-11.072-1.28-3.232-3.392-7.872-4.7-10.272l-3.3,1.088a85.372,85.372,0,0,1,4.64,10.3Zm38.816-9.472a7.026,7.026,0,0,1-2.4.32h-6.46V-23.2a23.376,23.376,0,0,1,.192-2.656h-3.872a14.732,14.732,0,0,1,.224,2.656v2.752h-6.976a30.406,30.406,0,0,1-3.1-.16,23.822,23.822,0,0,1,.128,2.592v5.6c0,.7-.064,1.632-.128,2.3h3.488a14.686,14.686,0,0,1-.128-2.112v-5.248h17.024A22.2,22.2,0,0,1-152-8.64a16.454,16.454,0,0,1-8.064,6.016,20.091,20.091,0,0,1-3.84,1.056l2.624,3.04c5.76-1.568,10.368-4.864,12.832-9.312a29.765,29.765,0,0,0,3.072-9.376,12.029,12.029,0,0,1,.544-2.176Zm32.8-2.3a9.706,9.706,0,0,1-2.784.32H-128.9a34.239,34.239,0,0,1-3.488-.224v3.616c.512-.032,2.24-.192,3.488-.192h11.744A26.327,26.327,0,0,1-122.24-11.1a35.956,35.956,0,0,1-13.152,9.376L-132.8.96a40.954,40.954,0,0,0,12.32-9.184,69.216,69.216,0,0,1,8.448,9.344l2.848-2.5a85.056,85.056,0,0,0-9.152-9.376,43.8,43.8,0,0,0,5.248-9.12,11.045,11.045,0,0,1,.928-1.664Zm19.9,18.016c-1.28,0-2.912-1.664-2.912-5.312,0-3.9,3.328-8.864,9.024-9.792A43.9,43.9,0,0,1-89.952-12c-1.472,4.9-3.008,6.944-4.384,6.944Zm8.512,6.112c7.744-1.088,12-5.7,12-12.32,0-6.656-4.832-11.968-12.448-11.968-7.936,0-14.176,6.112-14.176,13.152,0,5.28,2.88,8.832,6.016,8.832,3.168,0,5.792-3.616,7.712-10.08a72.526,72.526,0,0,0,1.888-8.9c4.864.608,7.616,4.224,7.616,8.832,0,5.12-3.616,8.064-7.68,8.992a17.945,17.945,0,0,1-2.816.448ZM-59.2-26.784a34.429,34.429,0,0,1-7.936,12.256A28.236,28.236,0,0,1-65.5-11.52a37.431,37.431,0,0,0,3.136-3.712V2.432h2.816V-19.52a51.034,51.034,0,0,0,3.136-6.368ZM-45.7-1.376V-8.64h7.232v-2.816H-45.7v-6.336h8.16V-20.64h-7.58l1.408-1.568a44.107,44.107,0,0,0-7.1-4.7L-52.768-24.8a47.842,47.842,0,0,1,6.048,4.16H-56.832v2.848H-48.7v6.336h-7.072V-8.64H-48.7v7.264h-8.9V1.472h20.544V-1.376Zm28.736-2.56c0,2.048-1.312,2.56-3.1,2.56-2.72,0-3.9-.928-3.9-2.272,0-1.312,1.44-2.336,4.128-2.336a16.538,16.538,0,0,1,2.848.256c.028.736.028,1.344.028,1.792ZM-4.9-2.944a25.23,25.23,0,0,0-9.056-4.9c-.1-1.376-.192-2.88-.224-4.32,3.04-.128,5.664-.32,8.608-.672l-.028-3c-2.72.384-5.5.672-8.64.832V-19.04c3.008-.128,5.664-.416,7.968-.64L-6.3-22.592a76.915,76.915,0,0,1-7.9.8c0-.64.032-1.216.032-1.568.032-.864.128-1.568.192-2.144h-3.392a20.029,20.029,0,0,1,.128,2.016V-21.7h-1.64a48.134,48.134,0,0,1-7.168-.608V-19.4a63.716,63.716,0,0,0,7.2.48h1.568v4h-1.632a54.171,54.171,0,0,1-7.808-.608l-.032,3.008c2.208.256,5.792.416,7.808.416h1.728c.032,1.152.064,2.432.128,3.616-.768-.064-1.536-.128-2.336-.128-4.736,0-7.584,2.112-7.584,5.12,0,3.2,2.592,4.96,7.392,4.96,4.128,0,5.856-2.208,5.856-4.608,0-.448-.032-.992-.032-1.632A23.741,23.741,0,0,1-6.72-.16ZM10.3-22.5l-3.868-.06a15.935,15.935,0,0,1,.224,2.976,84.124,84.124,0,0,0,.352,8.48C7.872-2.752,10.816.32,14.016.32c2.336,0,4.288-1.888,6.3-7.328L17.76-9.984c-.7,2.912-2.08,6.368-3.68,6.368-2.112,0-3.392-3.328-3.872-8.32a70.415,70.415,0,0,1-.224-7.136A25.726,25.726,0,0,1,10.3-22.5Zm16.224.8L23.36-20.64c3.2,3.776,5.024,10.592,5.536,16.032l3.3-1.28c-.42-5.152-2.756-12.128-5.668-15.812ZM57.152-4.448c-.032-1.5-.1-4.032-.128-5.824,2.208-1.024,4.256-1.888,5.888-2.5.96-.384,2.336-.9,3.2-1.152l-1.248-2.944c-1.024.512-1.952.928-3.008,1.408-1.5.672-3.136,1.344-5.088,2.272a4.172,4.172,0,0,0-4.224-2.688,9.334,9.334,0,0,0-4.032.928,23.134,23.134,0,0,0,2.4-4.128,96.854,96.854,0,0,0,10.432-.864v-2.94a73.269,73.269,0,0,1-9.376.928c.448-1.376.7-2.592.9-3.424l-3.3-.256a19.107,19.107,0,0,1-.736,3.808H46.976a46.474,46.474,0,0,1-5.44-.352V-19.2c1.76.128,3.968.192,5.28.192h.928A33,33,0,0,1,40.576-9.76L43.3-7.712A34.081,34.081,0,0,1,46.208-11.1a8.05,8.05,0,0,1,5.248-2.272,2.469,2.469,0,0,1,2.56,1.568C50.368-9.948,46.56-7.484,46.56-3.58c0,3.936,3.68,5.024,8.416,5.024A80.62,80.62,0,0,0,63.776.9l.1-3.232a53.363,53.363,0,0,1-8.8.832c-3.2,0-5.248-.416-5.248-2.592,0-1.856,1.7-3.3,4.384-4.8,0,1.568-.032,3.36-.128,4.448Zm24.576-8.384H96.192v2.752H81.728Zm0-5.184H96.192v2.72H81.728Zm0-5.12H96.192v2.688H81.728ZM95.3-.576c-1.28,0-1.5-.128-1.5-1.088V-7.456h5.4V-25.792H78.848V-7.456h4.128C82.368-3.648,80.8-1.312,74.24-.032a9.216,9.216,0,0,1,1.7,2.624C83.424.9,85.408-2.368,86.144-7.456h4.608v5.792c0,3.008.832,3.9,4.192,3.9H99.68c2.88,0,3.712-1.184,4.064-5.984A8.381,8.381,0,0,1,100.96-4.96c-.128,3.872-.32,4.384-1.568,4.384Zm27.36-21.312v3.232a80.008,80.008,0,0,0,13.28,0V-21.92a59.382,59.382,0,0,1-13.284.032ZM121.568-8.96a19.385,19.385,0,0,0-.544,3.9c0,3.072,2.5,4.928,7.872,4.928a42.88,42.88,0,0,0,8.032-.64l-.064-3.392a35.616,35.616,0,0,1-7.9.832c-3.84,0-4.9-1.12-4.9-2.56a12.04,12.04,0,0,1,.384-2.816ZM113.6-24.48a23.5,23.5,0,0,1-.288,2.624,90.143,90.143,0,0,0-1.376,12.64,39.571,39.571,0,0,0,1.216,10.24l2.88-.192c-.032-.384-.064-.864-.064-1.184a5.836,5.836,0,0,1,.16-1.44A62.716,62.716,0,0,1,118.4-9.184l-1.664-1.28c-.48,1.152-1.12,2.688-1.6,3.968a23.579,23.579,0,0,1-.224-3.328A75.036,75.036,0,0,1,116.48-21.76c.128-.576.448-1.824.672-2.432Zm59.36-.512H157.44v2.848h15.52ZM151.808-26.88a28.955,28.955,0,0,1-7.3,6.88,13.605,13.605,0,0,1,1.7,2.4,42.233,42.233,0,0,0,8.448-8.1Zm1.248,6.848a33.964,33.964,0,0,1-8.864,9.6A16.5,16.5,0,0,1,146.24-7.9a42.352,42.352,0,0,0,3.168-2.88V2.592h2.976V-14.08a43.18,43.18,0,0,0,3.488-4.9Zm20.8,3.776H156.1v2.848h10.112V-1.12c0,.448-.192.608-.8.608-.576.032-2.72.032-4.768-.032a11.938,11.938,0,0,1,.96,2.976c2.976,0,4.864-.032,6.048-.48,1.216-.48,1.6-1.344,1.6-3.04v-12.32h4.608Zm12.064-3.2c2.528.224,5.248.352,8.512.352,2.944,0,6.624-.224,8.8-.384v-3.328c-2.368.256-5.76.448-8.832.448a80.206,80.206,0,0,1-8.48-.384Zm-1.376,9.472a19.307,19.307,0,0,0-.64,4.48c0,4.128,3.68,6.4,10.464,6.4A47.217,47.217,0,0,0,205.28-.192l-.032-3.488a43.36,43.36,0,0,1-10.976,1.216c-4.832,0-7.04-1.568-7.04-3.776a12.208,12.208,0,0,1,.576-3.456Zm51.68-.64c0,5.344-5.248,8.16-13.024,9.12l1.856,3.1C233.5.352,239.712-3.68,239.712-10.5c0-4.7-3.424-7.392-8.16-7.392a43.169,43.169,0,0,0-9.536,1.5,26.538,26.538,0,0,1-3.136.48l.992,3.648a29.565,29.565,0,0,1,2.848-.992,28.775,28.775,0,0,1,8.448-1.6c3.132.008,5.056,1.8,5.056,4.232ZM223.3-25.312l-.48,3.04c3.616.64,10.208,1.248,13.792,1.5l.512-3.1a93.094,93.094,0,0,1-13.824-1.44Zm29.952,17.44a5.026,5.026,0,0,0-4.992,5.024,5,5,0,0,0,4.992,4.992A4.978,4.978,0,0,0,256.786.686a4.978,4.978,0,0,0,1.458-3.534A5,5,0,0,0,256.788-6.4a5,5,0,0,0-3.54-1.476Zm0,8.1a3.073,3.073,0,0,1-3.072-3.072,3.073,3.073,0,0,1,3.072-3.072,3.073,3.073,0,0,1,3.072,3.072A3.073,3.073,0,0,1,253.248.224Z" transform="translate(287.17 32.91)" fill="#fff"/>
    </g>
    <g transform="matrix(1, 0, 0, 1, -19135.36, -12779.05)" filter="url(#パス_17526)">
      <path id="パス_17526-2" data-name="パス 17526" d="M23.085,1.235c14.25,0,20.33-10.07,20.33-22.61V-69.92H32.4v47.5c0,10.26-3.52,14.06-10.55,14.06-4.56,0-8.36-2.185-11.305-7.6l-7.7,5.6C7.22-2.66,13.68,1.235,23.085,1.235Zm64.98,0c17.955,0,30.5-13.965,30.5-36.48S106.02-71.25,88.065-71.25s-30.4,13.49-30.4,36.005S70.11,1.235,88.065,1.235Zm0-9.6c-11.59,0-19.1-10.45-19.1-26.885s7.5-26.41,19.1-26.41,19.19,9.975,19.19,26.41S99.655-8.36,88.065-8.36ZM142.5,0h11.02V-26.5L174.61-69.92H163.115l-8.17,18.52c-2.09,5.225-4.37,10.07-6.65,15.39h-.38c-2.375-5.32-4.37-10.165-6.555-15.39l-8.075-18.52H121.5l21,43.415Zm66.025,1.235c17.955,0,30.495-13.965,30.495-36.48S226.48-71.25,208.525-71.25s-30.4,13.49-30.4,36.005S190.57,1.235,208.525,1.235Zm0-9.6c-11.59,0-19.1-10.45-19.1-26.885s7.505-26.41,19.1-26.41,19.19,9.975,19.19,26.41-7.6,26.885-19.19,26.885ZM289.18,0H300.2V-60.7h20.615v-9.22H268.66v9.22h20.52Zm59.945,1.235c15.3,0,24.6-9.12,24.6-20.33,0-10.26-5.985-15.39-14.25-18.9l-9.6-4.085c-5.7-2.28-11.3-4.56-11.3-10.545,0-5.6,4.655-9.025,11.78-9.025,6.175,0,11.02,2.375,15.39,6.27l5.8-7.03a29.949,29.949,0,0,0-21.18-8.84c-13.3,0-22.99,8.265-22.99,19.285,0,10.165,7.505,15.485,14.25,18.335l9.69,4.18c6.46,2.85,11.21,4.845,11.21,11.21,0,5.89-4.75,9.88-13.2,9.88-6.745,0-13.585-3.23-18.62-8.265l-6.46,7.6a34.883,34.883,0,0,0,24.885,10.26Zm63.46,0c15.485,0,25.935-8.455,25.935-31.255v-39.9H427.88v40.66c0,15.77-6.46,20.9-15.3,20.9-8.74,0-15.01-5.13-15.01-20.9V-69.92H386.55v39.9C386.555-7.22,397.1,1.235,412.585,1.235ZM456.57,0h11.02V-21.09L478.325-34.2,498.085,0H510.34L485.07-42.94l21.66-26.98H494.475l-26.6,33.06h-.285V-69.92H456.57Zm87.02,1.235c15.485,0,25.935-8.455,25.935-31.255v-39.9h-10.64v40.66c0,15.77-6.46,20.9-15.295,20.9-8.74,0-15.01-5.13-15.01-20.9V-69.92H517.56v39.9C517.56-7.22,528.1,1.235,543.59,1.235ZM587.575,0h23.37c15.485,0,26.79-6.65,26.79-20.52,0-9.5-5.795-14.915-13.775-16.625v-.475c6.27-2.09,9.975-8.455,9.975-15.1,0-12.635-10.355-17.195-24.7-17.195h-21.66ZM598.6-40.755V-61.37h9.69c9.88,0,14.82,2.755,14.82,10.07,0,6.555-4.465,10.545-15.1,10.545Zm0,32.11V-32.4H609.71c11.115,0,17.2,3.42,17.2,11.305,0,8.55-6.27,12.445-17.2,12.445Zm62.89-19.95,2.85-9.4c2.28-7.6,4.465-15.295,6.46-23.275h.38C673.36-53.39,675.45-45.6,677.825-38l2.755,9.4ZM689.13,0h11.685l-23.18-69.92H664.9L641.725,0h11.21l5.985-19.95h24.32Zm68.875,1.235c17.955,0,30.495-13.965,30.495-36.48S775.96-71.25,758.005-71.25s-30.4,13.49-30.4,36.005S740.05,1.235,758.005,1.235Zm0-9.6c-11.59,0-19.1-10.45-19.1-26.885s7.505-26.41,19.1-26.41,19.19,9.975,19.19,26.41S769.6-8.36,758.005-8.36ZM803.035,0h11.02V-30.115H839.9V-39.33H814.06V-60.7h30.4v-9.22H803.04ZM856.8,0h11.02V-30.115h25.84V-39.33h-25.84V-60.7h30.4v-9.22h-41.42Zm53.77,0H921.6V-69.92h-11.02ZM967.2,1.235a27.61,27.61,0,0,0,21.75-10.07l-5.89-6.935c-4.18,4.56-9.12,7.41-15.485,7.41-12.35,0-20.14-10.165-20.14-26.79,0-16.435,8.36-26.5,20.425-26.5,5.7,0,10.07,2.565,13.68,6.27l5.985-7.03a26.945,26.945,0,0,0-19.855-8.84c-17.67,0-31.54,13.68-31.54,36.48C936.13-11.875,949.62,1.235,967.2,1.235ZM1001.3,0h42.37V-9.31h-31.35V-31.92h25.65v-9.31h-25.65V-60.7h30.3v-9.22H1001.3Z" transform="translate(8.17 145)" fill="#fff"/>
    </g>
    <g transform="matrix(1, 0, 0, 1, -19135.36, -12779.05)" filter="url(#パス_17527)">
      <path id="パス_17527-2" data-name="パス 17527" d="M23.085,1.235c14.25,0,20.33-10.07,20.33-22.61V-69.92H32.4v47.5c0,10.26-3.52,14.06-10.55,14.06-4.56,0-8.36-2.185-11.305-7.6l-7.7,5.6C7.22-2.66,13.68,1.235,23.085,1.235Zm64.98,0c17.955,0,30.5-13.965,30.5-36.48S106.02-71.25,88.065-71.25s-30.4,13.49-30.4,36.005S70.11,1.235,88.065,1.235Zm0-9.6c-11.59,0-19.1-10.45-19.1-26.885s7.5-26.41,19.1-26.41,19.19,9.975,19.19,26.41S99.655-8.36,88.065-8.36ZM142.5,0h11.02V-26.5L174.61-69.92H163.115l-8.17,18.52c-2.09,5.225-4.37,10.07-6.65,15.39h-.38c-2.375-5.32-4.37-10.165-6.555-15.39l-8.075-18.52H121.5l21,43.415Zm66.025,1.235c17.955,0,30.495-13.965,30.495-36.48S226.48-71.25,208.525-71.25s-30.4,13.49-30.4,36.005S190.57,1.235,208.525,1.235Zm0-9.6c-11.59,0-19.1-10.45-19.1-26.885s7.505-26.41,19.1-26.41,19.19,9.975,19.19,26.41-7.6,26.885-19.19,26.885ZM289.18,0H300.2V-60.7h20.615v-9.22H268.66v9.22h20.52Zm59.945,1.235c15.3,0,24.6-9.12,24.6-20.33,0-10.26-5.985-15.39-14.25-18.9l-9.6-4.085c-5.7-2.28-11.3-4.56-11.3-10.545,0-5.6,4.655-9.025,11.78-9.025,6.175,0,11.02,2.375,15.39,6.27l5.8-7.03a29.949,29.949,0,0,0-21.18-8.84c-13.3,0-22.99,8.265-22.99,19.285,0,10.165,7.505,15.485,14.25,18.335l9.69,4.18c6.46,2.85,11.21,4.845,11.21,11.21,0,5.89-4.75,9.88-13.2,9.88-6.745,0-13.585-3.23-18.62-8.265l-6.46,7.6a34.883,34.883,0,0,0,24.885,10.26Zm63.46,0c15.485,0,25.935-8.455,25.935-31.255v-39.9H427.88v40.66c0,15.77-6.46,20.9-15.3,20.9-8.74,0-15.01-5.13-15.01-20.9V-69.92H386.55v39.9C386.555-7.22,397.1,1.235,412.585,1.235ZM456.57,0h11.02V-21.09L478.325-34.2,498.085,0H510.34L485.07-42.94l21.66-26.98H494.475l-26.6,33.06h-.285V-69.92H456.57Zm87.02,1.235c15.485,0,25.935-8.455,25.935-31.255v-39.9h-10.64v40.66c0,15.77-6.46,20.9-15.295,20.9-8.74,0-15.01-5.13-15.01-20.9V-69.92H517.56v39.9C517.56-7.22,528.1,1.235,543.59,1.235ZM587.575,0h23.37c15.485,0,26.79-6.65,26.79-20.52,0-9.5-5.795-14.915-13.775-16.625v-.475c6.27-2.09,9.975-8.455,9.975-15.1,0-12.635-10.355-17.195-24.7-17.195h-21.66ZM598.6-40.755V-61.37h9.69c9.88,0,14.82,2.755,14.82,10.07,0,6.555-4.465,10.545-15.1,10.545Zm0,32.11V-32.4H609.71c11.115,0,17.2,3.42,17.2,11.305,0,8.55-6.27,12.445-17.2,12.445Zm62.89-19.95,2.85-9.4c2.28-7.6,4.465-15.295,6.46-23.275h.38C673.36-53.39,675.45-45.6,677.825-38l2.755,9.4ZM689.13,0h11.685l-23.18-69.92H664.9L641.725,0h11.21l5.985-19.95h24.32Zm68.875,1.235c17.955,0,30.495-13.965,30.495-36.48S775.96-71.25,758.005-71.25s-30.4,13.49-30.4,36.005S740.05,1.235,758.005,1.235Zm0-9.6c-11.59,0-19.1-10.45-19.1-26.885s7.505-26.41,19.1-26.41,19.19,9.975,19.19,26.41S769.6-8.36,758.005-8.36ZM803.035,0h11.02V-30.115H839.9V-39.33H814.06V-60.7h30.4v-9.22H803.04ZM856.8,0h11.02V-30.115h25.84V-39.33h-25.84V-60.7h30.4v-9.22h-41.42Zm53.77,0H921.6V-69.92h-11.02ZM967.2,1.235a27.61,27.61,0,0,0,21.75-10.07l-5.89-6.935c-4.18,4.56-9.12,7.41-15.485,7.41-12.35,0-20.14-10.165-20.14-26.79,0-16.435,8.36-26.5,20.425-26.5,5.7,0,10.07,2.565,13.68,6.27l5.985-7.03a26.945,26.945,0,0,0-19.855-8.84c-17.67,0-31.54,13.68-31.54,36.48C936.13-11.875,949.62,1.235,967.2,1.235ZM1001.3,0h42.37V-9.31h-31.35V-31.92h25.65v-9.31h-25.65V-60.7h30.3v-9.22H1001.3Z" transform="translate(8.17 145)" fill="#fff"/>
    </g>
  </g>
</svg>
