<svg xmlns="http://www.w3.org/2000/svg" xmlns:xlink="http://www.w3.org/1999/xlink" width="278.148" height="253.186" viewBox="0 0 278.148 253.186">
  <defs>
    <filter id="パス_17534" x="0" y="0" width="278.148" height="56.756" filterUnits="userSpaceOnUse">
      <feOffset dy="3" input="SourceAlpha"/>
      <feGaussianBlur stdDeviation="3" result="blur"/>
      <feFlood flood-opacity="0.502"/>
      <feComposite operator="in" in2="blur"/>
      <feComposite in="SourceGraphic"/>
    </filter>
    <filter id="JOYO_TSUKUBA_OFFICE" x="4.268" y="58.456" width="272.74" height="194.73" filterUnits="userSpaceOnUse">
      <feOffset dy="3" input="SourceAlpha"/>
      <feGaussianBlur stdDeviation="3" result="blur-2"/>
      <feFlood flood-opacity="0.502"/>
      <feComposite operator="in" in2="blur-2"/>
      <feComposite in="SourceGraphic"/>
    </filter>
  </defs>
  <g id="text" transform="translate(19693.959 13417.506)">
    <g transform="matrix(1, 0, 0, 1, -19693.96, -13417.51)" filter="url(#パス_17534)">
      <path id="パス_17534-2" data-name="パス 17534" d="M-124.576-4.8c-.288-.352-1.5-1.616-2.032-2.08v-.784h1.712v-.688h8.992v-.976h-3.84v-.7h3.088v-.928h-3.088v-.688h3.472v-.96h-3.472v-.816h-1.488v.816H-124.5v.96h3.264v.688h-2.944v.928h2.944v.7H-125v.272h-1.616v-2.432a16.081,16.081,0,0,0,1.968-.592l-1.024-1.136a22.287,22.287,0,0,1-4.832,1.168,4.586,4.586,0,0,1,.432,1.152c.64-.08,1.328-.176,2.016-.3v2.144h-2.3V-7.66h2.192a16.4,16.4,0,0,1-2.608,4.784,8.077,8.077,0,0,1,.736,1.376,16.737,16.737,0,0,0,1.984-3.616V1.232h1.44V-5.36a17.408,17.408,0,0,1,1.168,1.728Zm6.432-1.04h-4.464V-6.7h4.464Zm0,1.792h-4.464v-.88h4.464Zm0,1.792h-4.464v-.88h4.464Zm1.392-5.408h-7.2V-1.3h1.7A10.958,10.958,0,0,1-125.728.368a7.614,7.614,0,0,1,.944.96,13.3,13.3,0,0,0,3.808-1.92l-1.1-.7h5.328Zm-2.992,7.088c.976.608,2.1,1.376,2.72,1.856l1.3-.72c-.736-.5-1.968-1.248-3.024-1.856Zm11.76-8.928-.288.064h-4.384v1.5h3.84A10.721,10.721,0,0,1-113.1-1.38a6.014,6.014,0,0,1,1.216,1.168c2.3-1.616,4.144-4.672,4.912-8.928ZM-100-10.9a27.768,27.768,0,0,1-3.536,3.776,21.91,21.91,0,0,1-1.232-3.44v-2.848h-1.568V-.752c0,.288-.128.4-.448.4-.3.016-1.328.016-2.416-.032a6.991,6.991,0,0,1,.576,1.648,8.819,8.819,0,0,0,3.04-.3c.576-.272.816-.736.816-1.712v-5.9A12.59,12.59,0,0,0-99.232.08,6.493,6.493,0,0,1-98.08-1.3a10.706,10.706,0,0,1-4.82-4.6,36.854,36.854,0,0,0,4.276-4.02Zm7.5,5.744A20.9,20.9,0,0,1-94.98-.772l1.744.736a22.885,22.885,0,0,0,2.352-4.48A36.5,36.5,0,0,0-89.46-9.428c.064-.352.208-.96.32-1.36l-1.808-.368a24.333,24.333,0,0,1-1.552,6Zm7.888-.5A46.673,46.673,0,0,1-82.864-.08l1.84-.592c-.448-1.52-1.3-4.016-1.9-5.536-.64-1.616-1.7-3.936-2.352-5.136l-1.648.544a42.689,42.689,0,0,1,2.316,5.152ZM-65.2-10.384a3.513,3.513,0,0,1-1.2.16h-3.232V-11.6a11.687,11.687,0,0,1,.1-1.328h-1.936A7.366,7.366,0,0,1-71.36-11.6v1.376h-3.488A15.2,15.2,0,0,1-76.4-10.3,11.91,11.91,0,0,1-76.336-9v2.8c0,.352-.032.816-.064,1.152h1.744A7.343,7.343,0,0,1-74.72-6.1V-8.736h8.512A11.1,11.1,0,0,1-67.68-4.32a8.227,8.227,0,0,1-4.032,3.008,10.045,10.045,0,0,1-1.92.528L-72.32.736A10.2,10.2,0,0,0-65.9-3.92a14.882,14.882,0,0,0,1.536-4.688A6.015,6.015,0,0,1-64.1-9.7Zm16.4-1.152a4.853,4.853,0,0,1-1.392.16h-5.936a17.119,17.119,0,0,1-1.744-.112V-9.68c.256-.016,1.12-.1,1.744-.1h5.872A13.164,13.164,0,0,1-52.8-5.552,17.978,17.978,0,0,1-59.376-.864L-58.08.48a20.477,20.477,0,0,0,6.16-4.592A34.608,34.608,0,0,1-47.7.56l1.424-1.248a42.529,42.529,0,0,0-4.576-4.688,21.9,21.9,0,0,0,2.624-4.56,5.523,5.523,0,0,1,.464-.832Zm9.952,9.008c-.64,0-1.456-.832-1.456-2.656a5.311,5.311,0,0,1,4.512-4.9A21.952,21.952,0,0,1-36.656-6c-.736,2.448-1.5,3.472-2.192,3.472ZM-34.592.528c3.872-.544,6-2.848,6-6.16a5.872,5.872,0,0,0-1.8-4.356,5.872,5.872,0,0,0-4.423-1.628A6.886,6.886,0,0,0-41.9-5.04c0,2.64,1.44,4.416,3.008,4.416,1.584,0,2.9-1.808,3.856-5.04a36.265,36.265,0,0,0,.944-4.448,4.19,4.19,0,0,1,3.8,4.412,4.551,4.551,0,0,1-3.84,4.5,8.972,8.972,0,0,1-1.408.224Zm18.384-13.136A24.579,24.579,0,0,0-12.656-7.52h-9.632A17.981,17.981,0,0,0-18.9-12.688l-1.584-.464A13.579,13.579,0,0,1-25.22-7.184,11.159,11.159,0,0,1-23.952-6,13.635,13.635,0,0,0-22.5-7.3v1.232h3C-19.84-3.536-20.688-1.2-24.368.016a4.7,4.7,0,0,1,.944,1.328c4.112-1.5,5.136-4.3,5.536-7.408h3.7c-.16,3.712-.368,5.216-.736,5.6a.858.858,0,0,1-.688.224c-.368,0-1.28-.016-2.256-.112a3.413,3.413,0,0,1,.5,1.5,18.037,18.037,0,0,0,2.48,0A1.725,1.725,0,0,0-13.584.5c.544-.624.768-2.48.976-7.328.016-.144.016-.48.016-.624A14.614,14.614,0,0,0-11.248-6.14,8.183,8.183,0,0,1-10-7.472a17.716,17.716,0,0,1-4.768-5.712Zm23.36.56H3.3V-13.44H1.8v1.392H-1.856v1.12H7.152ZM3.3-10.224A14.086,14.086,0,0,1,6.384-8.368l.992-.768a16.515,16.515,0,0,0-3.1-1.776ZM.624-10.848A8.258,8.258,0,0,1-2.3-9.2a7.731,7.731,0,0,1,.976.928,9.4,9.4,0,0,0,3.216-2.192ZM-2.624-12.9H-6.608v1.168h3.984Zm.448,2.112H-7.36V-9.6h5.184ZM-3.808-3.12v2.3H-5.552v-2.3Zm1.2-1.2H-6.736V1.056h1.184v-.7h2.944Zm-4.1-.992H-2.6V-6.48H-6.7Zm0-2.144H-2.6V-8.608H-6.7ZM1.584-5.168H3.568v.752H1.584Zm0-1.712H3.568v.736H1.584ZM6.272-3.136a18.439,18.439,0,0,1-1.7,1.1A7.029,7.029,0,0,1,3.788-3.38H7.36V-4.42H4.928v-.752H6.656v-.976H4.928V-6.88H6.96V-7.888H4.928v-1.1H3.568v1.1H1.584v-1.1H.256v1.1H-1.6V-6.88H.256v.736h-1.5v.976h1.5v.752H-2.128v1.04H.736A11.753,11.753,0,0,1-2.5-1.872a9.052,9.052,0,0,1,.8.992A14.661,14.661,0,0,0-.064-1.616V-.24c-.544.08-1.056.16-1.488.224l.368,1.152C.208.912,2.016.576,3.744.256l-.1-1.088c-.832.144-1.664.272-2.448.4V-2.368A8.327,8.327,0,0,0,2.4-3.376h.128A7.168,7.168,0,0,0,6.72,1.248,4.383,4.383,0,0,1,7.584.176,6.277,6.277,0,0,1,5.232-1.248a14.2,14.2,0,0,0,1.856-1.1ZM13.92-13.392A17.215,17.215,0,0,1,9.952-7.264a14.118,14.118,0,0,1,.816,1.5A18.716,18.716,0,0,0,12.336-7.62V1.216h1.408V-9.76a25.517,25.517,0,0,0,1.568-3.184Zm6.752,12.7V-4.32h3.616V-5.728H20.672V-8.9h4.08v-1.42H20.96l.7-.784a22.053,22.053,0,0,0-3.552-2.352L17.136-12.4a23.921,23.921,0,0,1,3.024,2.08H15.1V-8.9h4.064v3.168H15.632V-4.32h3.536V-.688H14.72V.736H24.992V-.688ZM30-10.48H40.352v2.144h1.584v-3.552H35.952v-1.536H34.368v1.536H28.5v3.552H30ZM36.48-.3c-.96,0-1.136-.112-1.136-.816V-3.792l6.88-.752-.176-1.392-6.7.72V-7.392a25.9,25.9,0,0,0,4.128-1.232L38.288-9.84a36.766,36.766,0,0,1-8.64,2.032,4.69,4.69,0,0,1,.448,1.28c1.184-.144,2.416-.32,3.632-.544V-5.04L28.1-4.432l.192,1.424,5.44-.592v2.5c0,1.776.576,2.272,2.64,2.272H39.7c1.84,0,2.3-.7,2.544-3.168A4.064,4.064,0,0,1,40.756-2.6C40.64-.672,40.5-.3,39.6-.3ZM50.944-6.08A1.857,1.857,0,0,0,52.8-4.224,1.857,1.857,0,0,0,54.656-6.08,1.857,1.857,0,0,0,52.8-7.936,1.857,1.857,0,0,0,50.944-6.08Zm20.848-6.528A24.578,24.578,0,0,0,75.344-7.52H65.712A17.981,17.981,0,0,0,69.1-12.688l-1.584-.464A13.579,13.579,0,0,1,62.78-7.184,11.159,11.159,0,0,1,64.048-6,13.637,13.637,0,0,0,65.5-7.3v1.232h3C68.16-3.536,67.312-1.2,63.632.016a4.7,4.7,0,0,1,.944,1.328c4.112-1.5,5.136-4.3,5.536-7.408h3.7c-.16,3.712-.368,5.216-.736,5.6a.858.858,0,0,1-.688.224c-.368,0-1.28-.016-2.256-.112a3.413,3.413,0,0,1,.5,1.5,18.038,18.038,0,0,0,2.48,0A1.725,1.725,0,0,0,74.416.5c.544-.624.768-2.48.976-7.328.016-.144.016-.48.016-.624A14.613,14.613,0,0,0,76.752-6.14,8.183,8.183,0,0,1,78-7.472a17.716,17.716,0,0,1-4.768-5.712Zm23.36.56H91.3V-13.44H89.8v1.392H86.144v1.12h9.008ZM91.3-10.224a14.086,14.086,0,0,1,3.088,1.856l.992-.768a16.515,16.515,0,0,0-3.1-1.776Zm-2.672-.624A8.258,8.258,0,0,1,85.7-9.2a7.73,7.73,0,0,1,.976.928,9.4,9.4,0,0,0,3.216-2.192ZM85.376-12.9H81.392v1.168h3.984Zm.448,2.112H80.64V-9.6h5.184ZM84.192-3.12v2.3H82.448v-2.3Zm1.2-1.2H81.264V1.056h1.184v-.7h2.944Zm-4.1-.992H85.4V-6.48H81.3Zm0-2.144H85.4V-8.608H81.3ZM89.58-5.168h1.984v.752h-1.98Zm0-1.712h1.984v.736h-1.98Zm4.688,3.744a18.441,18.441,0,0,1-1.7,1.1,7.028,7.028,0,0,1-.784-1.344H95.36V-4.42H92.928v-.752h1.728v-.976H92.928V-6.88H94.96V-7.888H92.928v-1.1h-1.36v1.1H89.584v-1.1H88.256v1.1H86.4V-6.88h1.856v.736h-1.5v.976h1.5v.752H85.872v1.04h2.864a11.753,11.753,0,0,1-3.232,1.5,9.052,9.052,0,0,1,.8.992,14.661,14.661,0,0,0,1.632-.736V-.24c-.544.08-1.056.16-1.488.224l.368,1.152c1.392-.224,3.2-.56,4.928-.88l-.1-1.088c-.832.144-1.664.272-2.448.4V-2.368a8.326,8.326,0,0,0,1.2-1.008h.128a7.168,7.168,0,0,0,4.2,4.624A4.383,4.383,0,0,1,95.584.176a6.277,6.277,0,0,1-2.352-1.424,14.2,14.2,0,0,0,1.856-1.1Zm7.376-5.12h1.776V-9.664h-1.776v-3.552h-1.392v3.552H98.288v1.408h1.968V-3.44c-.8.32-1.536.608-2.112.816l.576,1.488c1.424-.624,3.248-1.456,4.928-2.272l-.336-1.312c-.544.224-1.12.464-1.664.7ZM107.04-.4c-1.024,0-1.2-.176-1.2-1.072V-6.72l1.792-.768v5.152h1.392V-8.08l1.856-.8c0,2.448-.032,3.936-.1,4.24-.064.336-.208.4-.416.4-.16,0-.592,0-.928-.016a4.6,4.6,0,0,1,.336,1.264,4.93,4.93,0,0,0,1.536-.176c.5-.128.768-.48.848-1.152.1-.624.128-2.8.128-5.792l.064-.256-1.04-.4-.256.208-.288.224L109.02-9.6v-3.808h-1.392v4.4l-1.792.752V-11.9h-1.408v4.24l-1.664.7.56,1.328,1.1-.48v4.624c0,1.92.56,2.416,2.528,2.416h3.664c1.744,0,2.192-.72,2.4-2.928a3.97,3.97,0,0,1-1.312-.56c-.128,1.744-.288,2.16-1.168,2.16ZM124.9-2.224c-.016-.752-.048-2.016-.064-2.912,1.1-.512,2.128-.944,2.944-1.248.48-.192,1.168-.448,1.6-.576l-.624-1.472c-.512.256-.976.464-1.5.7-.752.336-1.568.672-2.544,1.136A2.086,2.086,0,0,0,122.6-7.94a4.667,4.667,0,0,0-2.016.464,11.569,11.569,0,0,0,1.2-2.064A48.428,48.428,0,0,0,127-9.972V-11.44a36.634,36.634,0,0,1-4.688.464c.224-.688.352-1.3.448-1.712l-1.648-.128a9.553,9.553,0,0,1-.368,1.9h-.928a23.237,23.237,0,0,1-2.72-.176V-9.6c.88.064,1.984.1,2.64.1h.464a16.5,16.5,0,0,1-3.584,4.624l1.36,1.024a17.041,17.041,0,0,1,1.456-1.7,4.025,4.025,0,0,1,2.624-1.136,1.234,1.234,0,0,1,1.28.784c-1.824.928-3.728,2.16-3.728,4.112C119.6.176,121.44.72,123.808.72a40.31,40.31,0,0,0,4.4-.272l.048-1.616a26.68,26.68,0,0,1-4.4.416c-1.6,0-2.624-.208-2.624-1.3,0-.928.848-1.648,2.192-2.4,0,.784-.016,1.68-.064,2.224ZM-38.816,17.584h7.232V18.96h-7.232Zm0-2.592h7.232v1.36h-7.232Zm0-2.56h7.232v1.344h-7.232Zm6.784,11.28c-.64,0-.752-.064-.752-.544v-2.9h2.7V11.1H-40.256v9.168h2.064c-.3,1.9-1.088,3.072-4.368,3.712a4.608,4.608,0,0,1,.848,1.312c3.744-.848,4.736-2.48,5.1-5.024h2.3v2.9c0,1.5.416,1.952,2.1,1.952h2.368c1.44,0,1.856-.592,2.032-2.992A4.19,4.19,0,0,1-29.2,21.52c-.064,1.936-.16,2.192-.784,2.192Zm13.68-10.656v1.616a40,40,0,0,0,6.64,0V13.04a29.691,29.691,0,0,1-6.64.016ZM-18.9,19.52a9.693,9.693,0,0,0-.272,1.952c0,1.536,1.248,2.464,3.936,2.464a21.44,21.44,0,0,0,4.016-.32l-.032-1.7a17.808,17.808,0,0,1-3.952.416c-1.92,0-2.448-.56-2.448-1.28a6.02,6.02,0,0,1,.192-1.408Zm-3.984-7.76a11.75,11.75,0,0,1-.144,1.312,45.07,45.07,0,0,0-.688,6.32,19.785,19.785,0,0,0,.608,5.12l1.44-.1c-.016-.192-.032-.432-.032-.592a2.919,2.919,0,0,1,.08-.72,31.359,31.359,0,0,1,1.136-3.7l-.832-.64c-.24.576-.56,1.344-.8,1.984a11.787,11.787,0,0,1-.112-1.664,37.517,37.517,0,0,1,.784-5.968c.064-.288.224-.912.336-1.216ZM6.8,11.5H-.96v1.424H6.8Zm-10.576-.94A14.478,14.478,0,0,1-7.424,14a6.8,6.8,0,0,1,.848,1.2,21.116,21.116,0,0,0,4.224-4.048Zm.624,3.424a16.982,16.982,0,0,1-4.432,4.8A8.247,8.247,0,0,1-6.56,20.048a21.177,21.177,0,0,0,1.584-1.44V25.3h1.488V16.96a21.59,21.59,0,0,0,1.744-2.448Zm10.4,1.888h-8.88V17.3H3.424v6.14c0,.224-.1.3-.4.3-.288.016-1.36.016-2.384-.016a5.969,5.969,0,0,1,.48,1.488,10,10,0,0,0,3.024-.24c.608-.24.8-.672.8-1.52V17.3h2.3Zm6.032-1.6c1.264.112,2.624.176,4.256.176,1.472,0,3.312-.112,4.4-.192V12.592c-1.184.128-2.88.224-4.416.224a40.1,40.1,0,0,1-4.24-.192Zm-.688,4.736a9.653,9.653,0,0,0-.32,2.24c0,2.064,1.84,3.2,5.232,3.2A23.608,23.608,0,0,0,22.96,23.9l-.016-1.744a21.68,21.68,0,0,1-5.488.608c-2.416,0-3.52-.784-3.52-1.888a6.1,6.1,0,0,1,.288-1.728Zm25.84-.32c0,2.672-2.624,4.08-6.512,4.56l.928,1.552c4.224-.624,7.328-2.64,7.328-6.048,0-2.352-1.712-3.7-4.08-3.7a21.584,21.584,0,0,0-4.768.752,13.27,13.27,0,0,1-1.568.24l.5,1.824a14.783,14.783,0,0,1,1.424-.5,14.387,14.387,0,0,1,4.224-.8C37.472,16.576,38.432,17.472,38.432,18.688Zm-6.464-7.344-.24,1.52c1.808.32,5.1.624,6.9.752l.256-1.552a46.547,46.547,0,0,1-6.916-.72Z" transform="translate(139.77 19.46)" fill="#fff"/>
    </g>
    <g transform="matrix(1, 0, 0, 1, -19693.96, -13417.51)" filter="url(#JOYO_TSUKUBA_OFFICE)">
      <path id="JOYO_TSUKUBA_OFFICE-2" data-name="JOYO TSUKUBA OFFICE" d="M-58.408.728c8.4,0,11.984-5.936,11.984-13.328V-41.216h-6.5v28c0,6.048-2.072,8.288-6.216,8.288-2.688,0-4.928-1.288-6.664-4.48l-4.536,3.3C-67.76-1.568-63.952.728-58.408.728Zm38.3,0c10.588,0,17.98-8.228,17.98-21.5S-9.52-42-20.1-42s-17.92,7.952-17.92,21.224S-30.688.728-20.1.728Zm0-5.656c-6.832,0-11.256-6.16-11.256-15.848S-26.936-36.344-20.1-36.344s11.312,5.88,11.312,15.568S-13.272-4.928-20.1-4.928ZM11.984,0h6.5V-15.624L30.912-41.216H24.136L19.32-30.3c-1.232,3.08-2.576,5.936-3.92,9.072h-.224c-1.4-3.136-2.576-5.992-3.864-9.072L6.552-41.22H-.392l12.376,25.6ZM50.9.728c10.588,0,17.98-8.228,17.98-21.5S61.488-42,50.9-42,32.98-34.048,32.98-20.776,40.32.728,50.9.728Zm0-5.656c-6.832,0-11.256-6.16-11.256-15.848S44.072-36.344,50.9-36.344s11.312,5.88,11.312,15.568S57.736-4.928,50.9-4.928ZM-114.408,67h6.5V31.216H-95.76V25.784H-126.5v5.432h12.1Zm35.336.728c9.016,0,14.5-5.376,14.5-11.984,0-6.048-3.528-9.072-8.4-11.144l-5.656-2.408c-3.36-1.344-6.664-2.688-6.664-6.216,0-3.3,2.744-5.32,6.944-5.32a13.127,13.127,0,0,1,9.072,3.7l3.416-4.144A17.654,17.654,0,0,0-78.344,25C-86.184,25-91.9,29.872-91.9,36.368c0,5.992,4.424,9.128,8.4,10.808l5.712,2.464c3.808,1.68,6.608,2.856,6.608,6.608,0,3.472-2.8,5.824-7.784,5.824A15.979,15.979,0,0,1-89.936,57.2l-3.808,4.48a20.562,20.562,0,0,0,14.672,6.048Zm37.408,0c9.128,0,15.288-4.984,15.288-18.424V25.784h-6.272V49.752c0,9.3-3.808,12.32-9.016,12.32-5.152,0-8.848-3.024-8.848-12.32V25.784h-6.5V49.3c0,13.444,6.22,18.428,15.348,18.428ZM-15.736,67h6.5V54.568l6.328-7.728L8.736,67H15.96L1.064,41.688l12.768-15.9H6.608L-9.072,45.272H-9.24V25.784h-6.5Zm51.3.728c9.128,0,15.288-4.984,15.288-18.424V25.784H44.576V49.752c0,9.3-3.808,12.32-9.016,12.32-5.152,0-8.848-3.024-8.848-12.32V25.784h-6.5V49.3c0,13.444,6.22,18.428,15.348,18.428ZM61.488,67H75.264c9.128,0,15.792-3.92,15.792-12.1,0-5.6-3.416-8.792-8.12-9.8v-.28c3.7-1.232,5.88-4.984,5.88-8.9,0-7.448-6.1-10.136-14.56-10.136H61.488Zm6.5-24.024V30.824H73.7c5.824,0,8.736,1.624,8.736,5.936,0,3.864-2.632,6.216-8.9,6.216Zm0,18.928v-14H74.54c6.552,0,10.136,2.016,10.136,6.664,0,5.04-3.7,7.336-10.136,7.336Zm37.072-11.76,1.68-5.544c1.344-4.48,2.632-9.016,3.808-13.72h.224c1.288,4.648,2.52,9.24,3.92,13.72l1.624,5.544ZM121.352,67h6.888L114.576,25.784h-7.5L93.408,67h6.608l3.528-11.76H117.88ZM-75.236,134.728c10.584,0,17.976-8.232,17.976-21.5S-64.652,92-75.236,92s-17.92,7.952-17.92,21.224S-85.82,134.728-75.236,134.728Zm0-5.656c-6.832,0-11.256-6.16-11.256-15.848s4.424-15.568,11.256-15.568,11.312,5.88,11.312,15.568-4.476,15.848-11.312,15.848ZM-48.692,134h6.5V116.248H-26.96v-5.432H-42.2v-12.6h17.92V92.784H-48.692Zm31.7,0h6.5V116.248H4.732v-5.432H-10.5v-12.6H7.42V92.784H-17Zm31.7,0h6.5V92.784H14.7Zm33.376.728A16.275,16.275,0,0,0,60.9,128.792L57.428,124.7a12.01,12.01,0,0,1-9.128,4.368c-7.28,0-11.872-5.992-11.872-15.792,0-9.688,4.928-15.624,12.04-15.624a10.963,10.963,0,0,1,8.064,3.7l3.528-4.144A15.884,15.884,0,0,0,48.356,92c-10.416,0-18.592,8.064-18.592,21.5,0,13.5,7.952,21.228,18.312,21.228ZM68.18,134H93.156v-5.488H74.676V115.184H89.8V109.7H74.676V98.216H92.54V92.784H68.18Z" transform="translate(139.77 106.46)" fill="#fff"/>
    </g>
  </g>
</svg>
