<svg xmlns="http://www.w3.org/2000/svg" xmlns:xlink="http://www.w3.org/1999/xlink" width="1061.202" height="159.146" viewBox="0 0 1061.202 159.146">
  <defs>
    <filter id="パス_17526" x="2.377" y="68.658" width="1058.825" height="90.488" filterUnits="userSpaceOnUse">
      <feOffset dy="3" input="SourceAlpha"/>
      <feGaussianBlur stdDeviation="3" result="blur"/>
      <feFlood flood-opacity="0.502"/>
      <feComposite operator="in" in2="blur"/>
      <feComposite in="SourceGraphic"/>
    </filter>
    <filter id="パス_17533" x="0" y="0" width="711.888" height="47.596" filterUnits="userSpaceOnUse">
      <feOffset dy="3" input="SourceAlpha"/>
      <feGaussianBlur stdDeviation="3" result="blur-2"/>
      <feFlood flood-opacity="0.502"/>
      <feComposite operator="in" in2="blur-2"/>
      <feComposite in="SourceGraphic"/>
    </filter>
  </defs>
  <g id="mv01-txt" transform="translate(19135.723 12779.968)">
    <g transform="matrix(1, 0, 0, 1, -19135.72, -12779.97)" filter="url(#パス_17526)">
      <path id="パス_17526-2" data-name="パス 17526" d="M23.085,1.235c14.25,0,20.33-10.07,20.33-22.61V-69.92H32.4v47.5c0,10.26-3.52,14.06-10.55,14.06-4.56,0-8.36-2.185-11.305-7.6l-7.7,5.6C7.22-2.66,13.68,1.235,23.085,1.235Zm64.98,0c17.955,0,30.5-13.965,30.5-36.48S106.02-71.25,88.065-71.25s-30.4,13.49-30.4,36.005S70.11,1.235,88.065,1.235Zm0-9.6c-11.59,0-19.1-10.45-19.1-26.885s7.5-26.41,19.1-26.41,19.19,9.975,19.19,26.41S99.655-8.36,88.065-8.36ZM142.5,0h11.02V-26.5L174.61-69.92H163.115l-8.17,18.52c-2.09,5.225-4.37,10.07-6.65,15.39h-.38c-2.375-5.32-4.37-10.165-6.555-15.39l-8.075-18.52H121.5l21,43.415Zm66.025,1.235c17.955,0,30.495-13.965,30.495-36.48S226.48-71.25,208.525-71.25s-30.4,13.49-30.4,36.005S190.57,1.235,208.525,1.235Zm0-9.6c-11.59,0-19.1-10.45-19.1-26.885s7.505-26.41,19.1-26.41,19.19,9.975,19.19,26.41-7.6,26.885-19.19,26.885ZM289.18,0H300.2V-60.7h20.615v-9.22H268.66v9.22h20.52Zm59.945,1.235c15.3,0,24.6-9.12,24.6-20.33,0-10.26-5.985-15.39-14.25-18.9l-9.6-4.085c-5.7-2.28-11.3-4.56-11.3-10.545,0-5.6,4.655-9.025,11.78-9.025,6.175,0,11.02,2.375,15.39,6.27l5.8-7.03a29.949,29.949,0,0,0-21.18-8.84c-13.3,0-22.99,8.265-22.99,19.285,0,10.165,7.505,15.485,14.25,18.335l9.69,4.18c6.46,2.85,11.21,4.845,11.21,11.21,0,5.89-4.75,9.88-13.2,9.88-6.745,0-13.585-3.23-18.62-8.265l-6.46,7.6a34.883,34.883,0,0,0,24.885,10.26Zm63.46,0c15.485,0,25.935-8.455,25.935-31.255v-39.9H427.88v40.66c0,15.77-6.46,20.9-15.3,20.9-8.74,0-15.01-5.13-15.01-20.9V-69.92H386.55v39.9C386.555-7.22,397.1,1.235,412.585,1.235ZM456.57,0h11.02V-21.09L478.325-34.2,498.085,0H510.34L485.07-42.94l21.66-26.98H494.475l-26.6,33.06h-.285V-69.92H456.57Zm87.02,1.235c15.485,0,25.935-8.455,25.935-31.255v-39.9h-10.64v40.66c0,15.77-6.46,20.9-15.295,20.9-8.74,0-15.01-5.13-15.01-20.9V-69.92H517.56v39.9C517.56-7.22,528.1,1.235,543.59,1.235ZM587.575,0h23.37c15.485,0,26.79-6.65,26.79-20.52,0-9.5-5.795-14.915-13.775-16.625v-.475c6.27-2.09,9.975-8.455,9.975-15.1,0-12.635-10.355-17.195-24.7-17.195h-21.66ZM598.6-40.755V-61.37h9.69c9.88,0,14.82,2.755,14.82,10.07,0,6.555-4.465,10.545-15.1,10.545Zm0,32.11V-32.4H609.71c11.115,0,17.2,3.42,17.2,11.305,0,8.55-6.27,12.445-17.2,12.445Zm62.89-19.95,2.85-9.4c2.28-7.6,4.465-15.295,6.46-23.275h.38C673.36-53.39,675.45-45.6,677.825-38l2.755,9.4ZM689.13,0h11.685l-23.18-69.92H664.9L641.725,0h11.21l5.985-19.95h24.32Zm68.875,1.235c17.955,0,30.495-13.965,30.495-36.48S775.96-71.25,758.005-71.25s-30.4,13.49-30.4,36.005S740.05,1.235,758.005,1.235Zm0-9.6c-11.59,0-19.1-10.45-19.1-26.885s7.505-26.41,19.1-26.41,19.19,9.975,19.19,26.41S769.6-8.36,758.005-8.36ZM803.035,0h11.02V-30.115H839.9V-39.33H814.06V-60.7h30.4v-9.22H803.04ZM856.8,0h11.02V-30.115h25.84V-39.33h-25.84V-60.7h30.4v-9.22h-41.42Zm53.77,0H921.6V-69.92h-11.02ZM967.2,1.235a27.61,27.61,0,0,0,21.75-10.07l-5.89-6.935c-4.18,4.56-9.12,7.41-15.485,7.41-12.35,0-20.14-10.165-20.14-26.79,0-16.435,8.36-26.5,20.425-26.5,5.7,0,10.07,2.565,13.68,6.27l5.985-7.03a26.945,26.945,0,0,0-19.855-8.84c-17.67,0-31.54,13.68-31.54,36.48C936.13-11.875,949.62,1.235,967.2,1.235ZM1001.3,0h42.37V-9.31h-31.35V-31.92h25.65v-9.31h-25.65V-60.7h30.3v-9.22H1001.3Z" transform="translate(8.53 145.91)" fill="#fff"/>
    </g>
    <g transform="matrix(1, 0, 0, 1, -19135.72, -12779.97)" filter="url(#パス_17533)">
      <path id="パス_17533-2" data-name="パス 17533" d="M-337.152-9.6c-.576-.7-3.008-3.232-4.064-4.16v-1.568h3.424V-16.7h17.984v-1.952h-7.68V-20.06h6.176v-1.86h-6.176V-23.3h6.944v-1.92h-6.944v-1.632h-2.976v1.632h-6.528v1.92h6.528v1.376h-5.888v1.856h5.888v1.408h-7.52v.544h-3.232V-22.98a32.167,32.167,0,0,0,3.936-1.184l-2.048-2.272a44.575,44.575,0,0,1-9.664,2.336,9.169,9.169,0,0,1,.864,2.3c1.28-.16,2.656-.352,4.032-.608v4.288h-4.6v2.784h4.384a32.79,32.79,0,0,1-5.216,9.568,16.155,16.155,0,0,1,1.472,2.752,33.474,33.474,0,0,0,3.96-7.224V2.46h2.88V-10.72a34.815,34.815,0,0,1,2.336,3.456Zm12.864-2.08h-8.928v-1.728h8.928Zm0,3.584h-8.928v-1.76h8.928Zm0,3.584h-8.928v-1.76h8.928Zm2.784-10.816h-14.4V-2.592h3.392A21.917,21.917,0,0,1-339.456.736a15.23,15.23,0,0,1,1.888,1.92,26.61,26.61,0,0,0,7.616-3.84l-2.208-1.408h10.66Zm-5.984,14.176c1.952,1.216,4.192,2.752,5.44,3.712l2.592-1.44c-1.472-.992-3.936-2.5-6.048-3.712Zm23.52-17.856-.576.128h-8.768v3.008h7.68c-1.5,5.984-4.608,10.56-8.576,13.12a12.028,12.028,0,0,1,2.432,2.336c4.608-3.232,8.288-9.344,9.824-17.856ZM-288-21.792a55.535,55.535,0,0,1-7.072,7.552,43.821,43.821,0,0,1-2.464-6.88v-5.7h-3.136V-1.5c0,.576-.256.8-.9.8-.608.032-2.656.032-4.832-.064a13.982,13.982,0,0,1,1.152,3.3c2.944,0,4.864-.1,6.08-.608,1.152-.544,1.632-1.472,1.632-3.424V-13.312C-295.1-7.36-291.584-2.528-286.464.16a12.986,12.986,0,0,1,2.3-2.752,21.411,21.411,0,0,1-9.632-9.216,73.7,73.7,0,0,0,8.544-8.032ZM-272.992-10.3a41.807,41.807,0,0,1-4.96,8.768l3.488,1.472a45.768,45.768,0,0,0,4.7-8.96,73.007,73.007,0,0,0,2.848-9.824c.128-.7.416-1.92.64-2.72l-3.616-.736a48.663,48.663,0,0,1-3.1,12Zm15.776-.992A93.342,93.342,0,0,1-253.728-.16l3.68-1.184c-.9-3.04-2.592-8.032-3.808-11.072-1.28-3.232-3.392-7.872-4.7-10.272l-3.3,1.088a85.38,85.38,0,0,1,4.64,10.3Zm38.816-9.472a7.026,7.026,0,0,1-2.4.32h-6.464V-23.2a23.383,23.383,0,0,1,.192-2.656h-3.872a14.731,14.731,0,0,1,.224,2.656v2.752h-6.98a30.406,30.406,0,0,1-3.1-.16,23.818,23.818,0,0,1,.128,2.592v5.6c0,.7-.064,1.632-.128,2.3h3.488a14.686,14.686,0,0,1-.128-2.112v-5.248h17.024A22.2,22.2,0,0,1-223.36-8.64a16.454,16.454,0,0,1-8.064,6.016,20.092,20.092,0,0,1-3.84,1.056l2.624,3.04c5.76-1.568,10.368-4.864,12.832-9.312a29.765,29.765,0,0,0,3.072-9.376,12.026,12.026,0,0,1,.544-2.176Zm32.8-2.3a9.706,9.706,0,0,1-2.784.32h-11.872a34.238,34.238,0,0,1-3.488-.224v3.616c.512-.032,2.24-.192,3.488-.192h11.744A26.327,26.327,0,0,1-193.6-11.1a35.956,35.956,0,0,1-13.152,9.376L-204.16.96a40.954,40.954,0,0,0,12.32-9.184,69.215,69.215,0,0,1,8.448,9.344l2.848-2.5a85.053,85.053,0,0,0-9.152-9.376,43.8,43.8,0,0,0,5.248-9.12,11.047,11.047,0,0,1,.928-1.664Zm19.9,18.016c-1.28,0-2.912-1.664-2.912-5.312,0-3.9,3.328-8.864,9.024-9.792A43.9,43.9,0,0,1-161.312-12c-1.472,4.9-3.008,6.944-4.388,6.944Zm8.512,6.112c7.744-1.088,12-5.7,12-12.32,0-6.656-4.832-11.968-12.448-11.968-7.936,0-14.176,6.112-14.176,13.152,0,5.28,2.88,8.832,6.016,8.832,3.168,0,5.792-3.616,7.712-10.08a72.525,72.525,0,0,0,1.888-8.9c4.864.608,7.616,4.224,7.616,8.832,0,5.12-3.616,8.064-7.68,8.992a17.945,17.945,0,0,1-2.816.448Zm36.768-26.272a49.158,49.158,0,0,0,7.1,10.176h-19.264A35.961,35.961,0,0,0-125.8-25.368l-3.168-.928A27.158,27.158,0,0,1-138.44-14.36,22.32,22.32,0,0,1-135.9-12a27.27,27.27,0,0,0,2.912-2.592v2.464H-127c-.672,5.056-2.368,9.728-9.728,12.16a9.393,9.393,0,0,1,1.888,2.656c8.224-3.008,10.272-8.608,11.072-14.816h7.392c-.32,7.424-.736,10.432-1.472,11.2a1.715,1.715,0,0,1-1.376.448c-.736,0-2.56-.032-4.512-.224a6.825,6.825,0,0,1,.992,3.008,36.074,36.074,0,0,0,4.96,0,3.45,3.45,0,0,0,2.62-1.312c1.088-1.248,1.536-4.96,1.952-14.656.032-.288.032-.96.032-1.248a29.229,29.229,0,0,0,2.688,2.624,16.367,16.367,0,0,1,2.5-2.656,35.432,35.432,0,0,1-9.536-11.424ZM-73.7-24.1h-7.712v-2.78H-84.42v2.78h-7.3v2.24H-73.7Zm-7.712,3.648a28.171,28.171,0,0,1,6.176,3.712l1.984-1.536a33.03,33.03,0,0,0-6.208-3.552Zm-5.34-1.248a16.517,16.517,0,0,1-5.856,3.3,15.463,15.463,0,0,1,1.952,1.856,18.806,18.806,0,0,0,6.432-4.384Zm-6.5-4.1h-7.968v2.336h7.968Zm.9,4.224H-102.72V-19.2h10.368ZM-95.616-6.24v4.608H-99.1V-6.24Zm2.4-2.4h-8.256V2.112H-99.1V.7h5.888Zm-8.192-1.984h8.224V-12.96h-8.224Zm0-4.288h8.224v-2.3h-8.224Zm16.576,4.576h3.968v1.5h-3.968Zm0-3.424h3.968v1.472h-3.968Zm9.376,7.488a36.877,36.877,0,0,1-3.392,2.208,14.057,14.057,0,0,1-1.568-2.688h7.136v-2.08h-4.864v-1.5h3.456v-1.952h-3.456V-13.76h4.064v-2.016h-4.064v-2.208h-2.72v2.208h-3.968v-2.208h-2.656v2.208H-91.2v2.016h3.712v1.472H-90.5v1.952h3.008v1.5H-92.26v2.08h5.728A23.506,23.506,0,0,1-93-3.748a18.106,18.106,0,0,1,1.6,1.984,29.322,29.322,0,0,0,3.264-1.472V-.48c-1.088.16-2.112.32-2.976.448l.736,2.3c2.784-.448,6.4-1.12,9.856-1.76L-80.7-1.664c-1.664.288-3.328.544-4.9.8V-4.736a16.653,16.653,0,0,0,2.4-2.016h.256c1.5,4.384,4.288,7.68,8.384,9.248A8.766,8.766,0,0,1-72.832.352a12.553,12.553,0,0,1-4.7-2.848,28.392,28.392,0,0,0,3.708-2.2Zm15.3-20.512A34.429,34.429,0,0,1-68.1-14.528a28.238,28.238,0,0,1,1.632,3.008,37.432,37.432,0,0,0,3.136-3.712V2.432h2.816V-19.52a51.033,51.033,0,0,0,3.136-6.368Zm13.5,25.408V-8.64h7.232v-2.816h-7.232v-6.336h8.16V-20.64H-46.08l1.408-1.568a44.108,44.108,0,0,0-7.1-4.7L-53.728-24.8a47.843,47.843,0,0,1,6.048,4.16H-57.792v2.848h8.128v6.336h-7.072V-8.64h7.072v7.264h-8.9V1.472H-38.02V-1.376ZM-28-20.96H-7.3v4.288h3.168v-7.1H-16.1v-3.072h-3.168v3.072h-11.74v7.1H-28ZM-15.04-.608c-1.92,0-2.272-.224-2.272-1.632V-7.584l13.76-1.5L-3.9-11.872l-13.408,1.44v-4.352a51.793,51.793,0,0,0,8.256-2.464L-11.42-19.68c-4,1.792-11.008,3.2-17.28,4.064a9.381,9.381,0,0,1,.9,2.56c2.368-.288,4.832-.64,7.264-1.088v4.064L-31.808-8.864l.384,2.848L-20.544-7.2v4.992c0,3.552,1.152,4.544,5.28,4.544h6.656C-4.928,2.336-4,.928-3.52-4A8.127,8.127,0,0,1-6.5-5.216C-6.72-1.344-7.008-.608-8.8-.608ZM13.888-12.16A3.715,3.715,0,0,0,17.6-8.448a3.715,3.715,0,0,0,3.712-3.712A3.715,3.715,0,0,0,17.6-15.872a3.715,3.715,0,0,0-3.712,3.712Zm41.7-13.056a49.158,49.158,0,0,0,7.1,10.176H43.424a35.961,35.961,0,0,0,6.784-10.336L47.04-26.3a27.157,27.157,0,0,1-9.472,11.936A22.319,22.319,0,0,1,40.1-12a27.27,27.27,0,0,0,2.912-2.592v2.464H49C48.32-7.072,46.624-2.4,39.264.032a9.393,9.393,0,0,1,1.888,2.656C49.376-.32,51.424-5.92,52.224-12.128h7.392C59.3-4.7,58.88-1.7,58.144-.928a1.715,1.715,0,0,1-1.376.448c-.736,0-2.56-.032-4.512-.224a6.825,6.825,0,0,1,.992,3,36.073,36.073,0,0,0,4.96,0A3.45,3.45,0,0,0,60.832.992c1.088-1.248,1.536-4.96,1.952-14.656.032-.288.032-.96.032-1.248A29.23,29.23,0,0,0,65.5-12.288,16.367,16.367,0,0,1,68-14.944a35.432,35.432,0,0,1-9.536-11.424ZM102.3-24.1H94.592v-2.78H91.584v2.78h-7.3v2.24H102.3Zm-7.712,3.648a28.171,28.171,0,0,1,6.176,3.712l1.984-1.536a33.029,33.029,0,0,0-6.208-3.552ZM89.248-21.7a16.517,16.517,0,0,1-5.856,3.3,15.463,15.463,0,0,1,1.952,1.856,18.806,18.806,0,0,0,6.432-4.384Zm-6.5-4.1H74.784v2.336h7.968Zm.9,4.224H73.28V-19.2H83.648ZM80.384-6.24v4.608H76.9V-6.24Zm2.4-2.4H74.528V2.112H76.9V.7h5.888Zm-8.192-1.984h8.224V-12.96H74.592Zm0-4.288h8.224v-2.3H74.592Zm16.576,4.576h3.968v1.5H91.168Zm0-3.424h3.968v1.472H91.168Zm9.376,7.488a36.877,36.877,0,0,1-3.392,2.208,14.057,14.057,0,0,1-1.568-2.688h7.136v-2.08H97.856v-1.5h3.456v-1.952H97.856V-13.76h4.064v-2.016H97.856v-2.208h-2.72v2.208H91.168v-2.208H88.512v2.208H84.8v2.016h3.712v1.472H85.5v1.952h3.008v1.5H83.744v2.08h5.728a23.506,23.506,0,0,1-6.464,3.008,18.105,18.105,0,0,1,1.6,1.984,29.321,29.321,0,0,0,3.264-1.472V-.48c-1.088.16-2.112.32-2.976.448l.736,2.3c2.784-.448,6.4-1.12,9.856-1.76L95.3-1.664c-1.664.288-3.328.544-4.9.8V-4.736a16.653,16.653,0,0,0,2.4-2.016h.256c1.5,4.384,4.288,7.68,8.384,9.248A8.766,8.766,0,0,1,103.168.352a12.553,12.553,0,0,1-4.7-2.848,28.392,28.392,0,0,0,3.708-2.2ZM115.3-16.512h3.552v-2.816H115.3v-7.1h-2.784v7.1H108.58v2.816h3.936V-6.88c-1.6.64-3.072,1.216-4.224,1.632l1.152,2.976c2.848-1.248,6.5-2.912,9.856-4.544l-.672-2.624c-1.088.448-2.24.928-3.328,1.408ZM126.08-.8c-2.048,0-2.4-.352-2.4-2.144v-10.5l3.584-1.536v10.3h2.784V-16.16l3.712-1.6c0,4.9-.064,7.872-.192,8.48-.128.672-.416.8-.832.8-.32,0-1.184,0-1.856-.032a9.19,9.19,0,0,1,.672,2.528,9.861,9.861,0,0,0,3.072-.352c.992-.256,1.536-.96,1.7-2.3.192-1.248.256-5.6.256-11.584l.128-.512-2.08-.8-.512.416-.576.448L130.048-19.2v-7.616h-2.784v8.8l-3.584,1.5v-7.3h-2.816v8.48l-3.328,1.408,1.12,2.656,2.208-.96v9.248c0,3.84,1.12,4.832,5.056,4.832h7.328c3.488,0,4.384-1.44,4.8-5.856a7.939,7.939,0,0,1-2.624-1.12c-.256,3.488-.576,4.32-2.336,4.32Zm35.712-3.648c-.032-1.5-.1-4.032-.128-5.824,2.208-1.024,4.256-1.888,5.888-2.5.96-.384,2.336-.9,3.2-1.152l-1.252-2.94c-1.024.512-1.952.928-3.008,1.408-1.5.672-3.136,1.344-5.088,2.272a4.172,4.172,0,0,0-4.224-2.688,9.334,9.334,0,0,0-4.032.928,23.136,23.136,0,0,0,2.4-4.128,96.856,96.856,0,0,0,10.432-.864V-22.88a73.269,73.269,0,0,1-9.376.928c.448-1.376.7-2.592.9-3.424l-3.3-.256a19.107,19.107,0,0,1-.736,3.808h-1.856a46.473,46.473,0,0,1-5.44-.352V-19.2c1.76.128,3.968.192,5.28.192h.928a33,33,0,0,1-7.168,9.248l2.72,2.048a34.083,34.083,0,0,1,2.912-3.392,8.05,8.05,0,0,1,5.248-2.272,2.469,2.469,0,0,1,2.56,1.568C155-9.952,151.2-7.488,151.2-3.584c0,3.936,3.68,5.024,8.416,5.024a80.621,80.621,0,0,0,8.8-.544l.1-3.232a53.363,53.363,0,0,1-8.8.832c-3.2,0-5.248-.416-5.248-2.592,0-1.856,1.7-3.3,4.384-4.8,0,1.568-.032,3.36-.128,4.448Zm24.576-8.384h14.464v2.752H186.368Zm0-5.184h14.464v2.72H186.368Zm0-5.12h14.464v2.688H186.368ZM199.936-.576c-1.28,0-1.5-.128-1.5-1.088V-7.456h5.408V-25.792H183.488V-7.456h4.128c-.608,3.808-2.176,6.144-8.736,7.424a9.216,9.216,0,0,1,1.7,2.624c7.488-1.7,9.472-4.96,10.208-10.048H195.4v5.792c0,3.008.832,3.9,4.192,3.9h4.736c2.88,0,3.712-1.184,4.064-5.984A8.381,8.381,0,0,1,205.6-4.96c-.128,3.872-.32,4.384-1.568,4.384ZM227.3-21.888v3.232a80.008,80.008,0,0,0,13.28,0V-21.92a59.381,59.381,0,0,1-13.28.032ZM226.208-8.96a19.385,19.385,0,0,0-.544,3.9c0,3.072,2.5,4.928,7.872,4.928a42.881,42.881,0,0,0,8.032-.64L241.5-4.16a35.616,35.616,0,0,1-7.9.832c-3.84,0-4.9-1.12-4.9-2.56a12.04,12.04,0,0,1,.384-2.816ZM218.24-24.48a23.5,23.5,0,0,1-.288,2.624,90.14,90.14,0,0,0-1.376,12.64,39.571,39.571,0,0,0,1.216,10.24l2.88-.192c-.032-.384-.064-.864-.064-1.184a5.837,5.837,0,0,1,.16-1.44,62.715,62.715,0,0,1,2.272-7.392l-1.664-1.28c-.48,1.152-1.12,2.688-1.6,3.968a23.573,23.573,0,0,1-.224-3.328A75.032,75.032,0,0,1,221.12-21.76c.128-.576.448-1.824.672-2.432Zm59.36-.512H262.08v2.848H277.6ZM256.448-26.88a28.955,28.955,0,0,1-7.3,6.88,13.6,13.6,0,0,1,1.7,2.4,42.233,42.233,0,0,0,8.448-8.1Zm1.248,6.848a33.965,33.965,0,0,1-8.864,9.6A16.5,16.5,0,0,1,250.88-7.9a42.353,42.353,0,0,0,3.168-2.88V2.592h2.976V-14.08a43.181,43.181,0,0,0,3.488-4.9Zm20.8,3.776h-17.76v2.848h10.112V-1.12c0,.448-.192.608-.8.608-.576.032-2.72.032-4.768-.032a11.937,11.937,0,0,1,.96,2.976c2.976,0,4.864-.032,6.048-.48,1.216-.48,1.6-1.344,1.6-3.04v-12.32H278.5Zm12.064-3.2c2.528.224,5.248.352,8.512.352,2.944,0,6.624-.224,8.8-.384v-3.328c-2.368.256-5.76.448-8.832.448a80.205,80.205,0,0,1-8.48-.384Zm-1.376,9.472a19.308,19.308,0,0,0-.64,4.48c0,4.128,3.68,6.4,10.464,6.4A47.217,47.217,0,0,0,309.92-.192l-.032-3.488a43.36,43.36,0,0,1-10.976,1.216c-4.832,0-7.04-1.568-7.04-3.776a12.208,12.208,0,0,1,.576-3.456Zm51.68-.64c0,5.344-5.248,8.16-13.024,9.12l1.86,3.1c8.448-1.248,14.656-5.28,14.656-12.1,0-4.7-3.424-7.392-8.16-7.392a43.17,43.17,0,0,0-9.536,1.5,26.539,26.539,0,0,1-3.136.48l.992,3.648a29.567,29.567,0,0,1,2.848-.992,28.775,28.775,0,0,1,8.448-1.6c3.132.008,5.052,1.8,5.052,4.232ZM327.936-25.312l-.48,3.04c3.616.64,10.208,1.248,13.792,1.5l.512-3.1a93.091,93.091,0,0,1-13.824-1.44Z" transform="translate(358.53 32.91)" fill="#fff"/>
    </g>
  </g>
</svg>
