<svg xmlns="http://www.w3.org/2000/svg" xmlns:xlink="http://www.w3.org/1999/xlink" width="287.072" height="281.194" viewBox="0 0 287.072 281.194">
  <defs>
    <filter id="パス_17370" x="0" y="0" width="287.072" height="32.784" filterUnits="userSpaceOnUse">
      <feOffset dy="3" input="SourceAlpha"/>
      <feGaussianBlur stdDeviation="3" result="blur"/>
      <feFlood flood-opacity="0.502"/>
      <feComposite operator="in" in2="blur"/>
      <feComposite in="SourceGraphic"/>
    </filter>
    <filter id="パス_17369" x="50.043" y="243.02" width="181.416" height="38.174" filterUnits="userSpaceOnUse">
      <feOffset dy="3" input="SourceAlpha"/>
      <feGaussianBlur stdDeviation="3" result="blur-2"/>
      <feFlood flood-opacity="0.502"/>
      <feComposite operator="in" in2="blur-2"/>
      <feComposite in="SourceGraphic"/>
    </filter>
    <filter id="JOYO_TSUKUBA_OFFICE" x="9.064" y="41.456" width="272.744" height="194.728" filterUnits="userSpaceOnUse">
      <feOffset dy="3" input="SourceAlpha"/>
      <feGaussianBlur stdDeviation="3" result="blur-3"/>
      <feFlood flood-opacity="0.502"/>
      <feComposite operator="in" in2="blur-3"/>
      <feComposite in="SourceGraphic"/>
    </filter>
  </defs>
  <g id="text" transform="translate(19698.761 13400.511)">
    <g transform="matrix(1, 0, 0, 1, -19698.76, -13400.51)" filter="url(#パス_17370)">
      <path id="パス_17370-2" data-name="パス 17370" d="M-129.376-4.8c-.288-.352-1.5-1.616-2.032-2.08v-.784h1.712v-.688h8.992v-.976h-3.84v-.7h3.088v-.928h-3.088v-.688h3.472v-.96h-3.472v-.816h-1.488v.816H-129.3v.96h3.264v.688h-2.944v.928h2.944v.7h-3.76v.272h-1.616v-2.432a16.083,16.083,0,0,0,1.968-.592l-1.024-1.136a22.288,22.288,0,0,1-4.832,1.168,4.586,4.586,0,0,1,.432,1.152c.64-.08,1.328-.176,2.016-.3v2.144h-2.3v1.392h2.192a16.4,16.4,0,0,1-2.608,4.784,8.077,8.077,0,0,1,.736,1.376,16.737,16.737,0,0,0,1.984-3.616V1.232h1.44V-5.36a17.407,17.407,0,0,1,1.168,1.728Zm6.432-1.04h-4.464V-6.7h4.464Zm0,1.792h-4.464v-.88h4.464Zm0,1.792h-4.464v-.88h4.464Zm1.392-5.408h-7.2V-1.3h1.7A10.958,10.958,0,0,1-130.528.368a7.615,7.615,0,0,1,.944.96,13.305,13.305,0,0,0,3.808-1.92l-1.1-.7h5.328Zm-2.992,7.088c.976.608,2.1,1.376,2.72,1.856l1.3-.72c-.736-.5-1.968-1.248-3.024-1.856Zm11.76-8.928-.288.064h-4.384v1.5h3.84a10.721,10.721,0,0,1-4.288,6.56,6.014,6.014,0,0,1,1.216,1.168c2.3-1.616,4.144-4.672,4.912-8.928ZM-104.8-10.9a27.768,27.768,0,0,1-3.536,3.776,21.91,21.91,0,0,1-1.232-3.44v-2.848h-1.568V-.752c0,.288-.128.4-.448.4-.3.016-1.328.016-2.416-.032a6.991,6.991,0,0,1,.576,1.648,8.819,8.819,0,0,0,3.04-.3c.576-.272.816-.736.816-1.712v-5.9A12.59,12.59,0,0,0-104.032.08,6.493,6.493,0,0,1-102.88-1.3,10.706,10.706,0,0,1-107.7-5.9a36.855,36.855,0,0,0,4.272-4.016Zm7.5,5.744a20.9,20.9,0,0,1-2.48,4.384l1.744.736a22.885,22.885,0,0,0,2.352-4.48,36.5,36.5,0,0,0,1.424-4.912c.064-.352.208-.96.32-1.36l-1.808-.368A24.333,24.333,0,0,1-97.3-5.152Zm7.888-.5A46.672,46.672,0,0,1-87.664-.08l1.84-.592c-.448-1.52-1.3-4.016-1.9-5.536-.64-1.616-1.7-3.936-2.352-5.136l-1.648.544A42.688,42.688,0,0,1-89.408-5.648ZM-70-10.384a3.513,3.513,0,0,1-1.2.16h-3.232V-11.6a11.687,11.687,0,0,1,.1-1.328h-1.936A7.366,7.366,0,0,1-76.16-11.6v1.376h-3.488A15.2,15.2,0,0,1-81.2-10.3a11.911,11.911,0,0,1,.064,1.3v2.8c0,.352-.032.816-.064,1.152h1.744a7.343,7.343,0,0,1-.064-1.056V-8.736h8.512A11.1,11.1,0,0,1-72.48-4.32a8.227,8.227,0,0,1-4.032,3.008,10.045,10.045,0,0,1-1.92.528L-77.12.736A10.2,10.2,0,0,0-70.7-3.92a14.882,14.882,0,0,0,1.536-4.688A6.015,6.015,0,0,1-68.9-9.7Zm16.4-1.152a4.853,4.853,0,0,1-1.392.16h-5.936a17.119,17.119,0,0,1-1.744-.112V-9.68c.256-.016,1.12-.1,1.744-.1h5.872A13.164,13.164,0,0,1-57.6-5.552,17.978,17.978,0,0,1-64.176-.864L-62.88.48a20.477,20.477,0,0,0,6.16-4.592A34.608,34.608,0,0,1-52.5.56l1.424-1.248a42.528,42.528,0,0,0-4.576-4.688,21.9,21.9,0,0,0,2.624-4.56,5.523,5.523,0,0,1,.464-.832Zm9.952,9.008c-.64,0-1.456-.832-1.456-2.656a5.311,5.311,0,0,1,4.512-4.9A21.952,21.952,0,0,1-41.456-6C-42.192-3.552-42.96-2.528-43.648-2.528ZM-39.392.528c3.872-.544,6-2.848,6-6.16a5.872,5.872,0,0,0-6.224-5.984A6.886,6.886,0,0,0-46.7-5.04c0,2.64,1.44,4.416,3.008,4.416,1.584,0,2.9-1.808,3.856-5.04a36.263,36.263,0,0,0,.944-4.448A4.19,4.19,0,0,1-35.088-5.7a4.551,4.551,0,0,1-3.84,4.5,8.972,8.972,0,0,1-1.408.224Zm13.312-13.92a17.215,17.215,0,0,1-3.968,6.128,14.118,14.118,0,0,1,.816,1.5,18.716,18.716,0,0,0,1.568-1.856V1.216h1.408V-9.76a25.517,25.517,0,0,0,1.568-3.184Zm6.752,12.7V-4.32h3.616V-5.728h-3.616V-8.9h4.08V-10.32H-19.04l.7-.784a22.053,22.053,0,0,0-3.552-2.352l-.976,1.056a23.921,23.921,0,0,1,3.024,2.08H-24.9V-8.9h4.064v3.168h-3.536V-4.32h3.536V-.688H-25.28V.736h10.272V-.688ZM-4.96-1.968c0,1.024-.656,1.28-1.552,1.28-1.36,0-1.952-.464-1.952-1.136,0-.656.72-1.168,2.064-1.168a8.269,8.269,0,0,1,1.424.128C-4.96-2.5-4.96-2.192-4.96-1.968Zm6.032.5A12.615,12.615,0,0,0-3.456-3.92c-.048-.688-.1-1.44-.112-2.16,1.52-.064,2.832-.16,4.3-.336L.72-7.92c-1.36.192-2.752.336-4.32.416V-9.52c1.5-.064,2.832-.208,3.984-.32L.368-11.3a38.457,38.457,0,0,1-3.952.4c0-.32.016-.608.016-.784.016-.432.064-.784.1-1.072h-1.7A10.014,10.014,0,0,1-5.1-11.744v.9H-5.92a24.067,24.067,0,0,1-3.584-.3V-9.7a31.858,31.858,0,0,0,3.6.24h.784v2h-.816a27.086,27.086,0,0,1-3.9-.3l-.016,1.5c1.1.128,2.9.208,3.9.208h.864c.016.576.032,1.216.064,1.808-.384-.032-.768-.064-1.168-.064-2.368,0-3.792,1.056-3.792,2.56,0,1.6,1.3,2.48,3.7,2.48,2.064,0,2.928-1.1,2.928-2.3,0-.224-.016-.5-.016-.816A11.871,11.871,0,0,1,.16-.08Zm7.6-9.776L6.736-11.28a7.967,7.967,0,0,1,.112,1.488,42.063,42.063,0,0,0,.176,4.24C7.456-1.376,8.928.16,10.528.16,11.7.16,12.672-.784,13.68-3.5L12.4-4.992c-.352,1.456-1.04,3.184-1.84,3.184-1.056,0-1.7-1.664-1.936-4.16a35.208,35.208,0,0,1-.112-3.568A12.864,12.864,0,0,1,8.672-11.248Zm8.112.4L15.2-10.32c1.6,1.888,2.512,5.3,2.768,8.016l1.648-.64A16.769,16.769,0,0,0,16.784-10.848ZM32.1-2.224c-.016-.752-.048-2.016-.064-2.912,1.1-.512,2.128-.944,2.944-1.248.48-.192,1.168-.448,1.6-.576l-.624-1.472c-.512.256-.976.464-1.5.7-.752.336-1.568.672-2.544,1.136a2.086,2.086,0,0,0-2.112-1.344,4.667,4.667,0,0,0-2.016.464,11.567,11.567,0,0,0,1.2-2.064,48.428,48.428,0,0,0,5.216-.432V-11.44a36.634,36.634,0,0,1-4.688.464c.224-.688.352-1.3.448-1.712L28.3-12.816a9.553,9.553,0,0,1-.368,1.9h-.928a23.238,23.238,0,0,1-2.72-.176V-9.6c.88.064,1.984.1,2.64.1h.464A16.5,16.5,0,0,1,23.808-4.88l1.36,1.024a17.04,17.04,0,0,1,1.456-1.7,4.025,4.025,0,0,1,2.624-1.136,1.234,1.234,0,0,1,1.28.784C28.7-4.976,26.8-3.744,26.8-1.792,26.8.176,28.64.72,31.008.72a40.309,40.309,0,0,0,4.4-.272l.048-1.616a26.681,26.681,0,0,1-4.4.416c-1.6,0-2.624-.208-2.624-1.3,0-.928.848-1.648,2.192-2.4,0,.784-.016,1.68-.064,2.224ZM44.384-6.416h7.232V-5.04H44.384Zm0-2.592h7.232v1.36H44.384Zm0-2.56h7.232v1.344H44.384ZM51.168-.288c-.64,0-.752-.064-.752-.544v-2.9h2.7V-12.9H42.944v9.168h2.064c-.3,1.9-1.088,3.072-4.368,3.712A4.608,4.608,0,0,1,41.488,1.3c3.744-.848,4.736-2.48,5.1-5.024h2.3v2.9c0,1.5.416,1.952,2.1,1.952H53.36c1.44,0,1.856-.592,2.032-2.992A4.19,4.19,0,0,1,54-2.48c-.064,1.936-.16,2.192-.784,2.192Zm13.68-10.656v1.616a40,40,0,0,0,6.64,0V-10.96A29.691,29.691,0,0,1,64.848-10.944ZM64.3-4.48a9.693,9.693,0,0,0-.272,1.952c0,1.536,1.248,2.464,3.936,2.464a21.44,21.44,0,0,0,4.016-.32l-.032-1.7A17.808,17.808,0,0,1,68-1.664c-1.92,0-2.448-.56-2.448-1.28a6.02,6.02,0,0,1,.192-1.408ZM60.32-12.24a11.751,11.751,0,0,1-.144,1.312,45.071,45.071,0,0,0-.688,6.32A19.786,19.786,0,0,0,60.1.512l1.44-.1C61.52.224,61.5-.016,61.5-.176a2.919,2.919,0,0,1,.08-.72,31.358,31.358,0,0,1,1.136-3.7l-.832-.64c-.24.576-.56,1.344-.8,1.984a11.788,11.788,0,0,1-.112-1.664,37.517,37.517,0,0,1,.784-5.968c.064-.288.224-.912.336-1.216ZM90-12.5H82.24v1.424H90ZM79.424-13.44A14.478,14.478,0,0,1,75.776-10a6.8,6.8,0,0,1,.848,1.2,21.117,21.117,0,0,0,4.224-4.048Zm.624,3.424a16.982,16.982,0,0,1-4.432,4.8A8.247,8.247,0,0,1,76.64-3.952a21.177,21.177,0,0,0,1.584-1.44V1.3h1.488V-7.04a21.589,21.589,0,0,0,1.744-2.448Zm10.4,1.888h-8.88V-6.7h5.056V-.56c0,.224-.1.3-.4.3-.288.016-1.36.016-2.384-.016a5.969,5.969,0,0,1,.48,1.488,10,10,0,0,0,3.024-.24c.608-.24.8-.672.8-1.52V-6.7h2.3Zm6.032-1.6c1.264.112,2.624.176,4.256.176,1.472,0,3.312-.112,4.4-.192v-1.664c-1.184.128-2.88.224-4.416.224a40.1,40.1,0,0,1-4.24-.192Zm-.688,4.736a9.653,9.653,0,0,0-.32,2.24c0,2.064,1.84,3.2,5.232,3.2A23.608,23.608,0,0,0,106.16-.1l-.016-1.744a21.68,21.68,0,0,1-5.488.608c-2.416,0-3.52-.784-3.52-1.888a6.1,6.1,0,0,1,.288-1.728Zm25.84-.32c0,2.672-2.624,4.08-6.512,4.56L116.048.8c4.224-.624,7.328-2.64,7.328-6.048,0-2.352-1.712-3.7-4.08-3.7a21.584,21.584,0,0,0-4.768.752,13.269,13.269,0,0,1-1.568.24l.5,1.824a14.783,14.783,0,0,1,1.424-.5,14.387,14.387,0,0,1,4.224-.8C120.672-7.424,121.632-6.528,121.632-5.312Zm-6.464-7.344-.24,1.52c1.808.32,5.1.624,6.9.752l.256-1.552A46.546,46.546,0,0,1,115.168-12.656Zm15.84,8.72a2.513,2.513,0,0,0-2.5,2.512,2.5,2.5,0,0,0,2.5,2.5,2.489,2.489,0,0,0,2.5-2.5A2.5,2.5,0,0,0,131.008-3.936Zm0,4.048a1.536,1.536,0,0,1-1.536-1.536,1.536,1.536,0,0,1,1.536-1.536,1.536,1.536,0,0,1,1.536,1.536A1.536,1.536,0,0,1,131.008.112Z" transform="translate(144.57 19.46)" fill="#fff"/>
    </g>
    <g transform="matrix(1, 0, 0, 1, -19698.76, -13400.51)" filter="url(#パス_17369)">
      <path id="パス_17369-2" data-name="パス 17369" d="M-73.865-11.022a36.493,36.493,0,0,0,5.874-4.73l-1.87-1.694A24.065,24.065,0,0,1-75.6-12.518a34.549,34.549,0,0,1-9.922,4l1.254,2.134a42.171,42.171,0,0,0,7.964-3.234v7.832a25.493,25.493,0,0,1-.132,2.6h2.728a16.544,16.544,0,0,1-.154-2.6ZM-47.6-15.07l-1.54.66a23.953,23.953,0,0,1,2.024,3.542l1.584-.7C-46.035-12.584-47.025-14.212-47.6-15.07Zm2.882-1.144-1.54.7a22.467,22.467,0,0,1,2.112,3.476l1.562-.748A30.385,30.385,0,0,0-44.715-16.214ZM-61.963-5.984l2.046,2.068c.352-.506.858-1.21,1.32-1.848.946-1.21,2.684-3.52,3.674-4.73.682-.858,1.034-.858,1.87-.154a58.887,58.887,0,0,1,4.2,4.422c1.364,1.584,3.366,3.916,4.84,5.808l1.826-1.98c-1.584-1.87-3.872-4.312-5.346-5.9a51.427,51.427,0,0,0-4.532-4.51c-1.672-1.408-2.706-1.254-3.938.2-1.452,1.716-3.278,4.026-4.29,5.06C-60.929-6.93-61.369-6.49-61.963-5.984ZM-33.649-16.39l-1.606,1.716a50.016,50.016,0,0,1,5.5,4.664l1.738-1.782A44.547,44.547,0,0,0-33.649-16.39ZM-35.915-1.672-34.441.594a24.257,24.257,0,0,0,8.426-3.278,22.674,22.674,0,0,0,7.722-7.964l-1.342-2.4a20.947,20.947,0,0,1-7.634,8.294A22.859,22.859,0,0,1-35.915-1.672ZM4.279-7.788a75.917,75.917,0,0,0-9.306-3.52V-14.74c0-.77.088-1.738.154-2.464H-7.579a15.926,15.926,0,0,1,.2,2.464V-2.024A23.031,23.031,0,0,1-7.557.792h2.706a25.777,25.777,0,0,1-.176-2.816v-6.8A58.65,58.65,0,0,1,3.289-5.39ZM17.831-16.06v1.474H13.607V-16.06Zm-4.224,4.488v-1.606h4.224v1.606Zm6.138,1.5v-7.5H11.583V1.738h2.024V-10.076Zm-.528,4.994v-2.09h2.618v2.09Zm7.172,1.694V-5.082H23.661v-2.09h2.288V-8.8H15.279v1.628h2.178v2.09H14.883v1.694h2.508a5.329,5.329,0,0,1-2.42,3.85,6.965,6.965,0,0,1,1.32,1.21,7.087,7.087,0,0,0,2.882-5.06h2.662v4.73h1.826v-4.73ZM23.4-11.528v-1.65h4.356v1.65Zm4.356-4.532v1.474H23.4V-16.06Zm2.024-1.518H21.439v7.546h6.314v9.24c0,.33-.11.44-.44.462-.352,0-1.474,0-2.6-.022a6.6,6.6,0,0,1,.66,2.024A8.658,8.658,0,0,0,28.831,1.3c.726-.352.946-.946.946-2.068Zm9.68-.792A24.452,24.452,0,0,1,34.243-9.9a15.919,15.919,0,0,1,1.122,2.068,25.532,25.532,0,0,0,1.892-2.288V1.694h1.936v-14.85A35.51,35.51,0,0,0,41.371-17.8Zm4.95,15.818h3.366V-.836H44.407Zm3.366-4.73H44.407v-1.65h3.366Zm0,3.212H44.407V-5.764h3.366Zm7.04,3.234H49.731V-2.552h4.2V-4.07h-4.2V-5.764h4.2V-7.282h-4.2v-1.65h4.84v-1.606h-4.73c.33-.594.638-1.276.946-1.914l-2.112-.484a16.018,16.018,0,0,1-.792,2.4h-3.41a18.464,18.464,0,0,0,.99-1.98l-1.848-.528H54.241V-17.6h-1.98v2.816H48.939V-18.3H46.915v3.52H43.791V-17.6h-1.87v4.554h1.606A15,15,0,0,1,39.369-7.37a13.79,13.79,0,0,1,1.54,1.408,13.751,13.751,0,0,0,1.54-1.628V1.672h1.958V.792H54.813ZM70.037-7.282v-5.324h5.72v5.324Zm-7.832,0v-5.324h5.7v5.324Zm7.832-7.326v-3.828H67.9v3.828H60.159V-3.982h2.046v-1.3h5.7v7h2.134v-7h5.72v1.188h2.134V-14.608Z" transform="translate(144.57 267.46)" fill="#fff"/>
    </g>
    <g transform="matrix(1, 0, 0, 1, -19698.76, -13400.51)" filter="url(#JOYO_TSUKUBA_OFFICE)">
      <path id="JOYO_TSUKUBA_OFFICE-2" data-name="JOYO TSUKUBA OFFICE" d="M-58.408.728c8.4,0,11.984-5.936,11.984-13.328V-41.216h-6.5v28c0,6.048-2.072,8.288-6.216,8.288-2.688,0-4.928-1.288-6.664-4.48l-4.536,3.3C-67.76-1.568-63.952.728-58.408.728Zm38.3,0C-9.52.728-2.128-7.5-2.128-20.776S-9.52-42-20.1-42s-17.92,7.952-17.92,21.224S-30.688.728-20.1.728Zm0-5.656c-6.832,0-11.256-6.16-11.256-15.848S-26.936-36.344-20.1-36.344s11.312,5.88,11.312,15.568S-13.272-4.928-20.1-4.928ZM11.984,0h6.5V-15.624L30.912-41.216H24.136L19.32-30.3c-1.232,3.08-2.576,5.936-3.92,9.072h-.224c-1.4-3.136-2.576-5.992-3.864-9.072l-4.76-10.92H-.392L11.984-15.624ZM50.9.728C61.488.728,68.88-7.5,68.88-20.776S61.488-42,50.9-42s-17.92,7.952-17.92,21.224S40.32.728,50.9.728Zm0-5.656c-6.832,0-11.256-6.16-11.256-15.848S44.072-36.344,50.9-36.344s11.312,5.88,11.312,15.568S57.736-4.928,50.9-4.928ZM-114.408,67h6.5V31.216H-95.76V25.784H-126.5v5.432h12.1Zm35.336.728c9.016,0,14.5-5.376,14.5-11.984,0-6.048-3.528-9.072-8.4-11.144l-5.656-2.408c-3.36-1.344-6.664-2.688-6.664-6.216,0-3.3,2.744-5.32,6.944-5.32a13.127,13.127,0,0,1,9.072,3.7l3.416-4.144A17.654,17.654,0,0,0-78.344,25C-86.184,25-91.9,29.872-91.9,36.368c0,5.992,4.424,9.128,8.4,10.808l5.712,2.464c3.808,1.68,6.608,2.856,6.608,6.608,0,3.472-2.8,5.824-7.784,5.824A15.979,15.979,0,0,1-89.936,57.2l-3.808,4.48A20.562,20.562,0,0,0-79.072,67.728Zm37.408,0c9.128,0,15.288-4.984,15.288-18.424V25.784h-6.272V49.752c0,9.3-3.808,12.32-9.016,12.32-5.152,0-8.848-3.024-8.848-12.32V25.784h-6.5V49.3C-57.008,62.744-50.792,67.728-41.664,67.728ZM-15.736,67h6.5V54.568l6.328-7.728L8.736,67H15.96L1.064,41.688l12.768-15.9H6.608L-9.072,45.272H-9.24V25.784h-6.5Zm51.3.728c9.128,0,15.288-4.984,15.288-18.424V25.784H44.576V49.752c0,9.3-3.808,12.32-9.016,12.32-5.152,0-8.848-3.024-8.848-12.32V25.784h-6.5V49.3C20.216,62.744,26.432,67.728,35.56,67.728ZM61.488,67H75.264c9.128,0,15.792-3.92,15.792-12.1,0-5.6-3.416-8.792-8.12-9.8v-.28c3.7-1.232,5.88-4.984,5.88-8.9,0-7.448-6.1-10.136-14.56-10.136H61.488Zm6.5-24.024V30.824H73.7c5.824,0,8.736,1.624,8.736,5.936,0,3.864-2.632,6.216-8.9,6.216Zm0,18.928v-14h6.552c6.552,0,10.136,2.016,10.136,6.664,0,5.04-3.7,7.336-10.136,7.336Zm37.072-11.76,1.68-5.544c1.344-4.48,2.632-9.016,3.808-13.72h.224c1.288,4.648,2.52,9.24,3.92,13.72l1.624,5.544ZM121.352,67h6.888L114.576,25.784h-7.5L93.408,67h6.608l3.528-11.76H117.88ZM-75.236,134.728c10.584,0,17.976-8.232,17.976-21.5S-64.652,92-75.236,92s-17.92,7.952-17.92,21.224S-85.82,134.728-75.236,134.728Zm0-5.656c-6.832,0-11.256-6.16-11.256-15.848s4.424-15.568,11.256-15.568,11.312,5.88,11.312,15.568S-68.4,129.072-75.236,129.072ZM-48.692,134h6.5V116.248h15.232v-5.432H-42.2v-12.6h17.92V92.784H-48.692Zm31.7,0h6.5V116.248H4.732v-5.432H-10.5v-12.6H7.42V92.784H-17Zm31.7,0h6.5V92.784H14.7Zm33.376.728A16.275,16.275,0,0,0,60.9,128.792L57.428,124.7a12.01,12.01,0,0,1-9.128,4.368c-7.28,0-11.872-5.992-11.872-15.792,0-9.688,4.928-15.624,12.04-15.624a10.963,10.963,0,0,1,8.064,3.7l3.528-4.144A15.884,15.884,0,0,0,48.356,92c-10.416,0-18.592,8.064-18.592,21.5C29.764,127,37.716,134.728,48.076,134.728ZM68.18,134H93.156v-5.488H74.676V115.184H89.8V109.7H74.676V98.216H92.54V92.784H68.18Z" transform="translate(144.57 89.46)" fill="#fff"/>
    </g>
  </g>
</svg>
