<svg xmlns="http://www.w3.org/2000/svg" xmlns:xlink="http://www.w3.org/1999/xlink" width="291.929" height="168.238" viewBox="0 0 291.929 168.238">
  <defs>
    <filter id="パス_17314" x="0" y="0" width="287.072" height="32.784" filterUnits="userSpaceOnUse">
      <feOffset dy="3" input="SourceAlpha"/>
      <feGaussianBlur stdDeviation="3" result="blur"/>
      <feFlood flood-opacity="0.502"/>
      <feComposite operator="in" in2="blur"/>
      <feComposite in="SourceGraphic"/>
    </filter>
    <filter id="パス_17313" x="17.264" y="129.932" width="253.443" height="38.307" filterUnits="userSpaceOnUse">
      <feOffset dy="3" input="SourceAlpha"/>
      <feGaussianBlur stdDeviation="3" result="blur-2"/>
      <feFlood flood-opacity="0.502"/>
      <feComposite operator="in" in2="blur-2"/>
      <feComposite in="SourceGraphic"/>
    </filter>
    <filter id="パス_17312" x="1.049" y="31.456" width="290.88" height="99.24" filterUnits="userSpaceOnUse">
      <feOffset dy="3" input="SourceAlpha"/>
      <feGaussianBlur stdDeviation="3" result="blur-3"/>
      <feFlood flood-opacity="0.502"/>
      <feComposite operator="in" in2="blur-3"/>
      <feComposite in="SourceGraphic"/>
    </filter>
  </defs>
  <g id="text" transform="translate(19698.762 13287.511)">
    <g transform="matrix(1, 0, 0, 1, -19698.76, -13287.51)" filter="url(#パス_17314)">
      <path id="パス_17314-2" data-name="パス 17314" d="M-129.376-4.8c-.288-.352-1.5-1.616-2.032-2.08v-.784h1.712v-.688h8.992v-.976h-3.84v-.7h3.088v-.928h-3.088v-.688h3.472v-.96h-3.472v-.816h-1.488v.816H-129.3v.96h3.264v.688h-2.944v.928h2.944v.7h-3.76v.272h-1.616v-2.432a16.083,16.083,0,0,0,1.968-.592l-1.024-1.136a22.288,22.288,0,0,1-4.832,1.168,4.586,4.586,0,0,1,.432,1.152c.64-.08,1.328-.176,2.016-.3v2.144h-2.3v1.392h2.192a16.4,16.4,0,0,1-2.608,4.784,8.077,8.077,0,0,1,.736,1.376,16.737,16.737,0,0,0,1.984-3.616V1.232h1.44V-5.36a17.407,17.407,0,0,1,1.168,1.728Zm6.432-1.04h-4.464V-6.7h4.464Zm0,1.792h-4.464v-.88h4.464Zm0,1.792h-4.464v-.88h4.464Zm1.392-5.408h-7.2V-1.3h1.7A10.958,10.958,0,0,1-130.528.368a7.615,7.615,0,0,1,.944.96,13.305,13.305,0,0,0,3.808-1.92l-1.1-.7h5.328Zm-2.992,7.088c.976.608,2.1,1.376,2.72,1.856l1.3-.72c-.736-.5-1.968-1.248-3.024-1.856Zm11.76-8.928-.288.064h-4.384v1.5h3.84a10.721,10.721,0,0,1-4.288,6.56,6.014,6.014,0,0,1,1.216,1.168c2.3-1.616,4.144-4.672,4.912-8.928ZM-104.8-10.9a27.768,27.768,0,0,1-3.536,3.776,21.91,21.91,0,0,1-1.232-3.44v-2.848h-1.568V-.752c0,.288-.128.4-.448.4-.3.016-1.328.016-2.416-.032a6.991,6.991,0,0,1,.576,1.648,8.819,8.819,0,0,0,3.04-.3c.576-.272.816-.736.816-1.712v-5.9A12.59,12.59,0,0,0-104.032.08,6.493,6.493,0,0,1-102.88-1.3,10.706,10.706,0,0,1-107.7-5.9a36.855,36.855,0,0,0,4.272-4.016Zm7.5,5.744a20.9,20.9,0,0,1-2.48,4.384l1.744.736a22.885,22.885,0,0,0,2.352-4.48,36.5,36.5,0,0,0,1.424-4.912c.064-.352.208-.96.32-1.36l-1.808-.368A24.333,24.333,0,0,1-97.3-5.152Zm7.888-.5A46.672,46.672,0,0,1-87.664-.08l1.84-.592c-.448-1.52-1.3-4.016-1.9-5.536-.64-1.616-1.7-3.936-2.352-5.136l-1.648.544A42.688,42.688,0,0,1-89.408-5.648ZM-70-10.384a3.513,3.513,0,0,1-1.2.16h-3.232V-11.6a11.687,11.687,0,0,1,.1-1.328h-1.936A7.366,7.366,0,0,1-76.16-11.6v1.376h-3.488A15.2,15.2,0,0,1-81.2-10.3a11.911,11.911,0,0,1,.064,1.3v2.8c0,.352-.032.816-.064,1.152h1.744a7.343,7.343,0,0,1-.064-1.056V-8.736h8.512A11.1,11.1,0,0,1-72.48-4.32a8.227,8.227,0,0,1-4.032,3.008,10.045,10.045,0,0,1-1.92.528L-77.12.736A10.2,10.2,0,0,0-70.7-3.92a14.882,14.882,0,0,0,1.536-4.688A6.015,6.015,0,0,1-68.9-9.7Zm16.4-1.152a4.853,4.853,0,0,1-1.392.16h-5.936a17.119,17.119,0,0,1-1.744-.112V-9.68c.256-.016,1.12-.1,1.744-.1h5.872A13.164,13.164,0,0,1-57.6-5.552,17.978,17.978,0,0,1-64.176-.864L-62.88.48a20.477,20.477,0,0,0,6.16-4.592A34.608,34.608,0,0,1-52.5.56l1.424-1.248a42.528,42.528,0,0,0-4.576-4.688,21.9,21.9,0,0,0,2.624-4.56,5.523,5.523,0,0,1,.464-.832Zm9.952,9.008c-.64,0-1.456-.832-1.456-2.656a5.311,5.311,0,0,1,4.512-4.9A21.952,21.952,0,0,1-41.456-6C-42.192-3.552-42.96-2.528-43.648-2.528ZM-39.392.528c3.872-.544,6-2.848,6-6.16a5.872,5.872,0,0,0-6.224-5.984A6.886,6.886,0,0,0-46.7-5.04c0,2.64,1.44,4.416,3.008,4.416,1.584,0,2.9-1.808,3.856-5.04a36.263,36.263,0,0,0,.944-4.448A4.19,4.19,0,0,1-35.088-5.7a4.551,4.551,0,0,1-3.84,4.5,8.972,8.972,0,0,1-1.408.224Zm13.312-13.92a17.215,17.215,0,0,1-3.968,6.128,14.118,14.118,0,0,1,.816,1.5,18.716,18.716,0,0,0,1.568-1.856V1.216h1.408V-9.76a25.517,25.517,0,0,0,1.568-3.184Zm6.752,12.7V-4.32h3.616V-5.728h-3.616V-8.9h4.08V-10.32H-19.04l.7-.784a22.053,22.053,0,0,0-3.552-2.352l-.976,1.056a23.921,23.921,0,0,1,3.024,2.08H-24.9V-8.9h4.064v3.168h-3.536V-4.32h3.536V-.688H-25.28V.736h10.272V-.688ZM-4.96-1.968c0,1.024-.656,1.28-1.552,1.28-1.36,0-1.952-.464-1.952-1.136,0-.656.72-1.168,2.064-1.168a8.269,8.269,0,0,1,1.424.128C-4.96-2.5-4.96-2.192-4.96-1.968Zm6.032.5A12.615,12.615,0,0,0-3.456-3.92c-.048-.688-.1-1.44-.112-2.16,1.52-.064,2.832-.16,4.3-.336L.72-7.92c-1.36.192-2.752.336-4.32.416V-9.52c1.5-.064,2.832-.208,3.984-.32L.368-11.3a38.457,38.457,0,0,1-3.952.4c0-.32.016-.608.016-.784.016-.432.064-.784.1-1.072h-1.7A10.014,10.014,0,0,1-5.1-11.744v.9H-5.92a24.067,24.067,0,0,1-3.584-.3V-9.7a31.858,31.858,0,0,0,3.6.24h.784v2h-.816a27.086,27.086,0,0,1-3.9-.3l-.016,1.5c1.1.128,2.9.208,3.9.208h.864c.016.576.032,1.216.064,1.808-.384-.032-.768-.064-1.168-.064-2.368,0-3.792,1.056-3.792,2.56,0,1.6,1.3,2.48,3.7,2.48,2.064,0,2.928-1.1,2.928-2.3,0-.224-.016-.5-.016-.816A11.871,11.871,0,0,1,.16-.08Zm7.6-9.776L6.736-11.28a7.967,7.967,0,0,1,.112,1.488,42.063,42.063,0,0,0,.176,4.24C7.456-1.376,8.928.16,10.528.16,11.7.16,12.672-.784,13.68-3.5L12.4-4.992c-.352,1.456-1.04,3.184-1.84,3.184-1.056,0-1.7-1.664-1.936-4.16a35.208,35.208,0,0,1-.112-3.568A12.864,12.864,0,0,1,8.672-11.248Zm8.112.4L15.2-10.32c1.6,1.888,2.512,5.3,2.768,8.016l1.648-.64A16.769,16.769,0,0,0,16.784-10.848ZM32.1-2.224c-.016-.752-.048-2.016-.064-2.912,1.1-.512,2.128-.944,2.944-1.248.48-.192,1.168-.448,1.6-.576l-.624-1.472c-.512.256-.976.464-1.5.7-.752.336-1.568.672-2.544,1.136a2.086,2.086,0,0,0-2.112-1.344,4.667,4.667,0,0,0-2.016.464,11.567,11.567,0,0,0,1.2-2.064,48.428,48.428,0,0,0,5.216-.432V-11.44a36.634,36.634,0,0,1-4.688.464c.224-.688.352-1.3.448-1.712L28.3-12.816a9.553,9.553,0,0,1-.368,1.9h-.928a23.238,23.238,0,0,1-2.72-.176V-9.6c.88.064,1.984.1,2.64.1h.464A16.5,16.5,0,0,1,23.808-4.88l1.36,1.024a17.04,17.04,0,0,1,1.456-1.7,4.025,4.025,0,0,1,2.624-1.136,1.234,1.234,0,0,1,1.28.784C28.7-4.976,26.8-3.744,26.8-1.792,26.8.176,28.64.72,31.008.72a40.309,40.309,0,0,0,4.4-.272l.048-1.616a26.681,26.681,0,0,1-4.4.416c-1.6,0-2.624-.208-2.624-1.3,0-.928.848-1.648,2.192-2.4,0,.784-.016,1.68-.064,2.224ZM44.384-6.416h7.232V-5.04H44.384Zm0-2.592h7.232v1.36H44.384Zm0-2.56h7.232v1.344H44.384ZM51.168-.288c-.64,0-.752-.064-.752-.544v-2.9h2.7V-12.9H42.944v9.168h2.064c-.3,1.9-1.088,3.072-4.368,3.712A4.608,4.608,0,0,1,41.488,1.3c3.744-.848,4.736-2.48,5.1-5.024h2.3v2.9c0,1.5.416,1.952,2.1,1.952H53.36c1.44,0,1.856-.592,2.032-2.992A4.19,4.19,0,0,1,54-2.48c-.064,1.936-.16,2.192-.784,2.192Zm13.68-10.656v1.616a40,40,0,0,0,6.64,0V-10.96A29.691,29.691,0,0,1,64.848-10.944ZM64.3-4.48a9.693,9.693,0,0,0-.272,1.952c0,1.536,1.248,2.464,3.936,2.464a21.44,21.44,0,0,0,4.016-.32l-.032-1.7A17.808,17.808,0,0,1,68-1.664c-1.92,0-2.448-.56-2.448-1.28a6.02,6.02,0,0,1,.192-1.408ZM60.32-12.24a11.751,11.751,0,0,1-.144,1.312,45.071,45.071,0,0,0-.688,6.32A19.786,19.786,0,0,0,60.1.512l1.44-.1C61.52.224,61.5-.016,61.5-.176a2.919,2.919,0,0,1,.08-.72,31.358,31.358,0,0,1,1.136-3.7l-.832-.64c-.24.576-.56,1.344-.8,1.984a11.788,11.788,0,0,1-.112-1.664,37.517,37.517,0,0,1,.784-5.968c.064-.288.224-.912.336-1.216ZM90-12.5H82.24v1.424H90ZM79.424-13.44A14.478,14.478,0,0,1,75.776-10a6.8,6.8,0,0,1,.848,1.2,21.117,21.117,0,0,0,4.224-4.048Zm.624,3.424a16.982,16.982,0,0,1-4.432,4.8A8.247,8.247,0,0,1,76.64-3.952a21.177,21.177,0,0,0,1.584-1.44V1.3h1.488V-7.04a21.589,21.589,0,0,0,1.744-2.448Zm10.4,1.888h-8.88V-6.7h5.056V-.56c0,.224-.1.3-.4.3-.288.016-1.36.016-2.384-.016a5.969,5.969,0,0,1,.48,1.488,10,10,0,0,0,3.024-.24c.608-.24.8-.672.8-1.52V-6.7h2.3Zm6.032-1.6c1.264.112,2.624.176,4.256.176,1.472,0,3.312-.112,4.4-.192v-1.664c-1.184.128-2.88.224-4.416.224a40.1,40.1,0,0,1-4.24-.192Zm-.688,4.736a9.653,9.653,0,0,0-.32,2.24c0,2.064,1.84,3.2,5.232,3.2A23.608,23.608,0,0,0,106.16-.1l-.016-1.744a21.68,21.68,0,0,1-5.488.608c-2.416,0-3.52-.784-3.52-1.888a6.1,6.1,0,0,1,.288-1.728Zm25.84-.32c0,2.672-2.624,4.08-6.512,4.56L116.048.8c4.224-.624,7.328-2.64,7.328-6.048,0-2.352-1.712-3.7-4.08-3.7a21.584,21.584,0,0,0-4.768.752,13.269,13.269,0,0,1-1.568.24l.5,1.824a14.783,14.783,0,0,1,1.424-.5,14.387,14.387,0,0,1,4.224-.8C120.672-7.424,121.632-6.528,121.632-5.312Zm-6.464-7.344-.24,1.52c1.808.32,5.1.624,6.9.752l.256-1.552A46.546,46.546,0,0,1,115.168-12.656Zm15.84,8.72a2.513,2.513,0,0,0-2.5,2.512,2.5,2.5,0,0,0,2.5,2.5,2.489,2.489,0,0,0,2.5-2.5A2.5,2.5,0,0,0,131.008-3.936Zm0,4.048a1.536,1.536,0,0,1-1.536-1.536,1.536,1.536,0,0,1,1.536-1.536,1.536,1.536,0,0,1,1.536,1.536A1.536,1.536,0,0,1,131.008.112Z" transform="translate(144.57 19.46)" fill="#fff"/>
    </g>
    <g transform="matrix(1, 0, 0, 1, -19698.76, -13287.51)" filter="url(#パス_17313)">
      <path id="パス_17313-2" data-name="パス 17313" d="M-115.753-6.314l3.19-4.884c.462-.836.9-1.672,1.3-2.486h.088c-.044.88-.132,2.244-.132,3.124v4.246Zm8.888,0h-2.068v-9.878h-2.926L-118.305-6.05v1.694h7V0h2.376V-4.356h2.068Zm9.2-.594a28.656,28.656,0,0,0,.2-3.256h9.46v3.256Zm9.658-8.47v3.256h-9.46v-3.256Zm2.156-1.98H-99.561v6.908c0,3.454-.33,7.766-3.762,10.714a7.763,7.763,0,0,1,1.562,1.5A12.151,12.151,0,0,0-98-4.928h9.988v3.85c0,.462-.176.638-.66.638-.528.022-2.288.044-4-.044a8.563,8.563,0,0,1,.88,2.156,14.533,14.533,0,0,0,4.708-.418c.88-.33,1.232-.968,1.232-2.288Zm14.256,1.3v1.474h-4.224V-16.06Zm-4.224,4.488v-1.606H-71.6v1.606Zm6.138,1.5v-7.5h-8.162V1.738h2.024V-10.076Zm-.528,4.994v-2.09H-67.6v2.09Zm7.172,1.694V-5.082h-2.728v-2.09h2.288V-8.8h-10.67v1.628h2.178v2.09h-2.574v1.694h2.508a5.329,5.329,0,0,1-2.42,3.85,6.965,6.965,0,0,1,1.32,1.21,7.087,7.087,0,0,0,2.882-5.06H-67.6v4.73h1.826v-4.73Zm-2.992-8.14v-1.65h4.356v1.65Zm4.356-4.532v1.474h-4.356V-16.06Zm2.024-1.518h-8.338v7.546h6.314v9.24c0,.33-.11.44-.44.462-.352,0-1.474,0-2.6-.022a6.6,6.6,0,0,1,.66,2.024A8.658,8.658,0,0,0-60.6,1.3c.726-.352.946-.946.946-2.068Zm9.68-.792A24.452,24.452,0,0,1-55.187-9.9a15.919,15.919,0,0,1,1.122,2.068,25.532,25.532,0,0,0,1.892-2.288V1.694h1.936v-14.85A35.51,35.51,0,0,0-48.059-17.8Zm4.95,15.818h3.366V-.836h-3.366Zm3.366-4.73h-3.366v-1.65h3.366Zm0,3.212h-3.366V-5.764h3.366Zm7.04,3.234H-39.7V-2.552h4.2V-4.07h-4.2V-5.764h4.2V-7.282h-4.2v-1.65h4.84v-1.606h-4.73c.33-.594.638-1.276.946-1.914l-2.112-.484a16.018,16.018,0,0,1-.792,2.4h-3.41a18.464,18.464,0,0,0,.99-1.98l-1.848-.528h10.626V-17.6h-1.98v2.816h-3.322V-18.3h-2.024v3.52h-3.124V-17.6h-1.87v4.554H-45.9A15,15,0,0,1-50.061-7.37a13.79,13.79,0,0,1,1.54,1.408,13.751,13.751,0,0,0,1.54-1.628V1.672h1.958V.792h10.406Zm15.224-6.446v-5.324h5.72v5.324Zm-7.832,0v-5.324h5.7v5.324Zm7.832-7.326v-3.828h-2.134v3.828h-7.744V-3.982h2.046v-1.3h5.7v7h2.134v-7h5.72v1.188h2.134V-14.608Zm23.188.33h14.19v2.9h2.178v-4.84H11.979v-2.244H9.8v2.244H1.727v4.84H3.795Zm12.936,3.916V-12.21H5.093v1.848ZM15.389-.506c-.836,0-.99-.11-.99-.748V-6.292h6.226V-8.25H1.243v1.958H6.721C6.347-3.256,5.379-1.122.715-.022A5.586,5.586,0,0,1,1.9,1.782C7.183.352,8.437-2.4,8.921-6.292h3.41v5.06c0,2,.55,2.618,2.794,2.618h3.124c1.87,0,2.442-.814,2.684-3.872a6.475,6.475,0,0,1-1.87-.792c-.066,2.42-.2,2.772-.99,2.772Zm13.6-9.988A26.659,26.659,0,0,0,35.057-16.5a28.794,28.794,0,0,0,6.336,6.006Zm7.172,6.622h6.4V-5.654h-6.4V-8.69h5.5v-1.628a27.554,27.554,0,0,0,2.42,1.54,12,12,0,0,1,1.342-1.8A26.033,26.033,0,0,1,36-18.524h-2.09a25.046,25.046,0,0,1-9,8.184,8.062,8.062,0,0,1,1.3,1.65,25.96,25.96,0,0,0,2.53-1.628V-8.69H34v3.036H27.709v1.782H34v3.19H25.927V1.166H44.495V-.682H36.157Zm31.5-6.512-.374.132H63.239l.418-.682c-.572-.286-1.32-.616-2.156-.99a34.452,34.452,0,0,0,5.434-4.312l-1.5-1.144-.44.11H51.645v1.892H63a23.078,23.078,0,0,1-3.564,2.6c-1.3-.55-2.618-1.056-3.718-1.5l-1.056,1.54c1.716.682,3.894,1.65,5.676,2.486H49.577v1.958h8.844V-.682c0,.33-.11.418-.528.44-.418,0-1.958.022-3.388-.044a9.957,9.957,0,0,1,.77,1.98,14.246,14.246,0,0,0,4.114-.33c.88-.286,1.166-.858,1.166-2V-8.294h5.478a21.7,21.7,0,0,1-2.156,3.1l1.716,1.034a30.421,30.421,0,0,0,3.74-5.5Zm6.776,4.51a16.627,16.627,0,0,1-1.3,5.148A8.6,8.6,0,0,1,74.7.044a20.37,20.37,0,0,0,1.474-5.61Zm4.818.4A23.758,23.758,0,0,1,80.6-1.254l1.628-.572a23.992,23.992,0,0,0-1.43-4.158ZM78.771-10.8a18.924,18.924,0,0,1,.924,1.76l-2.926.11a69.055,69.055,0,0,0,4.378-6.248l-1.738-.748A41,41,0,0,1,77.187-12.1a12.816,12.816,0,0,0-1.078-1.276c.792-1.188,1.716-2.926,2.508-4.422l-1.848-.66a25.368,25.368,0,0,1-1.8,3.982L74.371-15l-.99,1.364a23.675,23.675,0,0,1,2.772,3.08c-.44.616-.858,1.188-1.276,1.716l-1.54.044L73.513-7c1.012-.066,2.178-.132,3.432-.2V1.76h1.826V-7.3l1.628-.11a11.082,11.082,0,0,1,.4,1.232l1.562-.748a18.591,18.591,0,0,0-2.112-4.51ZM93.2-14.63H85.415A29.129,29.129,0,0,0,86.625-18l-2.09-.484a18.408,18.408,0,0,1-3.806,7.524,15.293,15.293,0,0,1,1.8,1.232,17.1,17.1,0,0,0,1.936-2.948h6.71C90.893-4.6,90.541-1.342,89.837-.638a1.055,1.055,0,0,1-.946.374c-.528,0-1.848-.022-3.278-.132a4.608,4.608,0,0,1,.682,2.046,21.029,21.029,0,0,0,3.388-.022A2.349,2.349,0,0,0,91.619.616c.924-1.122,1.21-4.554,1.584-14.256Zm-4.95,9.856a20.755,20.755,0,0,0-2.97-4.95l-1.65.814a21.616,21.616,0,0,1,2.816,5.06ZM99.407-11.55a11.319,11.319,0,0,0,.968-2h2.574v2Zm5.478-2h4.2V-15.4h-4.2v-2.926h-1.936V-15.4h-1.914c.2-.7.4-1.452.572-2.178l-1.914-.4a16.913,16.913,0,0,1-2.112,5.72,13.33,13.33,0,0,1,1.716.7H97.779v1.87h5.17v1.958H98.725v7.7h1.826V-5.9h2.4V1.716h1.936V-5.9h2.552V-1.98c0,.22-.066.286-.286.286-.22.022-.88.022-1.672,0a5.158,5.158,0,0,1,.55,1.738,5.505,5.505,0,0,0,2.552-.308c.572-.308.7-.836.7-1.672V-7.722h-4.4V-9.68h5.06v-1.87h-5.06Zm8.294-2.97h-1.892V-4.356h1.892Zm1.98-1.628V-.858c0,.352-.11.462-.462.462-.374.022-1.562.022-2.794-.022a9.142,9.142,0,0,1,.66,2.09,9.318,9.318,0,0,0,3.586-.4c.726-.352.99-.924.99-2.156V-18.15Z" transform="translate(144.57 154.46)" fill="#fff"/>
    </g>
    <g transform="matrix(1, 0, 0, 1, -19698.76, -13287.51)" filter="url(#パス_17312)">
      <path id="パス_17312-2" data-name="パス 17312" d="M-107.24-20.92a7.936,7.936,0,0,1-2.56.36h-20.48c-1.16,0-2.68-.12-4.24-.28v4.16c1.52-.12,3.28-.16,4.24-.16h20.36a18.854,18.854,0,0,1-4.44,8,27.068,27.068,0,0,1-14,7.2l3.12,3.6a29.557,29.557,0,0,0,14.32-8.52,28.7,28.7,0,0,0,5.88-11.24,11.941,11.941,0,0,1,.6-1.36Zm-23.64-5.12c1.12-.08,2.56-.12,3.8-.12h15.56c1.36,0,2.96.04,3.96.12v-4.12a38.213,38.213,0,0,1-3.92.2h-15.6a37,37,0,0,1-3.8-.2Zm55.08,6a66.351,66.351,0,0,0,10.68-8.6l-3.4-3.08a43.755,43.755,0,0,1-10.44,8.96A62.816,62.816,0,0,1-97-15.48l2.28,3.88a76.675,76.675,0,0,0,14.48-5.88V-3.24a46.353,46.353,0,0,1-.24,4.72h4.96a30.08,30.08,0,0,1-.28-4.72Zm47.64-8.56a10.193,10.193,0,0,1-2.56.28h-19.4a35.873,35.873,0,0,1-4.32-.32v4.48c1-.08,2.6-.16,4.32-.16h19.64a27.621,27.621,0,0,1-5,12.28c-3.28,4.2-7.8,7.6-15.6,9.52l3.4,3.76A31.059,31.059,0,0,0-31.76-9.6c3.24-4.24,5.08-10.6,5.96-14.68a12.154,12.154,0,0,1,.72-2.32ZM10-28.84a12.133,12.133,0,0,1-3.48.4H-8.32a42.8,42.8,0,0,1-4.36-.28v4.52c.64-.04,2.8-.24,4.36-.24H6.36A32.909,32.909,0,0,1,0-13.88,44.945,44.945,0,0,1-16.44-2.16L-13.2,1.2A51.192,51.192,0,0,0,2.2-10.28,86.52,86.52,0,0,1,12.76,1.4l3.56-3.12A106.319,106.319,0,0,0,4.88-13.44a54.748,54.748,0,0,0,6.56-11.4,13.807,13.807,0,0,1,1.16-2.08ZM52.12-27.6a9.313,9.313,0,0,1-3,.44H39.4l.48-.88c.4-.8,1.28-2.32,2.04-3.52L37.36-33a14.133,14.133,0,0,1-1.52,3.6,36.013,36.013,0,0,1-12.8,13.64l3.44,2.6A44.073,44.073,0,0,0,37-23.56H49.72A33.22,33.22,0,0,1,45-13.84c-2.92-1.76-6-3.52-8.24-4.68l-2.64,3c2.16,1.2,5.24,3.08,8.2,5a34.1,34.1,0,0,1-15.4,9.48l3.64,3.2A37.93,37.93,0,0,0,45.8-8.2c1.52,1.04,2.84,2,3.8,2.8l2.8-3.68c-1-.72-2.36-1.6-3.84-2.56a42.865,42.865,0,0,0,5.68-11.48,20.2,20.2,0,0,1,1.12-2.48ZM84.2-20.04a66.351,66.351,0,0,0,10.68-8.6l-3.4-3.08a43.755,43.755,0,0,1-10.44,8.96A62.816,62.816,0,0,1,63-15.48l2.28,3.88a76.675,76.675,0,0,0,14.48-5.88V-3.24a46.353,46.353,0,0,1-.24,4.72h4.96a30.08,30.08,0,0,1-.28-4.72ZM106,1.32a22.473,22.473,0,0,0,7.12-11.2c1.08-4,1.24-12.52,1.24-17.08a29.942,29.942,0,0,1,.2-3.2h-4.64a12.465,12.465,0,0,1,.32,3.24c0,4.6,0,12.4-1.16,15.96a18.818,18.818,0,0,1-6.88,9.72Zm17.24,0a8.333,8.333,0,0,1,1.52-1,41.951,41.951,0,0,0,13.6-11.04l-2.4-3.44a28.14,28.14,0,0,1-10.88,9.2V-27.08a24.091,24.091,0,0,1,.2-3.2h-4.64a29.316,29.316,0,0,1,.24,3.2V-3.4a11.536,11.536,0,0,1-.28,2.52ZM-49.04,28.96h18.08V32.4H-49.04Zm0-6.48h18.08v3.4H-49.04Zm0-6.4h18.08v3.36H-49.04Zm16.96,28.2c-1.6,0-1.88-.16-1.88-1.36V35.68h6.76V12.76H-52.64V35.68h5.16c-.76,4.76-2.72,7.68-10.92,9.28a11.52,11.52,0,0,1,2.12,3.28c9.36-2.12,11.84-6.2,12.76-12.56h5.76v7.24c0,3.76,1.04,4.88,5.24,4.88h5.92c3.6,0,4.64-1.48,5.08-7.48A10.476,10.476,0,0,1-25,38.8c-.16,4.84-.4,5.48-1.96,5.48ZM-13.32,21.2H13.4v5.88h3.68V17.92h-5.8c1.24-1.52,2.56-3.28,3.72-5l-3.92-1.24A42.036,42.036,0,0,1,7.2,17.92H.44l1.96-.76A23.713,23.713,0,0,0-.84,11.24l-3.24,1.2a29.625,29.625,0,0,1,2.8,5.48h-7.4l1.44-.68a24.546,24.546,0,0,0-3.72-5.36l-3.2,1.44a25.238,25.238,0,0,1,3.12,4.6H-16.8v9.16h3.48Zm31,12.64H1.92v-.52a35.9,35.9,0,0,0,9.36-6.88l-2.4-1.8-.8.2H-10.68v3.24H4.52a31.646,31.646,0,0,1-4.52,3H-1.88v2.76h-15.6v3.44h15.6v6.56c0,.6-.2.76-1,.8s-3.6.04-6.4-.08a20.011,20.011,0,0,1,1.56,3.6c3.48,0,5.84-.04,7.48-.56,1.64-.56,2.16-1.6,2.16-3.64V37.28H17.68ZM31.36,23.56a38.842,38.842,0,0,0,8.52-8.48,40.055,40.055,0,0,0,9,8.48ZM30.6,27H49.32V23.88a50.19,50.19,0,0,0,7.08,4.16,18.108,18.108,0,0,1,2.36-3.36,40.21,40.21,0,0,1-17.12-13.2H37.8c-3,4.88-9.52,10.64-16.36,13.76a13.551,13.551,0,0,1,2.2,3.04,49.226,49.226,0,0,0,6.96-4.16Zm-6.88,7.64h9.92A68.112,68.112,0,0,1,29.92,43L24,43.2l.48,3.64c6.8-.28,16.96-.72,26.48-1.2a27.3,27.3,0,0,1,1.76,2.6l3.4-2.12a50.9,50.9,0,0,0-9.28-10.28l-3.2,1.72a58.31,58.31,0,0,1,4.64,4.76c-4.88.2-9.84.4-14.28.56,1.44-2.56,2.92-5.56,4.24-8.24H56.56V31.16H23.72Z" transform="translate(144.57 70.46)" fill="#fff"/>
    </g>
  </g>
</svg>
