<svg xmlns="http://www.w3.org/2000/svg" xmlns:xlink="http://www.w3.org/1999/xlink" width="964.23" height="229.152" viewBox="0 0 964.23 229.152">
  <defs>
    <filter id="パス_17307" x="0" y="0" width="554.416" height="47.568" filterUnits="userSpaceOnUse">
      <feOffset dy="3" input="SourceAlpha"/>
      <feGaussianBlur stdDeviation="3" result="blur"/>
      <feFlood flood-opacity="0.502"/>
      <feComposite operator="in" in2="blur"/>
      <feComposite in="SourceGraphic"/>
    </filter>
    <filter id="パス_17306" x="0.076" y="174.232" width="446.08" height="54.92" filterUnits="userSpaceOnUse">
      <feOffset dy="3" input="SourceAlpha"/>
      <feGaussianBlur stdDeviation="3" result="blur-2"/>
      <feFlood flood-opacity="0.502"/>
      <feComposite operator="in" in2="blur-2"/>
      <feComposite in="SourceGraphic"/>
    </filter>
    <filter id="パス_17305" x="12.191" y="59.732" width="952.039" height="105.875" filterUnits="userSpaceOnUse">
      <feOffset dy="3" input="SourceAlpha"/>
      <feGaussianBlur stdDeviation="3" result="blur-3"/>
      <feFlood flood-opacity="0.502"/>
      <feComposite operator="in" in2="blur-3"/>
      <feComposite in="SourceGraphic"/>
    </filter>
  </defs>
  <g id="text" transform="translate(19135.369 12779.967)">
    <g transform="matrix(1, 0, 0, 1, -19135.37, -12779.97)" filter="url(#パス_17307)">
      <path id="パス_17307-2" data-name="パス 17307" d="M-265.792-9.6c-.576-.7-3.008-3.232-4.064-4.16v-1.568h3.424V-16.7h17.984v-1.952h-7.68v-1.408h6.176V-21.92h-6.176V-23.3h6.944v-1.92h-6.944v-1.632H-259.1v1.632h-6.528v1.92h6.528v1.376h-5.888v1.856h5.888v1.408h-7.52v.544h-3.232v-4.864a32.166,32.166,0,0,0,3.936-1.184l-2.048-2.272a44.576,44.576,0,0,1-9.664,2.336,9.172,9.172,0,0,1,.864,2.3c1.28-.16,2.656-.352,4.032-.608v4.288h-4.608v2.784h4.384a32.79,32.79,0,0,1-5.216,9.568A16.155,16.155,0,0,1-276.7-3.008a33.474,33.474,0,0,0,3.968-7.232v12.7h2.88V-10.72a34.815,34.815,0,0,1,2.336,3.456Zm12.864-2.08h-8.928v-1.728h8.928Zm0,3.584h-8.928v-1.76h8.928Zm0,3.584h-8.928v-1.76h8.928Zm2.784-10.816h-14.4V-2.592h3.392A21.917,21.917,0,0,1-268.1.736a15.23,15.23,0,0,1,1.888,1.92,26.611,26.611,0,0,0,7.616-3.84L-260.8-2.592h10.656Zm-5.984,14.176c1.952,1.216,4.192,2.752,5.44,3.712l2.592-1.44c-1.472-.992-3.936-2.5-6.048-3.712Zm23.52-17.856-.576.128h-8.768v3.008h7.68c-1.5,5.984-4.608,10.56-8.576,13.12a12.027,12.027,0,0,1,2.432,2.336c4.608-3.232,8.288-9.344,9.824-17.856Zm15.968-2.784a55.535,55.535,0,0,1-7.072,7.552,43.82,43.82,0,0,1-2.464-6.88v-5.7h-3.136V-1.5c0,.576-.256.8-.9.8-.608.032-2.656.032-4.832-.064a13.982,13.982,0,0,1,1.152,3.3c2.944,0,4.864-.1,6.08-.608,1.152-.544,1.632-1.472,1.632-3.424V-13.312C-223.744-7.36-220.224-2.528-215.1.16a12.987,12.987,0,0,1,2.3-2.752,21.411,21.411,0,0,1-9.632-9.216,73.709,73.709,0,0,0,8.544-8.032ZM-201.632-10.3a41.808,41.808,0,0,1-4.96,8.768L-203.1-.064a45.769,45.769,0,0,0,4.7-8.96,73.007,73.007,0,0,0,2.848-9.824c.128-.7.416-1.92.64-2.72l-3.616-.736A48.666,48.666,0,0,1-201.632-10.3Zm15.776-.992A93.344,93.344,0,0,1-182.368-.16l3.68-1.184c-.9-3.04-2.592-8.032-3.808-11.072-1.28-3.232-3.392-7.872-4.7-10.272l-3.3,1.088A85.375,85.375,0,0,1-185.856-11.3Zm38.816-9.472a7.026,7.026,0,0,1-2.4.32H-155.9V-23.2a23.375,23.375,0,0,1,.192-2.656h-3.872a14.732,14.732,0,0,1,.224,2.656v2.752h-6.976a30.407,30.407,0,0,1-3.1-.16,23.822,23.822,0,0,1,.128,2.592v5.6c0,.7-.064,1.632-.128,2.3h3.488a14.686,14.686,0,0,1-.128-2.112v-5.248h17.024A22.2,22.2,0,0,1-152-8.64a16.454,16.454,0,0,1-8.064,6.016,20.091,20.091,0,0,1-3.84,1.056l2.624,3.04c5.76-1.568,10.368-4.864,12.832-9.312a29.765,29.765,0,0,0,3.072-9.376,12.03,12.03,0,0,1,.544-2.176Zm32.8-2.3a9.706,9.706,0,0,1-2.784.32H-128.9a34.238,34.238,0,0,1-3.488-.224v3.616c.512-.032,2.24-.192,3.488-.192h11.744A26.327,26.327,0,0,1-122.24-11.1a35.956,35.956,0,0,1-13.152,9.376L-132.8.96a40.954,40.954,0,0,0,12.32-9.184,69.216,69.216,0,0,1,8.448,9.344l2.848-2.5a85.056,85.056,0,0,0-9.152-9.376,43.8,43.8,0,0,0,5.248-9.12,11.046,11.046,0,0,1,.928-1.664Zm19.9,18.016c-1.28,0-2.912-1.664-2.912-5.312,0-3.9,3.328-8.864,9.024-9.792A43.9,43.9,0,0,1-89.952-12C-91.424-7.1-92.96-5.056-94.336-5.056Zm8.512,6.112c7.744-1.088,12-5.7,12-12.32,0-6.656-4.832-11.968-12.448-11.968-7.936,0-14.176,6.112-14.176,13.152,0,5.28,2.88,8.832,6.016,8.832,3.168,0,5.792-3.616,7.712-10.08a72.527,72.527,0,0,0,1.888-8.9c4.864.608,7.616,4.224,7.616,8.832,0,5.12-3.616,8.064-7.68,8.992a17.945,17.945,0,0,1-2.816.448ZM-59.2-26.784a34.429,34.429,0,0,1-7.936,12.256A28.237,28.237,0,0,1-65.5-11.52a37.431,37.431,0,0,0,3.136-3.712V2.432h2.816V-19.52a51.034,51.034,0,0,0,3.136-6.368ZM-45.7-1.376V-8.64h7.232v-2.816H-45.7v-6.336h8.16V-20.64H-45.12l1.408-1.568a44.107,44.107,0,0,0-7.1-4.7L-52.768-24.8a47.843,47.843,0,0,1,6.048,4.16H-56.832v2.848H-48.7v6.336h-7.072V-8.64H-48.7v7.264h-8.9V1.472h20.544V-1.376Zm28.736-2.56c0,2.048-1.312,2.56-3.1,2.56-2.72,0-3.9-.928-3.9-2.272,0-1.312,1.44-2.336,4.128-2.336a16.538,16.538,0,0,1,2.848.256C-16.96-4.992-16.96-4.384-16.96-3.936ZM-4.9-2.944a25.23,25.23,0,0,0-9.056-4.9c-.1-1.376-.192-2.88-.224-4.32,3.04-.128,5.664-.32,8.608-.672L-5.6-15.84c-2.72.384-5.5.672-8.64.832V-19.04c3.008-.128,5.664-.416,7.968-.64L-6.3-22.592a76.914,76.914,0,0,1-7.9.8c0-.64.032-1.216.032-1.568.032-.864.128-1.568.192-2.144h-3.392a20.028,20.028,0,0,1,.128,2.016V-21.7H-18.88a48.134,48.134,0,0,1-7.168-.608v2.912a63.716,63.716,0,0,0,7.2.48h1.568v4h-1.632a54.172,54.172,0,0,1-7.808-.608l-.032,3.008c2.208.256,5.792.416,7.808.416h1.728c.032,1.152.064,2.432.128,3.616-.768-.064-1.536-.128-2.336-.128-4.736,0-7.584,2.112-7.584,5.12,0,3.2,2.592,4.96,7.392,4.96,4.128,0,5.856-2.208,5.856-4.608,0-.448-.032-.992-.032-1.632A23.741,23.741,0,0,1-6.72-.16ZM10.3-22.5,6.432-22.56a15.935,15.935,0,0,1,.224,2.976,84.126,84.126,0,0,0,.352,8.48C7.872-2.752,10.816.32,14.016.32c2.336,0,4.288-1.888,6.3-7.328L17.76-9.984c-.7,2.912-2.08,6.368-3.68,6.368-2.112,0-3.392-3.328-3.872-8.32a70.416,70.416,0,0,1-.224-7.136A25.727,25.727,0,0,1,10.3-22.5Zm16.224.8L23.36-20.64c3.2,3.776,5.024,10.592,5.536,16.032l3.3-1.28C31.776-11.04,29.44-18.016,26.528-21.7ZM57.152-4.448c-.032-1.5-.1-4.032-.128-5.824,2.208-1.024,4.256-1.888,5.888-2.5.96-.384,2.336-.9,3.2-1.152l-1.248-2.944c-1.024.512-1.952.928-3.008,1.408-1.5.672-3.136,1.344-5.088,2.272a4.172,4.172,0,0,0-4.224-2.688,9.334,9.334,0,0,0-4.032.928,23.134,23.134,0,0,0,2.4-4.128,96.856,96.856,0,0,0,10.432-.864V-22.88a73.268,73.268,0,0,1-9.376.928c.448-1.376.7-2.592.9-3.424l-3.3-.256a19.107,19.107,0,0,1-.736,3.808H46.976a46.475,46.475,0,0,1-5.44-.352V-19.2c1.76.128,3.968.192,5.28.192h.928A33,33,0,0,1,40.576-9.76L43.3-7.712A34.081,34.081,0,0,1,46.208-11.1a8.05,8.05,0,0,1,5.248-2.272,2.469,2.469,0,0,1,2.56,1.568c-3.648,1.856-7.456,4.32-7.456,8.224,0,3.936,3.68,5.024,8.416,5.024A80.618,80.618,0,0,0,63.776.9l.1-3.232a53.362,53.362,0,0,1-8.8.832c-3.2,0-5.248-.416-5.248-2.592,0-1.856,1.7-3.3,4.384-4.8,0,1.568-.032,3.36-.128,4.448Zm24.576-8.384H96.192v2.752H81.728Zm0-5.184H96.192v2.72H81.728Zm0-5.12H96.192v2.688H81.728ZM95.3-.576c-1.28,0-1.5-.128-1.5-1.088V-7.456H99.2V-25.792H78.848V-7.456h4.128C82.368-3.648,80.8-1.312,74.24-.032a9.216,9.216,0,0,1,1.7,2.624C83.424.9,85.408-2.368,86.144-7.456h4.608v5.792c0,3.008.832,3.9,4.192,3.9H99.68c2.88,0,3.712-1.184,4.064-5.984A8.381,8.381,0,0,1,100.96-4.96c-.128,3.872-.32,4.384-1.568,4.384Zm27.36-21.312v3.232a80.009,80.009,0,0,0,13.28,0V-21.92A59.382,59.382,0,0,1,122.656-21.888ZM121.568-8.96a19.386,19.386,0,0,0-.544,3.9c0,3.072,2.5,4.928,7.872,4.928a42.881,42.881,0,0,0,8.032-.64l-.064-3.392a35.616,35.616,0,0,1-7.9.832c-3.84,0-4.9-1.12-4.9-2.56a12.04,12.04,0,0,1,.384-2.816ZM113.6-24.48a23.5,23.5,0,0,1-.288,2.624,90.141,90.141,0,0,0-1.376,12.64,39.571,39.571,0,0,0,1.216,10.24l2.88-.192c-.032-.384-.064-.864-.064-1.184a5.837,5.837,0,0,1,.16-1.44A62.716,62.716,0,0,1,118.4-9.184l-1.664-1.28c-.48,1.152-1.12,2.688-1.6,3.968a23.576,23.576,0,0,1-.224-3.328A75.034,75.034,0,0,1,116.48-21.76c.128-.576.448-1.824.672-2.432Zm59.36-.512H157.44v2.848h15.52ZM151.808-26.88a28.955,28.955,0,0,1-7.3,6.88,13.605,13.605,0,0,1,1.7,2.4,42.233,42.233,0,0,0,8.448-8.1Zm1.248,6.848a33.964,33.964,0,0,1-8.864,9.6A16.5,16.5,0,0,1,146.24-7.9a42.354,42.354,0,0,0,3.168-2.88V2.592h2.976V-14.08a43.179,43.179,0,0,0,3.488-4.9Zm20.8,3.776H156.1v2.848h10.112V-1.12c0,.448-.192.608-.8.608-.576.032-2.72.032-4.768-.032a11.938,11.938,0,0,1,.96,2.976c2.976,0,4.864-.032,6.048-.48,1.216-.48,1.6-1.344,1.6-3.04v-12.32h4.608Zm12.064-3.2c2.528.224,5.248.352,8.512.352,2.944,0,6.624-.224,8.8-.384v-3.328c-2.368.256-5.76.448-8.832.448a80.207,80.207,0,0,1-8.48-.384Zm-1.376,9.472a19.307,19.307,0,0,0-.64,4.48c0,4.128,3.68,6.4,10.464,6.4A47.217,47.217,0,0,0,205.28-.192l-.032-3.488a43.36,43.36,0,0,1-10.976,1.216c-4.832,0-7.04-1.568-7.04-3.776a12.208,12.208,0,0,1,.576-3.456Zm51.68-.64c0,5.344-5.248,8.16-13.024,9.12l1.856,3.1C233.5.352,239.712-3.68,239.712-10.5c0-4.7-3.424-7.392-8.16-7.392a43.169,43.169,0,0,0-9.536,1.5,26.538,26.538,0,0,1-3.136.48l.992,3.648a29.566,29.566,0,0,1,2.848-.992,28.775,28.775,0,0,1,8.448-1.6C234.3-14.848,236.224-13.056,236.224-10.624ZM223.3-25.312l-.48,3.04c3.616.64,10.208,1.248,13.792,1.5l.512-3.1A93.091,93.091,0,0,1,223.3-25.312Zm29.952,17.44a5.026,5.026,0,0,0-4.992,5.024,5,5,0,0,0,4.992,4.992,4.978,4.978,0,0,0,4.992-4.992A5.005,5.005,0,0,0,253.248-7.872Zm0,8.1a3.073,3.073,0,0,1-3.072-3.072,3.073,3.073,0,0,1,3.072-3.072,3.073,3.073,0,0,1,3.072,3.072A3.073,3.073,0,0,1,253.248.224Z" transform="translate(287.18 32.91)" fill="#fff"/>
    </g>
    <g transform="matrix(1, 0, 0, 1, -19135.37, -12779.97)" filter="url(#パス_17306)">
      <path id="パス_17306-2" data-name="パス 17306" d="M-210.46-11.48l5.8-8.88c.84-1.52,1.64-3.04,2.36-4.52h.16c-.08,1.6-.24,4.08-.24,5.68v7.72Zm16.16,0h-3.76V-29.44h-5.32L-215.1-11v3.08h12.72V0h4.32V-7.92h3.76Zm16.72-1.08a52.106,52.106,0,0,0,.36-5.92h17.2v5.92Zm17.56-15.4v5.92h-17.2v-5.92Zm3.92-3.6h-24.92V-19c0,6.28-.6,14.12-6.84,19.48a14.114,14.114,0,0,1,2.84,2.72c3.8-3.24,5.8-7.68,6.84-12.16h18.16v7c0,.84-.32,1.16-1.2,1.16-.96.04-4.16.08-7.28-.08a15.567,15.567,0,0,1,1.6,3.92c4.16,0,6.88-.08,8.56-.76,1.6-.6,2.24-1.76,2.24-4.16Zm25.92,2.36v2.68h-7.68V-29.2Zm-7.68,8.16v-2.92h7.68v2.92Zm11.16,2.72V-31.96h-14.84V3.16h3.68V-18.32Zm-.96,9.08v-3.8h4.76v3.8Zm13.04,3.08V-9.24h-4.96v-3.8h4.16V-16h-19.4v2.96h3.96v3.8h-4.68v3.08h4.56a9.688,9.688,0,0,1-4.4,7,12.663,12.663,0,0,1,2.4,2.2,12.886,12.886,0,0,0,5.24-9.2h4.84v8.6h3.32v-8.6Zm-5.44-14.8v-3h7.92v3Zm7.92-8.24v2.68h-7.92V-29.2Zm3.68-2.76h-15.16v13.72h11.48v16.8c0,.6-.2.8-.8.84-.64,0-2.68,0-4.72-.04a12.009,12.009,0,0,1,1.2,3.68c3,.04,5-.08,6.28-.68,1.32-.64,1.72-1.72,1.72-3.76Zm17.6-1.44A44.459,44.459,0,0,1-100.34-18a28.943,28.943,0,0,1,2.04,3.76,46.423,46.423,0,0,0,3.44-4.16V3.08h3.52v-27a64.563,64.563,0,0,0,3.96-8.44Zm9,28.76h6.12v3.12h-6.12Zm6.12-8.6h-6.12v-3h6.12Zm0,5.84h-6.12v-3.08h6.12Zm12.8,5.88h-9.24V-4.64h7.64V-7.4h-7.64v-3.08h7.64v-2.76h-7.64v-3h8.8v-2.92h-8.6c.6-1.08,1.16-2.32,1.72-3.48l-3.84-.88a29.124,29.124,0,0,1-1.44,4.36h-6.2a33.57,33.57,0,0,0,1.8-3.6l-3.36-.96h19.32V-32h-3.6v5.12h-6.04v-6.4H-77.3v6.4h-5.68V-32h-3.4v8.28h2.92A27.27,27.27,0,0,1-91.02-13.4a25.073,25.073,0,0,1,2.8,2.56,25,25,0,0,0,2.8-2.96V3.04h3.56V1.44h18.92Zm27.68-11.72v-9.68h10.4v9.68Zm-14.24,0v-9.68h10.36v9.68Zm14.24-13.32v-6.96h-3.88v6.96H-53.22V-7.24h3.72V-9.6h10.36V3.12h3.88V-9.6h10.4v2.16h3.88V-26.56Zm42.16.6H32.7v5.28h3.96v-8.8H21.78v-4.08H17.82v4.08H3.14v8.8H6.9Zm23.52,7.12V-22.2H9.26v3.36ZM27.98-.92c-1.52,0-1.8-.2-1.8-1.36v-9.16H37.5V-15H2.26v3.56h9.96C11.54-5.92,9.78-2.04,1.3-.04A10.156,10.156,0,0,1,3.46,3.24c9.6-2.6,11.88-7.6,12.76-14.68h6.2v9.2c0,3.64,1,4.76,5.08,4.76h5.68c3.4,0,4.44-1.48,4.88-7.04a11.773,11.773,0,0,1-3.4-1.44c-.12,4.4-.36,5.04-1.8,5.04ZM52.7-19.08A48.471,48.471,0,0,0,63.74-30,52.352,52.352,0,0,0,75.26-19.08ZM65.74-7.04H77.38v-3.24H65.74V-15.8h10v-2.96a50.1,50.1,0,0,0,4.4,2.8,21.811,21.811,0,0,1,2.44-3.28A47.333,47.333,0,0,1,65.46-33.68h-3.8c-3,5.04-9.52,11.24-16.36,14.88a14.658,14.658,0,0,1,2.36,3,47.2,47.2,0,0,0,4.6-2.96v2.96h9.56v5.52H50.38v3.24H61.82v5.8H47.14V2.12H80.9V-1.24H65.74Zm57.28-11.84-.68.24h-7.36l.76-1.24c-1.04-.52-2.4-1.12-3.92-1.8a62.641,62.641,0,0,0,9.88-7.84l-2.72-2.08-.8.2H93.9v3.44h20.64a41.96,41.96,0,0,1-6.48,4.72c-2.36-1-4.76-1.92-6.76-2.72l-1.92,2.8c3.12,1.24,7.08,3,10.32,4.52H90.14v3.56h16.08V-1.24c0,.6-.2.76-.96.8-.76,0-3.56.04-6.16-.08a18.1,18.1,0,0,1,1.4,3.6c3.44,0,5.88-.04,7.48-.6,1.6-.52,2.12-1.56,2.12-3.64V-15.08h9.96a39.457,39.457,0,0,1-3.92,5.64l3.12,1.88a55.312,55.312,0,0,0,6.8-10Zm12.32,8.2a30.23,30.23,0,0,1-2.36,9.36,15.633,15.633,0,0,1,2.84,1.4,37.036,37.036,0,0,0,2.68-10.2Zm8.76.72a43.2,43.2,0,0,1,2.44,7.68l2.96-1.04a43.622,43.622,0,0,0-2.6-7.56Zm-.88-9.68a34.409,34.409,0,0,1,1.68,3.2l-5.32.2a125.553,125.553,0,0,0,7.96-11.36l-3.16-1.36A74.543,74.543,0,0,1,140.34-22a23.3,23.3,0,0,0-1.96-2.32c1.44-2.16,3.12-5.32,4.56-8.04l-3.36-1.2a46.123,46.123,0,0,1-3.28,7.24l-1.08-.96-1.8,2.48a43.045,43.045,0,0,1,5.04,5.6c-.8,1.12-1.56,2.16-2.32,3.12l-2.8.08.32,3.28c1.84-.12,3.96-.24,6.24-.36V3.2h3.32V-13.28l2.96-.2a20.15,20.15,0,0,1,.72,2.24l2.84-1.36a33.8,33.8,0,0,0-3.84-8.2Zm26.24-6.96H155.3a52.96,52.96,0,0,0,2.2-6.12l-3.8-.88c-1.4,5.24-3.88,10.44-6.92,13.68a27.807,27.807,0,0,1,3.28,2.24,31.092,31.092,0,0,0,3.52-5.36h12.2c-.52,14.68-1.16,20.6-2.44,21.88a1.918,1.918,0,0,1-1.72.68c-.96,0-3.36-.04-5.96-.24A8.378,8.378,0,0,1,156.9,3a38.234,38.234,0,0,0,6.16-.04,4.271,4.271,0,0,0,3.52-1.84c1.68-2.04,2.2-8.28,2.88-25.92Zm-9,17.92a37.736,37.736,0,0,0-5.4-9l-3,1.48A39.3,39.3,0,0,1,157.18-7ZM180.74-21a20.58,20.58,0,0,0,1.76-3.64h4.68V-21Zm9.96-3.64h7.64V-28H190.7v-5.32h-3.52V-28H183.7c.36-1.28.72-2.64,1.04-3.96l-3.48-.72a30.752,30.752,0,0,1-3.84,10.4A24.237,24.237,0,0,1,180.54-21h-2.76v3.4h9.4v3.56H179.5v14h3.32V-10.72h4.36V3.12h3.52V-10.72h4.64V-3.6c0,.4-.12.52-.52.52-.4.04-1.6.04-3.04,0a9.378,9.378,0,0,1,1,3.16c2.08.04,3.6,0,4.64-.56S198.7-2,198.7-3.52V-14.04h-8V-17.6h9.2V-21h-9.2Zm15.08-5.4h-3.44V-7.92h3.44Zm3.6-2.96V-1.56c0,.64-.2.84-.84.84-.68.04-2.84.04-5.08-.04a16.622,16.622,0,0,1,1.2,3.8c3,0,5.24-.08,6.52-.72,1.32-.64,1.8-1.68,1.8-3.92V-33Z" transform="translate(224.18 213.91)" fill="#fff"/>
    </g>
    <g transform="matrix(1, 0, 0, 1, -19135.37, -12779.97)" filter="url(#パス_17305)">
      <path id="パス_17305-2" data-name="パス 17305" d="M77.805-49.685a18.849,18.849,0,0,1-6.08.855H23.085c-2.755,0-6.365-.285-10.07-.665v9.88c3.61-.285,7.79-.38,10.07-.38H71.44A44.778,44.778,0,0,1,60.895-21C53.105-12.92,41.42-6.745,27.645-3.9l7.41,8.55c12.16-3.42,24.225-9.4,34.01-20.235,7.03-7.79,11.21-17.385,13.965-26.695a28.358,28.358,0,0,1,1.425-3.23ZM21.66-61.845c2.66-.19,6.08-.285,9.025-.285H67.64c3.23,0,7.03.095,9.4.285V-71.63a90.758,90.758,0,0,1-9.31.475H30.685a87.877,87.877,0,0,1-9.025-.475Zm130.815,14.25A157.584,157.584,0,0,0,177.84-68.02l-8.075-7.315c-5.32,6.84-15.2,15.295-24.795,21.28a149.189,149.189,0,0,1-42.845,17.29l5.415,9.215a182.1,182.1,0,0,0,34.39-13.965V-7.7a110.084,110.084,0,0,1-.57,11.21h11.78a71.441,71.441,0,0,1-.665-11.21ZM265.62-67.925a24.207,24.207,0,0,1-6.08.665H213.465a85.2,85.2,0,0,1-10.26-.76v10.64c2.375-.19,6.175-.38,10.26-.38H260.11c-1.235,8.74-5.32,20.9-11.875,29.165-7.79,9.975-18.525,18.05-37.05,22.61l8.075,8.93C236.55-2.47,248.425-11.59,257.07-22.8c7.7-10.07,12.065-25.175,14.155-34.865a28.865,28.865,0,0,1,1.71-5.51Zm90.63-.57a28.816,28.816,0,0,1-8.265.95H312.74a101.642,101.642,0,0,1-10.355-.665v10.735c1.52-.095,6.65-.57,10.355-.57h34.865c-2.28,7.41-8.645,17.86-15.105,25.08C323.1-22.42,308.845-11.02,293.455-5.13l7.7,7.98c13.68-6.27,26.41-16.435,36.575-27.265A205.483,205.483,0,0,1,362.8,3.325l8.455-7.41A252.509,252.509,0,0,0,344.09-31.92a130.026,130.026,0,0,0,15.58-27.075,32.794,32.794,0,0,1,2.755-4.94ZM456.285-65.55a22.118,22.118,0,0,1-7.125,1.045H426.075l1.14-2.09c.95-1.9,3.04-5.51,4.845-8.36l-10.83-3.42a33.567,33.567,0,0,1-3.61,8.55,85.531,85.531,0,0,1-30.4,32.4l8.17,6.175a104.674,104.674,0,0,0,24.985-24.7h30.21c-1.71,6.65-5.985,15.58-11.21,23.085-6.935-4.18-14.25-8.36-19.57-11.115l-6.27,7.125c5.13,2.85,12.445,7.315,19.475,11.875A80.984,80.984,0,0,1,396.435-2.47l8.645,7.6c16.15-6.175,27.74-15.01,36.2-24.605,3.61,2.47,6.745,4.75,9.025,6.65l6.65-8.74c-2.375-1.71-5.605-3.8-9.12-6.08A101.8,101.8,0,0,0,461.32-54.91a47.961,47.961,0,0,1,2.66-5.89Zm76.19,17.955A157.582,157.582,0,0,0,557.84-68.02l-8.075-7.315c-5.32,6.84-15.2,15.295-24.8,21.28a149.188,149.188,0,0,1-42.845,17.29l5.415,9.215a182.1,182.1,0,0,0,34.39-13.965V-7.7a110.074,110.074,0,0,1-.57,11.21h11.78a71.435,71.435,0,0,1-.665-11.21ZM584.25,3.135a53.372,53.372,0,0,0,16.91-26.6c2.565-9.5,2.945-29.735,2.945-40.565a71.1,71.1,0,0,1,.475-7.6H593.56a29.605,29.605,0,0,1,.76,7.695c0,10.925,0,29.45-2.755,37.9a44.691,44.691,0,0,1-16.34,23.085Zm40.945,0A19.791,19.791,0,0,1,628.8.76c10.925-5.51,24.225-15.485,32.3-26.22l-5.7-8.17a66.832,66.832,0,0,1-25.84,21.85V-64.315a57.224,57.224,0,0,1,.475-7.6H619.02a69.626,69.626,0,0,1,.57,7.6v56.24a27.4,27.4,0,0,1-.665,5.985ZM691.03-38.1h42.94v8.17H691.03Zm0-15.39h42.94v8.075H691.03Zm0-15.2h42.94v7.98H691.03ZM731.31-1.71c-3.8,0-4.465-.38-4.465-3.23v-17.2H742.9V-76.57H682.48v54.435h12.255C692.93-10.83,688.275-3.9,668.8-.1a27.362,27.362,0,0,1,5.035,7.79c22.23-5.035,28.12-14.725,30.3-29.83h13.68v17.2c0,8.93,2.47,11.59,12.445,11.59h14.06c8.55,0,11.02-3.515,12.065-17.765-2.47-.665-6.365-1.995-8.265-3.61-.38,11.5-.95,13.015-4.655,13.015Zm44.555-54.815h63.46V-42.56h8.74V-64.315H834.29c2.945-3.61,6.08-7.79,8.835-11.875l-9.31-2.945a99.834,99.834,0,0,1-9.215,14.82H808.545l4.655-1.8a56.318,56.318,0,0,0-7.7-14.06l-7.7,2.85a70.362,70.362,0,0,1,6.65,13.015H786.885l3.42-1.615c-1.615-3.61-5.415-8.93-8.835-12.73l-7.6,3.42a59.94,59.94,0,0,1,7.41,10.925H767.6V-42.56h8.265Zm73.625,30.02H812.06V-27.74a85.264,85.264,0,0,0,22.23-16.34l-5.7-4.275-1.9.475H782.135v7.695h36.1A75.156,75.156,0,0,1,807.5-33.06h-4.465v6.555h-37.05v8.17h37.05v15.58c0,1.425-.475,1.8-2.375,1.9s-8.55.095-15.2-.19a47.529,47.529,0,0,1,3.7,8.55c8.265,0,13.87-.095,17.765-1.33,3.9-1.33,5.13-3.8,5.13-8.645V-18.335h37.43ZM881.98-50.92c8.455-6.365,15.675-13.49,20.235-20.14C907.25-64.125,915.04-57,923.59-50.92Zm-1.8,8.17h44.46v-7.41a119.2,119.2,0,0,0,16.815,9.88,43.005,43.005,0,0,1,5.6-7.98c-14.82-5.795-30.59-17.385-40.66-31.35h-9.12c-7.125,11.59-22.61,25.27-38.855,32.68a32.183,32.183,0,0,1,5.225,7.22,116.914,116.914,0,0,0,16.53-9.88ZM863.835-24.6H887.4A161.769,161.769,0,0,1,878.56-4.75l-14.06.475,1.14,8.645c16.15-.665,40.28-1.71,62.89-2.85A64.847,64.847,0,0,1,932.71,7.7l8.075-5.035c-4.37-7.03-13.395-17.1-22.04-24.415l-7.6,4.085a138.488,138.488,0,0,1,11.02,11.3c-11.59.475-23.37.95-33.915,1.33,3.42-6.08,6.935-13.2,10.07-19.57h43.51V-32.87H863.835Z" transform="translate(8.18 145.91)" fill="#fff"/>
    </g>
  </g>
</svg>
