<svg xmlns="http://www.w3.org/2000/svg" width="621.936" height="86.72" viewBox="0 0 621.936 86.72">
  <g id="mv12-text" transform="translate(-3235 416.272)">
    <path id="パス_2284" data-name="パス 2284" d="M-301.776-27.936V0h7.536V-27.936h10.272v-6.336h-28.08v6.336Zm24.144,15.552a14.894,14.894,0,0,1,.288-2.928,7.47,7.47,0,0,1,.984-2.544,5.527,5.527,0,0,1,1.848-1.8,5.485,5.485,0,0,1,2.88-.7,5.615,5.615,0,0,1,2.9.7,5.458,5.458,0,0,1,1.872,1.8,7.47,7.47,0,0,1,.984,2.544,14.894,14.894,0,0,1,.288,2.928,14.535,14.535,0,0,1-.288,2.9,7.736,7.736,0,0,1-.984,2.544,5.181,5.181,0,0,1-1.872,1.8,5.776,5.776,0,0,1-2.9.672,5.641,5.641,0,0,1-2.88-.672,5.241,5.241,0,0,1-1.848-1.8,7.736,7.736,0,0,1-.984-2.544A14.535,14.535,0,0,1-277.632-12.384Zm-6.816,0a15.037,15.037,0,0,0,.912,5.376,11.662,11.662,0,0,0,2.592,4.1,11.339,11.339,0,0,0,4.032,2.616,14.506,14.506,0,0,0,5.28.912,14.7,14.7,0,0,0,5.3-.912A11.3,11.3,0,0,0-262.272-2.9a11.662,11.662,0,0,0,2.592-4.1,15.037,15.037,0,0,0,.912-5.376,15.234,15.234,0,0,0-.912-5.4,11.621,11.621,0,0,0-2.592-4.128,11.568,11.568,0,0,0-4.056-2.64,14.362,14.362,0,0,0-5.3-.936,14.174,14.174,0,0,0-5.28.936,11.615,11.615,0,0,0-4.032,2.64,11.621,11.621,0,0,0-2.592,4.128A15.234,15.234,0,0,0-284.448-12.384Zm32.688-12.432V0h6.816V-14.4a7.014,7.014,0,0,1,.528-2.952,4.766,4.766,0,0,1,1.272-1.728,4.221,4.221,0,0,1,1.536-.816,5.108,5.108,0,0,1,1.272-.216,4.526,4.526,0,0,1,2.472.552,3.064,3.064,0,0,1,1.2,1.464,6.13,6.13,0,0,1,.408,1.992q.048,1.08.048,2.184V0h6.816V-13.824a15.456,15.456,0,0,1,.168-2.28,5.766,5.766,0,0,1,.672-2.016,4,4,0,0,1,1.392-1.44,4.36,4.36,0,0,1,2.328-.552,4.6,4.6,0,0,1,2.28.48,3.2,3.2,0,0,1,1.272,1.3,4.991,4.991,0,0,1,.528,1.92q.1,1.1.1,2.352V0h6.816V-16.608a11.193,11.193,0,0,0-.672-4.1,7.036,7.036,0,0,0-1.872-2.76,7.344,7.344,0,0,0-2.88-1.536,13.235,13.235,0,0,0-3.648-.48A7.976,7.976,0,0,0-227.4-24.24a10.565,10.565,0,0,0-3,2.88,6.035,6.035,0,0,0-2.952-3.216,9.989,9.989,0,0,0-4.3-.912,8.776,8.776,0,0,0-4.344,1.056,9.706,9.706,0,0,0-3.24,2.976h-.1v-3.36Zm51.744,12.432a14.893,14.893,0,0,1,.288-2.928,7.47,7.47,0,0,1,.984-2.544,5.527,5.527,0,0,1,1.848-1.8,5.485,5.485,0,0,1,2.88-.7,5.615,5.615,0,0,1,2.9.7,5.458,5.458,0,0,1,1.872,1.8,7.47,7.47,0,0,1,.984,2.544,14.893,14.893,0,0,1,.288,2.928,14.534,14.534,0,0,1-.288,2.9,7.736,7.736,0,0,1-.984,2.544,5.181,5.181,0,0,1-1.872,1.8,5.776,5.776,0,0,1-2.9.672,5.641,5.641,0,0,1-2.88-.672,5.241,5.241,0,0,1-1.848-1.8,7.736,7.736,0,0,1-.984-2.544A14.534,14.534,0,0,1-200.016-12.384Zm-6.816,0a15.037,15.037,0,0,0,.912,5.376,11.662,11.662,0,0,0,2.592,4.1A11.339,11.339,0,0,0-199.3-.288a14.506,14.506,0,0,0,5.28.912,14.7,14.7,0,0,0,5.3-.912A11.3,11.3,0,0,0-184.656-2.9a11.662,11.662,0,0,0,2.592-4.1,15.037,15.037,0,0,0,.912-5.376,15.234,15.234,0,0,0-.912-5.4,11.621,11.621,0,0,0-2.592-4.128,11.568,11.568,0,0,0-4.056-2.64,14.362,14.362,0,0,0-5.3-.936,14.174,14.174,0,0,0-5.28.936,11.615,11.615,0,0,0-4.032,2.64,11.621,11.621,0,0,0-2.592,4.128A15.234,15.234,0,0,0-206.832-12.384Zm32.5-12.432V0h6.816V-11.184a13.717,13.717,0,0,1,.336-3.12,6.832,6.832,0,0,1,1.128-2.52,5.487,5.487,0,0,1,2.088-1.7,7.262,7.262,0,0,1,3.168-.624,12.172,12.172,0,0,1,1.3.072q.672.072,1.152.168v-6.336a5.316,5.316,0,0,0-1.488-.24,8.139,8.139,0,0,0-2.5.384,9.147,9.147,0,0,0-2.256,1.08,8.491,8.491,0,0,0-1.872,1.68,8.382,8.382,0,0,0-1.3,2.136h-.1v-4.608Zm21.072,0V0h6.816V-11.184a13.717,13.717,0,0,1,.336-3.12,6.832,6.832,0,0,1,1.128-2.52,5.487,5.487,0,0,1,2.088-1.7,7.262,7.262,0,0,1,3.168-.624,12.172,12.172,0,0,1,1.3.072q.672.072,1.152.168v-6.336a5.316,5.316,0,0,0-1.488-.24,8.139,8.139,0,0,0-2.5.384,9.147,9.147,0,0,0-2.256,1.08,8.491,8.491,0,0,0-1.872,1.68,8.382,8.382,0,0,0-1.3,2.136h-.1v-4.608Zm26.256,12.432a14.893,14.893,0,0,1,.288-2.928,7.47,7.47,0,0,1,.984-2.544,5.527,5.527,0,0,1,1.848-1.8,5.485,5.485,0,0,1,2.88-.7,5.615,5.615,0,0,1,2.9.7,5.458,5.458,0,0,1,1.872,1.8,7.47,7.47,0,0,1,.984,2.544,14.893,14.893,0,0,1,.288,2.928,14.534,14.534,0,0,1-.288,2.9,7.736,7.736,0,0,1-.984,2.544,5.181,5.181,0,0,1-1.872,1.8,5.776,5.776,0,0,1-2.9.672,5.641,5.641,0,0,1-2.88-.672,5.241,5.241,0,0,1-1.848-1.8,7.736,7.736,0,0,1-.984-2.544A14.534,14.534,0,0,1-127.008-12.384Zm-6.816,0a15.037,15.037,0,0,0,.912,5.376,11.662,11.662,0,0,0,2.592,4.1,11.339,11.339,0,0,0,4.032,2.616,14.506,14.506,0,0,0,5.28.912,14.7,14.7,0,0,0,5.3-.912A11.3,11.3,0,0,0-111.648-2.9a11.662,11.662,0,0,0,2.592-4.1,15.037,15.037,0,0,0,.912-5.376,15.234,15.234,0,0,0-.912-5.4,11.621,11.621,0,0,0-2.592-4.128,11.568,11.568,0,0,0-4.056-2.64,14.362,14.362,0,0,0-5.3-.936,14.174,14.174,0,0,0-5.28.936,11.615,11.615,0,0,0-4.032,2.64,11.621,11.621,0,0,0-2.592,4.128A15.234,15.234,0,0,0-133.824-12.384ZM-72.96,0l7.824-24.816h-7.008l-4.56,16.8h-.1l-4.224-16.8h-6.624L-91.776-7.968h-.1l-4.56-16.848h-7.2L-95.76,0H-88.7l4.224-16.656h.1L-79.968,0Zm13.776-34.272v7.392h3.168a6.16,6.16,0,0,1-.672,3,4.244,4.244,0,0,1-2.5,1.848v3.168a7.766,7.766,0,0,0,2.76-.888A7.808,7.808,0,0,0-54.24-21.5a7.733,7.733,0,0,0,1.416-2.448,7.956,7.956,0,0,0,.456-2.976v-7.344Zm16.8,26.208h-6.48a8.345,8.345,0,0,0,1.128,4.152A8.236,8.236,0,0,0-45.1-1.248,11.149,11.149,0,0,0-41.424.192,20.564,20.564,0,0,0-37.2.624,21.119,21.119,0,0,0-33.048.216,10.526,10.526,0,0,0-29.424-1.2a7.874,7.874,0,0,0,2.568-2.664,7.913,7.913,0,0,0,.984-4.1,5.776,5.776,0,0,0-.672-2.9A6.151,6.151,0,0,0-28.32-12.84a9.553,9.553,0,0,0-2.52-1.272,28.794,28.794,0,0,0-2.9-.816q-1.44-.336-2.832-.624a21.9,21.9,0,0,1-2.472-.648,5.18,5.18,0,0,1-1.752-.936,1.869,1.869,0,0,1-.672-1.488,1.839,1.839,0,0,1,.384-1.224,2.521,2.521,0,0,1,.936-.7,4.166,4.166,0,0,1,1.224-.312,11.766,11.766,0,0,1,1.248-.072,6.8,6.8,0,0,1,3.168.7,2.982,2.982,0,0,1,1.488,2.664h6.48a8.142,8.142,0,0,0-1.176-3.816,7.768,7.768,0,0,0-2.472-2.424,10.348,10.348,0,0,0-3.384-1.3,19.661,19.661,0,0,0-3.912-.384,21.313,21.313,0,0,0-3.936.36A10.838,10.838,0,0,0-44.88-23.88a6.9,6.9,0,0,0-2.472,2.424,7.466,7.466,0,0,0-.936,3.936,5.3,5.3,0,0,0,.672,2.76,5.835,5.835,0,0,0,1.776,1.872,9.924,9.924,0,0,0,2.52,1.2q1.416.456,2.9.792A40.738,40.738,0,0,1-34.728-9.36q2.04.768,2.04,2.3a2.522,2.522,0,0,1-.432,1.512,3.274,3.274,0,0,1-1.08.96,5.144,5.144,0,0,1-1.44.528,7.29,7.29,0,0,1-1.512.168,7.8,7.8,0,0,1-1.944-.24,5.042,5.042,0,0,1-1.656-.744,3.984,3.984,0,0,1-1.176-1.3A3.738,3.738,0,0,1-42.384-8.064Zm39.36-26.208V0h24.24V-6.336H4.512V-34.272Zm37.152,5.616v-5.616H27.312v5.616Zm-6.816,3.84V0h6.816V-24.816Zm16.08,4.56V0h6.816V-20.256h4.7v-4.56h-4.7V-26.3a3.184,3.184,0,0,1,.6-2.184,2.615,2.615,0,0,1,1.992-.648,20.947,20.947,0,0,1,2.5.144V-34.08q-.864-.048-1.776-.12T51.7-34.272q-4.176,0-6.24,2.112a7.435,7.435,0,0,0-2.064,5.424v1.92h-4.08v4.56Zm33.6,5.184H65.9a7.823,7.823,0,0,1,.312-1.632,5.011,5.011,0,0,1,.912-1.728A5.163,5.163,0,0,1,68.856-19.8a5.93,5.93,0,0,1,2.712-.552,4.787,4.787,0,0,1,3.72,1.344A7.878,7.878,0,0,1,76.992-15.072ZM65.9-10.752h17.9a17.52,17.52,0,0,0-.48-5.52,13.511,13.511,0,0,0-2.184-4.7,11.017,11.017,0,0,0-3.864-3.288,11.8,11.8,0,0,0-5.52-1.224A12.853,12.853,0,0,0,66.6-24.48a12.2,12.2,0,0,0-4.008,2.76A12.165,12.165,0,0,0,60-17.568a14.473,14.473,0,0,0-.912,5.184,15.11,15.11,0,0,0,.888,5.28A11.99,11.99,0,0,0,62.5-2.976,10.978,10.978,0,0,0,66.48-.312a14.174,14.174,0,0,0,5.28.936,13,13,0,0,0,7.2-1.92A11.39,11.39,0,0,0,83.376-7.68h-6A4.281,4.281,0,0,1,75.552-5.5,6.076,6.076,0,0,1,72-4.464a6.093,6.093,0,0,1-4.416-1.488Q66.048-7.44,65.9-10.752Zm40.8-23.52V0h7.056V-24.048h.1L122.256,0h5.808l8.4-24.288h.1V0h7.056V-34.272H133.008L125.424-10.7h-.1l-8.016-23.568ZM175.2,0V-24.816h-6.816v13.008q0,3.792-1.248,5.448A4.722,4.722,0,0,1,163.1-4.7,3.718,3.718,0,0,1,159.7-6.216a8.7,8.7,0,0,1-.96-4.584V-24.816H151.92V-9.552a20,20,0,0,0,.408,4.2,7.988,7.988,0,0,0,1.416,3.216A6.477,6.477,0,0,0,156.5-.1a11.922,11.922,0,0,0,4.488.72,9.917,9.917,0,0,0,4.224-.96,7.668,7.668,0,0,0,3.36-3.12h.144V0Zm12.864-8.064h-6.48a8.345,8.345,0,0,0,1.128,4.152,8.236,8.236,0,0,0,2.64,2.664,11.149,11.149,0,0,0,3.672,1.44,20.563,20.563,0,0,0,4.224.432A21.119,21.119,0,0,0,197.4.216,10.526,10.526,0,0,0,201.024-1.2a7.874,7.874,0,0,0,2.568-2.664,7.913,7.913,0,0,0,.984-4.1,5.776,5.776,0,0,0-.672-2.9,6.152,6.152,0,0,0-1.776-1.968,9.553,9.553,0,0,0-2.52-1.272,28.794,28.794,0,0,0-2.9-.816q-1.44-.336-2.832-.624A21.9,21.9,0,0,1,191.4-16.2a5.181,5.181,0,0,1-1.752-.936,1.869,1.869,0,0,1-.672-1.488,1.839,1.839,0,0,1,.384-1.224,2.521,2.521,0,0,1,.936-.7,4.166,4.166,0,0,1,1.224-.312,11.766,11.766,0,0,1,1.248-.072,6.8,6.8,0,0,1,3.168.7,2.982,2.982,0,0,1,1.488,2.664h6.48a8.142,8.142,0,0,0-1.176-3.816,7.768,7.768,0,0,0-2.472-2.424,10.347,10.347,0,0,0-3.384-1.3,19.661,19.661,0,0,0-3.912-.384,21.313,21.313,0,0,0-3.936.36,10.838,10.838,0,0,0-3.456,1.248,6.9,6.9,0,0,0-2.472,2.424,7.466,7.466,0,0,0-.936,3.936,5.3,5.3,0,0,0,.672,2.76,5.835,5.835,0,0,0,1.776,1.872,9.924,9.924,0,0,0,2.52,1.2q1.416.456,2.9.792A40.738,40.738,0,0,1,195.72-9.36q2.04.768,2.04,2.3a2.522,2.522,0,0,1-.432,1.512,3.274,3.274,0,0,1-1.08.96,5.144,5.144,0,0,1-1.44.528,7.29,7.29,0,0,1-1.512.168,7.8,7.8,0,0,1-1.944-.24,5.042,5.042,0,0,1-1.656-.744,3.984,3.984,0,0,1-1.176-1.3A3.738,3.738,0,0,1,188.064-8.064Zm39.6-7.008H216.576a7.823,7.823,0,0,1,.312-1.632,5.011,5.011,0,0,1,.912-1.728,5.163,5.163,0,0,1,1.728-1.368,5.93,5.93,0,0,1,2.712-.552,4.787,4.787,0,0,1,3.72,1.344A7.878,7.878,0,0,1,227.664-15.072Zm-11.088,4.32h17.9a17.519,17.519,0,0,0-.48-5.52,13.512,13.512,0,0,0-2.184-4.7,11.017,11.017,0,0,0-3.864-3.288,11.8,11.8,0,0,0-5.52-1.224,12.853,12.853,0,0,0-5.16,1.008,12.2,12.2,0,0,0-4.008,2.76,12.165,12.165,0,0,0-2.592,4.152,14.473,14.473,0,0,0-.912,5.184,15.11,15.11,0,0,0,.888,5.28,11.99,11.99,0,0,0,2.52,4.128,10.978,10.978,0,0,0,3.984,2.664,14.174,14.174,0,0,0,5.28.936,13,13,0,0,0,7.2-1.92,11.39,11.39,0,0,0,4.416-6.384h-6A4.281,4.281,0,0,1,226.224-5.5a6.076,6.076,0,0,1-3.552,1.032,6.093,6.093,0,0,1-4.416-1.488Q216.72-7.44,216.576-10.752ZM264.192,0V-24.816h-6.816v13.008q0,3.792-1.248,5.448A4.722,4.722,0,0,1,252.1-4.7a3.718,3.718,0,0,1-3.408-1.512,8.7,8.7,0,0,1-.96-4.584V-24.816h-6.816V-9.552a20,20,0,0,0,.408,4.2,7.988,7.988,0,0,0,1.416,3.216A6.477,6.477,0,0,0,245.5-.1a11.922,11.922,0,0,0,4.488.72,9.917,9.917,0,0,0,4.224-.96,7.668,7.668,0,0,0,3.36-3.12h.144V0Zm7.776-24.816V0h6.816V-14.4a7.015,7.015,0,0,1,.528-2.952,4.766,4.766,0,0,1,1.272-1.728,4.222,4.222,0,0,1,1.536-.816,5.108,5.108,0,0,1,1.272-.216,4.526,4.526,0,0,1,2.472.552,3.064,3.064,0,0,1,1.2,1.464,6.131,6.131,0,0,1,.408,1.992q.048,1.08.048,2.184V0h6.816V-13.824a15.456,15.456,0,0,1,.168-2.28,5.766,5.766,0,0,1,.672-2.016,4,4,0,0,1,1.392-1.44,4.36,4.36,0,0,1,2.328-.552,4.6,4.6,0,0,1,2.28.48,3.2,3.2,0,0,1,1.272,1.3,4.991,4.991,0,0,1,.528,1.92q.1,1.1.1,2.352V0h6.816V-16.608a11.192,11.192,0,0,0-.672-4.1,7.037,7.037,0,0,0-1.872-2.76,7.344,7.344,0,0,0-2.88-1.536,13.235,13.235,0,0,0-3.648-.48,7.976,7.976,0,0,0-4.488,1.248,10.564,10.564,0,0,0-3,2.88,6.036,6.036,0,0,0-2.952-3.216,9.989,9.989,0,0,0-4.3-.912,8.776,8.776,0,0,0-4.344,1.056,9.706,9.706,0,0,0-3.24,2.976h-.1v-3.36Z" transform="translate(3547.048 -382)" fill="#fff"/>
    <path id="パス_2287" data-name="パス 2287" d="M11.016-2.7c-2.844,0-4.752-2.484-5.184-7.74,1.584-2.268,3.384-3.1,4.932-3.1,2.844,0,4.356,1.908,4.356,5.328S13.32-2.7,11.016-2.7ZM18.54-24.156A8.9,8.9,0,0,0,11.916-27C6.7-27,1.908-22.932,1.908-12.744c0,9,4.1,13.212,9.144,13.212,4.32,0,7.92-3.42,7.92-8.676,0-5.616-2.988-8.352-7.452-8.352A7.966,7.966,0,0,0,5.76-13.5c.18-7.56,2.988-10.116,6.372-10.116a5.693,5.693,0,0,1,4.14,1.98ZM30.888-11.3a46.893,46.893,0,0,0,.324-5.328h15.48V-11.3Zm15.8-13.86v5.328H31.212v-5.328ZM50.22-28.4H27.792v11.3c0,5.652-.54,12.708-6.156,17.532A12.7,12.7,0,0,1,24.192,2.88,19.883,19.883,0,0,0,30.348-8.064H46.692v6.3c0,.756-.288,1.044-1.08,1.044-.864.036-3.744.072-6.552-.072A14.011,14.011,0,0,1,40.5,2.736c3.744,0,6.192-.072,7.7-.684,1.44-.54,2.016-1.584,2.016-3.744ZM78.3-18.036a59.717,59.717,0,0,0,9.612-7.74l-3.06-2.772a39.38,39.38,0,0,1-9.4,8.064A56.535,56.535,0,0,1,59.22-13.932l2.052,3.492A69.008,69.008,0,0,0,74.3-15.732V-2.916a41.716,41.716,0,0,1-.216,4.248h4.464A27.072,27.072,0,0,1,78.3-2.916Zm39.384-6.624-2.52,1.08a39.2,39.2,0,0,1,3.312,5.8l2.592-1.152C120.24-20.592,118.62-23.256,117.684-24.66Zm4.716-1.872-2.52,1.152a36.765,36.765,0,0,1,3.456,5.688l2.556-1.224A49.721,49.721,0,0,0,122.4-26.532ZM94.176-9.792l3.348,3.384c.576-.828,1.4-1.98,2.16-3.024,1.548-1.98,4.392-5.76,6.012-7.74,1.116-1.4,1.692-1.4,3.06-.252a96.361,96.361,0,0,1,6.876,7.236c2.232,2.592,5.508,6.408,7.92,9.5l2.988-3.24c-2.592-3.06-6.336-7.056-8.748-9.648a84.154,84.154,0,0,0-7.416-7.38c-2.736-2.3-4.428-2.052-6.444.324-2.376,2.808-5.364,6.588-7.02,8.28C95.868-11.34,95.148-10.62,94.176-9.792ZM136.908-26.82l-2.628,2.808a81.844,81.844,0,0,1,9,7.632l2.844-2.916A72.9,72.9,0,0,0,136.908-26.82ZM133.2-2.736,135.612.972A39.693,39.693,0,0,0,149.4-4.392a37.1,37.1,0,0,0,12.636-13.032l-2.2-3.924A34.276,34.276,0,0,1,147.348-7.776,37.406,37.406,0,0,1,133.2-2.736Zm62.172-10.008a124.229,124.229,0,0,0-15.228-5.76V-24.12c0-1.26.144-2.844.252-4.032h-4.428a26.06,26.06,0,0,1,.324,4.032V-3.312A37.685,37.685,0,0,1,176,1.3h4.428a42.178,42.178,0,0,1-.288-4.608V-14.436A95.973,95.973,0,0,1,193.752-8.82ZM213.948-26.28v2.412h-6.912V-26.28Zm-6.912,7.344v-2.628h6.912v2.628Zm10.044,2.448V-28.764H203.724V2.844h3.312V-16.488Zm-.864,8.172v-3.42H220.5v3.42Zm11.736,2.772V-8.316h-4.464v-3.42h3.744V-14.4h-17.46v2.664h3.564v3.42h-4.212v2.772h4.1a8.72,8.72,0,0,1-3.96,6.3,11.4,11.4,0,0,1,2.16,1.98,11.6,11.6,0,0,0,4.716-8.28H220.5V2.2h2.988v-7.74Zm-4.9-13.32v-2.7h7.128v2.7Zm7.128-7.416v2.412h-7.128V-26.28Zm3.312-2.484H219.852v12.348h10.332V-1.3c0,.54-.18.72-.72.756-.576,0-2.412,0-4.248-.036a10.808,10.808,0,0,1,1.08,3.312c2.7.036,4.5-.072,5.652-.612C233.136,1.548,233.5.576,233.5-1.26Zm12.24-1.3A40.013,40.013,0,0,1,237.2-16.2a26.05,26.05,0,0,1,1.836,3.384,41.782,41.782,0,0,0,3.1-3.744V2.772H245.3v-24.3a58.107,58.107,0,0,0,3.564-7.6Zm8.1,25.884h5.508v2.808h-5.508Zm5.508-7.74h-5.508v-2.7h5.508Zm0,5.256h-5.508V-9.432h5.508Zm11.52,5.292h-8.316V-4.176h6.876V-6.66h-6.876V-9.432h6.876v-2.484h-6.876v-2.7h7.92v-2.628h-7.74c.54-.972,1.044-2.088,1.548-3.132l-3.456-.792a26.216,26.216,0,0,1-1.3,3.924h-5.58a30.21,30.21,0,0,0,1.62-3.24l-3.024-.864h17.388V-28.8h-3.24v4.608h-5.436v-5.76H257.94v5.76h-5.112V-28.8h-3.06v7.452H252.4a24.543,24.543,0,0,1-6.8,9.288,22.565,22.565,0,0,1,2.52,2.3,22.5,22.5,0,0,0,2.52-2.664V2.736h3.2V1.3h17.028Zm21.312-10.548v-8.712h9.36v8.712Zm-12.816,0v-8.712h9.324v8.712ZM292.176-23.9v-6.264h-3.492V-23.9H276.012V-6.516h3.348V-8.64h9.324V2.808h3.492V-8.64h9.36V-6.7h3.492V-23.9Z" transform="translate(3233.092 -332.432)" fill="#fff"/>
  </g>
</svg>
