<svg xmlns="http://www.w3.org/2000/svg" width="10.137" height="9.98" viewBox="0 0 10.137 9.98">
  <g id="_イヤー_1-2" transform="translate(-0.86 -0.857)">
    <g id="Symbols">
      <g id="icon_mini_tel_ret">
        <g id="Group-3" transform="translate(0.857 0.857)">
          <g id="グループ_1" data-name="グループ 1">
            <path id="Fill-1" d="M3.59,0l.38.23L4.99,2.24l-.08.5-.71.7L6.65,5.85l.72-.71.49-.08,2.04,1,.24.38V9.45l-.32.41a3.336,3.336,0,0,1-.91.12,6.768,6.768,0,0,1-2.47-.56A10.825,10.825,0,0,1,.57,3.66,5.246,5.246,0,0,1,.12.31L.53,0ZM3.33.86H.88a4.945,4.945,0,0,0,.49,2.47A9.966,9.966,0,0,0,6.78,8.65a5.115,5.115,0,0,0,2.52.48V6.73L7.77,5.98l-.8.79h-.6L3.29,3.75V3.14l.8-.78L3.33.86Z" fill="#fff" fill-rule="evenodd"/>
          </g>
        </g>
      </g>
    </g>
  </g>
</svg>
