<svg xmlns="http://www.w3.org/2000/svg" width="280.001" height="42" viewBox="0 0 280.001 42">
  <g id="text" transform="translate(-592.174 -957.401)">
    <g id="長方形_35121" data-name="長方形 35121" transform="translate(592.174 959.401) rotate(-90)" fill="#253d3f" stroke="#253d3f" stroke-width="1">
      <rect width="2" height="280" stroke="none"/>
      <rect x="0.5" y="0.5" width="1" height="279" fill="none"/>
    </g>
    <g id="長方形_35122" data-name="長方形 35122" transform="translate(592.174 999.401) rotate(-90)" fill="#253d3f" stroke="#253d3f" stroke-width="1">
      <rect width="2" height="280" stroke="none"/>
      <rect x="0.5" y="0.5" width="1" height="279" fill="none"/>
    </g>
    <path id="パス_17310" data-name="パス 17310" d="M-80.576-4.8c-.288-.352-1.5-1.616-2.032-2.08v-.784H-80.9v-.688h9v-.976h-3.84v-.7h3.088v-.928H-75.74v-.688h3.472v-.96H-75.74v-.816h-1.488v.816H-80.5v.96h3.264v.688H-80.18v.928h2.944v.7H-81v.272h-1.616v-2.432a16.082,16.082,0,0,0,1.968-.592l-1.024-1.136A22.288,22.288,0,0,1-86.5-12.048a4.587,4.587,0,0,1,.432,1.152c.64-.08,1.328-.176,2.016-.3v2.144h-2.3V-7.66h2.192a16.4,16.4,0,0,1-2.608,4.78,8.076,8.076,0,0,1,.736,1.38,16.737,16.737,0,0,0,1.984-3.62V1.232h1.44V-5.36A17.409,17.409,0,0,1-81.44-3.632Zm6.432-1.04h-4.464V-6.7h4.464Zm0,1.792h-4.464v-.88h4.464Zm0,1.792h-4.464v-.88h4.464Zm1.392-5.408h-7.2V-1.3h1.7A10.958,10.958,0,0,1-81.728.368a7.615,7.615,0,0,1,.944.96,13.305,13.305,0,0,0,3.808-1.92l-1.1-.7h5.328ZM-75.744-.576c.976.608,2.1,1.376,2.72,1.856l1.3-.72c-.74-.5-1.976-1.248-3.028-1.86ZM-63.984-9.5l-.288.064h-4.384v1.5h3.84A10.721,10.721,0,0,1-69.1-1.376,6.014,6.014,0,0,1-67.888-.208c2.3-1.616,4.144-4.672,4.912-8.928ZM-56-10.9a27.768,27.768,0,0,1-3.536,3.78,21.911,21.911,0,0,1-1.232-3.44v-2.848h-1.568V-.752c0,.288-.128.4-.448.4-.3.016-1.328.016-2.416-.032a6.991,6.991,0,0,1,.576,1.648,8.819,8.819,0,0,0,3.04-.3c.576-.272.816-.736.816-1.712v-5.9A12.59,12.59,0,0,0-55.232.08,6.493,6.493,0,0,1-54.08-1.3,10.7,10.7,0,0,1-58.9-5.9a36.853,36.853,0,0,0,4.276-4.02Zm7.5,5.744A20.9,20.9,0,0,1-50.98-.772l1.744.736a22.884,22.884,0,0,0,2.352-4.48A36.5,36.5,0,0,0-45.46-9.428c.064-.352.208-.96.32-1.36l-1.808-.368a24.333,24.333,0,0,1-1.552,6Zm7.888-.5A46.673,46.673,0,0,1-38.864-.08l1.84-.592c-.448-1.52-1.3-4.016-1.9-5.536-.64-1.616-1.7-3.936-2.352-5.136l-1.648.544a42.687,42.687,0,0,1,2.316,5.152ZM-21.2-10.384a3.513,3.513,0,0,1-1.2.16h-3.232V-11.6a11.686,11.686,0,0,1,.1-1.328h-1.936A7.366,7.366,0,0,1-27.36-11.6v1.376h-3.488A15.2,15.2,0,0,1-32.4-10.3,11.909,11.909,0,0,1-32.336-9v2.8c0,.352-.032.816-.064,1.152h1.744A7.344,7.344,0,0,1-30.72-6.1V-8.736h8.512A11.1,11.1,0,0,1-23.68-4.32a8.227,8.227,0,0,1-4.032,3.008,10.045,10.045,0,0,1-1.92.528L-28.32.736A10.2,10.2,0,0,0-21.9-3.92a14.883,14.883,0,0,0,1.536-4.688A6.015,6.015,0,0,1-20.1-9.7Zm16.4-1.152a4.853,4.853,0,0,1-1.392.16h-5.936a17.119,17.119,0,0,1-1.744-.112V-9.68c.256-.016,1.12-.1,1.744-.1h5.872A13.164,13.164,0,0,1-8.8-5.552,17.978,17.978,0,0,1-15.376-.864L-14.08.48A20.477,20.477,0,0,0-7.92-4.112,34.608,34.608,0,0,1-3.7.56L-2.272-.688A42.528,42.528,0,0,0-6.848-5.376a21.9,21.9,0,0,0,2.624-4.56,5.523,5.523,0,0,1,.464-.832ZM10.5-2.224c-.016-.752-.048-2.016-.064-2.912,1.1-.512,2.128-.944,2.944-1.248.48-.192,1.168-.448,1.6-.576l-.624-1.472c-.512.256-.976.464-1.5.7C12.1-7.4,11.288-7.06,10.312-6.6a2.086,2.086,0,0,0-2.12-1.34,4.667,4.667,0,0,0-2.016.464,11.567,11.567,0,0,0,1.2-2.064,48.429,48.429,0,0,0,5.216-.432V-11.44a36.635,36.635,0,0,1-4.688.464c.224-.688.352-1.3.448-1.712L6.7-12.816a9.553,9.553,0,0,1-.368,1.9H5.408a23.238,23.238,0,0,1-2.72-.176V-9.6c.88.064,1.984.1,2.64.1h.464A16.5,16.5,0,0,1,2.208-4.88l1.36,1.024a17.04,17.04,0,0,1,1.456-1.7A4.025,4.025,0,0,1,7.648-6.688a1.234,1.234,0,0,1,1.28.784C7.1-4.976,5.2-3.744,5.2-1.792,5.2.176,7.04.72,9.408.72a40.31,40.31,0,0,0,4.4-.272l.048-1.616a26.682,26.682,0,0,1-4.4.416c-1.6,0-2.624-.208-2.624-1.3,0-.928.848-1.648,2.192-2.4,0,.784-.016,1.68-.064,2.224Zm11.76-11.12a17.936,17.936,0,0,1-3.392,6.16,9.329,9.329,0,0,1,.832,1.5c.4-.48.784-.992,1.184-1.568v8.48H22.3V-9.712a25.551,25.551,0,0,0,1.344-3.232ZM33.616-8.96v-1.408H29.04v-2.976H27.584v2.976H23.3V-8.96h3.5a16.2,16.2,0,0,1-4.208,6.64,5.5,5.5,0,0,1,1.056,1.136,18.054,18.054,0,0,0,3.936-6.544v4.816H25.2v1.344h2.384V1.168H29.04V-1.568h2.368V-2.912H29.04V-7.824a18.614,18.614,0,0,0,3.824,6.592A5.713,5.713,0,0,1,34-2.416,16.092,16.092,0,0,1,29.872-8.96ZM37.888.94a6.737,6.737,0,0,0,2.128-3.456L38.7-2.976A5.876,5.876,0,0,1,36.64.112ZM44.64-9.744H39.856v.992H44.64Zm-1.424,4.3H41.248V-6.8h1.968Zm1.232.96a5.581,5.581,0,0,1,.816.832A10.879,10.879,0,0,0,47.008-5.14a3.309,3.309,0,0,0,2.56,1.64c1.12,0,1.616-.544,1.84-2.64a4.126,4.126,0,0,1-1.152-.66c-.08,1.408-.24,1.952-.608,1.952-.56,0-1.168-.512-1.728-1.392a13.754,13.754,0,0,0,1.84-3.5l-1.408-.32a11.154,11.154,0,0,1-1.136,2.416,14.4,14.4,0,0,1-.88-3.024H50.96v-1.2H49.344l.5-.592a8.328,8.328,0,0,0-2.272-1.088l-.736.848a11.445,11.445,0,0,1,1.728.832h-2.42a15.233,15.233,0,0,1-.112-1.552H44.624c.016.528.064,1.04.128,1.552H38.016v2.384a8.544,8.544,0,0,1-1.488,5.456,5.315,5.315,0,0,1,1.088.912c1.472-1.792,1.76-4.464,1.76-6.352v-1.2h5.552A15.911,15.911,0,0,0,46.256-6.38a9.29,9.29,0,0,1-1.808,1.568v-3H40.032v3.376h4.416ZM42.064-3.5a9.816,9.816,0,0,1,2.544,1.936l1.04-.912a9.913,9.913,0,0,0-2.608-1.86Zm1.1,3.232c-.816,0-.944-.064-.944-.48V-3.024H40.752V-.736c0,1.392.448,1.792,2.272,1.792h2.864c1.408,0,1.84-.464,2.016-2.352a4.642,4.642,0,0,1-1.328-.544C46.512-.464,46.4-.272,45.744-.272Zm4.276-2.26a10.862,10.862,0,0,1,2.576,3.3l1.36-.7a11.1,11.1,0,0,0-2.72-3.232ZM59.84-5.3a1.422,1.422,0,0,1,.393-1.049,1.422,1.422,0,0,1,1.031-.439,1.294,1.294,0,0,1,1.232.736c.208,1.5-.4,2.16-1.216,2.16a1.378,1.378,0,0,1-1.026-.391A1.378,1.378,0,0,1,59.84-5.3Zm8.592-5.488H63.7c0-.32,0-.592.016-.784,0-.224.048-.944.08-1.152H61.968a11.256,11.256,0,0,1,.128,1.152c.016.176.016.464.032.8-2.256.032-5.2.128-6.992.144l.048,1.536c1.968-.128,4.56-.224,6.96-.256L62.16-8a3.084,3.084,0,0,0-.88-.112,2.869,2.869,0,0,0-2.08.8,2.869,2.869,0,0,0-.88,2.048,2.665,2.665,0,0,0,.747,1.951,2.665,2.665,0,0,0,1.925.813,2.665,2.665,0,0,0,1.1-.224c-.768,1.184-2.224,1.872-4.08,2.288L59.376.912c3.76-1.088,4.88-3.568,4.88-5.68A3.884,3.884,0,0,0,63.7-6.88c0-.7,0-1.632-.016-2.48,2.3,0,3.792.032,4.736.08ZM79.136-.72c-1.072,0-1.888-.432-1.888-1.12,0-.5.48-.88,1.136-.88A1.908,1.908,0,0,1,80.256-.784a8.283,8.283,0,0,1-1.12.064ZM82.48-12.192a5.6,5.6,0,0,1-1.008.16c-.864.08-4.448.176-5.28.176a11.41,11.41,0,0,1-1.264-.08l.048,1.648c.352-.048.768-.08,1.168-.112.832-.048,3.536-.16,4.368-.192-.8.688-2.624,2.208-3.5,2.944-.928.768-2.912,2.432-4.144,3.44l1.168,1.184c1.872-1.984,3.376-3.168,5.9-3.168,1.936,0,3.44,1.056,3.44,2.544a2.588,2.588,0,0,1-1.664,2.48,3.167,3.167,0,0,0-3.328-2.784A2.447,2.447,0,0,0,75.76-1.7c0,1.428,1.472,2.42,3.664,2.42,3.552,0,5.584-1.808,5.584-4.352,0-2.208-1.968-3.84-4.624-3.84a5.9,5.9,0,0,0-1.872.272c1.12-.928,3.04-2.608,3.856-3.184.288-.208.656-.448.976-.656Z" transform="translate(731.174 985.401)" fill="#0f0f0f"/>
    <g id="パス_17305" data-name="パス 17305" transform="translate(592.174 999.303) rotate(-90)">
      <path id="パス_17361" data-name="パス 17361" d="M41.3,35.01,1.344.5H41.3Z" fill="#253d3f"/>
      <path id="パス_17362" data-name="パス 17362" d="M2.688,1,40.8,33.917V1H2.688M0,0H41.8V36.1Z" fill="#8b7736"/>
    </g>
    <g id="パス_17306" data-name="パス 17306" transform="translate(872.175 957.5) rotate(90)">
      <path id="パス_17363" data-name="パス 17363" d="M41.3,35.01,1.344.5H41.3Z" fill="#253d3f"/>
      <path id="パス_17364" data-name="パス 17364" d="M2.688,1,40.8,33.917V1H2.688M0,0H41.8V36.1Z" fill="#253d3f"/>
    </g>
  </g>
</svg>
