<svg xmlns="http://www.w3.org/2000/svg" width="196.26" height="53.566" viewBox="0 0 196.26 53.566">
  <g id="text" transform="translate(-700.105 -984.5)">
    <path id="パス_17303" data-name="パス 17303" d="M-91.035.39c4.83,0,7.77-2.88,7.77-6.42,0-3.24-1.89-4.86-4.5-5.97l-3.03-1.29c-1.8-.72-3.57-1.44-3.57-3.33,0-1.77,1.47-2.85,3.72-2.85a7.033,7.033,0,0,1,4.86,1.98l1.83-2.22a9.458,9.458,0,0,0-6.69-2.79c-4.2,0-7.26,2.61-7.26,6.09,0,3.21,2.37,4.89,4.5,5.79l3.06,1.32c2.04.9,3.54,1.53,3.54,3.54,0,1.86-1.5,3.12-4.17,3.12a8.56,8.56,0,0,1-5.88-2.61l-2.04,2.4A11.016,11.016,0,0,0-91.035.39ZM-76.095,0h3.48V-10.05h9.45V0h3.48V-22.08h-3.48v9h-9.45v-9h-3.48Zm33.6.39c5.67,0,9.63-4.41,9.63-11.52s-3.96-11.37-9.63-11.37-9.6,4.26-9.6,11.37S-48.165.39-42.495.39Zm0-3.03c-3.66,0-6.03-3.3-6.03-8.49s2.37-8.34,6.03-8.34,6.06,3.15,6.06,8.34S-38.835-2.64-42.495-2.64ZM-23.175,0h4.2l2.91-12.27c.36-1.74.72-3.39,1.02-5.07h.15c.3,1.68.63,3.33,1.02,5.07L-10.9,0h4.29l4.35-22.08h-3.33l-2.1,11.49c-.36,2.31-.75,4.68-1.11,7.08h-.15c-.51-2.4-.99-4.77-1.5-7.08l-2.88-11.49h-3.06l-2.85,11.49c-.51,2.34-1.02,4.71-1.5,7.08h-.12l-1.17-7.08L-24.1-22.08h-3.6ZM7.845-19.29h3.33c3.21,0,4.95.93,4.95,3.6s-1.74,3.99-4.95,3.99H7.845ZM20.355,0l-5.4-9.36a6.147,6.147,0,0,0,4.62-6.33c0-4.77-3.42-6.39-7.98-6.39H4.365V0h3.48V-8.91h3.57L16.425,0Zm15.06.39c5.67,0,9.63-4.41,9.63-11.52s-3.96-11.37-9.63-11.37-9.6,4.26-9.6,11.37S29.745.39,35.415.39Zm0-3.03c-3.66,0-6.03-3.3-6.03-8.49s2.37-8.34,6.03-8.34,6.06,3.15,6.06,8.34S39.075-2.64,35.415-2.64ZM61.035.39c5.67,0,9.63-4.41,9.63-11.52s-3.96-11.37-9.63-11.37-9.6,4.26-9.6,11.37S55.365.39,61.035.39Zm0-3.03c-3.66,0-6.03-3.3-6.03-8.49s2.37-8.34,6.03-8.34,6.06,3.15,6.06,8.34S64.7-2.64,61.035-2.64ZM78.255,0h3.12V-10.92c0-1.98-.27-4.83-.42-6.84h.12l1.74,5.1,3.87,10.53h2.16l3.84-10.53,1.77-5.1h.12c-.18,2.01-.45,4.86-.45,6.84V0h3.24V-22.08h-4.02l-3.99,11.16c-.51,1.47-.93,2.97-1.44,4.47h-.15c-.51-1.5-.96-3-1.47-4.47l-4.05-11.16h-3.99Z" transform="translate(799 1007)" fill="#0f0f0f"/>
    <path id="パス_17302" data-name="パス 17302" d="M-10-2.8a14.313,14.313,0,0,1-1.729,1.183,5.037,5.037,0,0,1-.91-1.183Zm-4.5-2.145h2.314v1.131h-2.314Zm0-2.067h2.314v1.04h-2.314Zm-3.276-2.275h7.358v1.235h-7.358ZM-9.932-2.8h1.456V-3.809H-11.05V-4.94h2.041V-5.967H-11.05v-1.04H-9.2v-3.315H-18.98v3.8c0,2.067-.1,4.94-1.391,6.942A5.1,5.1,0,0,1-19.3,1.04c1.352-2.106,1.534-5.343,1.534-7.566v-.481H-15.6v1.04h-1.807V-4.94H-15.6v1.131h-2.184V-2.8h1.508v2.34c-.52.078-1,.143-1.417.2l.182,1.1C-16.159.637-14.326.338-12.6.052L-12.636-1c-.858.13-1.716.273-2.522.39V-2.8h1.378A6.659,6.659,0,0,0-9.048,1.04,3.839,3.839,0,0,1-8.333.052,7.438,7.438,0,0,1-10.972-1,14.658,14.658,0,0,0-9.061-2.2ZM4.537-10H-4.537v1.2H4.537ZM-3.614-4.576A9.546,9.546,0,0,1-6.045-.871a9.727,9.727,0,0,1,1.118.728A12.9,12.9,0,0,0-2.353-4.238Zm5.9.468A15.725,15.725,0,0,1,4.433-.117L5.668-.663A16.891,16.891,0,0,0,3.419-4.589ZM-5.694-6.89v1.2h5.07V-.481c0,.195-.078.247-.325.26s-1.118,0-1.924-.026a5.883,5.883,0,0,1,.429,1.274A7.841,7.841,0,0,0,0,.806C.52.624.689.26.689-.455V-5.694H5.707v-1.2ZM18.252-8.84h-3.8v-.845h3.8Zm0,1.677h-3.8v-.858h3.8Zm1.118-3.393H13.364v4.264H19.37ZM12.246-4.173c-.4.182-.806.364-1.2.546v-3.38h1.313V-8.151H11.05v-2.626H9.932v2.626H8.5v1.144h1.43v3.874c-.637.273-1.222.52-1.69.7L8.71-1.222c1.092-.52,2.5-1.222,3.8-1.885Zm8.034-.468V-5.668H12.155v1.027h1.664a6.979,6.979,0,0,1-2.457,2.392,6.55,6.55,0,0,1,.819.754,8.826,8.826,0,0,0,1.6-1.391h1.092A8.414,8.414,0,0,1,12.064-.221a3.354,3.354,0,0,1,.806.728,9.99,9.99,0,0,0,3.094-3.393h1.027A7.54,7.54,0,0,1,14.521.39a3.88,3.88,0,0,1,.871.676,8.984,8.984,0,0,0,2.613-3.952h.78c-.156,1.833-.325,2.574-.52,2.8-.1.13-.208.143-.4.143A8.688,8.688,0,0,1,16.848,0a2.388,2.388,0,0,1,.273.975,10.236,10.236,0,0,0,1.3-.013A1.131,1.131,0,0,0,19.2.6c.351-.39.546-1.4.754-4,.013-.156.026-.455.026-.455H14.547a5.985,5.985,0,0,0,.481-.78Z" transform="translate(800 1037)" fill="#0f0f0f"/>
  </g>
</svg>
