<svg xmlns="http://www.w3.org/2000/svg" width="370" height="66" viewBox="0 0 370 66">
  <g id="text" transform="translate(-615 -957.5)">
    <g id="長方形_35121" data-name="長方形 35121" transform="translate(615 960.5) rotate(-90)" fill="#8b7736" stroke="#8b7736" stroke-width="1">
      <rect width="3" height="370" stroke="none"/>
      <rect x="0.5" y="0.5" width="2" height="369" fill="none"/>
    </g>
    <g id="長方形_35122" data-name="長方形 35122" transform="translate(615 1023.5) rotate(-90)" fill="#8b7736" stroke="#8b7736" stroke-width="1">
      <rect width="3" height="370" stroke="none"/>
      <rect x="0.5" y="0.5" width="2" height="369" fill="none"/>
    </g>
    <path id="パス_17308" data-name="パス 17308" d="M-102.336-7.8c-.468-.572-2.444-2.626-3.3-3.38v-1.274h2.782v-1.118h14.612v-1.586h-6.24V-16.3h5.018V-17.81h-5.018v-1.118h5.642v-1.56h-5.642v-1.326H-96.9v1.326h-5.3v1.56h5.3v1.118h-4.784V-16.3H-96.9v1.144h-6.11v.442h-2.626v-3.952a26.135,26.135,0,0,0,3.2-.962l-1.664-1.846a36.218,36.218,0,0,1-7.852,1.9,7.453,7.453,0,0,1,.7,1.872c1.04-.13,2.158-.286,3.276-.494v3.484h-3.744v2.262h3.562A26.642,26.642,0,0,1-112.4-4.68a13.124,13.124,0,0,1,1.2,2.236,27.2,27.2,0,0,0,3.224-5.876V2h2.34V-8.71a28.288,28.288,0,0,1,1.9,2.808Zm10.452-1.69h-7.254v-1.4h7.254Zm0,2.912h-7.254v-1.43h7.254Zm0,2.912h-7.254V-5.1h7.254Zm2.262-8.788h-11.7V-2.106h2.756A17.808,17.808,0,0,1-104.208.6a12.374,12.374,0,0,1,1.534,1.56,21.621,21.621,0,0,0,6.188-3.12L-98.28-2.106h8.658ZM-94.484-.936C-92.9.052-91.078,1.3-90.064,2.08L-87.958.91c-1.2-.806-3.2-2.028-4.914-3.016Zm19.11-14.508-.468.1h-7.124V-12.9h6.24c-1.222,4.862-3.744,8.58-6.968,10.66a9.772,9.772,0,0,1,1.976,1.9c3.744-2.626,6.734-7.592,7.982-14.508ZM-62.4-17.706a45.122,45.122,0,0,1-5.746,6.136,35.6,35.6,0,0,1-2-5.59v-4.628H-72.7V-1.222c0,.468-.208.65-.728.65-.494.026-2.158.026-3.926-.052a11.36,11.36,0,0,1,.936,2.678,14.33,14.33,0,0,0,4.94-.494c.936-.442,1.326-1.2,1.326-2.782v-9.594c1.976,4.836,4.836,8.762,9,10.946A10.552,10.552,0,0,1-59.28-2.106a17.4,17.4,0,0,1-7.826-7.488,59.888,59.888,0,0,0,6.942-6.526Zm12.194,9.334a33.969,33.969,0,0,1-4.03,7.124l2.834,1.2a37.188,37.188,0,0,0,3.822-7.28,59.319,59.319,0,0,0,2.314-7.982c.1-.572.338-1.56.52-2.21l-2.938-.6A39.541,39.541,0,0,1-50.206-8.372Zm12.818-.806A75.843,75.843,0,0,1-34.554-.13l2.99-.962c-.728-2.47-2.106-6.526-3.094-9-1.04-2.626-2.756-6.4-3.822-8.346l-2.678.884A69.369,69.369,0,0,1-37.388-9.178Zm31.538-7.7a5.708,5.708,0,0,1-1.95.26h-5.252V-18.85a18.99,18.99,0,0,1,.156-2.158h-3.146a11.97,11.97,0,0,1,.182,2.158v2.236h-5.668a24.705,24.705,0,0,1-2.522-.13,19.354,19.354,0,0,1,.1,2.106v4.55c0,.572-.052,1.326-.1,1.872h2.834a11.934,11.934,0,0,1-.1-1.716V-14.2H-7.488A18.039,18.039,0,0,1-9.88-7.02a13.369,13.369,0,0,1-6.552,4.888,16.323,16.323,0,0,1-3.12.858L-17.42,1.2C-12.74-.078-9-2.756-6.994-6.37a24.184,24.184,0,0,0,2.5-7.618,9.774,9.774,0,0,1,.442-1.768ZM20.8-18.746a7.886,7.886,0,0,1-2.262.26H8.892a27.818,27.818,0,0,1-2.834-.182v2.938c.416-.026,1.82-.156,2.834-.156h9.542A21.391,21.391,0,0,1,14.3-9.022,29.215,29.215,0,0,1,3.614-1.4L5.72.78A33.275,33.275,0,0,0,15.73-6.682,56.238,56.238,0,0,1,22.594.91l2.314-2.028a69.107,69.107,0,0,0-7.436-7.618,35.586,35.586,0,0,0,4.264-7.41A8.974,8.974,0,0,1,22.49-17.5ZM45.656-3.614c-.026-1.222-.078-3.276-.1-4.732,1.794-.832,3.458-1.534,4.784-2.028.78-.312,1.9-.728,2.6-.936L51.922-13.7c-.832.416-1.586.754-2.444,1.144-1.222.546-2.548,1.092-4.134,1.846A3.389,3.389,0,0,0,41.912-12.9a7.584,7.584,0,0,0-3.276.754,18.8,18.8,0,0,0,1.95-3.354,78.7,78.7,0,0,0,8.476-.7V-18.59a59.53,59.53,0,0,1-7.618.754c.364-1.118.572-2.106.728-2.782l-2.678-.208a15.524,15.524,0,0,1-.6,3.094H37.388a37.762,37.762,0,0,1-4.42-.286V-15.6c1.43.1,3.224.156,4.29.156h.754A26.812,26.812,0,0,1,32.188-7.93L34.4-6.266a27.69,27.69,0,0,1,2.366-2.756,6.541,6.541,0,0,1,4.264-1.846,2.006,2.006,0,0,1,2.08,1.274c-2.964,1.508-6.058,3.51-6.058,6.682,0,3.2,2.99,4.082,6.838,4.082a65.5,65.5,0,0,0,7.15-.442L51.116-1.9a43.357,43.357,0,0,1-7.15.676c-2.6,0-4.264-.338-4.264-2.106,0-1.508,1.378-2.678,3.562-3.9,0,1.274-.026,2.73-.1,3.614ZM71.838-9.23v-2.288h-4.6v-4.654H71.11v-2.262h-7.1c.26-.936.494-1.924.7-2.912L62.4-21.788c-.6,3.042-1.612,6.084-3.094,7.982a14.124,14.124,0,0,1,1.976,1.4,18.9,18.9,0,0,0,1.924-3.77h1.586v4.654H59.7V-9.23h4.94A12.679,12.679,0,0,1,59.384.156,9.645,9.645,0,0,1,61.1,2a14,14,0,0,0,5.148-7.28A59.4,59.4,0,0,1,70.226-.156l1.664-2.08c-.754-.858-3.744-4.238-5.044-5.512.1-.494.156-.988.234-1.482Zm3.094,6.318V-17.29h4.732V-2.912Zm-2.34-16.666V1.3h2.34V-.65h4.732V1.014h2.444V-19.578ZM100-1.17c-1.742,0-3.068-.7-3.068-1.82,0-.806.78-1.43,1.846-1.43,1.716,0,2.834,1.248,3.042,3.146A13.459,13.459,0,0,1,100-1.17Zm5.434-18.642a9.1,9.1,0,0,1-1.638.26c-1.4.13-7.228.286-8.58.286a18.541,18.541,0,0,1-2.054-.13l.078,2.678c.572-.078,1.248-.13,1.9-.182,1.352-.078,5.746-.26,7.1-.312-1.3,1.118-4.264,3.588-5.694,4.784C95.03-11.18,91.806-8.476,89.8-6.838l1.9,1.924c3.042-3.224,5.486-5.148,9.594-5.148,3.146,0,5.59,1.716,5.59,4.134a4.205,4.205,0,0,1-2.7,4.03,5.146,5.146,0,0,0-5.408-4.524A3.977,3.977,0,0,0,94.51-2.756c0,2.314,2.392,3.926,5.954,3.926,5.772,0,9.074-2.938,9.074-7.072,0-3.588-3.2-6.24-7.514-6.24a9.582,9.582,0,0,0-3.042.442c1.82-1.508,4.94-4.238,6.266-5.174.468-.338,1.066-.728,1.586-1.066Z" transform="translate(800 1001.5)" fill="#0f0f0f"/>
    <g id="パス_17305" data-name="パス 17305" transform="translate(615 1023.5) rotate(-90)" fill="#8b7736">
      <path d="M 65.5 55.90752792358398 L 1.343916296958923 0.5 L 65.5 0.5 L 65.5 55.90752792358398 Z" stroke="none"/>
      <path d="M 2.687831878662109 1 L 65 54.8150520324707 L 65 1 L 2.687831878662109 1 M 0 0 L 66 0 L 66 57 L 0 0 Z" stroke="none" fill="#8b7736"/>
    </g>
    <g id="パス_17306" data-name="パス 17306" transform="translate(985 957.5) rotate(90)" fill="#8b7736">
      <path d="M 65.5 55.90752792358398 L 1.343916296958923 0.5 L 65.5 0.5 L 65.5 55.90752792358398 Z" stroke="none"/>
      <path d="M 2.687831878662109 1 L 65 54.8150520324707 L 65 1 L 2.687831878662109 1 M 0 0 L 66 0 L 66 57 L 0 0 Z" stroke="none" fill="#8b7736"/>
    </g>
  </g>
</svg>
