<svg xmlns="http://www.w3.org/2000/svg" width="427" height="66" viewBox="0 0 427 66">
  <g id="text" transform="translate(-586.5 -957.5)">
    <g id="長方形_35121" data-name="長方形 35121" transform="translate(586.5 960.5) rotate(-90)" fill="#1c3e40" stroke="#1c3e40" stroke-width="1">
      <rect width="3" height="427" stroke="none"/>
      <rect x="0.5" y="0.5" width="2" height="426" fill="none"/>
    </g>
    <g id="長方形_35122" data-name="長方形 35122" transform="translate(586.5 1023.5) rotate(-90)" fill="#1c3e40" stroke="#1c3e40" stroke-width="1">
      <rect width="3" height="427" stroke="none"/>
      <rect x="0.5" y="0.5" width="2" height="426" fill="none"/>
    </g>
    <path id="パス_17311" data-name="パス 17311" d="M-130.936-7.8c-.468-.572-2.444-2.626-3.3-3.38v-1.274h2.782v-1.118h14.612v-1.586h-6.24V-16.3h5.018v-1.51h-5.018v-1.118h5.642v-1.56h-5.642v-1.326H-125.5v1.326h-5.3v1.56h5.3v1.118h-4.784v1.51h4.784v1.144h-6.11v.442h-2.626v-3.952a26.135,26.135,0,0,0,3.2-.962l-1.664-1.846a36.218,36.218,0,0,1-7.852,1.9,7.453,7.453,0,0,1,.7,1.872c1.04-.13,2.158-.286,3.276-.494v3.484h-3.744v2.262h3.562A26.643,26.643,0,0,1-141-4.68a13.124,13.124,0,0,1,1.2,2.236,27.2,27.2,0,0,0,3.224-5.876V2h2.34V-8.71a28.29,28.29,0,0,1,1.9,2.808Zm10.452-1.69h-7.254v-1.4h7.254Zm0,2.912h-7.254v-1.43h7.254Zm0,2.912h-7.254V-5.1h7.254Zm2.262-8.788h-11.7V-2.106h2.756A17.808,17.808,0,0,1-132.808.6a12.374,12.374,0,0,1,1.534,1.56,21.621,21.621,0,0,0,6.188-3.12L-126.88-2.1h8.658ZM-123.084-.936c1.586.988,3.406,2.236,4.42,3.016l2.106-1.17c-1.2-.806-3.2-2.028-4.914-3.016Zm19.11-14.508-.468.1h-7.124V-12.9h6.24c-1.222,4.862-3.744,8.58-6.968,10.66a9.772,9.772,0,0,1,1.976,1.9c3.744-2.626,6.734-7.592,7.982-14.508ZM-91-17.706a45.122,45.122,0,0,1-5.746,6.136,35.6,35.6,0,0,1-2-5.59v-4.628H-101.3V-1.222c0,.468-.208.65-.728.65-.494.026-2.158.026-3.926-.052a11.359,11.359,0,0,1,.936,2.678,14.33,14.33,0,0,0,4.94-.494c.936-.442,1.326-1.2,1.326-2.782v-9.594c1.976,4.836,4.836,8.762,9,10.946A10.552,10.552,0,0,1-87.88-2.106a17.4,17.4,0,0,1-7.826-7.488,59.888,59.888,0,0,0,6.942-6.526Zm12.194,9.334a33.969,33.969,0,0,1-4.03,7.124L-80-.052a37.188,37.188,0,0,0,3.822-7.28,59.318,59.318,0,0,0,2.314-7.982c.1-.572.338-1.56.52-2.21l-2.938-.6a39.541,39.541,0,0,1-2.524,9.752Zm12.818-.806A75.842,75.842,0,0,1-63.154-.13l2.99-.962c-.728-2.47-2.106-6.526-3.094-9a91.392,91.392,0,0,0-3.822-8.346l-2.678.884a69.369,69.369,0,0,1,3.77,8.376Zm31.538-7.7a5.708,5.708,0,0,1-1.95.26h-5.252V-18.85a18.991,18.991,0,0,1,.156-2.158h-3.146a11.971,11.971,0,0,1,.182,2.158v2.236h-5.668a24.705,24.705,0,0,1-2.522-.13,19.355,19.355,0,0,1,.1,2.106v4.55c0,.572-.052,1.326-.1,1.872h2.834a11.934,11.934,0,0,1-.1-1.716V-14.2h13.832a18.039,18.039,0,0,1-2.4,7.18,13.369,13.369,0,0,1-6.552,4.888,16.323,16.323,0,0,1-3.12.858L-46.02,1.2c4.68-1.278,8.42-3.956,10.426-7.57a24.184,24.184,0,0,0,2.5-7.618,9.773,9.773,0,0,1,.442-1.768ZM-7.8-18.746a7.886,7.886,0,0,1-2.262.26h-9.646a27.816,27.816,0,0,1-2.834-.182v2.938c.416-.026,1.82-.156,2.834-.156h9.542A21.391,21.391,0,0,1-14.3-9.022,29.215,29.215,0,0,1-24.986-1.4L-22.88.78A33.275,33.275,0,0,0-12.87-6.682,56.238,56.238,0,0,1-6.006.91l2.314-2.028a69.107,69.107,0,0,0-7.436-7.618,35.586,35.586,0,0,0,4.264-7.41A8.974,8.974,0,0,1-6.11-17.5ZM17.056-3.614c-.026-1.222-.078-3.276-.1-4.732,1.794-.832,3.458-1.534,4.784-2.028.78-.312,1.9-.728,2.6-.936L23.322-13.7c-.832.416-1.586.754-2.444,1.144-1.222.546-2.548,1.092-4.134,1.846a3.389,3.389,0,0,0-3.432-2.19,7.584,7.584,0,0,0-3.276.754,18.8,18.8,0,0,0,1.95-3.354,78.7,78.7,0,0,0,8.476-.7v-2.39a59.531,59.531,0,0,1-7.618.754c.364-1.118.572-2.106.728-2.782l-2.678-.208a15.524,15.524,0,0,1-.6,3.094H8.788a37.761,37.761,0,0,1-4.42-.286V-15.6c1.43.1,3.224.156,4.29.156h.754A26.812,26.812,0,0,1,3.588-7.93L5.8-6.266A27.69,27.69,0,0,1,8.164-9.022a6.541,6.541,0,0,1,4.264-1.846,2.006,2.006,0,0,1,2.08,1.274C11.544-8.086,8.45-6.084,8.45-2.912c0,3.2,2.99,4.082,6.838,4.082a65.5,65.5,0,0,0,7.15-.442L22.516-1.9a43.357,43.357,0,0,1-7.15.676c-2.6,0-4.264-.338-4.264-2.106,0-1.508,1.378-2.678,3.562-3.9,0,1.274-.026,2.73-.1,3.614Zm19.11-18.07a29.145,29.145,0,0,1-5.512,10.01A15.16,15.16,0,0,1,32.006-9.23c.65-.78,1.274-1.612,1.924-2.548V2h2.314V-15.782a41.52,41.52,0,0,0,2.184-5.252Zm18.46,7.124v-2.288H47.19v-4.836H44.824v4.836H37.856v2.288H43.55c-1.534,4.264-4.082,8.5-6.838,10.79a8.934,8.934,0,0,1,1.716,1.846,29.337,29.337,0,0,0,6.4-10.634v7.826H40.95v2.184h3.874V1.9H47.19V-2.548h3.848V-4.732H47.19v-7.982C48.724-8.476,50.96-4.42,53.4-2a9.283,9.283,0,0,1,1.85-1.926c-2.678-2.262-5.226-6.448-6.708-10.634ZM61.568,1.534a10.948,10.948,0,0,0,3.458-5.616l-2.132-.754A9.548,9.548,0,0,1,59.54.182ZM72.54-15.834H64.766v1.612H72.54ZM70.226-8.84h-3.2v-2.21h3.2Zm2,1.56a9.069,9.069,0,0,1,1.326,1.352,17.678,17.678,0,0,0,2.834-2.418c1.2,1.664,2.626,2.652,4.16,2.652,1.82,0,2.626-.884,2.99-4.29a6.7,6.7,0,0,1-1.872-1.066c-.13,2.288-.39,3.172-.988,3.172-.91,0-1.9-.832-2.808-2.262a22.351,22.351,0,0,0,2.99-5.694l-2.288-.52a18.126,18.126,0,0,1-1.846,3.926,23.406,23.406,0,0,1-1.43-4.914H82.81v-1.95H80.184l.806-.962a13.533,13.533,0,0,0-3.69-1.768l-1.2,1.378a18.6,18.6,0,0,1,2.808,1.352H74.984c-.1-.832-.156-1.664-.182-2.522H72.514c.026.858.1,1.69.208,2.522H61.776v3.874c0,2.626-.26,6.24-2.418,8.866A8.637,8.637,0,0,1,61.126-5.07c2.392-2.912,2.86-7.254,2.86-10.322v-1.95h9.022a25.855,25.855,0,0,0,2.158,6.968,15.1,15.1,0,0,1-2.938,2.548v-4.862H65.052V-7.2h7.176ZM68.354-5.694a15.95,15.95,0,0,1,4.134,3.146l1.69-1.482A16.109,16.109,0,0,0,69.94-7.046ZM70.148-.442c-1.326,0-1.534-.1-1.534-.78V-4.914H66.222V-1.2c0,2.262.728,2.912,3.692,2.912h4.654c2.288,0,2.99-.754,3.276-3.822a7.542,7.542,0,0,1-2.158-.884c-.1,2.236-.286,2.548-1.352,2.548ZM77.09-4.108a17.65,17.65,0,0,1,4.186,5.356L83.486.1a18.029,18.029,0,0,0-4.42-5.252Zm20.15-4.5a2.31,2.31,0,0,1,.639-1.705,2.31,2.31,0,0,1,1.675-.713,2.1,2.1,0,0,1,2,1.2c.338,2.444-.65,3.51-1.976,3.51a2.239,2.239,0,0,1-1.666-.637,2.239,2.239,0,0,1-.672-1.653Zm13.96-8.916h-7.7c0-.52,0-.962.026-1.274,0-.364.078-1.534.13-1.872H100.7c.078.364.156,1.222.208,1.872.026.286.026.754.052,1.3-3.666.052-8.45.208-11.362.234l.078,2.5c3.2-.208,7.41-.364,11.31-.416L101.01-13a5.011,5.011,0,0,0-1.43-.182,4.662,4.662,0,0,0-3.38,1.3,4.662,4.662,0,0,0-1.43,3.328,4.33,4.33,0,0,0,1.211,3.177,4.33,4.33,0,0,0,3.131,1.323,4.331,4.331,0,0,0,1.794-.364C99.658-2.5,97.292-1.378,94.276-.7l2.21,2.184c6.11-1.768,7.93-5.8,7.93-9.23a6.312,6.312,0,0,0-.91-3.432c0-1.144,0-2.652-.026-4.03,3.744,0,6.162.052,7.7.13ZM128.6-1.17c-1.742,0-3.068-.7-3.068-1.82,0-.806.78-1.43,1.846-1.43,1.716,0,2.834,1.248,3.042,3.146a13.459,13.459,0,0,1-1.82.1Zm5.434-18.642a9.1,9.1,0,0,1-1.638.26c-1.4.13-7.228.286-8.58.286a18.54,18.54,0,0,1-2.054-.13l.078,2.678c.572-.078,1.248-.13,1.9-.182,1.352-.078,5.746-.26,7.1-.312-1.3,1.118-4.264,3.588-5.694,4.784-1.508,1.248-4.732,3.952-6.734,5.59l1.9,1.924c3.042-3.224,5.486-5.148,9.594-5.148,3.146,0,5.59,1.716,5.59,4.134a4.205,4.205,0,0,1-2.7,4.03,5.146,5.146,0,0,0-5.408-4.524,3.977,3.977,0,0,0-4.264,3.666c0,2.314,2.392,3.926,5.954,3.926,5.772,0,9.074-2.938,9.074-7.072,0-3.588-3.2-6.24-7.514-6.24a9.582,9.582,0,0,0-3.042.442c1.82-1.508,4.94-4.238,6.266-5.174.468-.338,1.066-.728,1.586-1.066Z" transform="translate(800 1001.5)" fill="#0f0f0f"/>
    <g id="パス_17305" data-name="パス 17305" transform="translate(586.5 1023.5) rotate(-90)">
      <path id="パス_17355" data-name="パス 17355" d="M65.5,55.908,1.344.5H65.5Z" fill="#1c3e40"/>
      <path id="パス_17356" data-name="パス 17356" d="M2.688,1,65,54.815V1H2.688M0,0H66V57Z" fill="#1c3e40"/>
    </g>
    <g id="パス_17306" data-name="パス 17306" transform="translate(1013.5 957.5) rotate(90)">
      <path id="パス_17357" data-name="パス 17357" d="M65.5,55.908,1.344.5H65.5Z" fill="#1c3e40"/>
      <path id="パス_17358" data-name="パス 17358" d="M2.688,1,65,54.815V1H2.688M0,0H66V57Z" fill="#1c3e40"/>
    </g>
  </g>
</svg>
