<svg xmlns="http://www.w3.org/2000/svg" width="143.924" height="39.566" viewBox="0 0 143.924 39.566">
  <g id="text" transform="translate(-726.477 -1005.5)">
    <path id="パス_17303" data-name="パス 17303" d="M-66.759.286c3.542,0,5.7-2.112,5.7-4.708,0-2.376-1.386-3.564-3.3-4.378l-2.222-.946C-67.9-10.274-69.2-10.8-69.2-12.188c0-1.3,1.078-2.09,2.728-2.09a5.157,5.157,0,0,1,3.564,1.452l1.342-1.628A6.936,6.936,0,0,0-66.473-16.5c-3.08,0-5.324,1.914-5.324,4.466,0,2.354,1.738,3.586,3.3,4.246l2.244.968c1.5.66,2.6,1.122,2.6,2.6,0,1.364-1.1,2.288-3.058,2.288A6.278,6.278,0,0,1-71.027-3.85l-1.5,1.76A8.078,8.078,0,0,0-66.759.286ZM-55.8,0h2.552V-7.37h6.93V0h2.552V-16.192h-2.552v6.6h-6.93v-6.6H-55.8Zm24.64.286c4.158,0,7.062-3.234,7.062-8.448s-2.9-8.338-7.062-8.338-7.04,3.124-7.04,8.338S-35.321.286-31.163.286Zm0-2.222c-2.684,0-4.422-2.42-4.422-6.226s1.738-6.116,4.422-6.116,4.444,2.31,4.444,6.116S-28.479-1.936-31.163-1.936ZM-16.995,0h3.08l2.134-9c.264-1.276.528-2.486.748-3.718h.11c.22,1.232.462,2.442.748,3.718L-8,0h3.146l3.19-16.192H-4.1l-1.54,8.426c-.264,1.694-.55,3.432-.814,5.192h-.11c-.374-1.76-.726-3.5-1.1-5.192l-2.112-8.426h-2.244l-2.09,8.426c-.374,1.716-.748,3.454-1.1,5.192H-15.3l-.858-5.192-1.518-8.426h-2.64ZM5.753-14.146H8.2c2.354,0,3.63.682,3.63,2.64S10.549-8.58,8.2-8.58H5.753ZM14.927,0l-3.96-6.864a4.508,4.508,0,0,0,3.388-4.642c0-3.5-2.508-4.686-5.852-4.686H3.2V0H5.753V-6.534H8.371L12.045,0ZM25.971.286c4.158,0,7.062-3.234,7.062-8.448s-2.9-8.338-7.062-8.338-7.04,3.124-7.04,8.338S21.813.286,25.971.286Zm0-2.222c-2.684,0-4.422-2.42-4.422-6.226s1.738-6.116,4.422-6.116,4.444,2.31,4.444,6.116S28.655-1.936,25.971-1.936ZM44.759.286c4.158,0,7.062-3.234,7.062-8.448s-2.9-8.338-7.062-8.338-7.04,3.124-7.04,8.338S40.6.286,44.759.286Zm0-2.222c-2.684,0-4.422-2.42-4.422-6.226s1.738-6.116,4.422-6.116S49.2-11.968,49.2-8.162,47.443-1.936,44.759-1.936ZM57.387,0h2.288V-8.008c0-1.452-.2-3.542-.308-5.016h.088l1.276,3.74,2.838,7.722h1.584l2.816-7.722,1.3-3.74h.088c-.132,1.474-.33,3.564-.33,5.016V0H71.4V-16.192H68.453L65.527-8.008c-.374,1.078-.682,2.178-1.056,3.278h-.11c-.374-1.1-.7-2.2-1.078-3.278l-2.97-8.184H57.387Z" transform="translate(799 1022)" fill="#0f0f0f"/>
    <path id="パス_17302" data-name="パス 17302" d="M-10-2.8a14.313,14.313,0,0,1-1.729,1.183,5.037,5.037,0,0,1-.91-1.183Zm-4.5-2.145h2.314v1.131h-2.314Zm0-2.067h2.314v1.04h-2.314Zm-3.276-2.275h7.358v1.235h-7.358ZM-9.932-2.8h1.456V-3.809H-11.05V-4.94h2.041V-5.967H-11.05v-1.04H-9.2v-3.315H-18.98v3.8c0,2.067-.1,4.94-1.391,6.942A5.1,5.1,0,0,1-19.3,1.04c1.352-2.106,1.534-5.343,1.534-7.566v-.481H-15.6v1.04h-1.807V-4.94H-15.6v1.131h-2.184V-2.8h1.508v2.34c-.52.078-1,.143-1.417.2l.182,1.1C-16.159.637-14.326.338-12.6.052L-12.636-1c-.858.13-1.716.273-2.522.39V-2.8h1.378A6.659,6.659,0,0,0-9.048,1.04,3.839,3.839,0,0,1-8.333.052,7.438,7.438,0,0,1-10.972-1,14.658,14.658,0,0,0-9.061-2.2ZM4.537-10H-4.537v1.2H4.537ZM-3.614-4.576A9.546,9.546,0,0,1-6.045-.871a9.727,9.727,0,0,1,1.118.728A12.9,12.9,0,0,0-2.353-4.238Zm5.9.468A15.725,15.725,0,0,1,4.433-.117L5.668-.663A16.891,16.891,0,0,0,3.419-4.589ZM-5.694-6.89v1.2h5.07V-.481c0,.195-.078.247-.325.26s-1.118,0-1.924-.026a5.883,5.883,0,0,1,.429,1.274A7.841,7.841,0,0,0,0,.806C.52.624.689.26.689-.455V-5.694H5.707v-1.2ZM18.252-8.84h-3.8v-.845h3.8Zm0,1.677h-3.8v-.858h3.8Zm1.118-3.393H13.364v4.264H19.37ZM12.246-4.173c-.4.182-.806.364-1.2.546v-3.38h1.313V-8.151H11.05v-2.626H9.932v2.626H8.5v1.144h1.43v3.874c-.637.273-1.222.52-1.69.7L8.71-1.222c1.092-.52,2.5-1.222,3.8-1.885Zm8.034-.468V-5.668H12.155v1.027h1.664a6.979,6.979,0,0,1-2.457,2.392,6.55,6.55,0,0,1,.819.754,8.826,8.826,0,0,0,1.6-1.391h1.092A8.414,8.414,0,0,1,12.064-.221a3.354,3.354,0,0,1,.806.728,9.99,9.99,0,0,0,3.094-3.393h1.027A7.54,7.54,0,0,1,14.521.39a3.88,3.88,0,0,1,.871.676,8.984,8.984,0,0,0,2.613-3.952h.78c-.156,1.833-.325,2.574-.52,2.8-.1.13-.208.143-.4.143A8.688,8.688,0,0,1,16.848,0a2.388,2.388,0,0,1,.273.975,10.236,10.236,0,0,0,1.3-.013A1.131,1.131,0,0,0,19.2.6c.351-.39.546-1.4.754-4,.013-.156.026-.455.026-.455H14.547a5.985,5.985,0,0,0,.481-.78Z" transform="translate(800 1044)" fill="#0f0f0f"/>
  </g>
</svg>
