<svg xmlns="http://www.w3.org/2000/svg" width="234.349" height="42" viewBox="0 0 234.349 42">
  <g id="text" transform="translate(-615 -957.401)">
    <g id="長方形_35121" data-name="長方形 35121" transform="translate(615.174 959.401) rotate(-90)" fill="#8b7736" stroke="#8b7736" stroke-width="1">
      <rect width="2" height="234" stroke="none"/>
      <rect x="0.5" y="0.5" width="1" height="233" fill="none"/>
    </g>
    <g id="長方形_35122" data-name="長方形 35122" transform="translate(615.174 999.401) rotate(-90)" fill="#8b7736" stroke="#8b7736" stroke-width="1">
      <rect width="2" height="234" stroke="none"/>
      <rect x="0.5" y="0.5" width="1" height="233" fill="none"/>
    </g>
    <path id="パス_17309" data-name="パス 17309" d="M-62.976-4.8c-.288-.352-1.5-1.616-2.032-2.08v-.784H-63.3v-.688H-54.3v-.976h-3.84v-.7h3.088v-.928h-3.088v-.688h3.472v-.96h-3.472v-.816h-1.488v.816H-62.9v.96h3.264v.688h-2.944v.928h2.944v.7h-3.76v.272h-1.616v-2.432a16.083,16.083,0,0,0,1.968-.592l-1.024-1.136A22.288,22.288,0,0,1-68.9-12.048a4.587,4.587,0,0,1,.432,1.152c.64-.08,1.328-.176,2.016-.3v2.144h-2.3v1.392h2.192A16.4,16.4,0,0,1-69.168-2.88,8.076,8.076,0,0,1-68.432-1.5,16.737,16.737,0,0,0-66.448-5.12V1.232h1.44V-5.36A17.409,17.409,0,0,1-63.84-3.632Zm6.432-1.04h-4.464V-6.7h4.464Zm0,1.792h-4.464v-.88h4.464Zm0,1.792h-4.464v-.88h4.464Zm1.392-5.408h-7.2V-1.3h1.7A10.958,10.958,0,0,1-64.128.368a7.615,7.615,0,0,1,.944.96,13.305,13.305,0,0,0,3.808-1.92l-1.1-.7h5.328ZM-58.144-.576c.976.608,2.1,1.376,2.72,1.856l1.3-.72C-54.864.064-56.1-.688-57.152-1.3ZM-46.384-9.5l-.288.064h-4.384v1.5h3.84A10.721,10.721,0,0,1-51.5-1.376,6.014,6.014,0,0,1-50.288-.208c2.3-1.616,4.144-4.672,4.912-8.928ZM-38.4-10.9A27.767,27.767,0,0,1-41.936-7.12a21.911,21.911,0,0,1-1.232-3.44v-2.848h-1.568V-.752c0,.288-.128.4-.448.4-.3.016-1.328.016-2.416-.032a6.991,6.991,0,0,1,.576,1.648,8.819,8.819,0,0,0,3.04-.3c.576-.272.816-.736.816-1.712v-5.9A12.59,12.59,0,0,0-37.632.08,6.493,6.493,0,0,1-36.48-1.3,10.705,10.705,0,0,1-41.3-5.9,36.854,36.854,0,0,0-37.024-9.92Zm7.5,5.744a20.9,20.9,0,0,1-2.48,4.384l1.744.736a22.885,22.885,0,0,0,2.352-4.48,36.5,36.5,0,0,0,1.424-4.912c.064-.352.208-.96.32-1.36l-1.808-.368A24.333,24.333,0,0,1-30.9-5.152Zm7.888-.5A46.673,46.673,0,0,1-21.264-.08l1.84-.592c-.448-1.52-1.3-4.016-1.9-5.536-.64-1.616-1.7-3.936-2.352-5.136l-1.648.544A42.688,42.688,0,0,1-23.008-5.648ZM-3.6-10.384a3.513,3.513,0,0,1-1.2.16H-8.032V-11.6a11.686,11.686,0,0,1,.1-1.328H-9.872A7.366,7.366,0,0,1-9.76-11.6v1.376h-3.488A15.2,15.2,0,0,1-14.8-10.3a11.91,11.91,0,0,1,.064,1.3v2.8c0,.352-.032.816-.064,1.152h1.744a7.344,7.344,0,0,1-.064-1.056V-8.736h8.512A11.1,11.1,0,0,1-6.08-4.32a8.227,8.227,0,0,1-4.032,3.008,10.045,10.045,0,0,1-1.92.528L-10.72.736A10.2,10.2,0,0,0-4.3-3.92,14.883,14.883,0,0,0-2.768-8.608,6.015,6.015,0,0,1-2.5-9.7Zm16.4-1.152a4.853,4.853,0,0,1-1.392.16H5.472a17.119,17.119,0,0,1-1.744-.112V-9.68c.256-.016,1.12-.1,1.744-.1h5.872A13.164,13.164,0,0,1,8.8-5.552,17.978,17.978,0,0,1,2.224-.864L3.52.48A20.477,20.477,0,0,0,9.68-4.112,34.608,34.608,0,0,1,13.9.56L15.328-.688a42.528,42.528,0,0,0-4.576-4.688,21.9,21.9,0,0,0,2.624-4.56,5.523,5.523,0,0,1,.464-.832ZM28.1-2.224c-.016-.752-.048-2.016-.064-2.912,1.1-.512,2.128-.944,2.944-1.248.48-.192,1.168-.448,1.6-.576l-.624-1.472c-.512.256-.976.464-1.5.7-.752.336-1.568.672-2.544,1.136a2.086,2.086,0,0,0-2.112-1.344,4.667,4.667,0,0,0-2.016.464,11.567,11.567,0,0,0,1.2-2.064,48.428,48.428,0,0,0,5.216-.432V-11.44a36.634,36.634,0,0,1-4.688.464c.224-.688.352-1.3.448-1.712L24.3-12.816a9.553,9.553,0,0,1-.368,1.9h-.928a23.238,23.238,0,0,1-2.72-.176V-9.6c.88.064,1.984.1,2.64.1h.464A16.5,16.5,0,0,1,19.808-4.88l1.36,1.024a17.04,17.04,0,0,1,1.456-1.7,4.025,4.025,0,0,1,2.624-1.136,1.234,1.234,0,0,1,1.28.784C24.7-4.976,22.8-3.744,22.8-1.792,22.8.176,24.64.72,27.008.72a40.309,40.309,0,0,0,4.4-.272l.048-1.616a26.681,26.681,0,0,1-4.4.416c-1.6,0-2.624-.208-2.624-1.3,0-.928.848-1.648,2.192-2.4,0,.784-.016,1.68-.064,2.224ZM44.208-5.68V-7.088H41.376V-9.952H43.76v-1.392H39.392c.16-.576.3-1.184.432-1.792L38.4-13.408A12.238,12.238,0,0,1,36.5-8.5a8.692,8.692,0,0,1,1.216.864A11.629,11.629,0,0,0,38.9-9.952h.976v2.864H36.736V-5.68h3.04A7.8,7.8,0,0,1,36.544.1,5.936,5.936,0,0,1,37.6,1.232a8.613,8.613,0,0,0,3.168-4.48A36.554,36.554,0,0,1,43.216-.1l1.024-1.28c-.464-.528-2.3-2.608-3.1-3.392.064-.3.1-.608.144-.912Zm1.9,3.888V-10.64h2.912v8.848Zm-1.44-10.256V.8h1.44V-.4h2.912V.624h1.5V-12.048ZM61.536-.72c-1.072,0-1.888-.432-1.888-1.12,0-.5.48-.88,1.136-.88A1.908,1.908,0,0,1,62.656-.784,8.283,8.283,0,0,1,61.536-.72ZM64.88-12.192a5.6,5.6,0,0,1-1.008.16c-.864.08-4.448.176-5.28.176a11.41,11.41,0,0,1-1.264-.08l.048,1.648c.352-.048.768-.08,1.168-.112.832-.048,3.536-.16,4.368-.192-.8.688-2.624,2.208-3.5,2.944-.928.768-2.912,2.432-4.144,3.44l1.168,1.184c1.872-1.984,3.376-3.168,5.9-3.168,1.936,0,3.44,1.056,3.44,2.544a2.588,2.588,0,0,1-1.664,2.48,3.167,3.167,0,0,0-3.328-2.784A2.447,2.447,0,0,0,58.16-1.7C58.16-.272,59.632.72,61.824.72c3.552,0,5.584-1.808,5.584-4.352,0-2.208-1.968-3.84-4.624-3.84a5.9,5.9,0,0,0-1.872.272c1.12-.928,3.04-2.608,3.856-3.184.288-.208.656-.448.976-.656Z" transform="translate(730.174 985.401)" fill="#0f0f0f"/>
    <g id="パス_17305" data-name="パス 17305" transform="translate(615 999.303) rotate(-90)" fill="#8b7736">
      <path d="M 41.30273818969727 35.0098876953125 L 1.343913674354553 0.4999998807907104 L 41.30273818969727 0.4999998807907104 L 41.30273818969727 35.0098876953125 Z" stroke="none"/>
      <path d="M 2.687831878662109 1 L 40.80273818969727 33.91741180419922 L 40.80273818969727 1 L 2.687831878662109 1 M -3.814697265625e-06 0 L 41.80273818969727 0 L 41.80273818969727 36.10235977172852 L -3.814697265625e-06 0 Z" stroke="none" fill="#8b7736"/>
    </g>
    <g id="パス_17306" data-name="パス 17306" transform="translate(849.349 957.5) rotate(90)" fill="#8b7736">
      <path d="M 41.30273818969727 35.0098876953125 L 1.343913674354553 0.4999998807907104 L 41.30273818969727 0.4999998807907104 L 41.30273818969727 35.0098876953125 Z" stroke="none"/>
      <path d="M 2.687831878662109 1 L 40.80273818969727 33.91741180419922 L 40.80273818969727 1 L 2.687831878662109 1 M -3.814697265625e-06 0 L 41.80273818969727 0 L 41.80273818969727 36.10235977172852 L -3.814697265625e-06 0 Z" stroke="none" fill="#8b7736"/>
    </g>
  </g>
</svg>
